<svg xmlns="http://www.w3.org/2000/svg" width="70" height="70" viewBox="0 0 70 70">
  <g id="Grupo_1107988" data-name="Grupo 1107988" transform="translate(-187.051 -375)">
    <circle id="Elipse_11493" data-name="Elipse 11493" cx="35" cy="35" r="35" transform="translate(187.051 375)" fill="#f1c112"/>
    <g id="dieta" transform="translate(192.051 356.363)">
      <rect id="Rectángulo_401632" data-name="Rectángulo 401632" width="5.998" height="3.663" transform="translate(7.939 33.027)" fill="#48c1e1"/>
      <path id="Trazado_897414" data-name="Trazado 897414" d="M64.626,39.035a.6.6,0,0,1-.6.6H56.751a.6.6,0,0,1-.6-.6v-4.3a.6.6,0,0,1,.6-.6H64.03a.6.6,0,0,1,.6.6v4.3Z" transform="translate(-49.452 -6.605)" fill="#046699"/>
      <g id="Grupo_1107983" data-name="Grupo 1107983" transform="translate(6.702 27.532)" opacity="0.1">
        <path id="Trazado_897415" data-name="Trazado 897415" d="M58.643,39.035v-4.3a.6.6,0,0,1,.6-.6H56.751a.6.6,0,0,0-.6.6v4.3a.6.6,0,0,0,.6.6h2.489A.6.6,0,0,1,58.643,39.035Z" transform="translate(-56.154 -34.137)"/>
      </g>
      <path id="Trazado_897416" data-name="Trazado 897416" d="M34.037,139.387a.636.636,0,0,1-.09-.313c0-.794,1.631-1.438,3.642-1.438a8.139,8.139,0,0,1,1.94.222,21.619,21.619,0,0,1-.644-5.267.6.6,0,0,1,.6-.6h1.044a3.9,3.9,0,0,1-.023-.417,3.836,3.836,0,0,1,2.676-3.659,3.618,3.618,0,0,1,1.751-4.85,3.578,3.578,0,0,1-.158-.6,3.619,3.619,0,0,1,1.308-3.446V114.2a3.336,3.336,0,0,0-3.322-3.33H35.119A3.336,3.336,0,0,0,31.8,114.2v26.524A8.816,8.816,0,0,1,34.037,139.387Z" transform="translate(-28.002 -74.18)" fill="#a2dff9"/>
      <path id="Trazado_897417" data-name="Trazado 897417" d="M43.182,172.669a3.618,3.618,0,0,1,1.751-4.85,3.578,3.578,0,0,1-.158-.6,3.62,3.62,0,0,1,1.308-3.446v-2.088H31.8v12.326h9.484A3.832,3.832,0,0,1,43.182,172.669Z" transform="translate(-28.002 -118.934)" fill="#046699"/>
      <path id="Trazado_897418" data-name="Trazado 897418" d="M34.037,139.387a.636.636,0,0,1-.09-.313c0-.491.623-.924,1.573-1.183V114.2a3.336,3.336,0,0,1,3.322-3.33H35.119A3.336,3.336,0,0,0,31.8,114.2v26.524A8.816,8.816,0,0,1,34.037,139.387Z" transform="translate(-28.002 -74.18)" opacity="0.1"/>
      <path id="Trazado_897419" data-name="Trazado 897419" d="M239.5,141.031a3.629,3.629,0,0,1,.053.615,3.617,3.617,0,0,1,3.188,2.716,3.807,3.807,0,0,1,2.243-1.01,6.492,6.492,0,0,1,1.894-4.38c.043-.043.087-.085.132-.127a7.978,7.978,0,0,0-2.216-4.276.624.624,0,0,0-.884,0l-5,5.015A3.6,3.6,0,0,1,239.5,141.031Z" transform="translate(-210.396 -94.89)" fill="#ef5050"/>
      <path id="Trazado_897420" data-name="Trazado 897420" d="M290.2,163.145a3.829,3.829,0,0,1,3.677,2.774,3.287,3.287,0,0,1,.352.229,3.274,3.274,0,0,1,2.9-1.464c.085-.077.17-.156.252-.238l.069-.072a3.843,3.843,0,0,1,1.15-1.626,6.5,6.5,0,0,0,.22-5.292.205.205,0,0,0-.116-.116,6.481,6.481,0,0,0-8.868,5.822C289.956,163.152,290.077,163.145,290.2,163.145Z" transform="translate(-255.246 -114.7)" fill="#89c947"/>
      <g id="Grupo_1107984" data-name="Grupo 1107984" transform="translate(12.503 47.166)">
        <path id="Trazado_897421" data-name="Trazado 897421" d="M357.3,204.89a5.938,5.938,0,0,1,2.9-1.6,3.826,3.826,0,0,0-7.437-1.8,3.262,3.262,0,0,1,2.883,3.241,3.252,3.252,0,0,1,1.382.449C357.12,205.083,357.209,204.985,357.3,204.89Z" transform="translate(-323.171 -198.658)" fill="#ffc502"/>
        <path id="Trazado_897422" data-name="Trazado 897422" d="M107.445,253.7a3.836,3.836,0,0,0-2.676,3.659,3.9,3.9,0,0,0,.023.417h5.449a5.972,5.972,0,0,1-.712-2.219A3.623,3.623,0,0,1,107.445,253.7Z" transform="translate(-104.769 -247.132)" fill="#ffc502"/>
      </g>
      <path id="Trazado_897423" data-name="Trazado 897423" d="M395.28,236.763a.188.188,0,0,0-.042-.064.191.191,0,0,0-.064-.042,5.936,5.936,0,0,0-6.4,1.324c-.095.1-.185.194-.272.294a3.258,3.258,0,0,1,1.322,4.118h4.8A5.97,5.97,0,0,0,395.28,236.763Z" transform="translate(-342.133 -184.583)" fill="#89c947"/>
      <path id="Trazado_897424" data-name="Trazado 897424" d="M107.445,253.7a3.836,3.836,0,0,0-2.676,3.659,3.9,3.9,0,0,0,.023.417h5.449a5.972,5.972,0,0,1-.712-2.219A3.623,3.623,0,0,1,107.445,253.7Z" transform="translate(-92.266 -199.966)" fill="#ffc502"/>
      <g id="Grupo_1107985" data-name="Grupo 1107985" transform="translate(14.824 43.143)">
        <path id="Trazado_897425" data-name="Trazado 897425" d="M127.036,174.51a.186.186,0,0,1,.042-.064.19.19,0,0,1,.064-.042,5.944,5.944,0,0,1,6.963,1.97,8.027,8.027,0,0,1-.149-1.535.626.626,0,0,1,.625-.626h5.94c0-.042,0-.085,0-.128a3.828,3.828,0,0,1,1.221-2.808,3.617,3.617,0,0,0-3.188-2.716,3.622,3.622,0,0,0-6.644-1.988,3.625,3.625,0,0,0-5.743,3.519,3.574,3.574,0,0,0,.158.6,3.617,3.617,0,0,0,.333,6.706A5.966,5.966,0,0,1,127.036,174.51Z" transform="translate(-124.215 -164.946)" fill="#368c0e"/>
        <path id="Trazado_897426" data-name="Trazado 897426" d="M332.974,228.185a3.267,3.267,0,0,0-2.932-2.695,3.271,3.271,0,0,0-6-1.8,3.287,3.287,0,0,0-.352-.229,3.848,3.848,0,0,1,.15,1.061c0,.043,0,.085,0,.128H325a.626.626,0,0,1,.625.626,7.988,7.988,0,0,1-1.578,4.776h8.7A3.252,3.252,0,0,0,332.974,228.185Z" transform="translate(-299.883 -215.391)" fill="#368c0e"/>
      </g>
      <path id="Trazado_897427" data-name="Trazado 897427" d="M268.463,213.335c0-.042,0-.085,0-.128a3.827,3.827,0,1,0-7.653,0c0,.043,0,.085,0,.128Z" transform="translate(-229.687 -160.927)" fill="#f7931e"/>
      <path id="Trazado_897428" data-name="Trazado 897428" d="M151.808,243.039a5.944,5.944,0,0,0-6.963-1.97.191.191,0,0,0-.106.106,5.972,5.972,0,0,0,.331,5.1h7.914c-.008-.143-.022-.285-.04-.426A7.982,7.982,0,0,1,151.808,243.039Z" transform="translate(-127.094 -188.469)" fill="#89c947"/>
      <path id="Trazado_897429" data-name="Trazado 897429" d="M220.256,247.982a7.988,7.988,0,0,0,1.578-4.776.626.626,0,0,0-.625-.626h-14.75a.625.625,0,0,0-.625.626,7.988,7.988,0,0,0,1.578,4.776Z" transform="translate(-181.269 -190.172)" fill="#ef5050"/>
      <path id="Trazado_897430" data-name="Trazado 897430" d="M92.878,294.1a6.458,6.458,0,0,1,2.98-.612c2.011,0,3.642.644,3.642,1.438a.634.634,0,0,1-.09.313,8.1,8.1,0,0,1,5.066,6.252l18.288-6.947a3.214,3.214,0,0,1,4.3,2.409l.159.86,6.254-3.692a21.569,21.569,0,0,0,.75-5.678.6.6,0,0,0-.6-.6H91.794a.6.6,0,0,0-.6.6,21.619,21.619,0,0,0,.644,5.267A4.26,4.26,0,0,1,92.878,294.1Z" transform="translate(-80.312 -230.038)" fill="#fff"/>
      <g id="Grupo_1107986" data-name="Grupo 1107986" transform="translate(10.883 57.81)" opacity="0.1">
        <path id="Trazado_897431" data-name="Trazado 897431" d="M92.878,294.1a6.127,6.127,0,0,1,2.629-.6,21.644,21.644,0,0,1-.59-5.052.6.6,0,0,1,.6-.6H91.794a.6.6,0,0,0-.6.6,21.619,21.619,0,0,0,.644,5.267A4.259,4.259,0,0,1,92.878,294.1Z" transform="translate(-91.195 -287.848)"/>
      </g>
      <path id="Trazado_897432" data-name="Trazado 897432" d="M21.751,362.486l-.031-.166a3.2,3.2,0,0,1,2.015-3.57l7.036-2.673a8.1,8.1,0,0,0-5.066-6.252,3.489,3.489,0,0,1-2.515,1.065c.922.737,1.343,1.512.968,1.936-.5.561-2.2.295-3.812-.6a7.286,7.286,0,0,1-1.172-.8,7.263,7.263,0,0,1-1.171.8c-1.608.89-3.315,1.157-3.812.6-.375-.424.046-1.2.968-1.936a3.49,3.49,0,0,1-2.515-1.065,7.991,7.991,0,0,0-5.14,7.292c0,4.412,3.89,7.989,8.689,7.989h5.965a9.479,9.479,0,0,0,1.751-.162A3.2,3.2,0,0,1,21.751,362.486Z" transform="translate(-6.607 -284.618)" fill="#ef5050"/>
      <path id="Trazado_897433" data-name="Trazado 897433" d="M126.272,355.806a3.209,3.209,0,0,0,3.161,2.619l27.1-.01a3.2,3.2,0,0,0,3.158-3.78l-1.811-9.776a3.214,3.214,0,0,0-4.3-2.409l-25.324,9.62a3.2,3.2,0,0,0-2.015,3.57Z" transform="translate(-111.128 -277.937)" fill="#f7931e"/>
      <path id="Trazado_897434" data-name="Trazado 897434" d="M11.259,357.117a7.766,7.766,0,0,1,3.361-6.308,2.948,2.948,0,0,1-1.98-.984,7.991,7.991,0,0,0-5.14,7.292c0,4.412,3.89,7.989,8.689,7.989h3.759C15.15,365.106,11.259,361.529,11.259,357.117Z" transform="translate(-6.605 -284.618)" opacity="0.1"/>
      <path id="Trazado_897435" data-name="Trazado 897435" d="M63.06,336.589c0-.794-1.63-1.438-3.642-1.438a6.458,6.458,0,0,0-2.98.612,6.455,6.455,0,0,0-2.979-.612c-2.011,0-3.642.644-3.642,1.438,0,.652,1.1,1.2,2.6,1.379-.921.737-1.343,1.512-.968,1.936.5.561,2.2.295,3.812-.6a7.258,7.258,0,0,0,1.171-.8,7.292,7.292,0,0,0,1.172.8c1.608.89,3.315,1.157,3.812.6.375-.424-.046-1.2-.968-1.936C61.962,337.791,63.06,337.241,63.06,336.589Z" transform="translate(-43.873 -271.695)" fill="#368c0e"/>
      <path id="Trazado_897436" data-name="Trazado 897436" d="M406.4,340.822l-.233-1.259a.8.8,0,0,0-.936-.642l-9,1.654,5.75-3.843a.8.8,0,0,0,.252-1.056l-.651-1.152a.805.805,0,0,0-1.11-.3l-7.347,4.337,1.434,7.744,8.427,1.514a.8.8,0,0,0,.937-.67l.194-1.3a.8.8,0,0,0-.614-.9l-6.748-1.548,9-1.654A.8.8,0,0,0,406.4,340.822Z" transform="translate(-346.203 -270.784)" fill="#89c947"/>
      <g id="Grupo_1107987" data-name="Grupo 1107987" transform="translate(15.06 75.82)" opacity="0.1">
        <path id="Trazado_897437" data-name="Trazado 897437" d="M159.535,438.754a3.208,3.208,0,0,1-3,2.048l-27.1.01a3.212,3.212,0,0,1-2.984-2.015,3.177,3.177,0,0,0-.208,1.838l.031.166a3.209,3.209,0,0,0,3.161,2.619l27.1-.01a3.2,3.2,0,0,0,3.158-3.78Z" transform="translate(-126.191 -438.754)"/>
      </g>
      <path id="Trazado_897438" data-name="Trazado 897438" d="M158.282,194.928h.016a.9.9,0,0,0,.895-.88.994.994,0,0,1,1.012-.978.983.983,0,0,1,.717.323.9.9,0,1,0,1.322-1.207,2.786,2.786,0,0,0-4.841,1.832A.9.9,0,0,0,158.282,194.928Z" transform="translate(-138.617 -144.994)"/>
      <path id="Trazado_897439" data-name="Trazado 897439" d="M198.178,213.1a.894.894,0,0,0,1.15-.528.77.77,0,0,1,.986-.453.756.756,0,0,1,.438.418.9.9,0,0,0,1.648-.7,2.557,2.557,0,0,0-4.75.113A.9.9,0,0,0,198.178,213.1Z" transform="translate(-174.012 -161.729)"/>
      <path id="Trazado_897440" data-name="Trazado 897440" d="M267.234,157.329a.892.892,0,0,0,.634-.263l.844-.845a.9.9,0,1,0-1.267-1.264l-.844.845a.9.9,0,0,0,.633,1.527Z" transform="translate(-234.553 -112.774)"/>
      <path id="Trazado_897441" data-name="Trazado 897441" d="M224.137,253.709h-1.193a.9.9,0,1,0,0,1.79h1.193a.9.9,0,1,0,0-1.79Z" transform="translate(-195.549 -199.973)"/>
      <path id="Trazado_897442" data-name="Trazado 897442" d="M299.587,255.5h1.193a.9.9,0,0,0,0-1.79h-1.193a.9.9,0,0,0,0,1.79Z" transform="translate(-263.045 -199.973)"/>
      <path id="Trazado_897443" data-name="Trazado 897443" d="M61.075,69.875l-.233-1.258a1.7,1.7,0,0,0-1.977-1.359l-4.745.872,2.149-1.437a1.691,1.691,0,0,0,.534-2.241l-.65-1.152a1.693,1.693,0,0,0-1.7-.848,22.641,22.641,0,0,0,.363-4.042,1.5,1.5,0,0,0-.89-1.366,6.864,6.864,0,0,0,.055-5.194,1.086,1.086,0,0,0-.607-.609,6.809,6.809,0,0,0-2.53-.486q-.167,0-.332.008a4.719,4.719,0,0,0-5.685-4.391,7.375,7.375,0,0,0-.417-3.939,1.1,1.1,0,0,0-.619-.624,7.357,7.357,0,0,0-6.649.61,8.852,8.852,0,0,0-2.107-3.372,1.519,1.519,0,0,0-2.151,0l-4.334,4.344a4.5,4.5,0,0,0-3-1.143A4.527,4.527,0,0,0,22.313,43.6a4.5,4.5,0,0,0-3.338-.238V40.02A4.226,4.226,0,0,0,14.832,35.8V33.9a1.493,1.493,0,0,0,1.237-1.468v-4.3a1.493,1.493,0,0,0-1.492-1.492H7.3a1.493,1.493,0,0,0-1.492,1.492v4.3A1.493,1.493,0,0,0,7.044,33.9v1.9A4.225,4.225,0,0,0,2.9,40.019V66.143A8.55,8.55,0,0,0,0,72.5c0,4.9,4.3,8.884,9.584,8.884l35.825-.011a4.1,4.1,0,0,0,4.054-4.737l7.155,1.286a1.71,1.71,0,0,0,.3.027A1.7,1.7,0,0,0,58.6,76.5l.194-1.3a1.692,1.692,0,0,0-1.3-1.9l-2.522-.579,4.74-.871a1.7,1.7,0,0,0,1.363-1.975ZM50.842,52.546a5.02,5.02,0,0,1,1.578.253,5.069,5.069,0,0,1-.428,4.116H49.581l.769-.771a.9.9,0,0,0-1.267-1.264l-.407.408a4.151,4.151,0,0,0-.962-1.652A5,5,0,0,1,50.842,52.546Zm-5.048-4.484A2.939,2.939,0,0,1,48.726,51c0,.03,0,.06,0,.09a6.8,6.8,0,0,0-2.555,1.516c-.118-.045-.238-.086-.361-.12a4.152,4.152,0,0,0-2.474-3.078A2.927,2.927,0,0,1,45.795,48.062Zm-4.731-4.986a5.545,5.545,0,0,1,1.781.293,5.608,5.608,0,0,1-.221,4.134,4.754,4.754,0,0,0-1.147,1.59,4.225,4.225,0,0,0-.477.054,4.18,4.18,0,0,0-1.9.868,4.737,4.737,0,0,0-.677-.94l2.053-2.057A.9.9,0,0,0,39.2,45.753L36.961,48a4.678,4.678,0,0,0-1.373-.408,5.586,5.586,0,0,1,5.476-4.518ZM34.2,56.915h-.776a.894.894,0,0,0-1.665,0h-.913a.895.895,0,0,0-1.4-1.1l-.844.845a.891.891,0,0,0-.177.254H26.613A7.08,7.08,0,0,1,25.465,53.3h14.2a7.08,7.08,0,0,1-1.148,3.612h-1.9a.891.891,0,0,0-.177-.254l-.844-.845a.895.895,0,0,0-1.4,1.1Zm-2.082-5.4a2.929,2.929,0,0,1,5.659,0Zm1.83-11.006a7.078,7.078,0,0,1,1.69,3.161A7.372,7.372,0,0,0,34.508,45.3a.889.889,0,0,0-.466-.132H32.849a.9.9,0,0,0,0,1.79h1.046a7.413,7.413,0,0,0-.138.749,4.681,4.681,0,0,0-1.013.4A4.518,4.518,0,0,0,29.99,46v-.008a4.531,4.531,0,0,0-.36-1.147ZM19.878,44.983a2.761,2.761,0,0,1,.472-.041,2.7,2.7,0,0,1,1.629.544.9.9,0,0,0,1.282-.222,2.71,2.71,0,0,1,1.81-1.184,2.762,2.762,0,0,1,.473-.041,2.715,2.715,0,0,1,2.68,2.256,2.743,2.743,0,0,1,.04.464.9.9,0,0,0,.817.89,2.724,2.724,0,0,1,2.247,1.6,4.719,4.719,0,0,0-1.034,2.26h-5.1a1.522,1.522,0,0,0-1.406.946,6.83,6.83,0,0,0-6.364-.691,1.085,1.085,0,0,0-.606.608,6.857,6.857,0,0,0-.418,1.591,2.723,2.723,0,0,1,.91-4.269.9.9,0,0,0,.468-1.114,2.7,2.7,0,0,1-.118-.448A2.732,2.732,0,0,1,19.878,44.983Zm.563,11.687.244.245h-2.15a5.072,5.072,0,0,1-.164-3.589,5.035,5.035,0,0,1,5.507,1.629,8.842,8.842,0,0,0,.685,1.96H23.214l-1.506-1.509a.9.9,0,0,0-1.267,1.265Zm-5.615-1.8a4.5,4.5,0,0,0,1.632,1.353,6.922,6.922,0,0,0,.171.689H13.439A2.944,2.944,0,0,1,14.826,54.873ZM7.6,28.427h6.682v3.7H7.6Zm5.445,5.494v1.873H8.834V33.922ZM4.69,43.649H10.5a.9.9,0,1,0,0-1.79H4.69v-1.84a2.434,2.434,0,0,1,2.427-2.435h7.641a2.434,2.434,0,0,1,2.427,2.435v1.84H15.514a.9.9,0,1,0,0,1.79h1.671v.794a4.511,4.511,0,0,0-1.3,4l0,.009A4.523,4.523,0,0,0,14,52.944c.018.1.04.2.064.3a4.746,4.746,0,0,0-1.193.938H4.69Zm0,12.326h7.138a4.7,4.7,0,0,0-.195.94h-.151a1.5,1.5,0,0,0-1.494,1.5,22.65,22.65,0,0,0,.388,4.182c-.257-.021-.521-.032-.789-.032a8.156,8.156,0,0,0-2.9.484c-1.208.477-1.542,1.155-1.615,1.623-.128.064-.254.131-.378.2V55.975Zm11.334,11a3.389,3.389,0,0,1,.634.635h-.033a5.562,5.562,0,0,1-2.452-.777,6.451,6.451,0,0,1-1.027-.7.9.9,0,0,0-1.157,0,6.414,6.414,0,0,1-1.026.7,5.561,5.561,0,0,1-2.452.777H8.476a3.385,3.385,0,0,1,.634-.635.9.9,0,0,0-.455-1.588A4.276,4.276,0,0,1,6.97,64.9a5.1,5.1,0,0,1,2.617-.546,5.579,5.579,0,0,1,2.541.5.9.9,0,0,0,.876,0,5.582,5.582,0,0,1,2.542-.5,5.1,5.1,0,0,1,2.617.546,4.274,4.274,0,0,1-1.685.487.9.9,0,0,0-.455,1.588ZM1.79,72.5a7.031,7.031,0,0,1,4.039-6.214,3.846,3.846,0,0,0,1.029.527,2.12,2.12,0,0,0-.3.885,1.458,1.458,0,0,0,.356,1.1,2.032,2.032,0,0,0,1.6.6,7.393,7.393,0,0,0,3.319-1q.391-.216.738-.456.346.239.738.456a7.4,7.4,0,0,0,3.319,1h0a2.031,2.031,0,0,0,1.6-.6,1.457,1.457,0,0,0,.356-1.1,2.12,2.12,0,0,0-.3-.885,3.853,3.853,0,0,0,1.029-.527,7.241,7.241,0,0,1,3.836,4.605L16.81,73.3a4.093,4.093,0,0,0-2.577,4.57l.031.166a4.076,4.076,0,0,0,.645,1.561H9.584C5.286,79.592,1.79,76.41,1.79,72.5Zm45.4,6.251a2.316,2.316,0,0,1-1.782.832h-.939l-.587-3.169a.9.9,0,0,0-1.76.326l.527,2.844h-3.08l-.4-2.143a.9.9,0,0,0-1.76.326l.337,1.818-7.164,0-.539-2.911a.9.9,0,0,0-1.76.326l.479,2.585-10.46,0h0a2.314,2.314,0,0,1-2.28-1.888l-.031-.166a2.3,2.3,0,0,1,1.452-2.57l3.518-1.336.262,1.414a.9.9,0,0,0,.879.732.907.907,0,0,0,.164-.015.9.9,0,0,0,.717-1.043l-.321-1.734L27.886,71a.9.9,0,0,0-.636-1.674l-2.43.923a9.07,9.07,0,0,0-4.755-5.584c-.073-.469-.407-1.146-1.615-1.623a8.156,8.156,0,0,0-2.9-.484,9.08,9.08,0,0,0-2.084.232v-.541a.894.894,0,0,0-1.448-.7,20.91,20.91,0,0,1-.233-2.844H40.934a.9.9,0,1,0,0-1.79h-.366a8.86,8.86,0,0,0,.892-3.881,1.523,1.523,0,0,0-1.374-1.514,2.359,2.359,0,0,1,1.22-.611,2.414,2.414,0,0,1,.412-.036,2.365,2.365,0,0,1,2.335,1.965,2.393,2.393,0,0,1,.035.4.9.9,0,0,0,.817.891,2.373,2.373,0,0,1,2.128,1.956,2.34,2.34,0,0,1-.006.825h-.96a.9.9,0,0,0,0,1.79h6.957a20.631,20.631,0,0,1-.628,4.8l-4.851,2.863a4.109,4.109,0,0,0-5.41-2.7l-9.99,3.8a.9.9,0,0,0,.636,1.674l1.316-.5L34.5,70.85a.9.9,0,0,0,.879.732.907.907,0,0,0,.164-.015.9.9,0,0,0,.717-1.043L35.8,68l6.973-2.649a2.323,2.323,0,0,1,1.964.144,2.3,2.3,0,0,1,1.143,1.591l1.811,9.776A2.289,2.289,0,0,1,47.19,78.75Zm3.194-7.006a.9.9,0,0,0-.038,1.753l6.664,1.529-.166,1.117-7.725-1.388-1.208-6.52,6.729-3.972.561.993-5.676,3.794a.9.9,0,0,0,.659,1.624L59.1,69.035l.2,1.072Z"/>
    </g>
  </g>
</svg>
