<svg xmlns="http://www.w3.org/2000/svg" width="80.281" height="80.281" viewBox="0 0 80.281 80.281">
  <g id="Grupo_1125850" data-name="Grupo 1125850" transform="translate(0)">
    <path id="Trazado_986960" data-name="Trazado 986960" d="M48,446a8.781,8.781,0,0,0,8.781,8.781h47.667A8.781,8.781,0,0,0,113.229,446Z" transform="translate(-40.474 -376.068)" fill="#66e1f8"/>
    <path id="Trazado_986961" data-name="Trazado 986961" d="M83.382,405.526H13.763a3.763,3.763,0,1,1,0-7.526H83.382a3.763,3.763,0,1,1,0,7.526Z" transform="translate(-8.432 -335.594)" fill="#66e1f8"/>
    <g id="Grupo_1125844" data-name="Grupo 1125844" transform="translate(17.284 25.197)">
      <g id="Grupo_1125843" data-name="Grupo 1125843">
        <path id="Trazado_986962" data-name="Trazado 986962" d="M118.78,180.058a28.738,28.738,0,0,0,20.578,27.972,9.132,9.132,0,1,0,5.239-17.5,17.582,17.582,0,0,1-12.073-12.249,7,7,0,0,0-13.744,1.772Z" transform="translate(-117.436 -171.205)" fill="#9e9beb"/>
        <path id="Trazado_986963" data-name="Trazado 986963" d="M115.1,169.468a8.129,8.129,0,0,0,4.169,3.816,8.081,8.081,0,0,0,2.433-4.946v0a8.087,8.087,0,0,0,3.13,1.018,7.867,7.867,0,0,0,1.433-.019,8.027,8.027,0,1,0-14.994,3.342A7.532,7.532,0,0,0,115.1,169.468Z" transform="translate(-110.228 -160.698)" fill="#daf092"/>
      </g>
    </g>
    <g id="Grupo_1125848" data-name="Grupo 1125848" transform="translate(17.875 1.568)">
      <g id="Grupo_1125847" data-name="Grupo 1125847">
        <path id="Trazado_986964" data-name="Trazado 986964" d="M164.4,20.438a35.638,35.638,0,0,0-50.4,0l50.4,50.4A35.638,35.638,0,0,0,164.4,20.438Z" transform="translate(-114 -10)" fill="#99ebfb"/>
        <g id="Grupo_1125845" data-name="Grupo 1125845" transform="translate(0 4.712)">
          <path id="Trazado_986965" data-name="Trazado 986965" d="M128.953,54.13a4.668,4.668,0,0,0,0-6.6l-7.476-7.476A35.67,35.67,0,0,0,114,45.779l8.352,8.352A4.668,4.668,0,0,0,128.953,54.13Z" transform="translate(-114 -40.053)" fill="#8fecba"/>
        </g>
        <g id="Grupo_1125846" data-name="Grupo 1125846" transform="translate(22.86 0.002)">
          <path id="Trazado_986966" data-name="Trazado 986966" d="M362.143,236.115l-7.2-7.2a2.97,2.97,0,0,0-4.765,3.411l.2.412a2.29,2.29,0,0,1-3.514,2.776l-2.264-1.872a4.724,4.724,0,0,0-6.35,6.98l14.071,14.071A35.47,35.47,0,0,0,362.143,236.115Z" transform="translate(-324.783 -193.858)" fill="#8fecba"/>
          <path id="Trazado_986967" data-name="Trazado 986967" d="M259.79,14.846a11.083,11.083,0,0,0,3.246,7.837l4.3,4.3a12.659,12.659,0,0,0,9.4,3.7,7.862,7.862,0,0,1,5.836,2.3,7.861,7.861,0,0,0,11.118,0l1.255-1.255a35.663,35.663,0,0,0-35.061-21.641Z" transform="translate(-259.79 -10.015)" fill="#8fecba"/>
        </g>
      </g>
      <path id="Trazado_986968" data-name="Trazado 986968" d="M427.708,42.314a3.233,3.233,0,0,0-4.573,0L420.849,44.6l4.573,4.573,2.286-2.286A3.233,3.233,0,0,0,427.708,42.314Z" transform="translate(-372.735 -36.449)" fill="#66e1f8"/>
    </g>
    <path id="XMLID_404_" d="M42.04,291.526a7.627,7.627,0,0,0-7.627,7.627,9.241,9.241,0,0,0,18.479,0,7.627,7.627,0,0,0-7.627-7.627Z" transform="translate(-29.017 -245.815)" fill="#ff7d99"/>
    <g id="Grupo_1125849" data-name="Grupo 1125849" transform="translate(0 0)">
      <path id="Trazado_986969" data-name="Trazado 986969" d="M74.95,60.838H71.816a37.223,37.223,0,0,0,.746-46.329l1.395-1.395a4.8,4.8,0,0,0-6.79-6.79L65.772,7.719A37.216,37.216,0,0,0,16.766,10.9a1.568,1.568,0,0,0,0,2.218L27.548,23.9a9.529,9.529,0,0,0-3.148-.219,12.247,12.247,0,0,0-3.664-3.7,1.568,1.568,0,1,0-1.7,2.633,9.076,9.076,0,0,1,2.155,1.954,9.585,9.585,0,0,0-4.23,13.375,1.568,1.568,0,0,0,.349.422,30.242,30.242,0,0,0,1.454,6.128,9.165,9.165,0,0,0-2.513-.352H16a5.82,5.82,0,0,0-2.187-3.191,1.568,1.568,0,0,0-1.846,2.535,2.658,2.658,0,0,1,.641.666,9.205,9.205,0,0,0-8.783,9.184,10.6,10.6,0,0,0,3.1,7.5h-1.6a5.331,5.331,0,0,0,0,10.662h.748a10.346,10.346,0,0,0,10.228,8.781H63.974A10.347,10.347,0,0,0,74.2,71.5h.748a5.331,5.331,0,1,0,0-10.662Zm-6.7-.674L55.318,47.231l0,0a3.156,3.156,0,0,1,4.242-4.663l2.264,1.872a3.858,3.858,0,0,0,5.92-4.677l-.2-.413a1.4,1.4,0,0,1,2.249-1.61L76.4,44.35A33.779,33.779,0,0,1,68.25,60.164ZM51.295,48.171a10.828,10.828,0,0,0-1.065-1.593l14.26,14.26H49.473a10.652,10.652,0,0,0,1.822-12.667ZM69.384,8.542A1.665,1.665,0,1,1,71.739,10.9l-1.2,1.2q-.561-.612-1.151-1.2t-1.2-1.151ZM42.3,3.145q.385-.008.772-.009a34.148,34.148,0,0,1,30.951,19.79l-.5.5a6.3,6.3,0,0,1-8.9,0,9.473,9.473,0,0,0-7-2.756A11.121,11.121,0,0,1,49.39,17.43l-4.3-4.3A9.454,9.454,0,0,1,42.3,6.4Zm-3.136.212V6.4a12.57,12.57,0,0,0,3.705,8.946l4.3,4.3a14.279,14.279,0,0,0,10.562,4.158,6.311,6.311,0,0,1,4.672,1.839,9.437,9.437,0,0,0,12.882.421,34.112,34.112,0,0,1,1.857,11.14q0,1.662-.157,3.3L72,35.518a4.538,4.538,0,0,0-7.28,5.212l.2.412a.722.722,0,0,1-1.108.875l-2.264-1.872A6.287,6.287,0,0,0,51.467,43.38l-20.3-20.3a6.238,6.238,0,0,0,2.775-10.428L27.949,6.659a33.758,33.758,0,0,1,11.218-3.3ZM26.255,51.577A27.134,27.134,0,0,1,20.409,37.9,8.713,8.713,0,0,0,22.056,36.6a9.666,9.666,0,0,0,3.677,2.632,1.568,1.568,0,0,0,1.676-.324,9.689,9.689,0,0,0,2.459-3.891,9.724,9.724,0,0,0,1.844.387l.125.012A19.009,19.009,0,0,0,44.008,46.033a7.564,7.564,0,0,1,5.144,9.424,7.631,7.631,0,0,1-9.5,5.062,27,27,0,0,1-13.4-8.942Zm6.159,9.261H22.34a10.619,10.619,0,0,0,2.932-5.618,30.04,30.04,0,0,0,7.142,5.618Zm2.225-29.85L48.587,44.935a10.685,10.685,0,0,0-3.705-1.914A15.9,15.9,0,0,1,34.8,34.353a1.572,1.572,0,0,0,.085-.4,9.481,9.481,0,0,0-.242-2.964Zm-7.3-11.739h0l-7.216-7.216A34.194,34.194,0,0,1,25.1,8.248l6.617,6.617a3.1,3.1,0,1,1-4.384,4.384ZM19.109,31.428a6.459,6.459,0,0,1,12.588.814,6.485,6.485,0,0,1-2.164-.771A1.57,1.57,0,0,0,27.2,32.664a6.559,6.559,0,0,1-1.25,3.178,6.575,6.575,0,0,1-2.4-2.593,1.568,1.568,0,0,0-1.327-.849l-.068,0a1.568,1.568,0,0,0-1.327.733A6.42,6.42,0,0,1,19.1,35.008a6.415,6.415,0,0,1,.008-3.58ZM13.023,47.279h3.225a6.066,6.066,0,0,1,6.059,6.059,7.673,7.673,0,0,1-15.343,0,6.066,6.066,0,0,1,6.059-6.059ZM74.95,68.365H47.2a1.568,1.568,0,0,0,0,3.136H71.013a7.262,7.262,0,0,1-7.039,5.645H16.307A7.18,7.18,0,0,1,9.265,71.5h23.82a1.568,1.568,0,0,0,0-3.136H5.331a2.2,2.2,0,1,1,0-4.39H74.95a2.2,2.2,0,1,1,0,4.39Z" transform="translate(0 0)"/>
      <circle id="Elipse_12122" data-name="Elipse 12122" cx="1.568" cy="1.568" r="1.568" transform="translate(38.574 68.365)"/>
    </g>
  </g>
</svg>
