<svg xmlns="http://www.w3.org/2000/svg" width="70" height="70" viewBox="0 0 70 70">
  <g id="Grupo_1108064" data-name="Grupo 1108064" transform="translate(-186.051 -375)">
    <circle id="Elipse_11493" data-name="Elipse 11493" cx="35" cy="35" r="35" transform="translate(186.051 375)" fill="#fcad53"/>
    <g id="XMLID_1667_" transform="translate(194.051 382.531)">
      <g id="XMLID_1218_" transform="translate(35.91 27.3)">
        <path id="XMLID_714_" d="M350.117,260.866l-4.194,4.194a1.581,1.581,0,0,1-2.236,0l-4.954-4.954a1.581,1.581,0,0,1,0-2.236l4.194-4.194a1.581,1.581,0,0,1,2.236,0l4.954,4.954A1.581,1.581,0,0,1,350.117,260.866Z" transform="translate(-338.269 -253.212)" fill="#ff9c9b"/>
      </g>
      <g id="XMLID_977_" transform="translate(16.352 23.603)">
        <path id="XMLID_711_" d="M165.364,218.386l-11.335,11.335a8.015,8.015,0,0,0,11.335-11.335Z" transform="translate(-154.029 -218.386)" fill="#d5ea79"/>
      </g>
      <g id="XMLID_1088_" transform="translate(5.868 21.088)">
        <path id="XMLID_708_" d="M69.4,211.01a2.776,2.776,0,0,0-2.521-1.836,4.748,4.748,0,0,1-3.272-8.036,3.811,3.811,0,1,0-5.68-5.078,11.374,11.374,0,0,0,8.9,18.675A2.782,2.782,0,0,0,69.4,211.01Z" transform="translate(-55.275 -194.7)" fill="#ffa96b"/>
      </g>
      <g id="XMLID_1219_" transform="translate(26.546 12.381)">
        <g id="XMLID_1837_" transform="translate(17.597)">
          <path id="XMLID_706_" d="M419.254,118.677l2.21-4.3a1.019,1.019,0,0,0-.513-1.405,3.7,3.7,0,0,0-5.1,3.934l.047.334Z" transform="translate(-415.817 -112.675)" fill="#ffbe90"/>
        </g>
        <g id="XMLID_1835_" transform="translate(0 4.446)">
          <path id="XMLID_700_" d="M268.534,154.554a2.776,2.776,0,0,0-2.582,1.749,4.748,4.748,0,0,1-8.669.353,3.811,3.811,0,1,0-6.7,3.621,11.374,11.374,0,0,0,20.587-2.04A2.782,2.782,0,0,0,268.534,154.554Z" transform="translate(-250.057 -154.554)" fill="#ffa96b"/>
        </g>
      </g>
      <g id="XMLID_1217_" transform="translate(1.062 35.473)">
        <path id="XMLID_699_" d="M62.23,330.2H10a18.189,18.189,0,0,0,18.189,18.189H44.042A18.189,18.189,0,0,0,62.23,330.2Z" transform="translate(-10 -330.197)" fill="#ccf5fc"/>
      </g>
      <g id="XMLID_1487_" transform="translate(1.062 35.473)">
        <path id="XMLID_695_" d="M10,330.2a18.131,18.131,0,0,0,1.392,6.989H60.838A18.131,18.131,0,0,0,62.23,330.2Z" transform="translate(-10 -330.197)" fill="#fff"/>
      </g>
      <g id="XMLID_1845_" transform="translate(13.016 1.531)">
        <path id="XMLID_680_" d="M136.244,21.8,124.909,10.47A8.015,8.015,0,0,0,136.244,21.8Z" transform="translate(-122.607 -10.47)" fill="#d5ea79"/>
      </g>
      <g id="XMLID_715_" transform="translate(0 0.469)">
        <path id="XMLID_718_" d="M53.292,125.753H49.22a2.665,2.665,0,0,0,.063-.575,2.626,2.626,0,0,0-.774-1.869l-4.765-4.765a12.414,12.414,0,0,0,4.915-6.349,3.805,3.805,0,0,0,.049-2.344l2.025-3.945a2.08,2.08,0,0,0-1.047-2.869,4.761,4.761,0,0,0-6.6,4.587,3.817,3.817,0,0,0-1.634,1.9,3.686,3.686,0,0,1-6.731.274,4.888,4.888,0,0,0-4.357-2.693,4.872,4.872,0,0,0-4.215,7.32q.1.174.208.343L15.781,125.348a3.683,3.683,0,0,1-.811-5.744,4.888,4.888,0,0,0,1.056-5.012A4.872,4.872,0,0,0,7.71,113.11a12.484,12.484,0,0,0-2.165,12.2c.054.149.111.3.171.443H1.062A1.062,1.062,0,0,0,0,126.815a19.272,19.272,0,0,0,19.25,19.25H35.1a19.272,19.272,0,0,0,19.25-19.25,1.062,1.062,0,0,0-1.062-1.062Zm-6.132-.575a.517.517,0,0,1-.152.368l-.208.208H38.092l-.968-.968a.521.521,0,0,1,0-.735l4.194-4.194a.52.52,0,0,1,.735,0l4.954,4.954A.518.518,0,0,1,47.16,125.177Zm-18.314-3.609-4.955-1.328,3.73-3.73A6.973,6.973,0,0,1,28.846,121.568Zm-7.608,1.326L22,125.753H18.379Zm2.964,2.858-.933-3.481,4.958,1.328a6.894,6.894,0,0,1-1.336,1.883c-.091.091-.186.18-.287.269H24.2Zm6.711-6.7A12.422,12.422,0,0,0,36.9,120.6c.234,0,.467-.009.7-.022l-1.971,1.971a2.648,2.648,0,0,0-.412,3.2H29.42a9.111,9.111,0,0,0,1.493-6.7Zm15.32-13.715a2.61,2.61,0,0,1,2.591-.363l-1.488,2.9a3.791,3.791,0,0,0-2.113-.764A2.608,2.608,0,0,1,46.233,105.34Zm-2.8,4.968a1.72,1.72,0,0,1,3.223,1.2,10.29,10.29,0,0,1-3.969,5.192,9.8,9.8,0,0,0-1.119-3.916,5.805,5.805,0,0,0,1.865-2.475Zm-3.759,3.433a7.672,7.672,0,0,1,.9,4.057,10.274,10.274,0,0,1-8.585-.574,9.808,9.808,0,0,0,3.556-3.8,5.865,5.865,0,0,0,4.127.32Zm-11.691-3.128a2.75,2.75,0,0,1,4.842.127,5.862,5.862,0,0,0,.979,1.413,7.687,7.687,0,0,1-3.762,3.7,10.276,10.276,0,0,1-2.053-2.5,2.708,2.708,0,0,1-.007-2.742ZM9.339,114.472a2.749,2.749,0,0,1,4.689.841,2.75,2.75,0,0,1-.59,2.821,5.864,5.864,0,0,0-1,1.4,7.688,7.688,0,0,1-4.76-2.283,10.28,10.28,0,0,1,1.658-2.779Zm-1.8,10.118a10.3,10.3,0,0,1-.487-5.043,9.808,9.808,0,0,0,4.783,2.056,5.828,5.828,0,0,0,1.224,4.15H8.046a10.43,10.43,0,0,1-.5-1.163ZM35.1,143.941H19.25a17.143,17.143,0,0,1-15.114-9.077H22.4a1.062,1.062,0,1,0,0-2.123H3.181a17.006,17.006,0,0,1-1.025-4.866H52.2a17.01,17.01,0,0,1-1.025,4.866H31.954a1.062,1.062,0,1,0,0,2.123H50.218A17.142,17.142,0,0,1,35.1,143.941Z" transform="translate(0 -91.811)"/>
        <path id="XMLID_1172_" d="M121.769,16.219a9.05,9.05,0,0,0,6.367-2.6,1.062,1.062,0,0,0,.006-1.507L116.807.78a1.062,1.062,0,0,0-.751-.311h0a1.062,1.062,0,0,0-.752.317,9.066,9.066,0,0,0,6.469,15.433Zm-6.458-6.5,4.753-1.273-1.328,4.958a6.906,6.906,0,0,1-3.424-3.684Zm5.456,4.3,1.328-4.955,3.73,3.73A6.974,6.974,0,0,1,120.767,14.025ZM116.121,3.1l3.32,3.32-4.6,1.233a6.963,6.963,0,0,1,1.28-4.553Z" transform="translate(-100.738 -0.469)"/>
        <path id="XMLID_1190_" d="M67.124,95.313a1.062,1.062,0,0,0,.751-1.812,1.942,1.942,0,0,1,0-2.743,1.062,1.062,0,0,0-1.5-1.5,4.067,4.067,0,0,0,0,5.746A1.059,1.059,0,0,0,67.124,95.313Z" transform="translate(-58.265 -79.553)"/>
        <path id="XMLID_1191_" d="M328.578,25.6a1.062,1.062,0,0,0,1.5,0,4.067,4.067,0,0,0,0-5.746,1.062,1.062,0,0,0-1.5,1.5,1.939,1.939,0,0,1,0,2.743,1.062,1.062,0,0,0,0,1.5Z" transform="translate(-293.419 -17.516)"/>
        <path id="XMLID_1215_" d="M337.612,108.939a1.062,1.062,0,1,0,.751.311A1.065,1.065,0,0,0,337.612,108.939Z" transform="translate(-300.822 -97.424)"/>
        <path id="XMLID_1223_" d="M185.981,198.41a1.061,1.061,0,1,0,.751-.311A1.067,1.067,0,0,0,185.981,198.41Z" transform="translate(-165.959 -177.119)"/>
        <path id="XMLID_1224_" d="M247.062,386.03a1.062,1.062,0,1,0,.75.311A1.069,1.069,0,0,0,247.062,386.03Z" transform="translate(-219.885 -345.099)"/>
      </g>
    </g>
  </g>
</svg>
