<svg xmlns="http://www.w3.org/2000/svg" width="70" height="70" viewBox="0 0 70 70">
  <g id="Grupo_1108065" data-name="Grupo 1108065" transform="translate(-195.051 -740)">
    <circle id="Elipse_11500" data-name="Elipse 11500" cx="35" cy="35" r="35" transform="translate(195.051 740)" fill="#89a068"/>
    <g id="ceviche_1_" data-name="ceviche (1)" transform="translate(206.051 751.306)">
      <path id="Trazado_897605" data-name="Trazado 897605" d="M288.938,197.369a.381.381,0,0,0-.71.03l-1.419,4.2a.044.044,0,0,1-.084-.006,12.574,12.574,0,0,0-1.883-3.923.382.382,0,0,0-.685.083,11.009,11.009,0,0,0,.544,9.158l3.9-.061S291.529,203.336,288.938,197.369Z" transform="translate(-257.316 -178.363)" fill="#f76c57"/>
      <path id="Trazado_897606" data-name="Trazado 897606" d="M287.9,210.367l-3.2.05a11.009,11.009,0,0,1-.544-9.158.382.382,0,0,1,.685-.084,14.8,14.8,0,0,1,1.8,3.6s0,0,0,0A10.319,10.319,0,0,0,287.9,210.367Z" transform="translate(-257.317 -181.866)" fill="#e5554e"/>
      <path id="Trazado_897607" data-name="Trazado 897607" d="M35.905,235.12a6.079,6.079,0,0,0-3.6-5.076,3.831,3.831,0,0,1-.678-.4c-1.628-1.194-.8-3.152-2.79-3.489-2.175-.368-2.082,1.757-4.216,2.315s-3.168-1.393-4.829.059c-1.415,1.238.435,2.44-.121,4.236s-2.56,1.63-2.307,3.493c.27,1.983,2.168,1.314,3.2,3.028a3.772,3.772,0,0,1,.338.706,5.9,5.9,0,0,0,4.687,3.948l.729.108a6,6,0,0,0,4.827-1.42l2.732-2.39a6,6,0,0,0,2.034-4.944Z" transform="translate(-15.751 -204.665)" fill="#24d3b5"/>
      <path id="Trazado_897608" data-name="Trazado 897608" d="M28.7,262.339a6.018,6.018,0,0,1-2.378.127l-.729-.108a5.9,5.9,0,0,1-4.687-3.949,3.8,3.8,0,0,0-.338-.705c-1.034-1.715-2.932-1.046-3.2-3.028-.254-1.863,1.751-1.7,2.307-3.493s-1.294-3,.121-4.236c1.2-1.052,2.076-.318,3.277-.047l-.055.047c-1.415,1.238.435,2.44-.121,4.236s-2.561,1.63-2.307,3.493c.27,1.983,2.168,1.314,3.2,3.028a3.8,3.8,0,0,1,.338.705A5.9,5.9,0,0,0,28.7,262.339Z" transform="translate(-15.752 -223.087)" fill="#20b7a1"/>
      <path id="Trazado_897609" data-name="Trazado 897609" d="M150.112,323.4l-2.307-.869-7.42-2.154a2.818,2.818,0,0,0-3.216,1.281l-2.025,3.454-1.478,3.2h17Z" transform="translate(-121.362 -290.157)" fill="#e5646e"/>
      <path id="Trazado_897610" data-name="Trazado 897610" d="M141.378,320.668a2.805,2.805,0,0,0-.985.993l-2.025,3.455-1.477,3.2h-3.222l1.477-3.2,2.025-3.455a2.818,2.818,0,0,1,3.217-1.28Z" transform="translate(-121.365 -290.158)" fill="#e04955"/>
      <path id="Trazado_897611" data-name="Trazado 897611" d="M141.056,20.974H116.871a.674.674,0,0,1-.672-.71,12.784,12.784,0,0,1,25.529,0A.673.673,0,0,1,141.056,20.974Z" transform="translate(-105.502 -6.805)" fill="#ffe5a0"/>
      <path id="Trazado_897612" data-name="Trazado 897612" d="M119.421,20.264a.674.674,0,0,0,.672.71h-3.222a.674.674,0,0,1-.672-.71A12.786,12.786,0,0,1,128.964,8.189a12.915,12.915,0,0,1,1.611.1A12.79,12.79,0,0,0,119.421,20.264Z" transform="translate(-105.502 -6.805)" fill="#ffdd81"/>
      <path id="Trazado_897613" data-name="Trazado 897613" d="M170.174,52.805H151.059a9.519,9.519,0,0,1,2.338-6.257,9.694,9.694,0,0,1,.978-.976,9.518,9.518,0,0,1,5.551-2.3c.228-.017.457-.025.689-.025s.463.008.691.025a9.518,9.518,0,0,1,5.561,2.309,9.762,9.762,0,0,1,.976.976A9.519,9.519,0,0,1,170.174,52.805Z" transform="translate(-137.154 -38.637)" fill="#fed22b"/>
      <path id="Trazado_897614" data-name="Trazado 897614" d="M306.142,226.369a10.132,10.132,0,0,1-5.374,6.081c-.061.029-.122.056-.185.084a10.171,10.171,0,0,1-13.922-6.65A2.327,2.327,0,0,1,289,222.967l2.007.074a2.862,2.862,0,0,1,2.475,1.634l.017.036a3.237,3.237,0,0,0,.629.873,3.316,3.316,0,0,0,5.653-2.6,3.3,3.3,0,0,0-.273-1.086,3.358,3.358,0,0,0-.553-.862c-.067-.075-.13-.153-.189-.233a3.427,3.427,0,0,1,2.775-5.456,3.362,3.362,0,0,1,2.538,1.148,10.176,10.176,0,0,1,2.062,9.874Z" transform="translate(-260.201 -194.895)" fill="#fa9084"/>
      <path id="Trazado_897615" data-name="Trazado 897615" d="M162.225,43.386a9.57,9.57,0,0,0-7.946,9.42h-3.222a9.554,9.554,0,0,1,11.167-9.42Z" transform="translate(-137.153 -38.638)" fill="#fdc202"/>
      <path id="Trazado_897616" data-name="Trazado 897616" d="M426.352,257.357l-.014-.038c-1.27-3.877-6.327-3.35-6.327-3.35l-.018,0a3.3,3.3,0,0,0-.273-1.086,3.359,3.359,0,0,0-.553-.862c-.067-.075-.13-.153-.189-.233l.009-.007a5.351,5.351,0,0,1,6.993-1.665A10.116,10.116,0,0,1,426.352,257.357Z" transform="translate(-380.411 -225.883)" fill="#f76c57"/>
      <path id="Trazado_897617" data-name="Trazado 897617" d="M343.376,333.414c-.061.029-.122.056-.185.084a10.139,10.139,0,0,1-9.683-.791c0-.061,0-.094,0-.094.515-4.911,3.136-6.007,3.136-6.007l.091-.059a3.343,3.343,0,0,0,3.085.89h0A6.469,6.469,0,0,0,343.376,333.414Z" transform="translate(-302.809 -295.859)" fill="#f76c57"/>
      <path id="Trazado_897618" data-name="Trazado 897618" d="M294.121,306.888a10.154,10.154,0,0,0,3.957,1.534,10.178,10.178,0,0,1-11.418-7.394A2.327,2.327,0,0,1,289,298.112l2.007.074a2.8,2.8,0,0,1,.4.042,2.32,2.32,0,0,0-1.522,2.8,10.219,10.219,0,0,0,4.239,5.86Z" transform="translate(-260.201 -270.039)" fill="#f87b67"/>
      <path id="Trazado_897619" data-name="Trazado 897619" d="M62.75,410.473H44.3a2.512,2.512,0,0,1-1.7-.664l-9.559-8.8H73.881L64.464,409.8A2.512,2.512,0,0,1,62.75,410.473Z" transform="translate(-29.999 -363.468)" fill="#a0cafe"/>
      <path id="Trazado_897620" data-name="Trazado 897620" d="M47.521,410.47H44.3a2.516,2.516,0,0,1-1.7-.664l-9.558-8.8h3.222l9.558,8.8A2.516,2.516,0,0,0,47.521,410.47Z" transform="translate(-29.999 -363.465)" fill="#81b8fd"/>
      <path id="Trazado_897621" data-name="Trazado 897621" d="M9.872,380.007h40.8a2.372,2.372,0,1,0,0-4.744H9.872a2.372,2.372,0,1,0,0,4.744Z" transform="translate(-6.81 -340.09)" fill="#62a6fd"/>
      <path id="Trazado_897622" data-name="Trazado 897622" d="M10.864,379.315a2.362,2.362,0,0,0,1.677.695H9.872a2.372,2.372,0,1,1,0-4.743h2.669a2.371,2.371,0,0,0-1.677,4.048Z" transform="translate(-6.81 -340.094)" fill="#4394fb"/>
      <path id="Trazado_897623" data-name="Trazado 897623" d="M45.055,206.327a10.85,10.85,0,0,0,2.066-6.795.69.69,0,0,0-1.38.052,9.4,9.4,0,0,1-.072,1.565,6.979,6.979,0,0,0-5.507-2.174,3.989,3.989,0,0,0-.716-1.476,4.619,4.619,0,0,1,5.595-1.137c.094.23.179.463.255.7a.69.69,0,0,0,1.314-.423,10.908,10.908,0,0,0-2.214-3.891,4.114,4.114,0,0,0-6.158,5.457,2.628,2.628,0,1,1-4.333,2.883,3.565,3.565,0,0,0-1.574-1.63c.789-1.341,1.95-4.423-.058-9.083a1.074,1.074,0,0,0-2.015.045l-.833,2.467a21.745,21.745,0,0,0-1.317-2.343,1.073,1.073,0,0,0-1.923.237c-1.031,3.114-1.209,5.831.431,9.048a2.982,2.982,0,0,0-.822,2.945c.029.108.062.215.094.322L20.8,201.623a6.8,6.8,0,0,0-3.961-5.27,2.594,2.594,0,0,1-1.489-1.843,2.6,2.6,0,0,0-2.148-2.1c-2.585-.436-2.7,1.855-4.505,2.329s-3.117-1.535-5.109.207c-1.793,1.569.12,3.112-.325,4.551s-2.644,1.493-2.331,3.79c.283,2.082,1.994,2.022,2.884,2.8H3.062a3.062,3.062,0,0,0,0,6.124H5.351l6.781,6.243a3.2,3.2,0,0,0,2.168.846H32.751a3.192,3.192,0,0,0,2.184-.861l6.675-6.227h2.251a3.062,3.062,0,0,0,1.193-5.882Zm-6.348-10.052a2.739,2.739,0,0,1,2.634-3.529c1.322,0,2.054.823,2.775,1.89A5.82,5.82,0,0,0,38.707,196.275Zm1.554,4.082c2.108.014,4.2.736,4.949,2.73a9.474,9.474,0,0,1-1.723,3H38.383a5.753,5.753,0,0,1-.681-2.394A3.987,3.987,0,0,0,40.261,200.357Zm-6.406,2.776a4.037,4.037,0,0,0,2.48.819,7.117,7.117,0,0,0,.52,2.133H31.874A5.52,5.52,0,0,1,33.855,203.133Zm-1.2-1.461a3.8,3.8,0,0,0,.253.448,7.319,7.319,0,0,0-2.478,3.965H29.055a8.591,8.591,0,0,1-1.986-4.1,1.637,1.637,0,0,1,1.706-1.624l2.007.074A2.165,2.165,0,0,1,32.656,201.672Zm-5.366-9.83a9.743,9.743,0,0,1,1.455,3.209.688.688,0,0,0,1.344.181l1.209-3.581c1.548,4.2.157,6.694-.355,7.414-2.444-.165-2.775-.057-3.137.057a9.2,9.2,0,0,1-.516-7.281ZM2.3,203.1c-.081-.594.128-.786.746-1.253A3.741,3.741,0,0,0,4.585,199.9,3.869,3.869,0,0,0,4.4,197.39c-.279-.84-.3-1.054.1-1.408.6-.526.968-.432,1.813-.147a4.44,4.44,0,0,0,2.736.236,4.413,4.413,0,0,0,2.262-1.527c.554-.611.832-.917,1.664-.777.666.113.8.395,1.073,1.193a3.933,3.933,0,0,0,2.223,2.648,5.454,5.454,0,0,1,3.045,3.582,3.506,3.506,0,0,0-4.1,1.557l-1.343,2.224c-.382-.339-.766-.7-1.147-1.08l.249-.217a2.345,2.345,0,0,0,.572-2.76l-.5-1.058a.69.69,0,1,0-1.248.592l.5,1.058a.959.959,0,0,1-.234,1.129l-.306.268c-2.136-2.255-3.929-4.582-3.955-4.615a.69.69,0,0,0-1.1.841c.071.092.9,1.166,2.088,2.551l-.321.281a.959.959,0,0,1-1.15.082l-.982-.638a.69.69,0,0,0-.752,1.158c.99.643,1.4,1.013,2.253,1.013a2.611,2.611,0,0,0,1.863-.858,41.532,41.532,0,0,0,3.338,3.366H5.537C4.359,203.891,2.508,204.6,2.3,203.1Zm31.691,14.328a1.815,1.815,0,0,1-1.242.49H14.3a1.819,1.819,0,0,1-1.233-.481L7.39,212.209h32.2Zm9.868-6.6H3.062a1.681,1.681,0,0,1,0-3.363H19.4a.69.69,0,1,0,0-1.381H14.813l1.588-2.63a2.126,2.126,0,0,1,2.429-.967c1.5.437.126.038,7.7,2.228a10.956,10.956,0,0,0,.8,1.369H22.159a.69.69,0,1,0,0,1.381h21.7a1.681,1.681,0,1,1,0,3.363Z" transform="translate(0 -171.603)"/>
      <path id="Trazado_897624" data-name="Trazado 897624" d="M109.193,14.859h25.568a.69.69,0,0,0,.69-.69,13.474,13.474,0,0,0-26.949,0A.69.69,0,0,0,109.193,14.859Zm3.944-1.381a8.828,8.828,0,0,1,2.1-5.069l5.069,5.069Zm8.15-.977-5.069-5.069a8.828,8.828,0,0,1,5.069-2.1V12.5Zm2.357.977,5.066-5.066a8.924,8.924,0,0,1,2.106,5.066Zm-1.667-11.4a12.109,12.109,0,0,1,12.074,11.4H132.2a10.32,10.32,0,0,0-4.972-8.107.69.69,0,0,0-.71,1.184,8.809,8.809,0,0,1,1.216.878L122.668,12.5V5.33a8.837,8.837,0,0,1,1.5.245.69.69,0,1,0,.341-1.338,10.259,10.259,0,0,0-12.751,9.241H109.9A12.109,12.109,0,0,1,121.977,2.075Z" transform="translate(-98.516)"/>
      <path id="Trazado_897625" data-name="Trazado 897625" d="M188.866,174.976a.69.69,0,0,0-.563.8l.307,1.782a.69.69,0,1,0,1.361-.235l-.307-1.782A.69.69,0,0,0,188.866,174.976Z" transform="translate(-170.961 -158.23)"/>
      <path id="Trazado_897626" data-name="Trazado 897626" d="M246.583,177.048a.69.69,0,0,0,.574-.306l1.006-1.5a.69.69,0,1,0-1.147-.768l-1.006,1.5a.691.691,0,0,0,.573,1.074Z" transform="translate(-223.258 -157.503)"/>
      <path id="Trazado_897627" data-name="Trazado 897627" d="M227.971,240.015a.691.691,0,0,0-.858.466l-.514,1.734a.69.69,0,1,0,1.324.392l.514-1.734A.69.69,0,0,0,227.971,240.015Z" transform="translate(-205.714 -217.266)"/>
    </g>
  </g>
</svg>
