<svg id="Ameria" xmlns="http://www.w3.org/2000/svg" width="61.898" height="61.898" viewBox="0 0 61.898 61.898">
  <g id="Group">
    <g id="Argentina">
      <path id="Oval-15-copy" d="M0,0H61.9V61.9H0Z" fill="#4086cd" fill-rule="evenodd"/>
      <path id="Oval-15-copy-2" data-name="Oval-15-copy" d="M0,0H61.9V41.266H0Z" fill="#fff" fill-rule="evenodd"/>
      <path id="Oval-15-copy-3" data-name="Oval-15-copy" d="M0,0H61.9V20.633H0Z" fill="#4086cd" fill-rule="evenodd"/>
      <g id="sun" transform="translate(21.306 21.638)">
        <path id="ray1" d="M9.4,10.383s3.6,8.053,3.631,8.132.062.155.163.113.038-.2.038-.2L10.49,9.974M9.477,12.54c-.065,1.327,1.023,2.057.881,3.242s.725,1.855.927,2.316-.218.736-.037.8.576-.3.447-.954-.792-.85-.636-2.3-.789-1.785-.559-3.1M9.18,10.2s.317,8.813.321,8.9,0,.168.109.166.11-.17.11-.17l.625-8.866m-1.3-.3s-3.152,8.236-3.182,8.318-.066.154.036.2.167-.113.167-.113l4.04-7.917m-1.082-.77S3.015,16.1,2.957,16.159s-.119.118-.04.194.2-.042.2-.042l6.711-5.827m-.709-1.13s-8.053,3.6-8.132,3.631-.155.062-.113.163.2.038.2.038l8.455-2.742M9.306,9.135l-8.9.321c-.086,0-.168,0-.166.109s.17.11.17.11l8.866.625m.3-1.3S1.338,5.848,1.257,5.818s-.154-.066-.2.036.113.167.113.167l7.917,4.04m.77-1.082S3.406,2.97,3.342,2.912s-.118-.119-.194-.04.042.2.042.2L9.017,9.781m1.13-.709S6.552,1.02,6.516.941,6.454.786,6.353.828s-.038.2-.038.2L9.056,9.481m1.309-.221s-.317-8.813-.321-8.9,0-.168-.109-.166-.11.17-.11.17L9.2,9.231m1.3.3s3.152-8.236,3.182-8.318.066-.154-.036-.2-.167.113-.167.113L9.44,9.047m1.082.77s6.008-6.456,6.066-6.52.119-.118.04-.194-.2.042-.2.042L9.72,8.972m.709,1.13s8.053-3.6,8.132-3.631.155-.062.113-.163-.2-.038-.2-.038L10.019,9.011m.221,1.309L19.14,10c.086,0,.168,0,.166-.109s-.17-.11-.17-.11L10.27,9.156m-.3,1.3s8.236,3.152,8.318,3.182.154.066.2-.036-.113-.167-.113-.167L10.454,9.4m-.77,1.082s6.456,6.008,6.52,6.066.118.119.194.04-.042-.2-.042-.2L10.529,9.675m-2.084,2.55c-.557,1.206.178,2.29-.4,3.336s-.022,1.992-.008,2.495-.478.6-.335.73.646-.061.772-.717-.416-1.084.271-2.368-.063-1.95.645-3.088m-1.816-1.1c-.984.892-.731,2.178-1.67,2.915s-.8,1.825-.983,2.293-.675.367-.593.541.618.2.991-.358.041-1.161,1.175-2.074.7-1.82,1.8-2.591M7.069,10.554c-1.247.459-1.494,1.745-2.64,2.077S3,14.024,2.658,14.389s-.763.087-.753.279.5.413,1.053.039.473-1.061,1.866-1.483S6.159,11.8,7.464,11.5m-.5-2.065c-1.327-.065-2.057,1.023-3.242.881s-1.855.725-2.316.927S.666,11.021.6,11.2s.3.576.954.447.85-.792,2.3-.636,1.785-.789,3.1-.559M7.277,8.4c-1.206-.557-2.29.178-3.336-.4s-1.992-.022-2.495-.008-.6-.478-.73-.335.061.646.717.772S2.518,8.014,3.8,8.7s1.95-.063,3.088.645m1.1-1.816C7.1,6.546,5.816,6.8,5.079,5.86s-1.825-.8-2.293-.983-.367-.675-.541-.593-.2.618.358.991,1.161.041,2.074,1.175,1.82.7,2.591,1.8M8.947,7.024C8.488,5.777,7.2,5.53,6.87,4.383S5.477,2.959,5.112,2.613s-.087-.763-.279-.753-.413.5-.039,1.053,1.061.473,1.483,1.866S7.7,6.114,8,7.419m2.065-.5c.065-1.327-1.023-2.057-.881-3.242s-.725-1.855-.927-2.316S8.48.621,8.3.556s-.576.3-.447.954.792.85.636,2.3.789,1.785.559,3.1m2.054.32c.557-1.206-.178-2.29.4-3.336s.022-1.992.008-2.495.478-.6.335-.73-.646.061-.772.717.416,1.084-.271,2.368.063,1.95-.645,3.088m1.816,1.1c.984-.892.731-2.178,1.67-2.915s.8-1.825.983-2.293.675-.367.593-.541-.618-.2-.991.358-.041,1.161-1.175,2.074-.7,1.82-1.8,2.591M12.477,8.9c1.247-.459,1.494-1.745,2.64-2.077s1.424-1.393,1.77-1.758.763-.087.753-.279-.5-.413-1.053-.039-.473,1.061-1.866,1.483-1.334,1.424-2.64,1.728m.5,2.065c1.327.065,2.057-1.023,3.242-.881s1.855-.725,2.316-.927.736.218.8.037-.3-.576-.954-.447-.85.792-2.3.636-1.785.789-3.1.559m-.32,2.054c1.206.557,2.29-.178,3.336.4s1.992.022,2.495.008.6.478.73.335-.061-.646-.717-.772-1.084.416-2.368-.271-1.95.063-3.088-.645m-1.1,1.816c.892.984,2.178.731,2.915,1.67s1.825.8,2.293.983.367.675.541.593.2-.618-.358-.991-1.161-.041-2.074-1.175-1.82-.7-2.591-1.8M10.6,12.432c.459,1.247,1.745,1.494,2.077,2.64s1.393,1.424,1.758,1.77.087.763.279.753.413-.5.039-1.053-1.061-.473-1.483-1.866-1.424-1.334-1.728-2.64" transform="translate(-0.24 -0.195)" fill="#f6b40e" stroke="#85340a" stroke-width="1" fill-rule="evenodd"/>
        <path id="ray2" d="M15.358,18.464c.079,1.084.975,1.564.8,2.552.386-.781-.545-1.387-.492-2.541m-.529-2.524,2.487,5.434-2.084-5.6M14.149,18.29c-.333,1.035.318,1.816-.215,2.666.651-.58.014-1.49.5-2.541m-1.377-.777c-.711.823-.417,1.8-1.24,2.37.826-.279.6-1.366,1.449-2.145m-.94-1.2c-.967.5-1.059,1.509-2.037,1.733.87.05,1.064-1.044,2.147-1.446m-.424-1.523c-1.084.079-1.564.975-2.552.8.781.386,1.387-.545,2.541-.492m.186-1.515c-1.035-.333-1.816.318-2.666-.215.58.651,1.49.014,2.541.5m.777-1.377c-.823-.711-1.8-.417-2.37-1.24.279.826,1.366.6,2.145,1.449m1.2-.94c-.5-.967-1.509-1.059-1.733-2.037-.05.87,1.044,1.064,1.446,2.147m1.523-.424c-.079-1.084-.975-1.564-.8-2.552-.386.781.545,1.387.492,2.541m1.515.186c.333-1.035-.318-1.816.215-2.666-.651.58-.014,1.49-.5,2.541m1.377.777c.711-.823.417-1.8,1.24-2.37-.826.279-.6,1.366-1.449,2.145m.94,1.2c.967-.5,1.059-1.509,2.037-1.733-.87-.05-1.064,1.044-2.147,1.446m.424,1.523c1.084-.079,1.564-.975,2.552-.8-.781-.386-1.387.545-2.541.492m-.186,1.515c1.035.333,1.816-.318,2.666.215-.58-.651-1.49-.014-2.541-.5m-.777,1.377c.823.711,1.8.417,2.37,1.24-.279-.826-1.366-.6-2.145-1.449m-1.2.94c.5.967,1.509,1.059,1.733,2.037.05-.87-1.044-1.064-1.446-2.147m-2-2.163.27,5.97.166-5.974m-.649-.169-2.084,5.6,2.487-5.434m-.528-.4-4.03,4.412,4.341-4.107m-.339-.578L9.086,17.688l5.6-2.084m-.092-.654-5.97.27,5.974.166m.169-.649-5.6-2.084L14.6,15.141m.4-.528-4.412-4.03,4.107,4.341m.578-.339L12.782,9.152l2.084,5.6m.654-.092-.27-5.97-.166,5.974m.649.169,2.084-5.6-2.487,5.434m.528.4,4.03-4.412-4.341,4.107m.339.578,5.434-2.487-5.6,2.084m.092.654,5.97-.27-5.974-.166m-.169.649,5.6,2.084L15.8,15.4m-.4.528,4.412,4.03-4.107-4.341" transform="translate(-5.741 -5.769)" fill="#85340a" fill-rule="evenodd"/>
        <circle id="Oval" cx="3.545" cy="3.545" r="3.545" transform="translate(5.915 5.548)" fill="#f6b40e" stroke="#85340a" stroke-width="1.5"/>
        <path id="loweyecontour" d="M30.3,24.494a.7.7,0,0,0-.61.323,1.11,1.11,0,0,0,1.284-.028.936.936,0,0,0-.674-.3Zm0,0c.236-.005.456.123.487.25a.641.641,0,0,1-.981.066.557.557,0,0,1,.495-.316h0Zm0,0" transform="translate(-19.562 -16.138)" fill="#843511" fill-rule="evenodd"/>
        <g id="Grupo_1125807" data-name="Grupo 1125807" transform="translate(7.319 7.718)">
          <g id="Group-2" data-name="Group" transform="translate(4.216 0.942) rotate(180)">
            <path id="uppalpebra" d="M.824.465a.724.724,0,0,0,.6-.218A.71.71,0,0,1,1.7.11C1.723.083,1.7,0,1.642.029a1.564,1.564,0,0,0-.327.218A.681.681,0,0,1,.824.383C.333.383.06-.026.006,0S.279.465.824.465Zm0,0" transform="translate(0 0)" fill="#85340a" fill-rule="evenodd"/>
          </g>
          <g id="Group-3" data-name="Group" transform="translate(4.374 1.922) rotate(180)">
            <path id="eyebrow_nose" d="M0,1.282A1.415,1.415,0,0,0,1.854,1.5a1.069,1.069,0,0,0,.2-.456,1.32,1.32,0,0,0-.285-.99A.205.205,0,0,0,1.882,0,1.941,1.941,0,0,1,2.1,1.244a1.763,1.763,0,0,1-.085.311A1.306,1.306,0,0,1,0,1.282H0Zm0,0" transform="translate(0 0)" fill="#85340a" fill-rule="evenodd"/>
          </g>
          <g id="Group-4" data-name="Group" transform="translate(3.142 0.667)">
            <circle id="pupil" cx="0.246" cy="0.246" r="0.246" transform="translate(0 0)" fill="#85340a"/>
          </g>
          <g id="Group-5" data-name="Group" transform="translate(4.047 1.357) rotate(180)">
            <path id="lowpalpebra" d="M0,.28A1.072,1.072,0,0,1,1.2.116c.273.164.273.218.218.218S1.309.28,1.091.171A1.345,1.345,0,0,0,0,.28H0Zm0,0" transform="translate(0 0)" fill="#85340a" fill-rule="evenodd"/>
          </g>
          <path id="Shape" d="M25.806,28.2a.245.245,0,0,0,.048.487.241.241,0,0,0,.2-.1.518.518,0,0,0,.3.08h.032a.518.518,0,0,0,.3-.08.241.241,0,0,0,.2.1.245.245,0,0,0,.048-.487.164.164,0,1,1-.219.164.372.372,0,0,1-.678,0,.164.164,0,1,1-.219-.164h0Zm0,0" transform="translate(-24.203 -26.291)" fill="#85340a" fill-rule="evenodd"/>
          <path id="Shape-2" data-name="Shape" d="M25.862,30.432c-.273,0-.381.247-.626.411a4.918,4.918,0,0,0,.435-.271c.191-.109.354.024.463.024h0c.109,0,.272-.133.463-.024a4.895,4.895,0,0,0,.439.271c-.245-.164-.357-.411-.63-.411a.732.732,0,0,0-.271.084h0A.73.73,0,0,0,25.862,30.432Zm0,0" transform="translate(-23.96 -27.752)" fill="#85340a" fill-rule="evenodd"/>
          <path id="Shape-3" data-name="Shape" d="M26.062,31.176a1.872,1.872,0,0,0-.455.088c.491-.109.6.056.818.056h0c.218,0,.327-.165.818-.056a1.454,1.454,0,0,0-.818-.056h0a2.939,2.939,0,0,0-.363-.032h0Zm0,0" transform="translate(-24.203 -28.237)" fill="#85340a" fill-rule="evenodd"/>
          <path id="Shape-4" data-name="Shape" d="M25.34,31.545c-.032,0-.066,0-.1,0,.573.055.3.383.9.383h0c.6,0,.329-.328.9-.383-.6-.054-.41.3-.9.3h0c-.46,0-.319-.309-.794-.3h0Zm0,0" transform="translate(-23.96 -28.48)" fill="#85340a" fill-rule="evenodd"/>
          <path id="Shape-5" data-name="Shape" d="M27.331,33.149a.491.491,0,1,0-.982,0,.5.5,0,0,1,.982,0Zm0,0" transform="translate(-24.69 -29.213)" fill="#85340a" fill-rule="evenodd"/>
          <path id="eyebrow_nose-2" data-name="eyebrow_nose" d="M21.525,23.269a1.415,1.415,0,0,1,1.854-.218,1.069,1.069,0,0,1,.2.456,1.32,1.32,0,0,1-.285.99.205.205,0,0,1,.109.054,1.941,1.941,0,0,0,.222-1.244A1.763,1.763,0,0,0,23.543,23a1.306,1.306,0,0,0-2.018.273h0Zm0,0" transform="translate(-21.525 -22.638)" fill="#85340a" fill-rule="evenodd"/>
          <path id="uppalpebra-2" data-name="uppalpebra" d="M22.72,24.123a.724.724,0,0,1,.6.218.71.71,0,0,0,.273.136c.027.027,0,.109-.054.082a1.564,1.564,0,0,1-.327-.218.681.681,0,0,0-.491-.136c-.491,0-.764.409-.818.382s.273-.464.818-.464Zm0,0" transform="translate(-21.768 -23.612)" fill="#85340a" fill-rule="evenodd"/>
        </g>
        <g id="Group-6" data-name="Group" transform="translate(7.663 8.364)">
          <path id="loweyecontour-2" data-name="loweyecontour" d="M.866.022a.7.7,0,0,0-.61.323A1.11,1.11,0,0,0,1.54.317a.936.936,0,0,0-.674-.3Zm0,.056c.236,0,.456.1.487.211A.719.719,0,0,1,.367.345.575.575,0,0,1,.862.078h0Zm0,0" transform="translate(-0.256 -0.022)" fill="#843511" fill-rule="evenodd"/>
        </g>
        <circle id="pupil-2" data-name="pupil" cx="0.246" cy="0.246" r="0.246" transform="translate(8.085 8.356)" fill="#85340a"/>
        <path id="lowpalpebra-2" data-name="lowpalpebra" d="M22.267,25.662a1.072,1.072,0,0,0,1.2.164c.273-.164.273-.218.218-.218s-.109.054-.327.163a1.345,1.345,0,0,1-1.091-.109h0Zm0,0" transform="translate(-14.692 -16.868)" fill="#85340a" fill-rule="evenodd"/>
      </g>
    </g>
  </g>
</svg>
