<svg id="Page-1" xmlns="http://www.w3.org/2000/svg" width="63.102" height="63.102" viewBox="0 0 63.102 63.102">
  <g id="Material">
    <g id="square_spain">
      <path id="Rectangle-57" d="M0,0H63.1V63.1H0Z" fill="#f1453d" fill-rule="evenodd"/>
      <path id="Rectangle-57-2" data-name="Rectangle-57" d="M0,45H63.1V76.551H0Z" transform="translate(0 -29.225)" fill="#fee94e" fill-rule="evenodd"/>
      <g id="spain" transform="translate(3.777 16.477)">
        <g id="Group" transform="translate(7.081 10.867)">
          <g id="path961" transform="translate(0.01)">
            <path id="Trazado_986748" data-name="Trazado 986748" d="M3.086,17.2A3.659,3.659,0,0,1,1,13.92V0H16.68V13.92a3.659,3.659,0,0,1-2.087,3.28,13.274,13.274,0,0,1-5.738,1.322A13.415,13.415,0,0,1,3.086,17.2Z" transform="translate(-1 0)" fill="#d8d8d8"/>
            <path id="Trazado_986749" data-name="Trazado 986749" d="M3.086,17.2A3.659,3.659,0,0,1,1,13.92V0H16.68V13.92a3.659,3.659,0,0,1-2.087,3.28,13.274,13.274,0,0,1-5.738,1.322A13.415,13.415,0,0,1,3.086,17.2Z" transform="translate(-1 0)" fill="none" stroke="#262626" stroke-width="0.1"/>
          </g>
          <g id="path989" transform="translate(8.774 1.402)">
            <path id="Trazado_986750" data-name="Trazado 986750" d="M29.9,4.88c.011.1-.033.2-.016.253a.732.732,0,0,0,.047.146.637.637,0,0,1,.033.148l-.116-.085c-.055-.042-.094-.069-.094-.069s.011.114.016.162a.431.431,0,0,0,.079.195.989.989,0,0,1,.163.21.756.756,0,0,1,.023.226s-.073-.118-.136-.139a1.97,1.97,0,0,1-.2-.1.434.434,0,0,1,.124.243.853.853,0,0,1-.051.253.81.81,0,0,0-.129-.178,1.734,1.734,0,0,0-.175-.14,1,1,0,0,1,.079.307c0,.125-.022.389-.022.389a.709.709,0,0,0-.124-.152,1.14,1.14,0,0,1-.158-.123.618.618,0,0,1,.084.183,1.683,1.683,0,0,0,.3.739c.146.216.372.593.856.469s.3-.782.2-1.09a2.786,2.786,0,0,1-.146-.766c.005-.118.09-.468.079-.534a1.323,1.323,0,0,1,.023-.516,2.917,2.917,0,0,1,.147-.379.961.961,0,0,0,.072-.21,2.014,2.014,0,0,0,.011-.216s.09.168.113.227a1.1,1.1,0,0,1,.022.237.382.382,0,0,1,.152-.263,2.344,2.344,0,0,0,.333-.227A.327.327,0,0,0,31.545,4a1.068,1.068,0,0,1-.1.422c-.056.077-.277.329-.277.329a.808.808,0,0,1,.192-.048.8.8,0,0,1,.135,0,1.22,1.22,0,0,0-.22.259c-.124.183-.073.2-.163.35s-.164.156-.276.248c-.169.137-.078.684-.056.765a7.243,7.243,0,0,1,.321.912.87.87,0,0,1-.248.755c-.182.15-.479.152-.546.195a.519.519,0,0,0-.2.458.4.4,0,0,0,.179.394c.079.07.18.032.2.087a.309.309,0,0,0,.068.118.129.129,0,0,1,.045.129c-.011.06-.141.195-.186.292a2.351,2.351,0,0,0-.135.388.451.451,0,0,0,.028.216s.141.166.045.2c-.062.021-.122-.039-.152-.032-.084.022-.128.075-.152.07-.056-.011-.056-.039-.062-.119s0-.114-.027-.114-.051.028-.057.071-.006.14-.045.14-.1-.07-.13-.085-.13-.032-.135-.075a.188.188,0,0,1,.118-.151c.062-.016.119-.048.079-.08a.083.083,0,0,0-.118,0c-.04.032-.124,0-.119-.044a.6.6,0,0,0,.011-.135c-.005-.026-.073-.081.016-.13s.129.044.219.027a.2.2,0,0,0,.135-.339c-.062-.071-.124-.082-.147-.125a1.325,1.325,0,0,1-.056-.145,1.31,1.31,0,0,1,.005.216.641.641,0,0,0-.005.14s-.062-.07-.113-.123a.805.805,0,0,1-.1-.216s-.005.151-.005.211.067.113.045.135-.13-.114-.158-.135a.6.6,0,0,1-.158-.168,1.274,1.274,0,0,1-.079-.221.692.692,0,0,1-.011-.248c.028-.064.073-.178.073-.178h-.22c-.118,0-.2-.037-.248.043a.736.736,0,0,0,.033.453,1.019,1.019,0,0,1,.074.351.491.491,0,0,1-.118.14.213.213,0,0,1-.141,0,.4.4,0,0,0-.2-.044,1.317,1.317,0,0,1-.214,0c-.04-.011-.135-.06-.181-.049s-.123.051-.1.114c.034.1-.033.119-.079.114a1.085,1.085,0,0,1-.141-.038c-.056-.017-.141,0-.13-.065s.034-.07.062-.118.039-.081.007-.084a.141.141,0,0,0-.11.017c-.03.025-.078.079-.118.059s-.071-.068-.071-.169-.106-.189-.009-.185.22.076.242.021.008-.08-.044-.123-.119-.067-.048-.122a1,1,0,0,0,.115-.084c.026-.029.064-.124.113-.1.1.046,0,.114.1.223a.308.308,0,0,0,.321.131c.163-.017.207-.038.207-.084a1.5,1.5,0,0,0-.018-.164.935.935,0,0,1,.022-.156.317.317,0,0,0-.1.093c-.021.046-.066.126-.066.126a.807.807,0,0,1-.013-.172c0-.045.019-.124.017-.14a1.312,1.312,0,0,0-.035-.148,1.1,1.1,0,0,1-.044.148.781.781,0,0,0-.026.169A.27.27,0,0,1,28,8.515c.021-.118-.018-.274.017-.325s.118-.257.321-.266.361.009.431.005.321-.051.321-.051-.462-.24-.568-.312a1.554,1.554,0,0,1-.322-.341,1.309,1.309,0,0,1-.1-.248.4.4,0,0,0-.158.046.8.8,0,0,0-.193.155,1.661,1.661,0,0,0-.114.165s.013-.148.013-.194-.009-.135-.009-.135a.589.589,0,0,1-.158.278c-.106.077-.229.182-.229.182s.013-.113.013-.139.026-.156.026-.156a.341.341,0,0,1-.189.135c-.114.021-.282.016-.3.088s.031.168,0,.218a.249.249,0,0,1-.084.084.272.272,0,0,0-.123-.059.218.218,0,0,0-.11.026s-.048-.064-.031-.106.106-.105.084-.131-.093.009-.137.03-.137.042-.128-.03.031-.114.009-.164-.009-.084.027-.1.176,0,.189-.029-.035-.076-.128-.1-.137-.076-.088-.122a.321.321,0,0,0,.084-.1c.022-.042.031-.118.115-.08s.065.13.154.16a.653.653,0,0,0,.338-.037c.045-.026.185-.131.234-.157s.251-.177.251-.177a1.994,1.994,0,0,1-.163-.126,1.57,1.57,0,0,0-.162-.164,1.349,1.349,0,0,0-.3-.1,1.855,1.855,0,0,1-.269-.075.563.563,0,0,0,.123-.055c.031-.025.1-.089.137-.084l.043,0a2.132,2.132,0,0,1-.228-.021,1.1,1.1,0,0,0-.2-.085.96.96,0,0,0-.132.017.732.732,0,0,1,.215-.093.911.911,0,0,1,.172-.013s-.149-.042-.185-.092-.07-.126-.1-.16-.044-.089-.092-.093-.132.059-.18.055-.084-.034-.088-.105,0-.047-.017-.084-.088-.127-.022-.148.207.012.22-.013-.075-.1-.132-.131-.15-.08-.1-.122.1-.059.123-.1.057-.143.114-.11.136.2.18.186.048-.131.04-.181,0-.139.043-.131.079.067.15.072.176-.017.167.033a.4.4,0,0,1-.1.168.255.255,0,0,0-.039.236.619.619,0,0,0,.18.232c.07.046.2.081.286.135a2.507,2.507,0,0,0,.343.227.766.766,0,0,1,.132.051.471.471,0,0,1,.176-.034,1.547,1.547,0,0,0,.422-.021c.088-.039.2-.1.167-.182s-.229-.152-.211-.214.088-.068.206-.072.282.021.312-.148.04-.266-.127-.3-.291-.042-.321-.164-.062-.151-.027-.186a.356.356,0,0,1,.22-.058.958.958,0,0,0,.3-.039c.04-.029.048-.109.1-.143a1.014,1.014,0,0,1,.238-.063,3.172,3.172,0,0,1,.436.269,2.428,2.428,0,0,1,.358.352s0,.111.012.219Z" transform="translate(-26 -4)" fill="#d85aae"/>
            <path id="Trazado_986751" data-name="Trazado 986751" d="M29.9,4.88c.011.1-.033.2-.016.253a.732.732,0,0,0,.047.146.637.637,0,0,1,.033.148l-.116-.085c-.055-.042-.094-.069-.094-.069s.011.114.016.162a.431.431,0,0,0,.079.195.989.989,0,0,1,.163.21.756.756,0,0,1,.023.226s-.073-.118-.136-.139a1.97,1.97,0,0,1-.2-.1.434.434,0,0,1,.124.243.853.853,0,0,1-.051.253.81.81,0,0,0-.129-.178,1.734,1.734,0,0,0-.175-.14,1,1,0,0,1,.079.307c0,.125-.022.389-.022.389a.709.709,0,0,0-.124-.152,1.14,1.14,0,0,1-.158-.123.618.618,0,0,1,.084.183,1.683,1.683,0,0,0,.3.739c.146.216.372.593.856.469s.3-.782.2-1.09a2.786,2.786,0,0,1-.146-.766c.005-.118.09-.468.079-.534a1.323,1.323,0,0,1,.023-.516,2.917,2.917,0,0,1,.147-.379.961.961,0,0,0,.072-.21,2.014,2.014,0,0,0,.011-.216s.09.168.113.227a1.1,1.1,0,0,1,.022.237.382.382,0,0,1,.152-.263,2.344,2.344,0,0,0,.333-.227A.327.327,0,0,0,31.545,4a1.068,1.068,0,0,1-.1.422c-.056.077-.277.329-.277.329a.808.808,0,0,1,.192-.048.8.8,0,0,1,.135,0,1.22,1.22,0,0,0-.22.259c-.124.183-.073.2-.163.35s-.164.156-.276.248c-.169.137-.078.684-.056.765a7.243,7.243,0,0,1,.321.912.87.87,0,0,1-.248.755c-.182.15-.479.152-.546.195a.519.519,0,0,0-.2.458.4.4,0,0,0,.179.394c.079.07.18.032.2.087a.309.309,0,0,0,.068.118.129.129,0,0,1,.045.129c-.011.06-.141.195-.186.292a2.351,2.351,0,0,0-.135.388.451.451,0,0,0,.028.216s.141.166.045.2c-.062.021-.122-.039-.152-.032-.084.022-.128.075-.152.07-.056-.011-.056-.039-.062-.119s0-.114-.027-.114-.051.028-.057.071-.006.14-.045.14-.1-.07-.13-.085-.13-.032-.135-.075a.188.188,0,0,1,.118-.151c.062-.016.119-.048.079-.08a.083.083,0,0,0-.118,0c-.04.032-.124,0-.119-.044a.6.6,0,0,0,.011-.135c-.005-.026-.073-.081.016-.13s.129.044.219.027a.2.2,0,0,0,.135-.339c-.062-.071-.124-.082-.147-.125a1.325,1.325,0,0,1-.056-.145,1.31,1.31,0,0,1,.005.216.641.641,0,0,0-.005.14s-.062-.07-.113-.123a.805.805,0,0,1-.1-.216s-.005.151-.005.211.067.113.045.135-.13-.114-.158-.135a.6.6,0,0,1-.158-.168,1.274,1.274,0,0,1-.079-.221.692.692,0,0,1-.011-.248c.028-.064.073-.178.073-.178h-.22c-.118,0-.2-.037-.248.043a.736.736,0,0,0,.033.453,1.019,1.019,0,0,1,.074.351.491.491,0,0,1-.118.14.213.213,0,0,1-.141,0,.4.4,0,0,0-.2-.044,1.317,1.317,0,0,1-.214,0c-.04-.011-.135-.06-.181-.049s-.123.051-.1.114c.034.1-.033.119-.079.114a1.085,1.085,0,0,1-.141-.038c-.056-.017-.141,0-.13-.065s.034-.07.062-.118.039-.081.007-.084a.141.141,0,0,0-.11.017c-.03.025-.078.079-.118.059s-.071-.068-.071-.169-.106-.189-.009-.185.22.076.242.021.008-.08-.044-.123-.119-.067-.048-.122a1,1,0,0,0,.115-.084c.026-.029.064-.124.113-.1.1.046,0,.114.1.223a.308.308,0,0,0,.321.131c.163-.017.207-.038.207-.084a1.5,1.5,0,0,0-.018-.164.935.935,0,0,1,.022-.156.317.317,0,0,0-.1.093c-.021.046-.066.126-.066.126a.807.807,0,0,1-.013-.172c0-.045.019-.124.017-.14a1.312,1.312,0,0,0-.035-.148,1.1,1.1,0,0,1-.044.148.781.781,0,0,0-.026.169A.27.27,0,0,1,28,8.515c.021-.118-.018-.274.017-.325s.118-.257.321-.266.361.009.431.005.321-.051.321-.051-.462-.24-.568-.312a1.554,1.554,0,0,1-.322-.341,1.309,1.309,0,0,1-.1-.248.4.4,0,0,0-.158.046.8.8,0,0,0-.193.155,1.661,1.661,0,0,0-.114.165s.013-.148.013-.194-.009-.135-.009-.135a.589.589,0,0,1-.158.278c-.106.077-.229.182-.229.182s.013-.113.013-.139.026-.156.026-.156a.341.341,0,0,1-.189.135c-.114.021-.282.016-.3.088s.031.168,0,.218a.249.249,0,0,1-.084.084.272.272,0,0,0-.123-.059.218.218,0,0,0-.11.026s-.048-.064-.031-.106.106-.105.084-.131-.093.009-.137.03-.137.042-.128-.03.031-.114.009-.164-.009-.084.027-.1.176,0,.189-.029-.035-.076-.128-.1-.137-.076-.088-.122a.321.321,0,0,0,.084-.1c.022-.042.031-.118.115-.08s.065.13.154.16a.653.653,0,0,0,.338-.037c.045-.026.185-.131.234-.157s.251-.177.251-.177a1.994,1.994,0,0,1-.163-.126,1.57,1.57,0,0,0-.162-.164,1.349,1.349,0,0,0-.3-.1,1.855,1.855,0,0,1-.269-.075.563.563,0,0,0,.123-.055c.031-.025.1-.089.137-.084l.043,0a2.132,2.132,0,0,1-.228-.021,1.1,1.1,0,0,0-.2-.085.96.96,0,0,0-.132.017.732.732,0,0,1,.215-.093.911.911,0,0,1,.172-.013s-.149-.042-.185-.092-.07-.126-.1-.16-.044-.089-.092-.093-.132.059-.18.055-.084-.034-.088-.105,0-.047-.017-.084-.088-.127-.022-.148.207.012.22-.013-.075-.1-.132-.131-.15-.08-.1-.122.1-.059.123-.1.057-.143.114-.11.136.2.18.186.048-.131.04-.181,0-.139.043-.131.079.067.15.072.176-.017.167.033a.4.4,0,0,1-.1.168.255.255,0,0,0-.039.236.619.619,0,0,0,.18.232c.07.046.2.081.286.135a2.507,2.507,0,0,0,.343.227.766.766,0,0,1,.132.051.471.471,0,0,1,.176-.034,1.547,1.547,0,0,0,.422-.021c.088-.039.2-.1.167-.182s-.229-.152-.211-.214.088-.068.206-.072.282.021.312-.148.04-.266-.127-.3-.291-.042-.321-.164-.062-.151-.027-.186a.356.356,0,0,1,.22-.058.958.958,0,0,0,.3-.039c.04-.029.048-.109.1-.143a1.014,1.014,0,0,1,.238-.063,3.172,3.172,0,0,1,.436.269,2.428,2.428,0,0,1,.358.352s0,.111.012.219Z" transform="translate(-26 -4)" fill="none" stroke="#262626" stroke-width="0.1"/>
          </g>
          <g id="path1169" transform="translate(11.578 1.052)">
            <path id="Trazado_986752" data-name="Trazado 986752" d="M34.782,3.328l-.048,0a.222.222,0,0,1-.044.05.12.12,0,0,1-.142.009.063.063,0,0,1-.023-.057.1.1,0,0,1-.085,0,.071.071,0,0,1-.022-.112.1.1,0,0,1,.018-.024l0-.045-.058.011-.017.027a.1.1,0,0,1-.116.023.076.076,0,0,1-.022-.037.059.059,0,0,1-.029.015c-.089.019-.124-.147-.126-.19l-.029.035a.523.523,0,0,1,.013.183A.84.84,0,0,1,34,3.385a1.667,1.667,0,0,1,.493.232,1.442,1.442,0,0,1,.389.339,1.336,1.336,0,0,1,.2-.072,1.019,1.019,0,0,1,.225-.028l.036-.03c-.053.006-.262.014-.258-.06a.04.04,0,0,1,.013-.025.133.133,0,0,1-.05-.009c-.03-.017-.03-.06,0-.1l.029-.018,0-.048-.056.006A.241.241,0,0,1,35,3.6a.12.12,0,0,1-.142,0,.056.056,0,0,1-.019-.065.109.109,0,0,1-.075-.007.071.071,0,0,1-.018-.113.237.237,0,0,1,.051-.045l-.012-.042h0Z" transform="translate(-34 -3)" fill="#dead00"/>
            <path id="Trazado_986753" data-name="Trazado 986753" d="M34.782,3.328l-.048,0a.222.222,0,0,1-.044.05.12.12,0,0,1-.142.009.063.063,0,0,1-.023-.057.1.1,0,0,1-.085,0,.071.071,0,0,1-.022-.112.1.1,0,0,1,.018-.024l0-.045-.058.011-.017.027a.1.1,0,0,1-.116.023.076.076,0,0,1-.022-.037.059.059,0,0,1-.029.015c-.089.019-.124-.147-.126-.19l-.029.035a.523.523,0,0,1,.013.183A.84.84,0,0,1,34,3.385a1.667,1.667,0,0,1,.493.232,1.442,1.442,0,0,1,.389.339,1.336,1.336,0,0,1,.2-.072,1.019,1.019,0,0,1,.225-.028l.036-.03c-.053.006-.262.014-.258-.06a.04.04,0,0,1,.013-.025.133.133,0,0,1-.05-.009c-.03-.017-.03-.06,0-.1l.029-.018,0-.048-.056.006A.241.241,0,0,1,35,3.6a.12.12,0,0,1-.142,0,.056.056,0,0,1-.019-.065.109.109,0,0,1-.075-.007.071.071,0,0,1-.018-.113.237.237,0,0,1,.051-.045l-.012-.042h0Z" transform="translate(-34 -3)" fill="none" stroke="#262626" stroke-width="0.1"/>
          </g>
          <g id="path1032" transform="translate(6.144 17.528)">
            <path id="Trazado_986754" data-name="Trazado 986754" d="M20.282,50.392a7.938,7.938,0,0,0-.821-.356,5.245,5.245,0,0,0-.96-.022,3.615,3.615,0,0,1,.306.224,1.811,1.811,0,0,0,.572.289,2.953,2.953,0,0,0,.9,0l-.063.44.19-.088v-.438c.314-.2,1,.231,1.942-.363a2.452,2.452,0,0,0-1.966.316l-.01-.2h-.124Z" transform="translate(-18.5 -50)" fill="#058e6e"/>
            <path id="Trazado_986755" data-name="Trazado 986755" d="M20.282,50.392a7.938,7.938,0,0,0-.821-.356,5.245,5.245,0,0,0-.96-.022,3.615,3.615,0,0,1,.306.224,1.811,1.811,0,0,0,.572.289,2.953,2.953,0,0,0,.9,0l-.063.44.19-.088v-.438c.314-.2,1,.231,1.942-.363a2.452,2.452,0,0,0-1.966.316l-.01-.2h-.124Z" transform="translate(-18.5 -50)" fill="none" stroke="#262626" stroke-width="0.1"/>
          </g>
          <g id="path1030" transform="translate(7.126 16.196)">
            <path id="Trazado_986756" data-name="Trazado 986756" d="M22.515,46.487a.627.627,0,0,1,.506.609c0,.361-.37.634-.851.634s-.87-.274-.87-.634a.56.56,0,0,1,.494-.6.455.455,0,0,0-.039-.076c-.035-.035-.1-.1-.1-.1a.5.5,0,0,1,.2,0,.4.4,0,0,1,.123.071.592.592,0,0,1,.084-.115.476.476,0,0,1,.113-.081.568.568,0,0,1,.1.1.509.509,0,0,1,.04.088.58.58,0,0,1,.127-.074,1.251,1.251,0,0,1,.135-.039s-.022.07-.036.1a.54.54,0,0,0-.022.109" transform="translate(-21.3 -46.2)" fill="#f6cb7e"/>
            <path id="Trazado_986757" data-name="Trazado 986757" d="M22.515,46.487a.627.627,0,0,1,.506.609c0,.361-.37.634-.851.634s-.87-.274-.87-.634a.56.56,0,0,1,.494-.6.455.455,0,0,0-.039-.076c-.035-.035-.1-.1-.1-.1a.5.5,0,0,1,.2,0,.4.4,0,0,1,.123.071.592.592,0,0,1,.084-.115.476.476,0,0,1,.113-.081.568.568,0,0,1,.1.1.509.509,0,0,1,.04.088.58.58,0,0,1,.127-.074,1.251,1.251,0,0,1,.135-.039s-.022.07-.036.1a.54.54,0,0,0-.022.109" transform="translate(-21.3 -46.2)" fill="none" stroke="#262626" stroke-width="0.1"/>
          </g>
          <g id="path965" transform="translate(0.01 0)">
            <path id="Trazado_986758" data-name="Trazado 986758" d="M1,8.8H8.84V0H1Z" transform="translate(-1)" fill="#ca4638"/>
            <path id="Trazado_986759" data-name="Trazado 986759" d="M1,8.8H8.84V0H1Z" transform="translate(-1)" fill="none" stroke="#262626" stroke-width="0.1"/>
          </g>
          <g id="path977" transform="translate(0.01 0)">
            <path id="Trazado_986760" data-name="Trazado 986760" d="M4.929,17.757A3.841,3.841,0,0,1,1,14.01V0H8.84V8.694h7.849V14.01A3.715,3.715,0,0,1,12.8,17.757,3.806,3.806,0,0,1,8.84,14.01a3.826,3.826,0,0,1-3.911,3.748Z" transform="translate(-1)" fill="#f1453d"/>
            <path id="Trazado_986761" data-name="Trazado 986761" d="M4.929,17.757A3.841,3.841,0,0,1,1,14.01V0H8.84V8.694h7.849V14.01A3.715,3.715,0,0,1,12.8,17.757,3.806,3.806,0,0,1,8.84,14.01a3.826,3.826,0,0,1-3.911,3.748Z" transform="translate(-1)" fill="none" stroke="#262626" stroke-width="0.1"/>
          </g>
          <g id="path6420" transform="translate(1.412 1.753)">
            <path id="Trazado_986762" data-name="Trazado 986762" d="M5.653,6.147v2.3L5,8.453V9.687L9.589,9.68V8.446l-.631,0v-2.3h.408V5L8.812,5l-.138.12.007.524-.4,0-.017-.53L8.132,5H7.7l-.112.118-.006.542-.439,0V5.114L7,5H6.56l-.129.088,0,.57H6.01L6,5.105,5.854,5l-.5,0V6.148h.3Zm.4.861V6.371a.288.288,0,1,1,.574,0v.638Zm2.1,0V6.371a.288.288,0,1,1,.574,0v.638ZM8.091,9.144v-.76c0-.145-.065-.579-.686-.579a.573.573,0,0,0-.653.579v.76Z" transform="translate(-5 -5)" fill="#dead00"/>
            <path id="Trazado_986763" data-name="Trazado 986763" d="M5.653,6.147v2.3L5,8.453V9.687L9.589,9.68V8.446l-.631,0v-2.3h.408V5L8.812,5l-.138.12.007.524-.4,0-.017-.53L8.132,5H7.7l-.112.118-.006.542-.439,0V5.114L7,5H6.56l-.129.088,0,.57H6.01L6,5.105,5.854,5l-.5,0V6.148h.3Zm.4.861V6.371a.288.288,0,1,1,.574,0v.638Zm2.1,0V6.371a.288.288,0,1,1,.574,0v.638ZM8.091,9.144v-.76c0-.145-.065-.579-.686-.579a.573.573,0,0,0-.653.579v.76Z" transform="translate(-5 -5)" fill="none" stroke="#262626" stroke-width="0.1"/>
          </g>
          <g id="Shape" transform="translate(8.714 9.152)">
            <path id="Trazado_986764" data-name="Trazado 986764" d="M.959,10.159a.2.2,0,0,1,.021.087.189.189,0,0,1-.195.184.189.189,0,0,1-.195-.184.172.172,0,0,1,.021-.083l-.272,0a.425.425,0,0,0,.308.5v.668l.285,0v-.673a.444.444,0,0,0,.282-.269h.766v-.226Zm3.76,0v.226l-.689,0a.443.443,0,0,1-.044.084l.8.91-.215.174-.8-.911c-.015,0-.022.01-.037.015l0,1.5H3.453V10.652a.165.165,0,0,1-.033-.014l-.829.917-.215-.174.829-.92a.369.369,0,0,1-.034-.076H2.457v-.226H4.72Zm.459,0v.226h.767a.441.441,0,0,0,.282.269v.673l.285,0v-.668a.434.434,0,0,0,.318-.411.355.355,0,0,0-.01-.087H6.549a.2.2,0,0,1,.02.087.195.195,0,0,1-.389,0,.171.171,0,0,1,.021-.083ZM4.02,14a2.7,2.7,0,0,0,.633-.183l.14.238a3.053,3.053,0,0,1-.749.212.461.461,0,0,1-.889,0,3.035,3.035,0,0,1-.788-.215l.141-.238a2.7,2.7,0,0,0,.68.184.432.432,0,0,1,.262-.232l0-1.167h.281l0,1.162A.452.452,0,0,1,4.019,14ZM2.106,13.6l-.139.239a2.889,2.889,0,0,1-.632-.535A.473.473,0,0,1,.9,13.226a.415.415,0,0,1-.051-.607l.024-.025a2.649,2.649,0,0,1-.22-.833H.941a2.287,2.287,0,0,0,.182.712.5.5,0,0,1,.242.027l.712-.788.215.173-.708.787a.408.408,0,0,1-.017.476A2.632,2.632,0,0,0,2.106,13.6ZM1.05,12.778a.2.2,0,0,1,.275-.021.178.178,0,0,1,.022.26.2.2,0,0,1-.275.021.178.178,0,0,1-.022-.26ZM.691,12,.4,11.933l-.041-.742.29-.1v.425A2.623,2.623,0,0,0,.691,12Zm.243-.919.292.069s.015.477.009.37c-.008-.125.032.373.032.373l-.294.1a2.444,2.444,0,0,1-.039-.466v-.442ZM1.9,13.452a2.717,2.717,0,0,0,.839.446l.065-.282a2.376,2.376,0,0,1-.7-.349Zm-.141.244a3.018,3.018,0,0,0,.839.442l-.218.2a3.245,3.245,0,0,1-.686-.352Zm.38-1.634.278.118.509-.565-.167-.241Zm-.216-.175-.167-.242.51-.565.278.119ZM5.055,13.6l.139.239a2.9,2.9,0,0,0,.632-.535.473.473,0,0,0,.432-.083.415.415,0,0,0,.05-.607l-.024-.025A2.609,2.609,0,0,0,6.5,11.76H6.221a2.3,2.3,0,0,1-.183.712A.506.506,0,0,0,5.8,12.5l-.712-.788-.215.173.707.787a.409.409,0,0,0,.017.476A2.617,2.617,0,0,1,5.055,13.6Zm1.056-.827a.2.2,0,0,0-.274-.021.178.178,0,0,0-.022.26.2.2,0,0,0,.275.021A.178.178,0,0,0,6.11,12.778ZM6.47,12l.293-.065.041-.742-.29-.1v.425A2.58,2.58,0,0,1,6.47,12Zm-.242-.919-.292.069s-.016.477-.009.37c.008-.125-.032.373-.032.373l.294.1a2.43,2.43,0,0,0,.039-.466Zm-.962,2.372a2.727,2.727,0,0,1-.839.446l-.065-.282a2.372,2.372,0,0,0,.694-.349Zm.141.244a3.027,3.027,0,0,1-.839.442l.218.2a3.246,3.246,0,0,0,.686-.352Zm-.38-1.634-.278.118-.51-.565.167-.241Zm.216-.175.167-.242-.51-.565-.278.119Zm-3.487-1.5.086.278h.785l.085-.278Zm3.666,0-.086.278H4.551l-.085-.278ZM3.405,14.174a.195.195,0,1,1,.195.184A.19.19,0,0,1,3.405,14.174Zm.33-1.345.293-.082V12l-.293-.08Zm-.284,0-.292-.082V12l.292-.08Z" transform="translate(-0.331 -6.74)" fill="#c8b100" fill-rule="evenodd"/>
            <path id="Trazado_986765" data-name="Trazado 986765" d="M.356,3.832A.447.447,0,0,1,.667,3.5l0-.916H.947V3.51a.438.438,0,0,1,.29.28H2v.041H.976a.2.2,0,0,0-.174-.1.2.2,0,0,0-.174.1Zm2.117,0V3.791h.708a.411.411,0,0,1,.03-.067l-.873-.973.215-.174.862.957a.406.406,0,0,1,.046-.019V2.24h.282V3.507l.044.011.842-.958.216.172L4,3.685a.4.4,0,0,1,.049.105h.686v.041H2.473Zm3.745,0a.2.2,0,0,1,.174-.1.2.2,0,0,1,.174.1l.271,0a.446.446,0,0,0-.31-.327l0-.916H6.247V3.51a.438.438,0,0,0-.289.279H5.2v.041ZM.993,1.244l1.05,1.177.215-.174L1.2,1.075a.437.437,0,0,0,.049-.1h.768V.7H1.25a.453.453,0,0,0-.434-.3A.444.444,0,0,0,.361.838a.434.434,0,0,0,.306.408l0,.908H.947v-.9c.012,0,.034,0,.045-.008Zm5.54.006,0,.9H6.247V1.247a.425.425,0,0,1-.063-.026L5.14,2.4l-.216-.172,1.064-1.2A.388.388,0,0,1,5.964.972H5.192V.7h.77a.452.452,0,0,1,.432-.3.444.444,0,0,1,.455.431.434.434,0,0,1-.317.412Zm-2.785,0,0,.557H3.462V1.251a.446.446,0,0,1-.3-.279H2.477V.7h.689A.462.462,0,0,1,4.03.7h.7V.972h-.7a.438.438,0,0,1-.281.275ZM.668,1.923.375,2v.744l.293.081Zm.284,0L1.244,2v.744L.952,2.83Zm5.293,0L5.953,2v.744l.292.081Zm.284,0L6.822,2v.744l-.293.081ZM2.1,2.069l.279-.118.51.566-.167.242Zm-.216.176-.167.242.509.566L2.5,2.934Zm3.2-.2L4.8,1.932l-.5.57.169.24Zm.217.174.169.24-.5.57-.278-.117ZM1.772,3.79l.086-.278h.785l.085.278ZM.621.839A.19.19,0,0,1,.816.654.19.19,0,0,1,1.01.839a.189.189,0,0,1-.194.184A.19.19,0,0,1,.621.839Zm2.1.134-.086.279H1.85L1.765.973Zm0-.27L2.634.426H1.85L1.765.7ZM5.438,3.79l-.086-.278H4.567l-.085.278ZM6.2.839a.195.195,0,0,1,.389,0,.195.195,0,0,1-.389,0Zm-2.8,0a.195.195,0,0,1,.389,0,.195.195,0,0,1-.389,0ZM4.489.973l.086.279H5.36L5.445.973Zm0-.27L4.576.426H5.36L5.445.7Zm-1.024.869-.292.082V2.4l.292.081Zm.281,0,.292.082V2.4l-.292.081Z" transform="translate(-0.347 -0.407)" fill="#c8b100" fill-rule="evenodd"/>
            <path id="Trazado_986766" data-name="Trazado 986766" d="M8.356,9.62a.456.456,0,1,1,.456.43.445.445,0,0,1-.456-.43" transform="translate(-5.543 -6.11)" fill="#058e6e" fill-rule="evenodd"/>
          </g>
          <g id="path968" transform="translate(0 8.694)">
            <path id="Trazado_986767" data-name="Trazado 986767" d="M2.63,33.173a4.217,4.217,0,0,0,.956.429l-.023-8.8H2.63Zm2.709.665V24.8H4.383v9.038A4.643,4.643,0,0,0,5.339,33.838Zm.8-.237a3.185,3.185,0,0,0,.956-.407V24.8H6.159Zm1.777-1.148a3.465,3.465,0,0,0,.908-1.985L8.844,24.8H7.888Zm-6.007,0A3.465,3.465,0,0,1,1,30.468L.973,24.8h.956Z" transform="translate(-0.973 -24.8)" fill="#dead00"/>
            <path id="Trazado_986768" data-name="Trazado 986768" d="M2.63,33.173a4.217,4.217,0,0,0,.956.429l-.023-8.8H2.63Zm2.709.665V24.8H4.383v9.038A4.643,4.643,0,0,0,5.339,33.838Zm.8-.237a3.185,3.185,0,0,0,.956-.407V24.8H6.159Zm1.777-1.148a3.465,3.465,0,0,0,.908-1.985L8.844,24.8H7.888Zm-6.007,0A3.465,3.465,0,0,1,1,30.468L.973,24.8h.956Z" transform="translate(-0.973 -24.8)" fill="none" stroke="#262626" stroke-width="0.1"/>
          </g>
          <g id="path1153" transform="translate(5.268 5.96)">
            <path id="Trazado_986769" data-name="Trazado 986769" d="M18.486,17a2.7,2.7,0,0,1,2.486,2.87,2.7,2.7,0,0,1-2.486,2.87A2.7,2.7,0,0,1,16,19.87,2.7,2.7,0,0,1,18.486,17Z" transform="translate(-16 -17)" fill="#f1453d"/>
            <path id="Trazado_986770" data-name="Trazado 986770" d="M18.486,17a2.7,2.7,0,0,1,2.486,2.87,2.7,2.7,0,0,1-2.486,2.87A2.7,2.7,0,0,1,16,19.87,2.7,2.7,0,0,1,18.486,17Z" transform="translate(-16 -17)" fill="none" stroke="#262626" stroke-width="0.1"/>
          </g>
          <g id="path1155" transform="translate(5.969 6.661)">
            <path id="Trazado_986771" data-name="Trazado 986771" d="M19.817,19a1.976,1.976,0,0,1,1.816,2.1,1.977,1.977,0,0,1-1.816,2.105A1.977,1.977,0,0,1,18,21.1,1.976,1.976,0,0,1,19.817,19Z" transform="translate(-18 -19)" fill="#346da6"/>
            <path id="Trazado_986772" data-name="Trazado 986772" d="M19.817,19a1.976,1.976,0,0,1,1.816,2.1,1.977,1.977,0,0,1-1.816,2.105A1.977,1.977,0,0,1,18,21.1,1.976,1.976,0,0,1,19.817,19Z" transform="translate(-18 -19)" fill="none" stroke="#262626" stroke-width="0.1"/>
          </g>
          <g id="path1157" transform="translate(6.425 7.362)">
            <path id="Trazado_986773" data-name="Trazado 986773" d="M19.872,21a.913.913,0,0,0-.21.478,1.12,1.12,0,0,0,.089.423.231.231,0,0,0-.45.079.359.359,0,0,0,.038.13l.075.164a.158.158,0,0,1,.152-.094.167.167,0,0,1,.166.169.163.163,0,0,1-.005.041h-.189v.173h.168l-.125.268.166-.07.125.152.13-.152.166.07-.125-.268h.168v-.173h-.189a.163.163,0,0,1,0-.041.166.166,0,0,1,.165-.169.159.159,0,0,1,.153.094l.075-.164a.356.356,0,0,0,.038-.13A.231.231,0,0,0,20,21.9a1.127,1.127,0,0,0,.088-.423A.906.906,0,0,0,19.871,21h0Zm1.753,0a.914.914,0,0,0-.21.478,1.126,1.126,0,0,0,.088.423.231.231,0,0,0-.45.079.359.359,0,0,0,.038.13l.075.164a.159.159,0,0,1,.153-.094.171.171,0,0,1,.161.21H21.29v.173h.168l-.125.268.165-.07.126.152.13-.152.166.07-.125-.268h.168v-.173h-.189a.157.157,0,0,1,0-.041.167.167,0,0,1,.166-.169.157.157,0,0,1,.152.094l.075-.164a.356.356,0,0,0,.038-.13.231.231,0,0,0-.45-.079,1.122,1.122,0,0,0,.089-.423A.906.906,0,0,0,21.624,21h0Zm-1.052,1.4a.914.914,0,0,0-.21.479,1.119,1.119,0,0,0,.089.422.231.231,0,0,0-.45.079.357.357,0,0,0,.038.13l.075.164a.158.158,0,0,1,.152-.095.168.168,0,0,1,.166.169.159.159,0,0,1-.005.042h-.188v.173h.169l-.125.268.165-.07.125.152.13-.152.166.07-.126-.268h.169v-.173h-.188a.172.172,0,0,1,.161-.211.159.159,0,0,1,.152.095l.075-.164a.359.359,0,0,0,.038-.13.231.231,0,0,0-.45-.079,1.119,1.119,0,0,0,.089-.422.9.9,0,0,0-.215-.479h0Z" transform="translate(-19.3 -21)" fill="#dead00"/>
            <path id="Trazado_986774" data-name="Trazado 986774" d="M19.872,21a.913.913,0,0,0-.21.478,1.12,1.12,0,0,0,.089.423.231.231,0,0,0-.45.079.359.359,0,0,0,.038.13l.075.164a.158.158,0,0,1,.152-.094.167.167,0,0,1,.166.169.163.163,0,0,1-.005.041h-.189v.173h.168l-.125.268.166-.07.125.152.13-.152.166.07-.125-.268h.168v-.173h-.189a.163.163,0,0,1,0-.041.166.166,0,0,1,.165-.169.159.159,0,0,1,.153.094l.075-.164a.356.356,0,0,0,.038-.13A.231.231,0,0,0,20,21.9a1.127,1.127,0,0,0,.088-.423A.906.906,0,0,0,19.871,21h0Zm1.753,0a.914.914,0,0,0-.21.478,1.126,1.126,0,0,0,.088.423.231.231,0,0,0-.45.079.359.359,0,0,0,.038.13l.075.164a.159.159,0,0,1,.153-.094.171.171,0,0,1,.161.21H21.29v.173h.168l-.125.268.165-.07.126.152.13-.152.166.07-.125-.268h.168v-.173h-.189a.157.157,0,0,1,0-.041.167.167,0,0,1,.166-.169.157.157,0,0,1,.152.094l.075-.164a.356.356,0,0,0,.038-.13.231.231,0,0,0-.45-.079,1.122,1.122,0,0,0,.089-.423A.906.906,0,0,0,21.624,21h0Zm-1.052,1.4a.914.914,0,0,0-.21.479,1.119,1.119,0,0,0,.089.422.231.231,0,0,0-.45.079.357.357,0,0,0,.038.13l.075.164a.158.158,0,0,1,.152-.095.168.168,0,0,1,.166.169.159.159,0,0,1-.005.042h-.188v.173h.169l-.125.268.165-.07.125.152.13-.152.166.07-.126-.268h.169v-.173h-.188a.172.172,0,0,1,.161-.211.159.159,0,0,1,.152.095l.075-.164a.359.359,0,0,0,.038-.13.231.231,0,0,0-.45-.079,1.119,1.119,0,0,0,.089-.422.9.9,0,0,0-.215-.479h0Z" transform="translate(-19.3 -21)" fill="none" stroke="#262626" stroke-width="0.1"/>
          </g>
        </g>
        <g id="right" transform="translate(22.787 8.422)">
          <g id="path648" transform="translate(1.131 2.446)">
            <path id="Trazado_986775" data-name="Trazado 986775" d="M3.429,7.957a.873.873,0,0,1,.129.391.772.772,0,0,1-.129.374H6.152a.544.544,0,0,1-.237-.374.6.6,0,0,1,.237-.391h.289V7H3v.957Z" transform="translate(-3 -7)" fill="#e5b731"/>
            <path id="Trazado_986776" data-name="Trazado 986776" d="M3.429,7.957a.873.873,0,0,1,.129.391.772.772,0,0,1-.129.374H6.152a.544.544,0,0,1-.237-.374.6.6,0,0,1,.237-.391h.289V7H3v.957Z" transform="translate(-3 -7)" fill="none" stroke="#262626" stroke-width="0.1"/>
          </g>
          <g id="path648-2" data-name="path648" transform="translate(1.131 18.571)">
            <path id="Trazado_986777" data-name="Trazado 986777" d="M3.429-57.147a.873.873,0,0,0,.129-.391.772.772,0,0,0-.129-.374H6.152a.544.544,0,0,0-.237.374.6.6,0,0,0,.237.391h.289v.957H3v-.957Z" transform="translate(-3 57.943)" fill="#e5b731"/>
            <path id="Trazado_986778" data-name="Trazado 986778" d="M3.429,53.957a.873.873,0,0,1,.129.391.772.772,0,0,1-.129.374H6.152a.544.544,0,0,1-.237-.374.6.6,0,0,1,.237-.391h.289V53H3v.957Z" transform="translate(-3 -53)" fill="none" stroke="#262626" stroke-width="0.1"/>
          </g>
          <path id="Rectangle-1" d="M4,12H6.8V26.373H4Z" transform="translate(-2.518 -7.802)" fill="#d8d8d8" stroke="#000" stroke-width="0.1" fill-rule="evenodd"/>
          <g id="path656" transform="translate(0.43 19.974)">
            <path id="Trazado_986779" data-name="Trazado 986779" d="M5.178,57.115A1.443,1.443,0,0,0,4.585,57a1.464,1.464,0,0,0-.6.116,1.436,1.436,0,0,1-.6.12,1.4,1.4,0,0,1-.6-.126A1.457,1.457,0,0,0,2.2,57a1.411,1.411,0,0,0-.592.113A1.433,1.433,0,0,1,1,57.236v1.74a1.441,1.441,0,0,0,.606-.124,1.418,1.418,0,0,1,.592-.114,1.451,1.451,0,0,1,.582.111,1.409,1.409,0,0,0,.6.126,1.444,1.444,0,0,0,.6-.12,1.447,1.447,0,0,1,.6-.117,1.436,1.436,0,0,1,.593.116,1.391,1.391,0,0,0,.6.121l0-1.74a1.407,1.407,0,0,1-.6-.121Z" transform="translate(-1 -57)" fill="#0044ad"/>
            <path id="Trazado_986780" data-name="Trazado 986780" d="M5.178,57.115A1.443,1.443,0,0,0,4.585,57a1.464,1.464,0,0,0-.6.116,1.436,1.436,0,0,1-.6.12,1.4,1.4,0,0,1-.6-.126A1.457,1.457,0,0,0,2.2,57a1.411,1.411,0,0,0-.592.113A1.433,1.433,0,0,1,1,57.236v1.74a1.441,1.441,0,0,0,.606-.124,1.418,1.418,0,0,1,.592-.114,1.451,1.451,0,0,1,.582.111,1.409,1.409,0,0,0,.6.126,1.444,1.444,0,0,0,.6-.12,1.447,1.447,0,0,1,.6-.117,1.436,1.436,0,0,1,.593.116,1.391,1.391,0,0,0,.6.121l0-1.74a1.407,1.407,0,0,1-.6-.121Z" transform="translate(-1 -57)" fill="none" stroke="#262626" stroke-width="0.1"/>
          </g>
          <g id="path657" transform="translate(0.43 21.025)">
            <path id="Trazado_986781" data-name="Trazado 986781" d="M5.78,60.237a1.407,1.407,0,0,1-.6-.121A1.437,1.437,0,0,0,4.585,60a1.448,1.448,0,0,0-.6.117,1.445,1.445,0,0,1-.6.12,1.412,1.412,0,0,1-.6-.126A1.448,1.448,0,0,0,2.2,60a1.418,1.418,0,0,0-.592.114A1.442,1.442,0,0,1,1,60.237v.337a1.442,1.442,0,0,0,.606-.123,1.4,1.4,0,0,1,.592-.114,1.455,1.455,0,0,1,.582.111,1.408,1.408,0,0,0,.6.126,1.446,1.446,0,0,0,.6-.12,1.455,1.455,0,0,1,.6-.117,1.437,1.437,0,0,1,.593.116,1.4,1.4,0,0,0,.6.121l0-.337" transform="translate(-1 -60)" fill="#ccc"/>
            <path id="Trazado_986782" data-name="Trazado 986782" d="M5.78,60.237a1.407,1.407,0,0,1-.6-.121A1.437,1.437,0,0,0,4.585,60a1.448,1.448,0,0,0-.6.117,1.445,1.445,0,0,1-.6.12,1.412,1.412,0,0,1-.6-.126A1.448,1.448,0,0,0,2.2,60a1.418,1.418,0,0,0-.592.114A1.442,1.442,0,0,1,1,60.237v.337a1.442,1.442,0,0,0,.606-.123,1.4,1.4,0,0,1,.592-.114,1.455,1.455,0,0,1,.582.111,1.408,1.408,0,0,0,.6.126,1.446,1.446,0,0,0,.6-.12,1.455,1.455,0,0,1,.6-.117,1.437,1.437,0,0,1,.593.116,1.4,1.4,0,0,0,.6.121l0-.337" transform="translate(-1 -60)" fill="none" stroke="#262626" stroke-width="0.1"/>
          </g>
          <g id="path819" transform="translate(0 7.704)">
            <path id="Trazado_986783" data-name="Trazado 986783" d="M2.4,23.408a7.907,7.907,0,0,1,1.2.106,7.416,7.416,0,0,1,1.466.387l-1.043.312L4.1,25.4a5.555,5.555,0,0,0,1.241-.169c.483-.14.849-.369.842-.334,0,.01.54-1.272.548-1.32.1-.533-1.169-1.187-2.838-1.461A8.771,8.771,0,0,0,2.415,22a8.861,8.861,0,0,0-2.635.306L-.227,23.8a8.867,8.867,0,0,1,2.631-.39Z" transform="translate(0.227 -22)" fill="#f1453d"/>
            <path id="Trazado_986784" data-name="Trazado 986784" d="M2.4,23.408a7.907,7.907,0,0,1,1.2.106,7.416,7.416,0,0,1,1.466.387l-1.043.312L4.1,25.4a5.555,5.555,0,0,0,1.241-.169c.483-.14.849-.369.842-.334,0,.01.54-1.272.548-1.32.1-.533-1.169-1.187-2.838-1.461A8.771,8.771,0,0,0,2.415,22a8.861,8.861,0,0,0-2.635.306L-.227,23.8a8.867,8.867,0,0,1,2.631-.39Z" transform="translate(0.227 -22)" fill="none" stroke="#262626" stroke-width="0.1"/>
          </g>
          <g id="path825" transform="translate(1.482 10.533)">
            <path id="Trazado_986785" data-name="Trazado 986785" d="M7.6,32.08c-.435-.155-.795-.317-1.24-.513a10.045,10.045,0,0,1-2.346-1.5V31.3c-.121.224.774.883,1.991,1.465.39.186,1.214.489,1.6.625.314.109.969.427.969.427s-.876.484-.065,1.41a.872.872,0,0,1,.649-.728V33.019c.065-.2-.609-.59-1.561-.939Z" transform="translate(-4 -30.071)" fill="#f1453d"/>
            <path id="Trazado_986786" data-name="Trazado 986786" d="M7.6,32.08c-.435-.155-.795-.317-1.24-.513a10.045,10.045,0,0,1-2.346-1.5V31.3c-.121.224.774.883,1.991,1.465.39.186,1.214.489,1.6.625.314.109.969.427.969.427s-.876.484-.065,1.41a.872.872,0,0,1,.649-.728V33.019c.065-.2-.609-.59-1.561-.939Z" transform="translate(-4 -30.071)" fill="none" stroke="#262626" stroke-width="0.1"/>
          </g>
          <g id="path657-2" data-name="path657" transform="translate(0.43 20.324)">
            <path id="Trazado_986787" data-name="Trazado 986787" d="M5.78,58.237a1.407,1.407,0,0,1-.6-.121A1.437,1.437,0,0,0,4.585,58a1.448,1.448,0,0,0-.6.117,1.445,1.445,0,0,1-.6.12,1.412,1.412,0,0,1-.6-.126A1.448,1.448,0,0,0,2.2,58a1.418,1.418,0,0,0-.592.114A1.442,1.442,0,0,1,1,58.237v.337a1.442,1.442,0,0,0,.606-.123,1.4,1.4,0,0,1,.592-.114,1.455,1.455,0,0,1,.582.111,1.408,1.408,0,0,0,.6.126,1.446,1.446,0,0,0,.6-.12,1.455,1.455,0,0,1,.6-.117,1.437,1.437,0,0,1,.593.116,1.4,1.4,0,0,0,.6.121l0-.337" transform="translate(-1 -58)" fill="#ccc"/>
            <path id="Trazado_986788" data-name="Trazado 986788" d="M5.78,58.237a1.407,1.407,0,0,1-.6-.121A1.437,1.437,0,0,0,4.585,58a1.448,1.448,0,0,0-.6.117,1.445,1.445,0,0,1-.6.12,1.412,1.412,0,0,1-.6-.126A1.448,1.448,0,0,0,2.2,58a1.418,1.418,0,0,0-.592.114A1.442,1.442,0,0,1,1,58.237v.337a1.442,1.442,0,0,0,.606-.123,1.4,1.4,0,0,1,.592-.114,1.455,1.455,0,0,1,.582.111,1.408,1.408,0,0,0,.6.126,1.446,1.446,0,0,0,.6-.12,1.455,1.455,0,0,1,.6-.117,1.437,1.437,0,0,1,.593.116,1.4,1.4,0,0,0,.6.121l0-.337" transform="translate(-1 -58)" fill="none" stroke="#262626" stroke-width="0.1"/>
          </g>
          <g id="crown" transform="translate(1.421 0)">
            <g id="path556" transform="translate(0 0.364)">
              <path id="Trazado_986789" data-name="Trazado 986789" d="M.239,2.436A1.887,1.887,0,0,1,.08,2.269l-.1-.084L-.1,2.036A.584.584,0,0,1-.16,1.674a.416.416,0,0,1,.2-.26,1.549,1.549,0,0,1,.223-.1,1.274,1.274,0,0,1,.16-.075c.04-.009.184-.056.184-.056a.633.633,0,0,1,.08-.046.841.841,0,0,1,.128-.028.9.9,0,0,1,.159-.044c.074,0,.192.016.232.016s.175.01.231.01.255-.019.311-.019a1,1,0,0,1,.16,0,.81.81,0,0,1,.208.075c.032.019.224.1.3.13a2.559,2.559,0,0,1,.328.111.52.52,0,0,1,.168.19.727.727,0,0,1,.064.183.408.408,0,0,1,0,.193,1.2,1.2,0,0,1-.073.142l-.088.176L2.7,2.38s-.08.094-.144.084a1.865,1.865,0,0,1-1.118.2c-.974,0-1.13-.2-1.13-.2a.133.133,0,0,1-.068-.028Z" transform="translate(0.172 -1.062)" fill="#f1453d"/>
              <path id="Trazado_986790" data-name="Trazado 986790" d="M.239,2.436A1.887,1.887,0,0,1,.08,2.269l-.1-.084L-.1,2.036A.584.584,0,0,1-.16,1.674a.416.416,0,0,1,.2-.26,1.549,1.549,0,0,1,.223-.1,1.274,1.274,0,0,1,.16-.075c.04-.009.184-.056.184-.056a.633.633,0,0,1,.08-.046.841.841,0,0,1,.128-.028.9.9,0,0,1,.159-.044c.074,0,.192.016.232.016s.175.01.231.01.255-.019.311-.019a1,1,0,0,1,.16,0,.81.81,0,0,1,.208.075c.032.019.224.1.3.13a2.559,2.559,0,0,1,.328.111.52.52,0,0,1,.168.19.727.727,0,0,1,.064.183.408.408,0,0,1,0,.193,1.2,1.2,0,0,1-.073.142l-.088.176L2.7,2.38s-.08.094-.144.084a1.865,1.865,0,0,1-1.118.2c-.974,0-1.13-.2-1.13-.2a.133.133,0,0,1-.068-.028Z" transform="translate(0.172 -1.062)" fill="none" stroke="#262626" stroke-width="0.1"/>
            </g>
            <g id="path568" transform="translate(0.236)">
              <path id="Trazado_986791" data-name="Trazado 986791" d="M1.066,1.514l-.018-.181-.036-.189L.973.908C.761.639.566.463.5.5A.17.17,0,0,1,.575.391c.189-.108.578.151.871.575.026.039.052.078.074.116h.213S1.567.689,1.655.5c.029-.063.132-.053.132-.053V.227H1.665V.155h.122V.024h.089V.155h.116V.227H1.874s0,.182,0,.215c.013,0,.116,0,.144.057.07.116-.07.583-.07.583h.205s.048-.077.075-.116c.292-.424.682-.683.87-.575A.173.173,0,0,1,3.177.5C3.111.463,2.916.639,2.7.908l-.038.236-.036.189-.018.181H1.066Z" transform="translate(-0.5 -0.024)" fill="#dead00"/>
              <path id="Trazado_986792" data-name="Trazado 986792" d="M1.066,1.514l-.018-.181-.036-.189L.973.908C.761.639.566.463.5.5A.17.17,0,0,1,.575.391c.189-.108.578.151.871.575.026.039.052.078.074.116h.213S1.567.689,1.655.5c.029-.063.132-.053.132-.053V.227H1.665V.155h.122V.024h.089V.155h.116V.227H1.874s0,.182,0,.215c.013,0,.116,0,.144.057.07.116-.07.583-.07.583h.205s.048-.077.075-.116c.292-.424.682-.683.87-.575A.173.173,0,0,1,3.177.5C3.111.463,2.916.639,2.7.908l-.038.236-.036.189-.018.181H1.066Z" transform="translate(-0.5 -0.024)" fill="none" stroke="#262626" stroke-width="0.1"/>
            </g>
            <g id="path577" transform="translate(0.06 1.043)">
              <path id="Trazado_986793" data-name="Trazado 986793" d="M1.579,3.006a.1.1,0,0,0-.009.047c0,.073.079.133.177.133a.178.178,0,0,0,.167-.092s.017-.048.024-.048,0,.052.008.051a.165.165,0,0,0,.174.112A.158.158,0,0,0,2.3,3.077a.092.092,0,0,0,0-.016l.055-.044.03.056a.1.1,0,0,0-.017.058.152.152,0,0,0,.168.127.187.187,0,0,0,.14-.057l.036-.036V3.21a.085.085,0,0,0,.078.09.27.27,0,0,0,.144-.048.868.868,0,0,0,.127-.095l.005.053a.549.549,0,0,1-.154.139c-.04.019-.151.359-.2.352a5.72,5.72,0,0,0-1.173-.133,5.041,5.041,0,0,0-1.174.163C.311,3.739.2,3.368.16,3.35A.612.612,0,0,1,0,3.21l.011-.053a.916.916,0,0,0,.127.095A.268.268,0,0,0,.282,3.3.085.085,0,0,0,.36,3.21V3.165L.395,3.2a.187.187,0,0,0,.14.057A.152.152,0,0,0,.7,3.131a.1.1,0,0,0-.016-.058l.03-.056.055.044a.079.079,0,0,0,0,.016c0,.073.078.133.176.133A.165.165,0,0,0,1.12,3.1s0-.051.008-.051.022.049.024.048a.179.179,0,0,0,.168.092A.159.159,0,0,0,1.5,3.053a.1.1,0,0,0-.009-.047L1.533,3Z" transform="translate(0 -3)" fill="#dead00"/>
              <path id="Trazado_986794" data-name="Trazado 986794" d="M1.579,3.006a.1.1,0,0,0-.009.047c0,.073.079.133.177.133a.178.178,0,0,0,.167-.092s.017-.048.024-.048,0,.052.008.051a.165.165,0,0,0,.174.112A.158.158,0,0,0,2.3,3.077a.092.092,0,0,0,0-.016l.055-.044.03.056a.1.1,0,0,0-.017.058.152.152,0,0,0,.168.127.187.187,0,0,0,.14-.057l.036-.036V3.21a.085.085,0,0,0,.078.09.27.27,0,0,0,.144-.048.868.868,0,0,0,.127-.095l.005.053a.549.549,0,0,1-.154.139c-.04.019-.151.359-.2.352a5.72,5.72,0,0,0-1.173-.133,5.041,5.041,0,0,0-1.174.163C.311,3.739.2,3.368.16,3.35A.612.612,0,0,1,0,3.21l.011-.053a.916.916,0,0,0,.127.095A.268.268,0,0,0,.282,3.3.085.085,0,0,0,.36,3.21V3.165L.395,3.2a.187.187,0,0,0,.14.057A.152.152,0,0,0,.7,3.131a.1.1,0,0,0-.016-.058l.03-.056.055.044a.079.079,0,0,0,0,.016c0,.073.078.133.176.133A.165.165,0,0,0,1.12,3.1s0-.051.008-.051.022.049.024.048a.179.179,0,0,0,.168.092A.159.159,0,0,0,1.5,3.053a.1.1,0,0,0-.009-.047L1.533,3Z" transform="translate(0 -3)" fill="none" stroke="#262626" stroke-width="0.1"/>
            </g>
          </g>
        </g>
        <g id="left" transform="translate(0 8.422)">
          <g id="path648-3" data-name="path648" transform="translate(2.533 2.446)">
            <path id="Trazado_986795" data-name="Trazado 986795" d="M7.429,7.957a.873.873,0,0,1,.129.391.772.772,0,0,1-.129.374h2.723a.544.544,0,0,1-.237-.374.6.6,0,0,1,.237-.391h.289V7H7v.957Z" transform="translate(-7 -7)" fill="#e5b731"/>
            <path id="Trazado_986796" data-name="Trazado 986796" d="M7.429,7.957a.873.873,0,0,1,.129.391.772.772,0,0,1-.129.374h2.723a.544.544,0,0,1-.237-.374.6.6,0,0,1,.237-.391h.289V7H7v.957Z" transform="translate(-7 -7)" fill="none" stroke="#262626" stroke-width="0.1"/>
          </g>
          <g id="path648-4" data-name="path648" transform="translate(2.533 18.571)">
            <path id="Trazado_986797" data-name="Trazado 986797" d="M7.429-57.147a.873.873,0,0,0,.129-.391.772.772,0,0,0-.129-.374h2.723a.544.544,0,0,0-.237.374.6.6,0,0,0,.237.391h.289v.957H7v-.957Z" transform="translate(-7 57.943)" fill="#e5b731"/>
            <path id="Trazado_986798" data-name="Trazado 986798" d="M7.429,53.957a.873.873,0,0,1,.129.391.772.772,0,0,1-.129.374h2.723a.544.544,0,0,1-.237-.374.6.6,0,0,1,.237-.391h.289V53H7v.957Z" transform="translate(-7 -53)" fill="none" stroke="#262626" stroke-width="0.1"/>
          </g>
          <path id="Rectangle-1-2" data-name="Rectangle-1" d="M8,12h2.8V26.373H8Z" transform="translate(-5.116 -7.802)" fill="#d8d8d8" stroke="#000" stroke-width="0.1" fill-rule="evenodd"/>
          <g id="path656-2" data-name="path656" transform="translate(1.832 19.974)">
            <path id="Trazado_986799" data-name="Trazado 986799" d="M9.178,57.115A1.443,1.443,0,0,0,8.585,57a1.464,1.464,0,0,0-.6.116,1.436,1.436,0,0,1-.6.12,1.4,1.4,0,0,1-.6-.126A1.457,1.457,0,0,0,6.2,57a1.411,1.411,0,0,0-.592.113A1.433,1.433,0,0,1,5,57.236v1.74a1.441,1.441,0,0,0,.606-.124,1.418,1.418,0,0,1,.592-.114,1.451,1.451,0,0,1,.582.111,1.409,1.409,0,0,0,.6.126,1.444,1.444,0,0,0,.6-.12,1.581,1.581,0,0,1,1.193,0,1.391,1.391,0,0,0,.6.121l0-1.74A1.407,1.407,0,0,1,9.178,57.115Z" transform="translate(-5 -57)" fill="#0044ad"/>
            <path id="Trazado_986800" data-name="Trazado 986800" d="M9.178,57.115A1.443,1.443,0,0,0,8.585,57a1.464,1.464,0,0,0-.6.116,1.436,1.436,0,0,1-.6.12,1.4,1.4,0,0,1-.6-.126A1.457,1.457,0,0,0,6.2,57a1.411,1.411,0,0,0-.592.113A1.433,1.433,0,0,1,5,57.236v1.74a1.441,1.441,0,0,0,.606-.124,1.418,1.418,0,0,1,.592-.114,1.451,1.451,0,0,1,.582.111,1.409,1.409,0,0,0,.6.126,1.444,1.444,0,0,0,.6-.12,1.581,1.581,0,0,1,1.193,0,1.391,1.391,0,0,0,.6.121l0-1.74A1.407,1.407,0,0,1,9.178,57.115Z" transform="translate(-5 -57)" fill="none" stroke="#262626" stroke-width="0.1"/>
          </g>
          <g id="path657-3" data-name="path657" transform="translate(1.832 21.025)">
            <path id="Trazado_986801" data-name="Trazado 986801" d="M9.78,60.237a1.407,1.407,0,0,1-.6-.121,1.582,1.582,0,0,0-1.193,0,1.445,1.445,0,0,1-.6.12,1.412,1.412,0,0,1-.6-.126A1.448,1.448,0,0,0,6.2,60a1.418,1.418,0,0,0-.592.114A1.442,1.442,0,0,1,5,60.237v.337a1.442,1.442,0,0,0,.606-.123,1.4,1.4,0,0,1,.592-.114,1.455,1.455,0,0,1,.582.111,1.408,1.408,0,0,0,.6.126,1.446,1.446,0,0,0,.6-.12,1.455,1.455,0,0,1,.6-.117,1.437,1.437,0,0,1,.593.116,1.4,1.4,0,0,0,.6.121l0-.337" transform="translate(-5 -60)" fill="#ccc"/>
            <path id="Trazado_986802" data-name="Trazado 986802" d="M9.78,60.237a1.407,1.407,0,0,1-.6-.121,1.582,1.582,0,0,0-1.193,0,1.445,1.445,0,0,1-.6.12,1.412,1.412,0,0,1-.6-.126A1.448,1.448,0,0,0,6.2,60a1.418,1.418,0,0,0-.592.114A1.442,1.442,0,0,1,5,60.237v.337a1.442,1.442,0,0,0,.606-.123,1.4,1.4,0,0,1,.592-.114,1.455,1.455,0,0,1,.582.111,1.408,1.408,0,0,0,.6.126,1.446,1.446,0,0,0,.6-.12,1.455,1.455,0,0,1,.6-.117,1.437,1.437,0,0,1,.593.116,1.4,1.4,0,0,0,.6.121l0-.337" transform="translate(-5 -60)" fill="none" stroke="#262626" stroke-width="0.1"/>
          </g>
          <g id="path819-2" data-name="path819" transform="translate(0 7.704)">
            <path id="Trazado_986803" data-name="Trazado 986803" d="M2.631,1.99a7.907,7.907,0,0,0,1.2-.106A7.416,7.416,0,0,0,5.3,1.5L4.259,1.185,4.326,0A5.555,5.555,0,0,1,5.568.169c.483.14.849.369.842.334,0-.01.54,1.272.548,1.32.1.533-1.169,1.187-2.838,1.461A8.771,8.771,0,0,1,2.642,3.4,8.861,8.861,0,0,1,.007,3.091L0,1.6a8.867,8.867,0,0,0,2.631.39Z" transform="translate(7.17 3.398) rotate(180)" fill="#f1453d"/>
            <path id="Trazado_986804" data-name="Trazado 986804" d="M2.4,23.408a7.907,7.907,0,0,1,1.2.106,7.416,7.416,0,0,1,1.466.387l-1.043.312L4.1,25.4a5.555,5.555,0,0,0,1.241-.169c.483-.14.849-.369.842-.334,0,.01.54-1.272.548-1.32.1-.533-1.169-1.187-2.838-1.461A8.771,8.771,0,0,0,2.415,22a8.861,8.861,0,0,0-2.635.306L-.227,23.8a8.867,8.867,0,0,1,2.631-.39Z" transform="translate(0.227 -22)" fill="none" stroke="#262626" stroke-width="0.1"/>
          </g>
          <g id="path825-2" data-name="path825" transform="translate(0.43 10.533)">
            <path id="Trazado_986805" data-name="Trazado 986805" d="M3.6,3.151c-.435.155-.795.317-1.24.513A10.045,10.045,0,0,0,.011,5.16V3.926C-.11,3.7.785,3.043,2,2.462c.39-.186,1.214-.489,1.6-.625.314-.109.969-.427.969-.427S3.7.926,4.509,0a.872.872,0,0,0,.649.728V2.212c.065.2-.609.59-1.561.939Z" transform="translate(5.258 5.16) rotate(180)" fill="#f1453d"/>
            <path id="Trazado_986806" data-name="Trazado 986806" d="M4.6,32.08c-.435-.155-.795-.317-1.24-.513a10.045,10.045,0,0,1-2.346-1.5V31.3c-.121.224.774.883,1.991,1.465.39.186,1.214.489,1.6.625.314.109.969.427.969.427s-.876.484-.065,1.41a.872.872,0,0,1,.649-.728V33.019c.065-.2-.609-.59-1.561-.939Z" transform="translate(-1 -30.071)" fill="none" stroke="#262626" stroke-width="0.1"/>
          </g>
          <g id="path657-4" data-name="path657" transform="translate(1.832 20.324)">
            <path id="Trazado_986807" data-name="Trazado 986807" d="M9.78,58.237a1.407,1.407,0,0,1-.6-.121,1.582,1.582,0,0,0-1.193,0,1.445,1.445,0,0,1-.6.12,1.412,1.412,0,0,1-.6-.126A1.448,1.448,0,0,0,6.2,58a1.418,1.418,0,0,0-.592.114A1.442,1.442,0,0,1,5,58.237v.337a1.442,1.442,0,0,0,.606-.123,1.4,1.4,0,0,1,.592-.114,1.455,1.455,0,0,1,.582.111,1.408,1.408,0,0,0,.6.126,1.446,1.446,0,0,0,.6-.12,1.455,1.455,0,0,1,.6-.117,1.437,1.437,0,0,1,.593.116,1.4,1.4,0,0,0,.6.121l0-.337" transform="translate(-5 -58)" fill="#ccc"/>
            <path id="Trazado_986808" data-name="Trazado 986808" d="M9.78,58.237a1.407,1.407,0,0,1-.6-.121,1.582,1.582,0,0,0-1.193,0,1.445,1.445,0,0,1-.6.12,1.412,1.412,0,0,1-.6-.126A1.448,1.448,0,0,0,6.2,58a1.418,1.418,0,0,0-.592.114A1.442,1.442,0,0,1,5,58.237v.337a1.442,1.442,0,0,0,.606-.123,1.4,1.4,0,0,1,.592-.114,1.455,1.455,0,0,1,.582.111,1.408,1.408,0,0,0,.6.126,1.446,1.446,0,0,0,.6-.12,1.455,1.455,0,0,1,.6-.117,1.437,1.437,0,0,1,.593.116,1.4,1.4,0,0,0,.6.121l0-.337" transform="translate(-5 -58)" fill="none" stroke="#262626" stroke-width="0.1"/>
          </g>
          <g id="crown-2" data-name="crown" transform="translate(2.648 0)">
            <g id="path556-2" data-name="path556" transform="translate(0 0.364)">
              <path id="Trazado_986809" data-name="Trazado 986809" d="M.239,2.436A1.887,1.887,0,0,1,.08,2.269l-.1-.084L-.1,2.036A.584.584,0,0,1-.16,1.674a.416.416,0,0,1,.2-.26,1.549,1.549,0,0,1,.223-.1,1.274,1.274,0,0,1,.16-.075c.04-.009.184-.056.184-.056a.633.633,0,0,1,.08-.046.841.841,0,0,1,.128-.028.9.9,0,0,1,.159-.044c.074,0,.192.016.232.016s.175.01.231.01.255-.019.311-.019a1,1,0,0,1,.16,0,.81.81,0,0,1,.208.075c.032.019.224.1.3.13a2.559,2.559,0,0,1,.328.111.52.52,0,0,1,.168.19.727.727,0,0,1,.064.183.408.408,0,0,1,0,.193,1.2,1.2,0,0,1-.073.142l-.088.176L2.7,2.38s-.08.094-.144.084a1.865,1.865,0,0,1-1.118.2c-.974,0-1.13-.2-1.13-.2a.133.133,0,0,1-.068-.028Z" transform="translate(0.172 -1.062)" fill="#f1453d"/>
              <path id="Trazado_986810" data-name="Trazado 986810" d="M.239,2.436A1.887,1.887,0,0,1,.08,2.269l-.1-.084L-.1,2.036A.584.584,0,0,1-.16,1.674a.416.416,0,0,1,.2-.26,1.549,1.549,0,0,1,.223-.1,1.274,1.274,0,0,1,.16-.075c.04-.009.184-.056.184-.056a.633.633,0,0,1,.08-.046.841.841,0,0,1,.128-.028.9.9,0,0,1,.159-.044c.074,0,.192.016.232.016s.175.01.231.01.255-.019.311-.019a1,1,0,0,1,.16,0,.81.81,0,0,1,.208.075c.032.019.224.1.3.13a2.559,2.559,0,0,1,.328.111.52.52,0,0,1,.168.19.727.727,0,0,1,.064.183.408.408,0,0,1,0,.193,1.2,1.2,0,0,1-.073.142l-.088.176L2.7,2.38s-.08.094-.144.084a1.865,1.865,0,0,1-1.118.2c-.974,0-1.13-.2-1.13-.2a.133.133,0,0,1-.068-.028Z" transform="translate(0.172 -1.062)" fill="none" stroke="#262626" stroke-width="0.1"/>
            </g>
            <g id="path568-2" data-name="path568" transform="translate(0.236)">
              <path id="Trazado_986811" data-name="Trazado 986811" d="M1.066,1.514l-.018-.181-.036-.189L.973.908C.761.639.566.463.5.5A.17.17,0,0,1,.575.391c.189-.108.578.151.871.575.026.039.052.078.074.116h.213S1.567.689,1.655.5c.029-.063.132-.053.132-.053V.227H1.665V.155h.122V.024h.089V.155h.116V.227H1.874s0,.182,0,.215c.013,0,.116,0,.144.057.07.116-.07.583-.07.583h.205s.048-.077.075-.116c.292-.424.682-.683.87-.575A.173.173,0,0,1,3.177.5C3.111.463,2.916.639,2.7.908l-.038.236-.036.189-.018.181H1.066Z" transform="translate(-0.5 -0.024)" fill="#dead00"/>
              <path id="Trazado_986812" data-name="Trazado 986812" d="M1.066,1.514l-.018-.181-.036-.189L.973.908C.761.639.566.463.5.5A.17.17,0,0,1,.575.391c.189-.108.578.151.871.575.026.039.052.078.074.116h.213S1.567.689,1.655.5c.029-.063.132-.053.132-.053V.227H1.665V.155h.122V.024h.089V.155h.116V.227H1.874s0,.182,0,.215c.013,0,.116,0,.144.057.07.116-.07.583-.07.583h.205s.048-.077.075-.116c.292-.424.682-.683.87-.575A.173.173,0,0,1,3.177.5C3.111.463,2.916.639,2.7.908l-.038.236-.036.189-.018.181H1.066Z" transform="translate(-0.5 -0.024)" fill="none" stroke="#262626" stroke-width="0.1"/>
            </g>
            <g id="path577-2" data-name="path577" transform="translate(0.06 1.043)">
              <path id="Trazado_986813" data-name="Trazado 986813" d="M1.579,3.006a.1.1,0,0,0-.009.047c0,.073.079.133.177.133a.178.178,0,0,0,.167-.092s.017-.048.024-.048,0,.052.008.051a.165.165,0,0,0,.174.112A.158.158,0,0,0,2.3,3.077a.092.092,0,0,0,0-.016l.055-.044.03.056a.1.1,0,0,0-.017.058.152.152,0,0,0,.168.127.187.187,0,0,0,.14-.057l.036-.036V3.21a.085.085,0,0,0,.078.09.27.27,0,0,0,.144-.048.868.868,0,0,0,.127-.095l.005.053a.549.549,0,0,1-.154.139c-.04.019-.151.359-.2.352a5.72,5.72,0,0,0-1.173-.133,5.041,5.041,0,0,0-1.174.163C.311,3.739.2,3.368.16,3.35A.612.612,0,0,1,0,3.21l.011-.053a.916.916,0,0,0,.127.095A.268.268,0,0,0,.282,3.3.085.085,0,0,0,.36,3.21V3.165L.395,3.2a.187.187,0,0,0,.14.057A.152.152,0,0,0,.7,3.131a.1.1,0,0,0-.016-.058l.03-.056.055.044a.079.079,0,0,0,0,.016c0,.073.078.133.176.133A.165.165,0,0,0,1.12,3.1s0-.051.008-.051.022.049.024.048a.179.179,0,0,0,.168.092A.159.159,0,0,0,1.5,3.053a.1.1,0,0,0-.009-.047L1.533,3Z" transform="translate(0 -3)" fill="#dead00"/>
              <path id="Trazado_986814" data-name="Trazado 986814" d="M1.579,3.006a.1.1,0,0,0-.009.047c0,.073.079.133.177.133a.178.178,0,0,0,.167-.092s.017-.048.024-.048,0,.052.008.051a.165.165,0,0,0,.174.112A.158.158,0,0,0,2.3,3.077a.092.092,0,0,0,0-.016l.055-.044.03.056a.1.1,0,0,0-.017.058.152.152,0,0,0,.168.127.187.187,0,0,0,.14-.057l.036-.036V3.21a.085.085,0,0,0,.078.09.27.27,0,0,0,.144-.048.868.868,0,0,0,.127-.095l.005.053a.549.549,0,0,1-.154.139c-.04.019-.151.359-.2.352a5.72,5.72,0,0,0-1.173-.133,5.041,5.041,0,0,0-1.174.163C.311,3.739.2,3.368.16,3.35A.612.612,0,0,1,0,3.21l.011-.053a.916.916,0,0,0,.127.095A.268.268,0,0,0,.282,3.3.085.085,0,0,0,.36,3.21V3.165L.395,3.2a.187.187,0,0,0,.14.057A.152.152,0,0,0,.7,3.131a.1.1,0,0,0-.016-.058l.03-.056.055.044a.079.079,0,0,0,0,.016c0,.073.078.133.176.133A.165.165,0,0,0,1.12,3.1s0-.051.008-.051.022.049.024.048a.179.179,0,0,0,.168.092A.159.159,0,0,0,1.5,3.053a.1.1,0,0,0-.009-.047L1.533,3Z" transform="translate(0 -3)" fill="none" stroke="#262626" stroke-width="0.1"/>
            </g>
          </g>
        </g>
        <g id="crown-3" data-name="crown" transform="translate(7.441 0)">
          <g id="path833" transform="translate(0 3.856)">
            <path id="Trazado_986815" data-name="Trazado 986815" d="M10.265,11.388a4.865,4.865,0,0,0,1.3.334,5.18,5.18,0,0,0,1.063.037,4.2,4.2,0,0,1,1.647.384,4.429,4.429,0,0,1,1.21.76l-.243.216-.07.612-.667.761-.333.282-.789.63-.4.033-.123.348S14.278,17.606,7.9,17.5,2.63,15.784,2.63,15.784l-.123-.348L2.1,15.4l-.789-.63L.98,14.492l-.667-.761-.069-.612L0,12.9a4.469,4.469,0,0,1,1.211-.76,4.2,4.2,0,0,1,1.647-.384,5.181,5.181,0,0,0,1.063-.037,4.857,4.857,0,0,0,1.3-.334A7.054,7.054,0,0,1,7.719,11a7.365,7.365,0,0,1,2.546.388Z" transform="translate(0 -11)" fill="#f1453d"/>
            <path id="Trazado_986816" data-name="Trazado 986816" d="M10.265,11.388a4.865,4.865,0,0,0,1.3.334,5.18,5.18,0,0,0,1.063.037,4.2,4.2,0,0,1,1.647.384,4.429,4.429,0,0,1,1.21.76l-.243.216-.07.612-.667.761-.333.282-.789.63-.4.033-.123.348S14.278,17.606,7.9,17.5,2.63,15.784,2.63,15.784l-.123-.348L2.1,15.4l-.789-.63L.98,14.492l-.667-.761-.069-.612L0,12.9a4.469,4.469,0,0,1,1.211-.76,4.2,4.2,0,0,1,1.647-.384,5.181,5.181,0,0,0,1.063-.037,4.857,4.857,0,0,0,1.3-.334A7.054,7.054,0,0,1,7.719,11a7.365,7.365,0,0,1,2.546.388Z" transform="translate(0 -11)" fill="none" stroke="#262626" stroke-width="0.1"/>
          </g>
          <ellipse id="Oval-1" cx="1.431" cy="0.715" rx="1.431" ry="0.715" transform="translate(6.024 0.766)" fill="#346da6"/>
          <path id="path-35" d="M3.859,5.478a.868.868,0,0,0-.03.325.287.287,0,0,0-.141-.055.353.353,0,0,0-.182.009s.081.145.114.2.094.214.182.351c.02.032.042.061.062.088-.031-.011-.064-.021-.1-.029a2.072,2.072,0,0,0-.394-.033l-.191,0a.682.682,0,0,0,.047.091,1,1,0,0,0,.082.122.874.874,0,0,0-.5.343.925.925,0,0,0,.6.159.993.993,0,0,0-.032.142.642.642,0,0,0-.011.1l.178-.065A2.014,2.014,0,0,0,3.9,7.058a.838.838,0,0,1,.141-.075.622.622,0,0,1,.072.307.706.706,0,0,1-.736.673.756.756,0,0,1-.612-.3l-.155-.19v.233a.433.433,0,0,1-.339.481,1.047,1.047,0,0,1-.631-.257c-.112-.085-.208-.166-.288-.236.027,0,.047,0,.052.015a2.33,2.33,0,0,0,.267.034,2.491,2.491,0,0,0,.411-.034l.2-.028a.665.665,0,0,0-.067-.075c-.061-.06-.128-.116-.128-.116a.754.754,0,0,0,.4-.354A1.261,1.261,0,0,0,1.9,7.064a.783.783,0,0,0,0-.128c0-.066-.008-.093-.008-.093a1.754,1.754,0,0,1-.211.122A1.284,1.284,0,0,0,1.3,7.22a1,1,0,0,0-.13.247,1.066,1.066,0,0,0,.009-.584.452.452,0,0,0-.3-.28L.84,6.768a.453.453,0,0,0-.215-.144l.429-.771a1.227,1.227,0,0,1-.426-.927A1.212,1.212,0,0,1,.74,4.417,2.5,2.5,0,0,1,3.046,3.359a3.952,3.952,0,0,1,.616.047,1.208,1.208,0,0,0-.149.511c0,.048-.007.1-.007.145a1.484,1.484,0,0,0,.512,1.115L4,5.2,3.995,5.2a.87.87,0,0,0-.11.2l-.04.067ZM4.211,5.4a.835.835,0,0,1,.154.311.292.292,0,0,1,.114-.1.361.361,0,0,1,.174-.054s-.027.164-.04.223-.015.233-.051.392c-.008.035-.018.069-.028.1a2.351,2.351,0,0,1,.32-.133l.178-.065a.664.664,0,0,1-.011.1.972.972,0,0,1-.033.142.924.924,0,0,1,.6.162.877.877,0,0,1-.505.34,1.1,1.1,0,0,1,.082.122.762.762,0,0,1,.047.091l-.191,0a2.038,2.038,0,0,1-.395-.033,1.8,1.8,0,0,1-.22-.075l0,0A.674.674,0,0,0,4.405,7a.739.739,0,0,0,.77.7.738.738,0,0,0,.765-.6c.011,0,.008-.265.035-.268s.095.259.105.252a.769.769,0,0,0,.734.487.74.74,0,0,0,.77-.706.629.629,0,0,0-.037-.246l.026,0L7.528,6.47c-.125.035-.256.067-.23.095a1.894,1.894,0,0,1-.284.159,2.121,2.121,0,0,1-.386.1l-.19.033a.615.615,0,0,1,.029-.095.93.93,0,0,1,.059-.132.933.933,0,0,1-.567-.25.925.925,0,0,1,.567-.252.968.968,0,0,1-.059-.132.648.648,0,0,1-.029-.1l.19.034a2.06,2.06,0,0,1,.386.1,1.738,1.738,0,0,1,.282.16c-.022.023.066.049.168.078-.023-.061-.041-.094-.055-.08a1.307,1.307,0,0,1-.171-.267c-.073-.151-.109-.327-.135-.383s-.091-.216-.091-.216a.464.464,0,0,1,.208.024.336.336,0,0,1,.149.08.706.706,0,0,1,.01-.075l-.717-.662a4.2,4.2,0,0,0,.2-1.325c0-.031.007-.065.007-.1s0-.053,0-.08c0-.092.005-.181.011-.268a2.586,2.586,0,0,0-1.165-.262c-1.054,0-1.883.571-1.917,1.263a1.155,1.155,0,0,0-.009.145,1.232,1.232,0,0,0,.6,1.039Zm2.7-2.762q.012-.088.026-.171a.6.6,0,0,1,.589-.424.586.586,0,0,1,.58.424c.014.078.025.16.035.245a2.852,2.852,0,0,1,1.344-.319,2.463,2.463,0,0,1,1.891.774,4.127,4.127,0,0,1,.78-.073,2.789,2.789,0,0,1,2.557,1.2,1.492,1.492,0,0,1-.224,1.6l.408.781h.027a.449.449,0,0,1,.46.444,1.188,1.188,0,0,0-.537.08,1.211,1.211,0,0,0-.368.426c0-.006-.024.007-.047.022l.006.054a2.336,2.336,0,0,1-.624.628,1.148,1.148,0,0,1-.662.171.638.638,0,0,1-.472-.414,1.127,1.127,0,0,1-.558.146,1.071,1.071,0,0,1-.991-.584,1.109,1.109,0,0,1-.814.341,1.159,1.159,0,0,1-.875-.387,1.155,1.155,0,0,1-.765.282,1.141,1.141,0,0,1-.932-.462,1.139,1.139,0,0,1-.931.462,1.157,1.157,0,0,1-.765-.282,1.157,1.157,0,0,1-.874.387,1.11,1.11,0,0,1-.815-.341,1.071,1.071,0,0,1-.991.584A1.123,1.123,0,0,1,2.81,8.09a.641.641,0,0,1-.472.414,1.15,1.15,0,0,1-.663-.171,2.332,2.332,0,0,1-.624-.628l0-.02a1.107,1.107,0,0,0-.149-.138,1.216,1.216,0,0,0-.369-.426A1.184,1.184,0,0,0,0,7.042.442.442,0,0,1,.313,6.62l.4-.721a1.5,1.5,0,0,1-.363-.974A1.476,1.476,0,0,1,.49,4.3a2.787,2.787,0,0,1,2.556-1.2,4.128,4.128,0,0,1,.78.073,2.464,2.464,0,0,1,1.891-.774,2.917,2.917,0,0,1,1.193.245Zm1,2.494a.758.758,0,0,1,.087.293.328.328,0,0,1,.148-.08.464.464,0,0,1,.208-.024s-.063.16-.09.216-.063.232-.136.383a1.289,1.289,0,0,1-.171.267c-.012-.013-.022.013-.031.064.093-.023.161-.043.143-.062a1.745,1.745,0,0,1,.282-.16,2.074,2.074,0,0,1,.387-.1L8.923,5.9a.542.542,0,0,1-.03.1,1.02,1.02,0,0,1-.059.132.922.922,0,0,1,.567.252.931.931,0,0,1-.567.25.979.979,0,0,1,.059.132.593.593,0,0,1,.03.095L8.734,6.82a2.135,2.135,0,0,1-.387-.1,1.9,1.9,0,0,1-.284-.159C8.082,6.545,8,6.522,7.894,6.5l-.011.125.059.01a.638.638,0,0,0-.038.246.741.741,0,0,0,.772.706A.767.767,0,0,0,9.409,7.1c.011.007.074-.255.106-.252s.024.273.034.268A.78.78,0,0,0,11.083,7a.6.6,0,0,0-.006-.086l.117-.112c0-.032,0-.064,0-.1-.074-.014-.124-.035-.108-.008a1.947,1.947,0,0,1-.307.114,2.037,2.037,0,0,1-.395.033l-.19,0a.631.631,0,0,1,.047-.091,1.079,1.079,0,0,1,.082-.122.878.878,0,0,1-.5-.34.922.922,0,0,1,.6-.162A.965.965,0,0,1,10.384,6a.67.67,0,0,1-.011-.1l.177.065a1.957,1.957,0,0,1,.359.157,1.7,1.7,0,0,1,.237.2,1.37,1.37,0,0,1-.094-.269c-.036-.158-.036-.334-.05-.392s-.041-.223-.041-.223a.263.263,0,0,1,.055.007l-.2-.336a1.233,1.233,0,0,0,.6-1.039,1.184,1.184,0,0,0-.009-.145c-.034-.691-.864-1.263-1.917-1.263A2.5,2.5,0,0,0,8.166,3q0,.089.007.181c0,.027,0,.054,0,.08s.007.064.007.1a4.191,4.191,0,0,0,.2,1.325ZM11.32,5.4a.935.935,0,0,1,.3-.331.89.89,0,0,1,.165.607.287.287,0,0,1,.141-.055.355.355,0,0,1,.183.009s-.082.145-.115.2-.093.214-.181.351a1.358,1.358,0,0,1-.193.233c-.005-.009-.014-.005-.024.01.035,0,.055-.01.046-.023a1.768,1.768,0,0,1,.3-.114,2.08,2.08,0,0,1,.394-.033l.191,0a.613.613,0,0,1-.047.091,1.037,1.037,0,0,1-.082.122.876.876,0,0,1,.5.343.924.924,0,0,1-.6.159.926.926,0,0,1,.033.142.708.708,0,0,1,.01.1l-.177-.065a2.017,2.017,0,0,1-.359-.157,1.861,1.861,0,0,1-.246-.205c.022-.018-.044.011-.128.019l-.034.089.042.1a.621.621,0,0,0-.072.308.706.706,0,0,0,.736.673.755.755,0,0,0,.612-.3l.155-.19v.233a.434.434,0,0,0,.339.481,1.05,1.05,0,0,0,.631-.257c.07-.053.133-.1.191-.152-.03-.007-.054-.007-.06.013a2.307,2.307,0,0,1-.267.034,2.48,2.48,0,0,1-.411-.034l-.2-.028a.626.626,0,0,1,.067-.075c.061-.06.128-.116.128-.116a.754.754,0,0,1-.4-.354,1.259,1.259,0,0,1,.587-.074.782.782,0,0,1,0-.128c0-.066.009-.093.009-.093a1.717,1.717,0,0,0,.211.122,1.275,1.275,0,0,1,.381.255,1.275,1.275,0,0,1,.13.323l.009-.008a1.466,1.466,0,0,1-.017-.652.452.452,0,0,1,.3-.28l.035.165a.411.411,0,0,1,.088-.082l-.485-.916a1.227,1.227,0,0,0,.426-.927,1.205,1.205,0,0,0-.112-.509,2.5,2.5,0,0,0-2.306-1.058,3.95,3.95,0,0,0-.614.047,1.21,1.21,0,0,1,.149.511c0,.048.006.1.006.145a1.484,1.484,0,0,1-.512,1.115Zm-.059.141q-.006.02-.011.041a.108.108,0,0,0-.014-.02Zm-.087.806c0-.019-.011-.027-.02-.02l0,0C11.147,6.333,11.156,6.342,11.174,6.351ZM2.88,9.531c.048-.023-.182-.179-.292-.378a1.274,1.274,0,0,1-.134-.5A19.844,19.844,0,0,1,7.8,8a19.968,19.968,0,0,1,5.362.653,2.353,2.353,0,0,1-.19.5c-.1.184-.28.357-.236.378a17.9,17.9,0,0,0-4.944-.624,17.644,17.644,0,0,0-4.912.624ZM7.33.285H6.964V.574H7.33v.832h-.46c-.005.027-.033.047-.033.075a.434.434,0,0,0,.052.206l0,0H8.118l0,0a.434.434,0,0,0,.052-.206c0-.028-.028-.048-.033-.075H7.7V.574h.365V.285H7.7V0H7.33Z" transform="translate(0 0)" fill="#e5b731" stroke="#262626" stroke-width="0.1" fill-rule="evenodd"/>
        </g>
      </g>
    </g>
  </g>
</svg>
