<svg xmlns="http://www.w3.org/2000/svg" width="70" height="70" viewBox="0 0 70 70">
  <g id="Grupo_1107993" data-name="Grupo 1107993" transform="translate(-186.051 -375)">
    <circle id="Elipse_11493" data-name="Elipse 11493" cx="35" cy="35" r="35" transform="translate(186.051 375)" fill="#f1c112"/>
    <g id="seguridad-alimenticia" transform="translate(195.467 368.42)">
      <g id="Grupo_1107991" data-name="Grupo 1107991" transform="translate(0.791 14.291)">
        <path id="Trazado_897444" data-name="Trazado 897444" d="M151.489,35.5A14.5,14.5,0,0,0,126.3,25.7s-.2.281-.321.419A14.089,14.089,0,0,0,122.95,35.5a13.617,13.617,0,0,0,14.035,13.915,13.437,13.437,0,0,0,8.928-2.942,2.276,2.276,0,0,1,.794-.209A14.468,14.468,0,0,0,151.489,35.5Z" transform="translate(-110.772 -21)" fill="#91dafa"/>
        <path id="Trazado_897445" data-name="Trazado 897445" d="M142.2,86.39a14.5,14.5,0,0,1-19.868-21.04A14.507,14.507,0,0,0,141.47,86.188,2.968,2.968,0,0,1,142.2,86.39Z" transform="translate(-106.791 -60.672)" fill="#75cff9"/>
        <path id="Trazado_897446" data-name="Trazado 897446" d="M193.266,240.637a14.507,14.507,0,0,1-18.266.958,14.767,14.767,0,0,1,1.549-2.43,2.308,2.308,0,0,1,1.813-.874,2.284,2.284,0,0,1,.4.035,14.007,14.007,0,0,1,4.462,1.643,12.332,12.332,0,0,1,2,1.449.318.318,0,0,0,.359.045,12.956,12.956,0,0,1,1.249-.568,14.893,14.893,0,0,1,4.641-.993l.1,0A2.334,2.334,0,0,1,193.266,240.637Z" transform="translate(-157.331 -215.369)" fill="#75cff9"/>
        <g id="Grupo_1107990" data-name="Grupo 1107990" transform="translate(17.36 3.059)">
          <path id="Trazado_897447" data-name="Trazado 897447" d="M218.614,62.2c0-.034.058-.1.058-.1a1.486,1.486,0,0,0-1.482-1.385H216.8a1.416,1.416,0,0,0,1.39-1.5c0-.034.092-.09.092-.09a1.486,1.486,0,0,0-1.482-1.385h-3.322a2.446,2.446,0,0,1-2.4-2.934l.351-1.881a2.634,2.634,0,0,0-1.421-2.847.8.8,0,0,0-1.116.467l-1.617,5.118a6.488,6.488,0,0,1-2.9,3.481l.014,7.869c0,1.1,1.037,2.009,3.594,2.009h7.938c.731,0,1.183-.313,1.183-1.044a.737.737,0,0,1,.115-.262,1.324,1.324,0,0,0-1.3-1.064l.778-.111a1.353,1.353,0,0,0,1.455-1.354c0-.034.13-.12.13-.12a1.486,1.486,0,0,0-1.482-1.386l.31-.094C217.933,63.594,218.614,62.2,218.614,62.2Z" transform="translate(-200.969 -50.002)" fill="#e3a76f"/>
          <path id="Trazado_897448" data-name="Trazado 897448" d="M217.365,201.325a1.323,1.323,0,0,1-1.323,1.324H208.1c-2.557,0-3.594-.893-3.594-2V199.07c0,1.1,1.037,2,3.594,2h9.236A1.311,1.311,0,0,1,217.365,201.325Z" transform="translate(-201.088 -183.345)" fill="#d6995c"/>
          <path id="Trazado_897449" data-name="Trazado 897449" d="M173.239,124.509a1.038,1.038,0,0,1,1.038-1.038l.421-.056h.893a1.038,1.038,0,0,1,1.038,1.038v8.94l-.175.326a1.038,1.038,0,0,1-1.038,1.038l-1.068-.009a1.038,1.038,0,0,1-1.038-1.038Z" transform="translate(-173.116 -115.671)" fill="#857e87"/>
          <path id="Trazado_897450" data-name="Trazado 897450" d="M175.584,133.393v.544a1.038,1.038,0,0,1-1.038,1.038h-1.438a1.038,1.038,0,0,1-1.038-1.038v-9.484a1.038,1.038,0,0,1,1.038-1.037h.544v9.344a.633.633,0,0,0,.633.633Z" transform="translate(-172.07 -115.672)" fill="#766e7a"/>
          <g id="Grupo_1107989" data-name="Grupo 1107989" transform="translate(13.016 9.13)">
            <path id="Trazado_897451" data-name="Trazado 897451" d="M299.76,192.879c0,.033,0,.067,0,.1a1.485,1.485,0,0,1-1.485,1.485h-2.025a.792.792,0,0,1-.792-.792h0a.792.792,0,0,1,.792-.792Z" transform="translate(-295.46 -186.937)" fill="#d6995c"/>
            <path id="Trazado_897452" data-name="Trazado 897452" d="M295.46,137.342h0a.792.792,0,0,1,.792-.792h3.508c0,.033,0,.067,0,.1a1.485,1.485,0,0,1-1.485,1.485h-2.025A.792.792,0,0,1,295.46,137.342Z" transform="translate(-295.46 -136.549)" fill="#d6995c"/>
            <path id="Trazado_897453" data-name="Trazado 897453" d="M295.692,166.062a.792.792,0,0,1,.56-1.352h3.9c0,.033,0,.066,0,.1a1.484,1.484,0,0,1-1.447,1.484h-2.452A.79.79,0,0,1,295.692,166.062Z" transform="translate(-295.46 -161.739)" fill="#d6995c"/>
          </g>
        </g>
        <path id="Trazado_897454" data-name="Trazado 897454" d="M182.78,256.3a.42.42,0,0,0-.4.153,12.841,12.841,0,0,0-1.414,2.25,8.8,8.8,0,0,1-.29,1.439,9.518,9.518,0,0,0-.366,6.613c2.057,5.663,8.438,6.6,8.438,6.6s4.168-5.15,2.227-10.492a8.658,8.658,0,0,0-2.3-3.273,6.042,6.042,0,0,1-.582-.847A11.8,11.8,0,0,0,182.78,256.3Z" transform="translate(-161.677 -231.473)" fill="#86cc72"/>
        <path id="Trazado_897455" data-name="Trazado 897455" d="M187.833,293.785s-6.38-.94-8.438-6.6a10.153,10.153,0,0,1,.656-8.052,12.043,12.043,0,0,1,4.881,1.881.315.315,0,0,0,.421-.059,11.236,11.236,0,0,1,1.823-1.779,9.548,9.548,0,0,1,2.885,4.119c1.94,5.343-2.228,10.492-2.228,10.492Z" transform="translate(-160.763 -251.902)" fill="#79bf66"/>
        <path id="Trazado_897456" data-name="Trazado 897456" d="M247.5,271.753a.42.42,0,0,0-.378-.2c-1.1.045-5.62.452-8.347,4.049a7.252,7.252,0,0,1-.432,1.4c-2.9,5.241.272,10.365.272,10.365s6.581-.223,9.316-5.168a9.569,9.569,0,0,0,.576-7.488,7.035,7.035,0,0,1-.146-1.172A11.485,11.485,0,0,0,247.5,271.753Z" transform="translate(-212.904 -245.12)" fill="#98db7c"/>
        <path id="Trazado_897457" data-name="Trazado 897457" d="M32.353,286.635a.42.42,0,0,0-.369.22,13.186,13.186,0,0,0-1.281,3.564s.005,1.2-.02,1.86a9.51,9.51,0,0,0,1.5,5.063c3.037,5.271,9.088,5.21,9.088,5.21s3.244-5.854.378-10.826a8.915,8.915,0,0,0-2.391-2.3,8.112,8.112,0,0,1-.97-1.155A11.854,11.854,0,0,0,32.353,286.635Z" transform="translate(-28.233 -258.614)" fill="#b8eb7c"/>
        <path id="Trazado_897458" data-name="Trazado 897458" d="M39.879,305.595a9.609,9.609,0,0,0-3.361-3.455,12.157,12.157,0,0,0-4.346,6.747.317.317,0,0,1-.525.161,9.379,9.379,0,0,1-2.718-4.759,9.919,9.919,0,0,0,1.023,7.048c3.038,5.27,9.549,5.084,9.549,5.084S41.488,308.386,39.879,305.595Z" transform="translate(-26.459 -272.483)" fill="#98db7c"/>
        <path id="Trazado_897459" data-name="Trazado 897459" d="M246.012,299.07c-2.186,3.953-6.829,4.888-8.6,5.1-.446.054-.711.063-.711.063a9.84,9.84,0,0,1-.585-1.12c-.842-1.856-2.077-5.741.021-9.535a9.141,9.141,0,0,1,.724-1.113,12.15,12.15,0,0,1,1.34,1.519.421.421,0,0,0,.667.019l.109-.132a10.041,10.041,0,0,1,7.472-3.466A10.108,10.108,0,0,1,246.012,299.07Z" transform="translate(-210.98 -261.991)" fill="#86cc72"/>
        <path id="Trazado_897460" data-name="Trazado 897460" d="M102.809,306.333a10.226,10.226,0,0,0-9.471-10.206s-.493.034-.743.034c-5.641,0-9.522,4.521-9.522,10.173Z" transform="translate(-75.101 -267.105)" fill="#e27f86"/>
        <path id="Trazado_897461" data-name="Trazado 897461" d="M87.515,295.9a10.226,10.226,0,0,0-9.423,10.2H76.51A10.223,10.223,0,0,1,86.724,295.87C86.99,295.87,87.255,295.882,87.515,295.9Z" transform="translate(-69.23 -266.875)" fill="#df646e"/>
        <path id="Trazado_897462" data-name="Trazado 897462" d="M122.407,335.416a6.8,6.8,0,0,0-1.443-4.2l-.639-.472-.472-.654a6.772,6.772,0,0,0-3.465-1.451l-.791.258-.791-.258a6.768,6.768,0,0,0-3.4,1.4l-.4.808-.724.3a6.8,6.8,0,0,0-1.493,4.263Z" transform="translate(-98.103 -296.188)" fill="#df646e"/>
        <path id="Trazado_897463" data-name="Trazado 897463" d="M281.249,308.672a.42.42,0,0,0-.336-.275,10.091,10.091,0,0,0-4.928.542l-.745.387a7.331,7.331,0,0,0-2.13,1.9c-3.107,3.71-1.124,8.266-1.124,8.266s5.046.982,7.977-2.518A8.585,8.585,0,0,0,281.249,308.672Z" transform="translate(-243.529 -277.996)" fill="#b8eb7c"/>
        <path id="Trazado_897464" data-name="Trazado 897464" d="M277.232,323.537a10.454,10.454,0,0,1-6.856,1.445s-1.911-4.827,1.2-8.537a7.461,7.461,0,0,1,3.028-2.168,7.374,7.374,0,0,0-1.445,1.324c-3.107,3.71-1.2,8.537-1.2,8.537A11.228,11.228,0,0,0,277.232,323.537Z" transform="translate(-242.126 -283.34)" fill="#98db7c"/>
        <path id="Trazado_897465" data-name="Trazado 897465" d="M403.066,316.866a.419.419,0,0,0-.38-.213,9.643,9.643,0,0,0-3.934,1.014s-.751.621-1.148.935a6.5,6.5,0,0,0-1.8,1.845c-2.268,3.935.283,8.084.283,8.084s4.737-.137,6.876-3.85a8.151,8.151,0,0,0,.7-1.347c.2-.6.511-1.674.511-1.674a8.8,8.8,0,0,0-1.109-4.794Z" transform="translate(-354.006 -285.466)" fill="#b8eb7c"/>
        <path id="Trazado_897466" data-name="Trazado 897466" d="M399.34,332.039a10.451,10.451,0,0,0-.584-5.773,7.223,7.223,0,0,0-2.945,2.78c-2.268,3.936.282,8.083.282,8.083h.041c.1,0,.378-.018.774-.069h0c1.505-.2,4.71-.942,6.314-3.725a7.2,7.2,0,0,0,.956-3.074,9.05,9.05,0,0,1-4.467,2.149A.316.316,0,0,1,399.34,332.039Z" transform="translate(-354.008 -294.064)" fill="#98db7c"/>
        <path id="Trazado_897467" data-name="Trazado 897467" d="M285.312,321.273a8.219,8.219,0,0,0,11.8-.114,8.541,8.541,0,0,0,.964-10.908s-.435-.393-.675-.66a.422.422,0,0,0-.61-.013Z" transform="translate(-256.007 -279.026)" fill="#ffd05b"/>
        <path id="Trazado_897468" data-name="Trazado 897468" d="M296.062,308.8,284.2,320.667a8.584,8.584,0,0,1-1.145-.962l6.345-5.171,2.684-3.874,2.7-2.707a.422.422,0,0,1,.611.013A8.486,8.486,0,0,1,296.062,308.8Z" transform="translate(-253.992 -277.571)" fill="#ffc244"/>
        <path id="Trazado_897469" data-name="Trazado 897469" d="M311.594,340.706a4.26,4.26,0,1,0,6.019-6.03l-2.706,3.639Z" transform="translate(-279.516 -301.587)" fill="#ffe077"/>
        <path id="Trazado_897470" data-name="Trazado 897470" d="M318.474,335.923l-5.64,5.647a4.236,4.236,0,0,1-1.244-.865l6.019-6.03A4.243,4.243,0,0,1,318.474,335.923Z" transform="translate(-279.513 -301.586)" fill="#ffd05b"/>
        <path id="Trazado_897471" data-name="Trazado 897471" d="M54.506,401.689l-34.984.226c-4.581,0-8.112-3.232-8.112-7.813v-1.2a.979.979,0,0,1,.979-.979l.719-.17H62.446a.979.979,0,0,1,.979.979v1.2a8.285,8.285,0,0,1-.412,2.59l-.679.858-.033.724a8.332,8.332,0,0,1-1.643,2.013S56.629,401.689,54.506,401.689Z" transform="translate(-10.998 -352.648)" fill="#dfbdf0"/>
        <path id="Trazado_897472" data-name="Trazado 897472" d="M57.159,400.118a8.263,8.263,0,0,1-5.528,2.11H15.8a8.292,8.292,0,0,1-7.171-4.122l.106-.893-.818-.69a8.286,8.286,0,0,1-.413-2.591v-1.194a.978.978,0,0,1,.979-.979H9.61v.658a7.7,7.7,0,0,0,7.7,7.7Z" transform="translate(-7.5 -352.649)" fill="#cbb0f2"/>
      </g>
      <g id="Grupo_1107992" data-name="Grupo 1107992" transform="translate(0 13.5)">
        <path id="Trazado_897473" data-name="Trazado 897473" d="M183.861,55.5a2.272,2.272,0,0,0-.772-1.707,2.276,2.276,0,0,0-1.893-3.541h-3.322a1.62,1.62,0,0,1-1.269-.588,1.706,1.706,0,0,1-.354-1.41l.351-1.881a3.435,3.435,0,0,0-1.849-3.7,1.594,1.594,0,0,0-1.315-.042,1.731,1.731,0,0,0-.9.98l-1.612,5.1a6.1,6.1,0,0,1-1.631,2.413,1.828,1.828,0,0,0-1.557-.874H166.4a1.831,1.831,0,0,0-1.829,1.829v3.531a.791.791,0,0,0,1.582,0V52.078a.247.247,0,0,1,.247-.247h1.332a.247.247,0,0,1,.247.247v9.484a.247.247,0,0,1-.247.247H166.4a.247.247,0,0,1-.247-.247V59.3a.791.791,0,1,0-1.582,0v2.261a1.831,1.831,0,0,0,1.829,1.829h1.332a1.825,1.825,0,0,0,1.452-.722,5.874,5.874,0,0,0,3.193.722h7.938a2.115,2.115,0,0,0,1.956-2.918,2.275,2.275,0,0,0,.817-3.27,2.272,2.272,0,0,0,.772-1.707Zm-2.277.694h-2.424a.791.791,0,1,0,0,1.582H181.2a.694.694,0,1,1,0,1.389h-2.036a.791.791,0,1,0,0,1.582h1.156a.532.532,0,0,1,0,1.065h-7.938c-1.755,0-2.8-.451-2.8-1.205,0,0,0-7.512-.014-7.705a7.452,7.452,0,0,0,2.853-3.667c.027-.035,1.591-5.121,1.639-5.143a1.847,1.847,0,0,1,.993,1.992l-.351,1.881a3.283,3.283,0,0,0,.692,2.711,3.219,3.219,0,0,0,2.486,1.159H181.2a.694.694,0,0,1,0,1.389h-2.036a.791.791,0,1,0,0,1.582h2.424a.694.694,0,1,1,0,1.389Z" transform="translate(-147.212 -39.445)"/>
        <path id="Trazado_897474" data-name="Trazado 897474" d="M52.239,52.61h-.925a9.116,9.116,0,0,0-.931-7.569.791.791,0,0,0-.638-.355,10.105,10.105,0,0,0-5.492,1.658,9.28,9.28,0,0,0-1.8-2.537.791.791,0,0,0-1.12,0L39.53,45.617a8.273,8.273,0,0,0-.382-1.2.791.791,0,0,0-.566-.461,8.664,8.664,0,0,0-1.142-.136,13.01,13.01,0,0,0-1.132-2.888A15.32,15.32,0,0,0,42.3,28.8a15.146,15.146,0,0,0-3.226-9.4.791.791,0,1,0-1.248.973A13.577,13.577,0,0,1,40.718,28.8a13.736,13.736,0,0,1-5.707,11.133,13.16,13.16,0,0,0-6.34,1.936,12.233,12.233,0,0,0-6.929-3.57.791.791,0,0,0-.682.261,12.033,12.033,0,0,0-1.3,1.883A13.713,13.713,0,0,1,27,15.082a13.584,13.584,0,0,1,8.342,2.828.791.791,0,0,0,.964-1.255A15.155,15.155,0,0,0,27,13.5a15.3,15.3,0,0,0-7.953,28.361q-.133.311-.256.646-.254-.012-.51-.012a10.926,10.926,0,0,0-5.8,1.649,12.259,12.259,0,0,0-7.873-2.616.791.791,0,0,0-.626.375,13.48,13.48,0,0,0-1.5,4.017.791.791,0,1,0,1.55.316,12.6,12.6,0,0,1,1.093-3.13,10.893,10.893,0,0,1,6.03,2.008q-.312.266-.607.557A10.957,10.957,0,0,0,7.317,52.61H4.895a8.545,8.545,0,0,1-.99-2.966.791.791,0,1,0-1.567.218,10.127,10.127,0,0,0,.789,2.748H1.77A1.772,1.772,0,0,0,0,54.38v1.195a9.1,9.1,0,0,0,9.086,9.086H44.923a9.1,9.1,0,0,0,9.086-9.086V54.38a1.772,1.772,0,0,0-1.77-1.77Zm-2.967-6.328A7.331,7.331,0,0,1,49.6,52.61H44.915a9.358,9.358,0,0,0-.083-4.73A8.381,8.381,0,0,1,49.272,46.282Zm-7.4-.768a7.776,7.776,0,0,1,1.409,7.1H40.412a5.093,5.093,0,0,0-.45-5.186Zm-3.046,3.052a3.5,3.5,0,0,1-.277,4.045H34.785Zm-.643-1.6L32.549,52.61h-3.3A7.112,7.112,0,0,1,30.844,47.9c2.266-2.706,5.79-2.587,7-2.455A8.953,8.953,0,0,1,38.18,46.97Zm-3.353-5.444a11.3,11.3,0,0,1,.976,2.316,8.8,8.8,0,0,0-6.172,3.047,8.165,8.165,0,0,0-1.295,2.136,11,11,0,0,0-1.725-2.711l.025-.047c2.217-4.008,6.782-4.641,8.191-4.741ZM21.977,39.938a10.746,10.746,0,0,1,5.42,2.885,9.956,9.956,0,0,0-1.945,2.331A10.957,10.957,0,0,0,20.416,42.7,12.524,12.524,0,0,1,21.977,39.938Zm-3.692,4.14a9.379,9.379,0,0,1,9.379,8.532H25.832a7.6,7.6,0,0,0-15.094,0H8.906A9.473,9.473,0,0,1,18.285,44.078Zm-4.745,5.751.837.838A.791.791,0,0,0,15.5,49.55l-.831-.832a5.989,5.989,0,0,1,2.828-1.174v1.485a.791.791,0,0,0,1.582,0V47.544a5.994,5.994,0,0,1,2.892,1.224l-.781.783a.791.791,0,0,0,1.12,1.118l.772-.774a6,6,0,0,1,1.154,2.716h-11.9a6.006,6.006,0,0,1,1.2-2.781ZM44.923,63.079H9.086a7.5,7.5,0,0,1-6.234-3.332H35.317a.791.791,0,0,0,0-1.582H2.043a7.469,7.469,0,0,1-.461-2.59V54.38a.188.188,0,0,1,.188-.187H52.239a.188.188,0,0,1,.188.187v1.195a7.47,7.47,0,0,1-.461,2.59H39.009a.791.791,0,0,0,0,1.582H51.157a7.5,7.5,0,0,1-6.234,3.332Z" transform="translate(0 -13.5)"/>
      </g>
    </g>
  </g>
</svg>
