<svg xmlns="http://www.w3.org/2000/svg" xmlns:xlink="http://www.w3.org/1999/xlink" width="108.914" height="108.914" viewBox="0 0 108.914 108.914">
  <defs>
    <filter id="Trazado_874925" x="0" y="0" width="108.914" height="108.914" filterUnits="userSpaceOnUse">
      <feOffset dy="3" input="SourceAlpha"/>
      <feGaussianBlur stdDeviation="3" result="blur"/>
      <feFlood flood-opacity="0.161"/>
      <feComposite operator="in" in2="blur"/>
      <feComposite in="SourceGraphic"/>
    </filter>
  </defs>
  <g id="Grupo_1125826" data-name="Grupo 1125826" transform="translate(-794.084 -581.205)">
    <g id="Grupo_1098742" data-name="Grupo 1098742" transform="translate(803.084 587.205)">
      <g transform="matrix(1, 0, 0, 1, -9, -6)" filter="url(#Trazado_874925)">
        <g id="Trazado_874925-2" data-name="Trazado 874925" transform="translate(9 6)" fill="#c6e697" opacity="0.859">
          <path d="M 45.45676803588867 89.41407012939453 C 39.52198028564453 89.41407012939453 33.76551818847656 88.25206756591797 28.34726715087891 85.96034240722656 C 23.11311721801758 83.74648284912109 18.41204261779785 80.57682800292969 14.37464332580566 76.5394287109375 C 10.33724308013916 72.50202941894531 7.167593002319336 67.80095672607422 4.953730583190918 62.56679534912109 C 2.662005424499512 57.14855575561523 1.500005483627319 51.39208221435547 1.500005483627319 45.45729446411133 C 1.500005483627319 39.52198028564453 2.662005424499512 33.76551818847656 4.953730583190918 28.34726905822754 C 7.167593002319336 23.11310577392578 10.33724308013916 18.41203117370605 14.37464332580566 14.37464332580566 C 18.41204261779785 10.33724403381348 23.11311721801758 7.167593955993652 28.34726715087891 4.953731060028076 C 33.76551818847656 2.662006139755249 39.52198028564453 1.500006198883057 45.45676803588867 1.500006198883057 C 51.39155578613281 1.500006198883057 57.14802932739258 2.662006139755249 62.56626892089844 4.953731060028076 C 67.80043029785156 7.167593955993652 72.50150299072266 10.33724403381348 76.53890228271484 14.37464332580566 C 80.57630920410156 18.41203117370605 83.74595642089844 23.11310577392578 85.95981597900391 28.34726905822754 C 88.25154113769531 33.76551818847656 89.41354370117188 39.52198028564453 89.41354370117188 45.45676803588867 C 89.41354370117188 51.39208221435547 88.25154113769531 57.14855575561523 85.95981597900391 62.56679534912109 C 83.74595642089844 67.80095672607422 80.57630920410156 72.50202941894531 76.53890228271484 76.5394287109375 C 72.50150299072266 80.57682800292969 67.80043029785156 83.74648284912109 62.56626892089844 85.96034240722656 C 57.14802932739258 88.25206756591797 51.39155578613281 89.41407012939453 45.45676803588867 89.41407012939453 Z" stroke="none"/>
          <path d="M 45.45676803588867 3 C 39.72381210327148 3 34.1639404296875 4.12213134765625 28.93159484863281 6.335227966308594 C 23.87622833251953 8.473472595214844 19.33542633056641 11.53517150878906 15.43529510498047 15.435302734375 C 11.53517150878906 19.33543395996094 8.473464965820312 23.87622833251953 6.335227966308594 28.93160247802734 C 4.122123718261719 34.16394424438477 3 39.72381591796875 3 45.4572868347168 C 3 51.19024658203125 4.122123718261719 56.75011825561523 6.335227966308594 61.98246002197266 C 8.473464965820312 67.03782653808594 11.53517150878906 71.57862854003906 15.43529510498047 75.478759765625 C 19.33542633056641 79.37889099121094 23.87622833251953 82.44058990478516 28.93159484863281 84.57883453369141 C 34.1639404296875 86.79193115234375 39.72381210327148 87.9140625 45.45676803588867 87.9140625 C 51.18972396850586 87.9140625 56.74959564208984 86.79193115234375 61.98194122314453 84.57883453369141 C 67.03730773925781 82.44058990478516 71.57810974121094 79.37889099121094 75.47824096679688 75.478759765625 C 79.37837219238281 71.57862854003906 82.44007110595703 67.03782653808594 84.57830810546875 61.98246002197266 C 86.79141235351562 56.75011825561523 87.91353607177734 51.19024658203125 87.91353607177734 45.4567756652832 C 87.91353607177734 39.72381591796875 86.79141235351562 34.16394424438477 84.57830810546875 28.93160247802734 C 82.44007110595703 23.87622833251953 79.37837219238281 19.33543395996094 75.47824096679688 15.435302734375 C 71.57810974121094 11.53517150878906 67.03730773925781 8.473472595214844 61.98194122314453 6.335227966308594 C 56.74959564208984 4.12213134765625 51.18972396850586 3 45.45676803588867 3 M 45.45676803588867 0 C 70.56185150146484 0 90.91353607177734 20.35169219970703 90.91353607177734 45.4567756652832 L 90.91353607177734 45.4572868347168 C 90.91353607177734 70.5623779296875 70.56185150146484 90.9140625 45.45676803588867 90.9140625 C 20.3516845703125 90.9140625 0 70.5623779296875 0 45.4572868347168 L 0 45.4567756652832 C 0 20.35169219970703 20.3516845703125 0 45.45676803588867 0 Z" stroke="none" fill="#fff"/>
        </g>
      </g>
      <g id="Trazado_874923" data-name="Trazado 874923" transform="translate(0 0)" fill="none">
        <path d="M45.457,0A45.457,45.457,0,0,1,90.914,45.457h0A45.457,45.457,0,0,1,0,45.457H0A45.457,45.457,0,0,1,45.457,0Z" stroke="none"/>
        <path d="M 45.45676803588867 3 C 39.72381210327148 3 34.1639404296875 4.12213134765625 28.93159484863281 6.335227966308594 C 23.87622833251953 8.473472595214844 19.33542633056641 11.53517150878906 15.43529510498047 15.435302734375 C 11.53517150878906 19.33543395996094 8.473464965820312 23.87622833251953 6.335227966308594 28.93160247802734 C 4.122123718261719 34.16394424438477 3 39.72381591796875 3 45.4572868347168 C 3 51.19024658203125 4.122123718261719 56.75011825561523 6.335227966308594 61.98246002197266 C 8.473464965820312 67.03782653808594 11.53517150878906 71.57862854003906 15.43529510498047 75.478759765625 C 19.33542633056641 79.37889099121094 23.87622833251953 82.44058990478516 28.93159484863281 84.57883453369141 C 34.1639404296875 86.79193115234375 39.72381210327148 87.9140625 45.45676803588867 87.9140625 C 51.18972396850586 87.9140625 56.74959564208984 86.79193115234375 61.98194122314453 84.57883453369141 C 67.03730773925781 82.44058990478516 71.57810974121094 79.37889099121094 75.47824096679688 75.478759765625 C 79.37837219238281 71.57862854003906 82.44007110595703 67.03782653808594 84.57830810546875 61.98246002197266 C 86.79141235351562 56.75011825561523 87.91353607177734 51.19024658203125 87.91353607177734 45.4567756652832 C 87.91353607177734 39.72381591796875 86.79141235351562 34.16394424438477 84.57830810546875 28.93160247802734 C 82.44007110595703 23.87622833251953 79.37837219238281 19.33543395996094 75.47824096679688 15.435302734375 C 71.57810974121094 11.53517150878906 67.03730773925781 8.473472595214844 61.98194122314453 6.335227966308594 C 56.74959564208984 4.12213134765625 51.18972396850586 3 45.45676803588867 3 M 45.45676803588867 0 C 70.56185150146484 0 90.91353607177734 20.35169219970703 90.91353607177734 45.4567756652832 L 90.91353607177734 45.4572868347168 C 90.91353607177734 70.5623779296875 70.56185150146484 90.9140625 45.45676803588867 90.9140625 C 20.3516845703125 90.9140625 0 70.5623779296875 0 45.4572868347168 L 0 45.4567756652832 C 0 20.35169219970703 20.3516845703125 0 45.45676803588867 0 Z" stroke="none" fill="#fff"/>
      </g>
    </g>
    <g id="Layer_22" transform="translate(820.031 604.512)">
      <g id="Grupo_1125825" data-name="Grupo 1125825" transform="translate(0)">
        <g id="Grupo_1125819" data-name="Grupo 1125819" transform="translate(8.616 5.762)">
          <path id="Trazado_986845" data-name="Trazado 986845" d="M132.292,71.187V85.638l-8.107.468c-4.9,2.481-10.142,4.44-12.829,5.506-2.905,1.153-11,7.019-12.536,5.658-1.284-1.143,6.137-7.182,6.279-7.291a61.624,61.624,0,0,1-6.779,3.1c-3.09,1.121-4.853,1.861-5.463.2-.947-2.579,8.934-7.541,9.249-7.693-.337.131-11.752,4.777-12.927,4.048-1.872-1.153-.446-3.221.9-4.059s8.542-4.4,8.771-4.5c-1.741.609-13.733,4.853-13.656,1.469.044-2.1,6.594-4.548,10.707-5.876,8.673-2.818,11.48-6.007,11.48-6.007l-5.778-7.345a3.676,3.676,0,0,1-.457-2.786,2.053,2.053,0,0,1,3.417-1.034,93.021,93.021,0,0,0,8.444,6.475c2.862,2.155,9.271,4.015,13.765,5.169Z" transform="translate(-84.541 -58.277)" fill="#dbaf8f"/>
          <path id="Trazado_986846" data-name="Trazado 986846" d="M94.119,92.809a1.553,1.553,0,0,1-1.1-.37,1.167,1.167,0,0,1-.37-.881c.022-.6.381-1.632,3.069-4.222-.827.37-1.708.74-2.546,1.045l-.424.152a16.678,16.678,0,0,1-3.537,1.045,2.036,2.036,0,0,1-2.34-1.4c-.457-1.251.566-2.764,3.21-4.69-1.447.511-2.666.892-3.624,1.153-1.948.522-2.6.468-2.992.229a2.3,2.3,0,0,1-1.208-1.98A4.273,4.273,0,0,1,84.369,79.7c.359-.218,1.164-.653,2.155-1.175-4.581,1.077-5.985.588-6.649.109a1.661,1.661,0,0,1-.7-1.436c.033-1.219,1.36-2.427,4.2-3.8a57.209,57.209,0,0,1,6.953-2.677c6.638-2.155,9.783-4.548,10.805-5.452l-5.441-6.9-.022-.033a4.443,4.443,0,0,1-.642-2.285,4.326,4.326,0,0,1,.12-.99A2.7,2.7,0,0,1,98.4,53.026a2.74,2.74,0,0,1,1.251.664,52.3,52.3,0,0,0,5.8,4.559c.838.6,1.708,1.208,2.59,1.872,2.035,1.534,6.812,3.33,13.46,5.038l6.083.065V80.938l-8.586.49c-4.157,2.1-8.509,3.8-11.393,4.929l-1.371.533a39.665,39.665,0,0,0-4.059,2.22C98.406,91.319,95.729,92.809,94.119,92.809Zm-.141-1.317c.207.044.838.022,2.535-.762,1.513-.707,3.362-1.8,4.995-2.753a40.694,40.694,0,0,1,4.244-2.3l1.371-.544c2.895-1.132,7.269-2.84,11.4-4.929l.12-.065,7.628-.435V66.52l-4.951-.054-.076-.022c-4.842-1.24-11.208-3.177-13.994-5.278-.871-.653-1.73-1.262-2.568-1.861a53.971,53.971,0,0,1-5.93-4.668,1.4,1.4,0,0,0-1.98.065,1.364,1.364,0,0,0-.348.653,2.948,2.948,0,0,0,.348,2.263l6.094,7.737-.359.413c-.12.131-3.025,3.352-11.774,6.192a55.079,55.079,0,0,0-6.79,2.622c-3.188,1.534-3.46,2.416-3.46,2.644a.365.365,0,0,0,.163.348c.86.631,4.679.359,12.623-2.448l.511,1.208-.076.033c-3.613,1.785-7.769,3.9-8.64,4.44a2.837,2.837,0,0,0-1.5,2.078.973.973,0,0,0,.555.849c.207.033,1.338.033,6.507-1.828,2.96-1.066,5.745-2.2,5.865-2.252l.544,1.186A56.489,56.489,0,0,0,92,83.745c-3.177,2.1-4.091,3.46-3.9,3.983s.337.609.99.555A16.2,16.2,0,0,0,92.3,87.3l.424-.152a60.351,60.351,0,0,0,6.7-3.069l.718,1.077c-.294.239-1.8,1.48-3.286,2.895C94.5,90.3,94.064,91.21,93.977,91.493Z" transform="translate(-79.176 -52.956)"/>
        </g>
        <g id="Grupo_1125820" data-name="Grupo 1125820" transform="translate(8.484 16.894)">
          <path id="Trazado_986847" data-name="Trazado 986847" d="M131.248,175.95v14.483l-8.683-.261c-5.093,2.046-10.49,3.547-13.254,4.374-2.992.9-11.567,6.05-12.971,4.559-1.186-1.251,6.768-6.638,6.888-6.725a60.484,60.484,0,0,1-7.029,2.514c-3.188.86-4.995,1.436-5.463-.283-.729-2.666,9.728-6.8,9.88-6.866-.163.054-12.111,3.765-13.232,2.927-1.763-1.317-.163-3.254,1.251-3.972s9.13-3.732,9.13-3.732c-1.763.457-14.1,3.656-13.733.283.229-2.078,6.964-3.95,11.164-4.929,8.89-2.057,11.97-4.995,11.97-4.995l-5.136-7.8a3.727,3.727,0,0,1-.207-2.818,2.078,2.078,0,0,1,2.612-1.328,1.98,1.98,0,0,1,.881.577,92.793,92.793,0,0,0,7.846,7.193c2.655,2.394,8.9,4.788,13.275,6.333Z" transform="translate(-83.365 -160.624)" fill="#efcdb1"/>
          <path id="Trazado_986848" data-name="Trazado 986848" d="M91.775,194.662a1.719,1.719,0,0,1-1.317-.479,1.106,1.106,0,0,1-.294-.9c.076-.6.533-1.589,3.417-3.928-.86.294-1.752.577-2.622.805l-.435.12a16.271,16.271,0,0,1-3.613.74h-.022a2.04,2.04,0,0,1-2.187-1.6c-.348-1.295.794-2.71,3.6-4.4-5.811,1.48-6.366,1.056-6.714.805a2.249,2.249,0,0,1-1.023-2.078,4.217,4.217,0,0,1,2.372-2.992c.37-.2,1.219-.555,2.252-.99-4.668.675-6.028.076-6.638-.457a1.658,1.658,0,0,1-.577-1.491c.141-1.219,1.567-2.307,4.516-3.428a57.683,57.683,0,0,1,7.16-2.068c6.8-1.578,10.142-3.689,11.241-4.494l-4.831-7.356-.022-.033a4.371,4.371,0,0,1-.239-3.308,2.72,2.72,0,0,1,3.428-1.741,2.892,2.892,0,0,1,1.175.762,50.954,50.954,0,0,0,5.375,5.038c.794.675,1.61,1.371,2.427,2.1,1.893,1.708,6.5,3.9,12.971,6.181l5.321.511v15.746l-9.217-.261c-4.32,1.719-8.8,3.047-11.785,3.928l-1.4.414a40.113,40.113,0,0,0-4.233,1.85C96.117,193.443,93.407,194.662,91.775,194.662Zm-.283-1.328a5.11,5.11,0,0,0,2.59-.544c1.567-.566,3.5-1.491,5.223-2.307a41.22,41.22,0,0,1,4.418-1.926l1.4-.413c2.982-.881,7.487-2.22,11.8-3.939l.12-.054,8.15.239V171.168l-4.3-.414-.076-.033c-4.723-1.654-10.882-4.124-13.493-6.464-.794-.718-1.61-1.4-2.394-2.067a55.051,55.051,0,0,1-5.506-5.158,1.408,1.408,0,0,0-2.383.5,3.089,3.089,0,0,0,.152,2.3l5.408,8.226-.392.381c-.131.12-3.308,3.079-12.264,5.158a54.265,54.265,0,0,0-7,2.024c-3.308,1.251-3.645,2.1-3.667,2.34a.4.4,0,0,0,.12.359c.805.7,4.636.762,12.786-1.349H92.2l.4,1.241c-.076.033-7.769,3.036-9.075,3.711a3.058,3.058,0,0,0-1.665,1.937.973.973,0,0,0,.479.892c.881.25,6.29-1.023,12.655-2.982h.033l.424,1.23a53.743,53.743,0,0,0-5.2,2.427c-4.483,2.416-4.32,3.537-4.287,3.667.12.424.283.631.936.631a17.137,17.137,0,0,0,3.286-.7l.435-.12a59.357,59.357,0,0,0,6.942-2.481l.62,1.143c-.011.011-1.73,1.175-3.46,2.557C92.123,192.17,91.6,193.062,91.492,193.334Z" transform="translate(-77.962 -155.255)"/>
        </g>
        <g id="Grupo_1125821" data-name="Grupo 1125821" transform="translate(36.193 3.091)">
          <circle id="Elipse_12117" data-name="Elipse 12117" cx="2.666" cy="2.666" r="2.666" transform="translate(0.663 0.652)" fill="#6d98a9"/>
          <path id="Trazado_986849" data-name="Trazado 986849" d="M335.923,35.042a3.246,3.246,0,0,1-1.023-.163,3.323,3.323,0,1,1,1.023.163Zm.011-5.332a2.013,2.013,0,1,0,1.9,2.633,1.931,1.931,0,0,0-.12-1.534,1.993,1.993,0,0,0-1.785-1.1Z" transform="translate(-332.605 -28.405)"/>
        </g>
        <g id="Grupo_1125822" data-name="Grupo 1125822" transform="translate(2.236 14.25)">
          <circle id="Elipse_12118" data-name="Elipse 12118" cx="1.883" cy="1.883" r="1.883" transform="translate(0.658 0.647)" fill="#91bfce"/>
          <path id="Trazado_986850" data-name="Trazado 986850" d="M23.082,136.017a2.339,2.339,0,0,1-.773-.12,2.533,2.533,0,1,1,3.036-3.569,2.452,2.452,0,0,1,.152,1.937A2.538,2.538,0,0,1,23.082,136.017Zm.011-3.765a1.23,1.23,0,1,0,1.175,1.61,1.17,1.17,0,0,0-.076-.936,1.242,1.242,0,0,0-.707-.62A1.619,1.619,0,0,0,23.093,132.252Z" transform="translate(-20.552 -130.952)"/>
        </g>
        <g id="Grupo_1125823" data-name="Grupo 1125823" transform="translate(1.068 44.257)">
          <circle id="Elipse_12119" data-name="Elipse 12119" cx="3.765" cy="3.765" r="3.765" transform="translate(0.638 8.047) rotate(-87.421)" fill="#91bfce"/>
          <path id="Trazado_986851" data-name="Trazado 986851" d="M14.38,415.6a4.446,4.446,0,0,1-1.36-.218,4.419,4.419,0,1,1,2.427-8.5c.1.033.207.065.3.1a4.417,4.417,0,0,1,2.84,5.561A4.468,4.468,0,0,1,14.38,415.6Zm0-7.53a3.1,3.1,0,0,0-.979,6.05c.011,0,.011,0,.022.011a3.049,3.049,0,0,0,2.372-.185,3.134,3.134,0,0,0,1.545-1.806,3.1,3.1,0,0,0-.2-2.372,3.059,3.059,0,0,0-1.806-1.545A2.847,2.847,0,0,0,14.38,408.07Z" transform="translate(-9.811 -406.712)"/>
        </g>
        <g id="Grupo_1125824" data-name="Grupo 1125824" transform="translate(0)">
          <path id="Trazado_986852" data-name="Trazado 986852" d="M24,13.541H17.469a1.017,1.017,0,0,0-1.012-1.012H6V6H16.457A7.551,7.551,0,0,1,24,13.541Z" transform="translate(-5.347 -5.347)" fill="#d1d3d4"/>
          <path id="Trazado_986853" data-name="Trazado 986853" d="M18.651,8.847H12.122a.655.655,0,0,1-.653-.653.362.362,0,0,0-.359-.359H.653A.655.655,0,0,1,0,7.182V.653A.655.655,0,0,1,.653,0H11.11A8.206,8.206,0,0,1,19.3,8.194.655.655,0,0,1,18.651,8.847ZM12.633,7.541h5.332A6.889,6.889,0,0,0,11.11,1.306h-9.8V6.529h9.8A1.647,1.647,0,0,1,12.633,7.541Z" transform="translate(0)"/>
        </g>
        <path id="Trazado_986854" data-name="Trazado 986854" d="M58.285,75.3,51.8,105.649l19.685-6.072L64.814,75.3Z" transform="translate(-46.163 -67.106)" fill="#55bde3"/>
        <path id="Trazado_986855" data-name="Trazado 986855" d="M47.173,100.443l-1.273-.272,6.485-30.36a.652.652,0,0,1,.642-.511h6.529a.663.663,0,0,1,.631.479l6.66,24.277L65.6,94.4l-6.54-23.8H53.55Z" transform="translate(-40.905 -61.759)"/>
        <path id="Trazado_986856" data-name="Trazado 986856" d="M0,0H10.882V1.306H0Z" transform="matrix(0.16, -0.987, 0.987, 0.16, 12.105, 24.242)"/>
        <path id="Trazado_986857" data-name="Trazado 986857" d="M0,0H1.306V9.641H0Z" transform="translate(16.799 17.624) rotate(-7.125)"/>
      </g>
    </g>
  </g>
</svg>
