<svg xmlns="http://www.w3.org/2000/svg" xmlns:xlink="http://www.w3.org/1999/xlink" width="108.914" height="108.914" viewBox="0 0 108.914 108.914">
  <defs>
    <filter id="Trazado_874925" x="0" y="0" width="108.914" height="108.914" filterUnits="userSpaceOnUse">
      <feOffset dy="3" input="SourceAlpha"/>
      <feGaussianBlur stdDeviation="3" result="blur"/>
      <feFlood flood-opacity="0.161"/>
      <feComposite operator="in" in2="blur"/>
      <feComposite in="SourceGraphic"/>
    </filter>
  </defs>
  <g id="Grupo_1125827" data-name="Grupo 1125827" transform="translate(-1113.051 -581)">
    <g id="Grupo_1098742" data-name="Grupo 1098742" transform="translate(1122.051 587)">
      <g transform="matrix(1, 0, 0, 1, -9, -6)" filter="url(#Trazado_874925)">
        <g id="Trazado_874925-2" data-name="Trazado 874925" transform="translate(9 6)" fill="#c6e697" opacity="0.859">
          <path d="M 45.45676803588867 89.41407012939453 C 39.52198028564453 89.41407012939453 33.76551818847656 88.25206756591797 28.34726715087891 85.96034240722656 C 23.11311721801758 83.74648284912109 18.41204261779785 80.57682800292969 14.37464332580566 76.5394287109375 C 10.33724308013916 72.50202941894531 7.167593002319336 67.80095672607422 4.953730583190918 62.56679534912109 C 2.662005424499512 57.14855575561523 1.500005483627319 51.39208221435547 1.500005483627319 45.45729446411133 C 1.500005483627319 39.52198028564453 2.662005424499512 33.76551818847656 4.953730583190918 28.34726905822754 C 7.167593002319336 23.11310577392578 10.33724308013916 18.41203117370605 14.37464332580566 14.37464332580566 C 18.41204261779785 10.33724403381348 23.11311721801758 7.167593955993652 28.34726715087891 4.953731060028076 C 33.76551818847656 2.662006139755249 39.52198028564453 1.500006198883057 45.45676803588867 1.500006198883057 C 51.39155578613281 1.500006198883057 57.14802932739258 2.662006139755249 62.56626892089844 4.953731060028076 C 67.80043029785156 7.167593955993652 72.50150299072266 10.33724403381348 76.53890228271484 14.37464332580566 C 80.57630920410156 18.41203117370605 83.74595642089844 23.11310577392578 85.95981597900391 28.34726905822754 C 88.25154113769531 33.76551818847656 89.41354370117188 39.52198028564453 89.41354370117188 45.45676803588867 C 89.41354370117188 51.39208221435547 88.25154113769531 57.14855575561523 85.95981597900391 62.56679534912109 C 83.74595642089844 67.80095672607422 80.57630920410156 72.50202941894531 76.53890228271484 76.5394287109375 C 72.50150299072266 80.57682800292969 67.80043029785156 83.74648284912109 62.56626892089844 85.96034240722656 C 57.14802932739258 88.25206756591797 51.39155578613281 89.41407012939453 45.45676803588867 89.41407012939453 Z" stroke="none"/>
          <path d="M 45.45676803588867 3 C 39.72381210327148 3 34.1639404296875 4.12213134765625 28.93159484863281 6.335227966308594 C 23.87622833251953 8.473472595214844 19.33542633056641 11.53517150878906 15.43529510498047 15.435302734375 C 11.53517150878906 19.33543395996094 8.473464965820312 23.87622833251953 6.335227966308594 28.93160247802734 C 4.122123718261719 34.16394424438477 3 39.72381591796875 3 45.4572868347168 C 3 51.19024658203125 4.122123718261719 56.75011825561523 6.335227966308594 61.98246002197266 C 8.473464965820312 67.03782653808594 11.53517150878906 71.57862854003906 15.43529510498047 75.478759765625 C 19.33542633056641 79.37889099121094 23.87622833251953 82.44058990478516 28.93159484863281 84.57883453369141 C 34.1639404296875 86.79193115234375 39.72381210327148 87.9140625 45.45676803588867 87.9140625 C 51.18972396850586 87.9140625 56.74959564208984 86.79193115234375 61.98194122314453 84.57883453369141 C 67.03730773925781 82.44058990478516 71.57810974121094 79.37889099121094 75.47824096679688 75.478759765625 C 79.37837219238281 71.57862854003906 82.44007110595703 67.03782653808594 84.57830810546875 61.98246002197266 C 86.79141235351562 56.75011825561523 87.91353607177734 51.19024658203125 87.91353607177734 45.4567756652832 C 87.91353607177734 39.72381591796875 86.79141235351562 34.16394424438477 84.57830810546875 28.93160247802734 C 82.44007110595703 23.87622833251953 79.37837219238281 19.33543395996094 75.47824096679688 15.435302734375 C 71.57810974121094 11.53517150878906 67.03730773925781 8.473472595214844 61.98194122314453 6.335227966308594 C 56.74959564208984 4.12213134765625 51.18972396850586 3 45.45676803588867 3 M 45.45676803588867 0 C 70.56185150146484 0 90.91353607177734 20.35169219970703 90.91353607177734 45.4567756652832 L 90.91353607177734 45.4572868347168 C 90.91353607177734 70.5623779296875 70.56185150146484 90.9140625 45.45676803588867 90.9140625 C 20.3516845703125 90.9140625 0 70.5623779296875 0 45.4572868347168 L 0 45.4567756652832 C 0 20.35169219970703 20.3516845703125 0 45.45676803588867 0 Z" stroke="none" fill="#fff"/>
        </g>
      </g>
      <g id="Trazado_874923" data-name="Trazado 874923" transform="translate(0 0)" fill="none">
        <path d="M45.457,0A45.457,45.457,0,0,1,90.914,45.457h0A45.457,45.457,0,0,1,0,45.457H0A45.457,45.457,0,0,1,45.457,0Z" stroke="none"/>
        <path d="M 45.45676803588867 3 C 39.72381210327148 3 34.1639404296875 4.12213134765625 28.93159484863281 6.335227966308594 C 23.87622833251953 8.473472595214844 19.33542633056641 11.53517150878906 15.43529510498047 15.435302734375 C 11.53517150878906 19.33543395996094 8.473464965820312 23.87622833251953 6.335227966308594 28.93160247802734 C 4.122123718261719 34.16394424438477 3 39.72381591796875 3 45.4572868347168 C 3 51.19024658203125 4.122123718261719 56.75011825561523 6.335227966308594 61.98246002197266 C 8.473464965820312 67.03782653808594 11.53517150878906 71.57862854003906 15.43529510498047 75.478759765625 C 19.33542633056641 79.37889099121094 23.87622833251953 82.44058990478516 28.93159484863281 84.57883453369141 C 34.1639404296875 86.79193115234375 39.72381210327148 87.9140625 45.45676803588867 87.9140625 C 51.18972396850586 87.9140625 56.74959564208984 86.79193115234375 61.98194122314453 84.57883453369141 C 67.03730773925781 82.44058990478516 71.57810974121094 79.37889099121094 75.47824096679688 75.478759765625 C 79.37837219238281 71.57862854003906 82.44007110595703 67.03782653808594 84.57830810546875 61.98246002197266 C 86.79141235351562 56.75011825561523 87.91353607177734 51.19024658203125 87.91353607177734 45.4567756652832 C 87.91353607177734 39.72381591796875 86.79141235351562 34.16394424438477 84.57830810546875 28.93160247802734 C 82.44007110595703 23.87622833251953 79.37837219238281 19.33543395996094 75.47824096679688 15.435302734375 C 71.57810974121094 11.53517150878906 67.03730773925781 8.473472595214844 61.98194122314453 6.335227966308594 C 56.74959564208984 4.12213134765625 51.18972396850586 3 45.45676803588867 3 M 45.45676803588867 0 C 70.56185150146484 0 90.91353607177734 20.35169219970703 90.91353607177734 45.4567756652832 L 90.91353607177734 45.4572868347168 C 90.91353607177734 70.5623779296875 70.56185150146484 90.9140625 45.45676803588867 90.9140625 C 20.3516845703125 90.9140625 0 70.5623779296875 0 45.4572868347168 L 0 45.4567756652832 C 0 20.35169219970703 20.3516845703125 0 45.45676803588867 0 Z" stroke="none" fill="#fff"/>
      </g>
    </g>
    <g id="plan-watch-hands-stop_watch-time" data-name="plan-watch-hands-stop watch-time" transform="translate(1137.051 602)">
      <path id="Trazado_986858" data-name="Trazado 986858" d="M58.215,21.25a2.893,2.893,0,0,1,.851,2.049c0,1.6-1.3,2.9-4.833,2.9h-5.8a2.9,2.9,0,0,1,2.9,2.9v1.933a2.9,2.9,0,0,1-2.9,2.9h-8.7l-8.7-6.767H3V5.9H30.066L36.833,3H52.3a2.9,2.9,0,0,1,0,5.8h1.933a2.9,2.9,0,1,1,0,5.8h1.933a2.9,2.9,0,1,1,0,5.8,2.893,2.893,0,0,1,2.049.851Z" transform="translate(-0.033 -0.033)" fill="#ffc477"/>
      <path id="Trazado_986859" data-name="Trazado 986859" d="M52.8,29.9v1.933a2.9,2.9,0,0,1-2.9,2.9H47a2.9,2.9,0,0,0,2.9-2.9V29.9A2.9,2.9,0,0,0,47,27h2.9a2.9,2.9,0,0,1,2.9,2.9Z" transform="translate(-1.5 -0.834)" fill="#ffa733"/>
      <path id="Trazado_986860" data-name="Trazado 986860" d="M59.816,21.25a2.893,2.893,0,0,1,.851,2.049c0,1.6-1.3,2.9-4.833,2.9h-2.9c3.538,0,4.833-1.3,4.833-2.9a2.9,2.9,0,0,0-2.9-2.9,2.9,2.9,0,0,0,0-5.8H52.933a2.9,2.9,0,1,0,0-5.8H51A2.9,2.9,0,1,0,51,3h2.9a2.9,2.9,0,0,1,0,5.8h1.933a2.9,2.9,0,1,1,0,5.8h1.933a2.9,2.9,0,1,1,0,5.8,2.893,2.893,0,0,1,2.049.851Z" transform="translate(-1.634 -0.033)" fill="#ffa733"/>
      <path id="Trazado_986861" data-name="Trazado 986861" d="M20,6h7.733V27.266H20Z" transform="translate(-0.6 -0.133)" fill="#a78966"/>
      <path id="Trazado_986862" data-name="Trazado 986862" d="M24,6h3.867V27.266H24Z" transform="translate(-0.734 -0.133)" fill="#806749"/>
      <ellipse id="Elipse_12120" data-name="Elipse 12120" cx="6" cy="5.5" rx="6" ry="5.5" transform="translate(17 11)" fill="#ddfffb"/>
      <path id="Trazado_986863" data-name="Trazado 986863" d="M29.733,16.8a5.8,5.8,0,0,1-5.8,5.8A5.607,5.607,0,0,1,22,22.262a5.79,5.79,0,0,0,0-10.923A5.607,5.607,0,0,1,23.933,11,5.8,5.8,0,0,1,29.733,16.8Z" transform="translate(-0.667 -0.3)" fill="#44ffe8"/>
      <path id="Trazado_986864" data-name="Trazado 986864" d="M31.946,43.527,24.7,30.97a2.869,2.869,0,0,1,.077-3.016,2.782,2.782,0,0,1,.976-.947,2.912,2.912,0,0,1,1.45-.387,2.652,2.652,0,0,1,.677.087,2.79,2.79,0,0,1,1.759,1.247.806.806,0,0,1,.077.116l9.183,15.9a2.9,2.9,0,1,1,5.027-2.9l.474.822a2.932,2.932,0,0,1-.377-1.431,2.9,2.9,0,0,1,5.4-1.45l.967,1.672a2.9,2.9,0,0,1,5.027-2.9l4.35,6.119.01,14.983a.967.967,0,0,1-.967.967H34.643L26.92,46.417a2.9,2.9,0,1,1,5.027-2.89Z" transform="translate(-0.744 -0.821)" fill="#ffc477"/>
      <path id="Trazado_986865" data-name="Trazado 986865" d="M41.521,48.689,39.095,49.9,27.785,30a.806.806,0,0,0-.077-.116,2.79,2.79,0,0,0-1.759-1.247,2.651,2.651,0,0,0-.677-.087,2.707,2.707,0,0,0-.831.126,2.989,2.989,0,0,1,1.315-1.672,2.912,2.912,0,0,1,1.45-.387,2.652,2.652,0,0,1,.677.087,2.79,2.79,0,0,1,1.759,1.247.806.806,0,0,1,.077.116Z" transform="translate(-0.748 -0.821)" fill="#ffa733"/>
      <path id="Trazado_986866" data-name="Trazado 986866" d="M60.668,59.222a.967.967,0,0,1-.967.967h-.967l-.01-14.017-4.35-6.119a2.885,2.885,0,0,0-3.345-1.324,2.889,2.889,0,0,1,5.278-.609l4.35,6.119Z" transform="translate(-1.635 -1.156)" fill="#ffa733"/>
      <path id="Trazado_986867" data-name="Trazado 986867" d="M60,23.266a3.835,3.835,0,0,0-1.334-2.9A3.832,3.832,0,0,0,57.4,13.832a3.8,3.8,0,0,0,.667-2.165,3.867,3.867,0,0,0-2.6-3.635,3.8,3.8,0,0,0,.667-2.165A3.867,3.867,0,0,0,52.266,2H36.8a.972.972,0,0,0-.377.077L29.83,4.9H2.967A.967.967,0,0,0,2,5.867V27.133a.967.967,0,0,0,.967.967H22.657a3.867,3.867,0,0,0,.454,2.533L28.7,40.3a3.851,3.851,0,0,0-3.364,5.781l7.724,13.437A.967.967,0,0,0,33.9,60H58.066A1.933,1.933,0,0,0,60,58.066l-.01-14.983a.967.967,0,0,0-.174-.561l-4.3-6.042a3.874,3.874,0,0,0-5.288-1.411,3.786,3.786,0,0,0-1.537,1.653,3.826,3.826,0,0,0-6.138,1.614,4.129,4.129,0,0,0-.88-.367,3.806,3.806,0,0,0-2.939.387,3.853,3.853,0,0,0-1.411,1.431L30.584,28.1h.087l8.439,6.564a.929.929,0,0,0,.59.2h8.7A3.867,3.867,0,0,0,52.266,31V29.066a3.776,3.776,0,0,0-.541-1.933H54.2c5.239,0,5.8-2.707,5.8-3.867ZM20.366,6.833h5.8V10.4a6.638,6.638,0,0,0-5.8,0ZM18.433,26.166H3.933V6.833h14.5v4.94a6.745,6.745,0,0,0,0,9.454Zm0-9.667a4.833,4.833,0,1,1,4.833,4.833A4.833,4.833,0,0,1,18.433,16.5Zm5.123,9.667h-3.19V22.6a6.638,6.638,0,0,0,5.8,0v2.252a3.64,3.64,0,0,0-2.61,1.315ZM40.222,48.66l1.672-.967-2.9-5.027A1.9,1.9,0,0,1,38.8,41.2a1.949,1.949,0,0,1,.9-1.17,1.9,1.9,0,0,1,1.469-.193,1.949,1.949,0,0,1,1.17.9l2.9,5.027,1.672-.967-2.417-4.186a1.936,1.936,0,1,1,3.354-1.933l2.417,4.186,1.672-.967-1.45-2.513a1.9,1.9,0,0,1-.193-1.469,1.949,1.949,0,0,1,.9-1.17,1.908,1.908,0,0,1,1.469-.193,1.972,1.972,0,0,1,1.218.976l4.176,5.868.01,14.674H34.46L27.007,45.113A1.933,1.933,0,1,1,30.362,43.2l4.833,8.362,1.672-.967L24.784,29.666a1.936,1.936,0,0,1,3.354-1.933ZM39.7,25.2v1.933h8.7a1.939,1.939,0,0,1,1.933,1.933V31A1.939,1.939,0,0,1,48.4,32.933H40.028l-8.439-6.564a.929.929,0,0,0-.59-.2H29.385A3.955,3.955,0,0,0,28.1,25.2V21.227a6.813,6.813,0,0,0,1.856-3.76H31V15.533H29.956a6.813,6.813,0,0,0-1.856-3.76V6.833h1.933a.972.972,0,0,0,.377-.077L37,3.933H52.266a1.933,1.933,0,0,1,0,3.867H47.433V9.733H54.2a1.933,1.933,0,0,1,0,3.867H47.433v1.933h8.7a1.933,1.933,0,0,1,0,3.867h-8.7v1.933h8.7a1.939,1.939,0,0,1,1.933,1.933c0,1.595-2.1,1.933-3.867,1.933Z"/>
      <path id="Trazado_986868" data-name="Trazado 986868" d="M24.933,14H23v2.9a.967.967,0,0,0,.967.967H25.9V15.933h-.967Z" transform="translate(-0.7 -0.4)"/>
    </g>
  </g>
</svg>
