<svg xmlns="http://www.w3.org/2000/svg" xmlns:xlink="http://www.w3.org/1999/xlink" width="108.914" height="108.914" viewBox="0 0 108.914 108.914">
  <defs>
    <filter id="Trazado_874925" x="0" y="0" width="108.914" height="108.914" filterUnits="userSpaceOnUse">
      <feOffset dy="3" input="SourceAlpha"/>
      <feGaussianBlur stdDeviation="3" result="blur"/>
      <feFlood flood-opacity="0.161"/>
      <feComposite operator="in" in2="blur"/>
      <feComposite in="SourceGraphic"/>
    </filter>
  </defs>
  <g id="Grupo_1125828" data-name="Grupo 1125828" transform="translate(6927.716 11026.795)">
    <g id="Grupo_1098742" data-name="Grupo 1098742" transform="translate(-6918.717 -11020.795)">
      <g transform="matrix(1, 0, 0, 1, -9, -6)" filter="url(#Trazado_874925)">
        <g id="Trazado_874925-2" data-name="Trazado 874925" transform="translate(9 6)" fill="#c6e697" opacity="0.859">
          <path d="M 45.45676803588867 89.41407012939453 C 39.52198028564453 89.41407012939453 33.76551818847656 88.25206756591797 28.34726715087891 85.96034240722656 C 23.11311721801758 83.74648284912109 18.41204261779785 80.57682800292969 14.37464332580566 76.5394287109375 C 10.33724308013916 72.50202941894531 7.167593002319336 67.80095672607422 4.953730583190918 62.56679534912109 C 2.662005424499512 57.14855575561523 1.500005483627319 51.39208221435547 1.500005483627319 45.45729446411133 C 1.500005483627319 39.52198028564453 2.662005424499512 33.76551818847656 4.953730583190918 28.34726905822754 C 7.167593002319336 23.11310577392578 10.33724308013916 18.41203117370605 14.37464332580566 14.37464332580566 C 18.41204261779785 10.33724403381348 23.11311721801758 7.167593955993652 28.34726715087891 4.953731060028076 C 33.76551818847656 2.662006139755249 39.52198028564453 1.500006198883057 45.45676803588867 1.500006198883057 C 51.39155578613281 1.500006198883057 57.14802932739258 2.662006139755249 62.56626892089844 4.953731060028076 C 67.80043029785156 7.167593955993652 72.50150299072266 10.33724403381348 76.53890228271484 14.37464332580566 C 80.57630920410156 18.41203117370605 83.74595642089844 23.11310577392578 85.95981597900391 28.34726905822754 C 88.25154113769531 33.76551818847656 89.41354370117188 39.52198028564453 89.41354370117188 45.45676803588867 C 89.41354370117188 51.39208221435547 88.25154113769531 57.14855575561523 85.95981597900391 62.56679534912109 C 83.74595642089844 67.80095672607422 80.57630920410156 72.50202941894531 76.53890228271484 76.5394287109375 C 72.50150299072266 80.57682800292969 67.80043029785156 83.74648284912109 62.56626892089844 85.96034240722656 C 57.14802932739258 88.25206756591797 51.39155578613281 89.41407012939453 45.45676803588867 89.41407012939453 Z" stroke="none"/>
          <path d="M 45.45676803588867 3 C 39.72381210327148 3 34.1639404296875 4.12213134765625 28.93159484863281 6.335227966308594 C 23.87622833251953 8.473472595214844 19.33542633056641 11.53517150878906 15.43529510498047 15.435302734375 C 11.53517150878906 19.33543395996094 8.473464965820312 23.87622833251953 6.335227966308594 28.93160247802734 C 4.122123718261719 34.16394424438477 3 39.72381591796875 3 45.4572868347168 C 3 51.19024658203125 4.122123718261719 56.75011825561523 6.335227966308594 61.98246002197266 C 8.473464965820312 67.03782653808594 11.53517150878906 71.57862854003906 15.43529510498047 75.478759765625 C 19.33542633056641 79.37889099121094 23.87622833251953 82.44058990478516 28.93159484863281 84.57883453369141 C 34.1639404296875 86.79193115234375 39.72381210327148 87.9140625 45.45676803588867 87.9140625 C 51.18972396850586 87.9140625 56.74959564208984 86.79193115234375 61.98194122314453 84.57883453369141 C 67.03730773925781 82.44058990478516 71.57810974121094 79.37889099121094 75.47824096679688 75.478759765625 C 79.37837219238281 71.57862854003906 82.44007110595703 67.03782653808594 84.57830810546875 61.98246002197266 C 86.79141235351562 56.75011825561523 87.91353607177734 51.19024658203125 87.91353607177734 45.4567756652832 C 87.91353607177734 39.72381591796875 86.79141235351562 34.16394424438477 84.57830810546875 28.93160247802734 C 82.44007110595703 23.87622833251953 79.37837219238281 19.33543395996094 75.47824096679688 15.435302734375 C 71.57810974121094 11.53517150878906 67.03730773925781 8.473472595214844 61.98194122314453 6.335227966308594 C 56.74959564208984 4.12213134765625 51.18972396850586 3 45.45676803588867 3 M 45.45676803588867 0 C 70.56185150146484 0 90.91353607177734 20.35169219970703 90.91353607177734 45.4567756652832 L 90.91353607177734 45.4572868347168 C 90.91353607177734 70.5623779296875 70.56185150146484 90.9140625 45.45676803588867 90.9140625 C 20.3516845703125 90.9140625 0 70.5623779296875 0 45.4572868347168 L 0 45.4567756652832 C 0 20.35169219970703 20.3516845703125 0 45.45676803588867 0 Z" stroke="none" fill="#fff"/>
        </g>
      </g>
      <g id="Trazado_874923" data-name="Trazado 874923" transform="translate(0 0)" fill="none">
        <path d="M45.457,0A45.457,45.457,0,0,1,90.914,45.457h0A45.457,45.457,0,0,1,0,45.457H0A45.457,45.457,0,0,1,45.457,0Z" stroke="none"/>
        <path d="M 45.45676803588867 3 C 39.72381210327148 3 34.1639404296875 4.12213134765625 28.93159484863281 6.335227966308594 C 23.87622833251953 8.473472595214844 19.33542633056641 11.53517150878906 15.43529510498047 15.435302734375 C 11.53517150878906 19.33543395996094 8.473464965820312 23.87622833251953 6.335227966308594 28.93160247802734 C 4.122123718261719 34.16394424438477 3 39.72381591796875 3 45.4572868347168 C 3 51.19024658203125 4.122123718261719 56.75011825561523 6.335227966308594 61.98246002197266 C 8.473464965820312 67.03782653808594 11.53517150878906 71.57862854003906 15.43529510498047 75.478759765625 C 19.33542633056641 79.37889099121094 23.87622833251953 82.44058990478516 28.93159484863281 84.57883453369141 C 34.1639404296875 86.79193115234375 39.72381210327148 87.9140625 45.45676803588867 87.9140625 C 51.18972396850586 87.9140625 56.74959564208984 86.79193115234375 61.98194122314453 84.57883453369141 C 67.03730773925781 82.44058990478516 71.57810974121094 79.37889099121094 75.47824096679688 75.478759765625 C 79.37837219238281 71.57862854003906 82.44007110595703 67.03782653808594 84.57830810546875 61.98246002197266 C 86.79141235351562 56.75011825561523 87.91353607177734 51.19024658203125 87.91353607177734 45.4567756652832 C 87.91353607177734 39.72381591796875 86.79141235351562 34.16394424438477 84.57830810546875 28.93160247802734 C 82.44007110595703 23.87622833251953 79.37837219238281 19.33543395996094 75.47824096679688 15.435302734375 C 71.57810974121094 11.53517150878906 67.03730773925781 8.473472595214844 61.98194122314453 6.335227966308594 C 56.74959564208984 4.12213134765625 51.18972396850586 3 45.45676803588867 3 M 45.45676803588867 0 C 70.56185150146484 0 90.91353607177734 20.35169219970703 90.91353607177734 45.4567756652832 L 90.91353607177734 45.4572868347168 C 90.91353607177734 70.5623779296875 70.56185150146484 90.9140625 45.45676803588867 90.9140625 C 20.3516845703125 90.9140625 0 70.5623779296875 0 45.4572868347168 L 0 45.4567756652832 C 0 20.35169219970703 20.3516845703125 0 45.45676803588867 0 Z" stroke="none" fill="#fff"/>
      </g>
    </g>
    <g id="_29-nail_clipper" data-name="29-nail clipper" transform="translate(-6899.26 -11001.338)">
      <path id="Trazado_986869" data-name="Trazado 986869" d="M51.625,27.125,50,19h4.875Z" transform="translate(-9.375 -3.563)" fill="#f5b3bd"/>
      <path id="Trazado_986870" data-name="Trazado 986870" d="M55,30.062,61.5,26v4.875Z" transform="translate(-10.313 -4.875)" fill="#f5b3bd"/>
      <path id="Trazado_986871" data-name="Trazado 986871" d="M55.625,58.125H41V44.312a7.312,7.312,0,1,1,14.625,0Z" transform="translate(-7.688 -6.938)" fill="#e7cea0"/>
      <path id="Trazado_986872" data-name="Trazado 986872" d="M53.75,45.557a1.625,1.625,0,0,1-.791,1.4,8.491,8.491,0,0,1-8.167,0,1.625,1.625,0,0,1-.791-1.4V39.875a4.875,4.875,0,1,1,9.75,0Z" transform="translate(-8.25 -6.563)" fill="#f6f0e5"/>
      <path id="Trazado_986873" data-name="Trazado 986873" d="M37.794,19.3a.812.812,0,0,1,.058,1.33,24.067,24.067,0,0,0-5.037,5.037A24.1,24.1,0,0,0,29.8,32.121a.812.812,0,0,1-1.268.4L2.272,12.38a3.25,3.25,0,0,1-.684-4.443L5.474,2.386a3.25,3.25,0,0,1,4.409-.877Z" transform="translate(-0.187 -0.187)" fill="#7bace6"/>
      <path id="Trazado_986874" data-name="Trazado 986874" d="M29.241,18.429,8.887,5,5,10.551,24.58,25.084Z" transform="translate(-0.937 -0.938)" fill="#a8d7e4"/>
      <path id="Trazado_986875" data-name="Trazado 986875" d="M35.762,36.078a24.1,24.1,0,0,1,3.014-6.456,24.067,24.067,0,0,1,5.037-5.037.812.812,0,0,0-.058-1.33L41.935,22.1a21.711,21.711,0,0,0-9.151,13.072l1.709,1.313a.812.812,0,0,0,1.268-.4Z" transform="translate(-6.147 -4.143)" fill="#a8d7e4"/>
      <circle id="Elipse_12121" data-name="Elipse 12121" cx="1.5" cy="1.5" r="1.5" transform="translate(24.001 18.999)" fill="#5c92d6"/>
      <path id="Trazado_986876" data-name="Trazado 986876" d="M10.886,45.667A6.887,6.887,0,0,1,15.8,43.691l-.894-.894a5.046,5.046,0,0,0-6.894,0,5.047,5.047,0,0,0,0,6.895l.894.894a6.887,6.887,0,0,1,1.975-4.919Z" transform="translate(-1.248 -7.77)" fill="#f6f0e5"/>
      <path id="Trazado_986877" data-name="Trazado 986877" d="M26,54.667a6.887,6.887,0,0,1,1.975,4.921l.894-.894A4.875,4.875,0,0,0,21.978,51.8l-.894.894A6.887,6.887,0,0,1,26,54.667Z" transform="translate(-3.953 -9.458)" fill="#f6f0e5"/>
      <path id="Trazado_986878" data-name="Trazado 986878" d="M51.363,27.75h.075a.812.812,0,0,0,.755-.511l3.25-8.125A.812.812,0,0,0,54.687,18H49.812a.812.812,0,0,0-.8.975L50.641,27.1A.812.812,0,0,0,51.363,27.75Zm2.125-8.125L51.7,24.094l-.9-4.469Z" transform="translate(-9.188 -3.375)"/>
      <path id="Trazado_986879" data-name="Trazado 986879" d="M61.706,25.1a.812.812,0,0,0-.824.022l-6.5,4.062a.812.812,0,0,0,.33,1.495l6.5.812a.838.838,0,0,0,.1.007.812.812,0,0,0,.812-.812V25.812a.812.812,0,0,0-.419-.711ZM60.5,29.767l-3.318-.415L60.5,27.279Z" transform="translate(-10.125 -4.688)"/>
      <path id="Trazado_986880" data-name="Trazado 986880" d="M53.354,37.533a5.636,5.636,0,0,0-10.458,0A8.088,8.088,0,0,0,40,43.75V57.562a.812.812,0,0,0,.812.812H55.437a.812.812,0,0,0,.812-.812V43.75a8.088,8.088,0,0,0-2.9-6.217Zm-9.292,2.155a4.062,4.062,0,0,1,8.125,0v5.682a.808.808,0,0,1-.4.7,7.685,7.685,0,0,1-7.334,0,.808.808,0,0,1-.4-.7ZM54.625,56.75h-13v-13a6.494,6.494,0,0,1,.812-3.14v4.76a2.452,2.452,0,0,0,1.188,2.095,9.3,9.3,0,0,0,9,0,2.452,2.452,0,0,0,1.188-2.095v-4.76a6.494,6.494,0,0,1,.812,3.14Z" transform="translate(-7.5 -6.375)"/>
      <path id="Trazado_986881" data-name="Trazado 986881" d="M51.687,54H46.812a.812.812,0,0,0,0,1.625h4.875a.812.812,0,0,0,0-1.625Z" transform="translate(-8.625 -10.126)"/>
      <path id="Trazado_986882" data-name="Trazado 986882" d="M51.687,58H46.812a.812.812,0,0,0,0,1.625h4.875a.812.812,0,0,0,0-1.625Z" transform="translate(-8.625 -10.876)"/>
      <path id="Trazado_986883" data-name="Trazado 986883" d="M38.156,21.091a1.625,1.625,0,0,0-.111-2.663L10.136.639a4.055,4.055,0,0,0-5.51,1.1L.738,7.286a4.054,4.054,0,0,0,.856,5.551L27.854,32.982a1.637,1.637,0,0,0,.993.337,1.614,1.614,0,0,0,1.548-1.145,23.366,23.366,0,0,1,2.9-6.228,23.319,23.319,0,0,1,4.859-4.856ZM2.07,8.217,5.957,2.667A2.432,2.432,0,0,1,9.263,2.01L34.312,17.975a22.8,22.8,0,0,0-8.16,11.654L2.582,11.549A2.431,2.431,0,0,1,2.07,8.217ZM28.844,31.693,27.549,30.7A20.973,20.973,0,0,1,35.8,18.919l1.376.877a25.015,25.015,0,0,0-5.206,5.219,24.97,24.97,0,0,0-3.122,6.679Z" transform="translate(0)"/>
      <path id="Trazado_986884" data-name="Trazado 986884" d="M5.931,10.182l2.98-4.255L28.605,18.92a.812.812,0,1,0,.894-1.357L9.147,4.135a.812.812,0,0,0-1.113.213L4.147,9.9a.812.812,0,0,0,.178,1.118L23.906,25.549a.812.812,0,1,0,.968-1.3Z" transform="translate(-0.75 -0.75)"/>
      <path id="Trazado_986885" data-name="Trazado 986885" d="M30.437,22a2.437,2.437,0,1,0,2.437,2.437A2.437,2.437,0,0,0,30.437,22Zm0,3.25a.812.812,0,1,1,.812-.812A.812.812,0,0,1,30.437,25.25Z" transform="translate(-5.25 -4.125)"/>
      <path id="Trazado_986886" data-name="Trazado 986886" d="M15.293,42.029a5.837,5.837,0,0,0-8.044,0,5.734,5.734,0,0,0-1.6,3.94,5.592,5.592,0,0,0,1.6,4.1l.894.894a.812.812,0,0,0,.574.238.791.791,0,0,0,.31-.062.812.812,0,0,0,.5-.749,5.938,5.938,0,0,1,6.083-6.083.812.812,0,0,0,.573-1.387ZM10.122,44.9a7.525,7.525,0,0,0-2.015,3.692,4.052,4.052,0,0,1-.831-2.6A4.1,4.1,0,0,1,8.4,43.175a4.179,4.179,0,0,1,2.916-1.127,4.011,4.011,0,0,1,2.5.838A7.529,7.529,0,0,0,10.122,44.9Z" transform="translate(-1.059 -7.58)"/>
      <path id="Trazado_986887" data-name="Trazado 986887" d="M21.22,51.029l-.894.894A.812.812,0,0,0,20.9,53.31a5.938,5.938,0,0,1,6.08,6.088.812.812,0,0,0,.5.749.8.8,0,0,0,.31.062.812.812,0,0,0,.574-.238l.894-.894a5.592,5.592,0,0,0,1.6-4.1,5.734,5.734,0,0,0-1.6-3.944A5.837,5.837,0,0,0,21.22,51.029Zm7.186,6.565A7.461,7.461,0,0,0,22.7,51.886a4.262,4.262,0,0,1,5.417.292A4.1,4.1,0,0,1,29.237,55a4.052,4.052,0,0,1-.832,2.6Z" transform="translate(-3.767 -9.267)"/>
    </g>
  </g>
</svg>
