<svg xmlns="http://www.w3.org/2000/svg" xmlns:xlink="http://www.w3.org/1999/xlink" width="108.914" height="108.914" viewBox="0 0 108.914 108.914">
  <defs>
    <filter id="Trazado_874925" x="0" y="0" width="108.914" height="108.914" filterUnits="userSpaceOnUse">
      <feOffset dy="3" input="SourceAlpha"/>
      <feGaussianBlur stdDeviation="3" result="blur"/>
      <feFlood flood-opacity="0.161"/>
      <feComposite operator="in" in2="blur"/>
      <feComposite in="SourceGraphic"/>
    </filter>
    <clipPath id="clip-path">
      <path id="path6864" d="M0-682.665H54.675v54.675H0Z" transform="translate(0 682.665)"/>
    </clipPath>
  </defs>
  <g id="Grupo_1125829" data-name="Grupo 1125829" transform="translate(6611.716 11026.795)">
    <g id="Grupo_1098742" data-name="Grupo 1098742" transform="translate(-6602.717 -11020.795)">
      <g transform="matrix(1, 0, 0, 1, -9, -6)" filter="url(#Trazado_874925)">
        <g id="Trazado_874925-2" data-name="Trazado 874925" transform="translate(9 6)" fill="#c6e697" opacity="0.859">
          <path d="M 45.45676803588867 89.41407012939453 C 39.52198028564453 89.41407012939453 33.76551818847656 88.25206756591797 28.34726715087891 85.96034240722656 C 23.11311721801758 83.74648284912109 18.41204261779785 80.57682800292969 14.37464332580566 76.5394287109375 C 10.33724308013916 72.50202941894531 7.167593002319336 67.80095672607422 4.953730583190918 62.56679534912109 C 2.662005424499512 57.14855575561523 1.500005483627319 51.39208221435547 1.500005483627319 45.45729446411133 C 1.500005483627319 39.52198028564453 2.662005424499512 33.76551818847656 4.953730583190918 28.34726905822754 C 7.167593002319336 23.11310577392578 10.33724308013916 18.41203117370605 14.37464332580566 14.37464332580566 C 18.41204261779785 10.33724403381348 23.11311721801758 7.167593955993652 28.34726715087891 4.953731060028076 C 33.76551818847656 2.662006139755249 39.52198028564453 1.500006198883057 45.45676803588867 1.500006198883057 C 51.39155578613281 1.500006198883057 57.14802932739258 2.662006139755249 62.56626892089844 4.953731060028076 C 67.80043029785156 7.167593955993652 72.50150299072266 10.33724403381348 76.53890228271484 14.37464332580566 C 80.57630920410156 18.41203117370605 83.74595642089844 23.11310577392578 85.95981597900391 28.34726905822754 C 88.25154113769531 33.76551818847656 89.41354370117188 39.52198028564453 89.41354370117188 45.45676803588867 C 89.41354370117188 51.39208221435547 88.25154113769531 57.14855575561523 85.95981597900391 62.56679534912109 C 83.74595642089844 67.80095672607422 80.57630920410156 72.50202941894531 76.53890228271484 76.5394287109375 C 72.50150299072266 80.57682800292969 67.80043029785156 83.74648284912109 62.56626892089844 85.96034240722656 C 57.14802932739258 88.25206756591797 51.39155578613281 89.41407012939453 45.45676803588867 89.41407012939453 Z" stroke="none"/>
          <path d="M 45.45676803588867 3 C 39.72381210327148 3 34.1639404296875 4.12213134765625 28.93159484863281 6.335227966308594 C 23.87622833251953 8.473472595214844 19.33542633056641 11.53517150878906 15.43529510498047 15.435302734375 C 11.53517150878906 19.33543395996094 8.473464965820312 23.87622833251953 6.335227966308594 28.93160247802734 C 4.122123718261719 34.16394424438477 3 39.72381591796875 3 45.4572868347168 C 3 51.19024658203125 4.122123718261719 56.75011825561523 6.335227966308594 61.98246002197266 C 8.473464965820312 67.03782653808594 11.53517150878906 71.57862854003906 15.43529510498047 75.478759765625 C 19.33542633056641 79.37889099121094 23.87622833251953 82.44058990478516 28.93159484863281 84.57883453369141 C 34.1639404296875 86.79193115234375 39.72381210327148 87.9140625 45.45676803588867 87.9140625 C 51.18972396850586 87.9140625 56.74959564208984 86.79193115234375 61.98194122314453 84.57883453369141 C 67.03730773925781 82.44058990478516 71.57810974121094 79.37889099121094 75.47824096679688 75.478759765625 C 79.37837219238281 71.57862854003906 82.44007110595703 67.03782653808594 84.57830810546875 61.98246002197266 C 86.79141235351562 56.75011825561523 87.91353607177734 51.19024658203125 87.91353607177734 45.4567756652832 C 87.91353607177734 39.72381591796875 86.79141235351562 34.16394424438477 84.57830810546875 28.93160247802734 C 82.44007110595703 23.87622833251953 79.37837219238281 19.33543395996094 75.47824096679688 15.435302734375 C 71.57810974121094 11.53517150878906 67.03730773925781 8.473472595214844 61.98194122314453 6.335227966308594 C 56.74959564208984 4.12213134765625 51.18972396850586 3 45.45676803588867 3 M 45.45676803588867 0 C 70.56185150146484 0 90.91353607177734 20.35169219970703 90.91353607177734 45.4567756652832 L 90.91353607177734 45.4572868347168 C 90.91353607177734 70.5623779296875 70.56185150146484 90.9140625 45.45676803588867 90.9140625 C 20.3516845703125 90.9140625 0 70.5623779296875 0 45.4572868347168 L 0 45.4567756652832 C 0 20.35169219970703 20.3516845703125 0 45.45676803588867 0 Z" stroke="none" fill="#fff"/>
        </g>
      </g>
      <g id="Trazado_874923" data-name="Trazado 874923" transform="translate(0 0)" fill="none">
        <path d="M45.457,0A45.457,45.457,0,0,1,90.914,45.457h0A45.457,45.457,0,0,1,0,45.457H0A45.457,45.457,0,0,1,45.457,0Z" stroke="none"/>
        <path d="M 45.45676803588867 3 C 39.72381210327148 3 34.1639404296875 4.12213134765625 28.93159484863281 6.335227966308594 C 23.87622833251953 8.473472595214844 19.33542633056641 11.53517150878906 15.43529510498047 15.435302734375 C 11.53517150878906 19.33543395996094 8.473464965820312 23.87622833251953 6.335227966308594 28.93160247802734 C 4.122123718261719 34.16394424438477 3 39.72381591796875 3 45.4572868347168 C 3 51.19024658203125 4.122123718261719 56.75011825561523 6.335227966308594 61.98246002197266 C 8.473464965820312 67.03782653808594 11.53517150878906 71.57862854003906 15.43529510498047 75.478759765625 C 19.33542633056641 79.37889099121094 23.87622833251953 82.44058990478516 28.93159484863281 84.57883453369141 C 34.1639404296875 86.79193115234375 39.72381210327148 87.9140625 45.45676803588867 87.9140625 C 51.18972396850586 87.9140625 56.74959564208984 86.79193115234375 61.98194122314453 84.57883453369141 C 67.03730773925781 82.44058990478516 71.57810974121094 79.37889099121094 75.47824096679688 75.478759765625 C 79.37837219238281 71.57862854003906 82.44007110595703 67.03782653808594 84.57830810546875 61.98246002197266 C 86.79141235351562 56.75011825561523 87.91353607177734 51.19024658203125 87.91353607177734 45.4567756652832 C 87.91353607177734 39.72381591796875 86.79141235351562 34.16394424438477 84.57830810546875 28.93160247802734 C 82.44007110595703 23.87622833251953 79.37837219238281 19.33543395996094 75.47824096679688 15.435302734375 C 71.57810974121094 11.53517150878906 67.03730773925781 8.473472595214844 61.98194122314453 6.335227966308594 C 56.74959564208984 4.12213134765625 51.18972396850586 3 45.45676803588867 3 M 45.45676803588867 0 C 70.56185150146484 0 90.91353607177734 20.35169219970703 90.91353607177734 45.4567756652832 L 90.91353607177734 45.4572868347168 C 90.91353607177734 70.5623779296875 70.56185150146484 90.9140625 45.45676803588867 90.9140625 C 20.3516845703125 90.9140625 0 70.5623779296875 0 45.4572868347168 L 0 45.4567756652832 C 0 20.35169219970703 20.3516845703125 0 45.45676803588867 0 Z" stroke="none" fill="#fff"/>
      </g>
    </g>
    <g id="g6858" transform="translate(-6584.097 -10320.01)">
      <g id="g6860" transform="translate(0 -682.665)">
        <g id="g6862" clip-path="url(#clip-path)">
          <g id="g6868" transform="translate(2.36 1.1)">
            <path id="path6870" d="M-576.23-307.176a21.826,21.826,0,0,1-.34,3.937,14.163,14.163,0,0,1-9.585,10.905h-30.321a14.161,14.161,0,0,1-9.583-10.9,21.818,21.818,0,0,1-.34-3.937c0-13.852,11.23-26.744,25.084-26.744s25.084,12.891,25.084,26.744" transform="translate(626.399 333.919)" fill="#ace4ea"/>
          </g>
          <g id="g6872" transform="translate(2.36 1.1)">
            <path id="path6874" d="M-206.624-210.389c4.6,5.088-1.684,16.133-6.669,23.268h-1.4a14.161,14.161,0,0,1-9.583-10.9,21.821,21.821,0,0,1-.34-3.937c0-13.852,11.23-26.744,25.084-26.744-7.095,0-14.188,10.473-7.095,18.317" transform="translate(224.613 228.706)" fill="#5bb0b7"/>
          </g>
          <g id="g6876" transform="translate(8.755 11.051)">
            <path id="path6878" d="M-31.228-326.052a18.574,18.574,0,0,1-2.719-9.7,18.631,18.631,0,0,1,5.48-13.208,18.631,18.631,0,0,1,13.209-5.48A18.71,18.71,0,0,1,3.431-335.75a18.636,18.636,0,0,1-2.722,9.707" transform="translate(33.947 354.439)" fill="#e5e5e5" stroke="#000" stroke-linecap="round" stroke-linejoin="round" stroke-miterlimit="10" stroke-width="1"/>
          </g>
          <g id="g6880" transform="translate(11.317 13.614)">
            <path id="path6882" d="M-370.453-185.22v7.438a16.13,16.13,0,0,1-13.063,15.834l-.112.02a16.17,16.17,0,0,1-2.509.266h-.021c-.14,0-.28.005-.421.005a16.125,16.125,0,0,1-16.126-16.126v-7.438a16.127,16.127,0,0,1,16.127-16.126,16.251,16.251,0,0,1,2.957.27,16.131,16.131,0,0,1,13.169,15.856" transform="translate(402.706 201.346)" fill="#e8b07e"/>
          </g>
          <g id="g6884" transform="translate(17.231 13.884)">
            <path id="path6886" d="M-302.527-182.117v7.438a16.13,16.13,0,0,1-13.063,15.834l-.112.02a16.129,16.129,0,0,1-13.164-15.855v-7.438a16.131,16.131,0,0,1,13.17-15.856,16.131,16.131,0,0,1,13.169,15.856" transform="translate(328.866 197.973)" fill="#ffcfa2"/>
          </g>
          <g id="g6888" transform="translate(27.443 13.614)">
            <path id="path6890" d="M-182.277-152.177c-11.9-.981-15.87-9.95-15.87-13.249a16.13,16.13,0,0,1,15.87,13.249" transform="translate(198.146 165.426)" fill="#5c5e71"/>
          </g>
          <g id="g6892" transform="translate(43.312 26.863)">
            <path id="path6894" d="M-.012,0h0" transform="translate(0.013)" fill="#5c5e71"/>
          </g>
          <g id="g6896" transform="translate(11.317 13.614)">
            <path id="path6898" d="M-40.7-69.373a16.1,16.1,0,0,1,12.584-6.04A16.126,16.126,0,0,1-11.988-59.287v7.438A16.13,16.13,0,0,1-25.052-36.015a16.279,16.279,0,0,1-2.622.286h-.021c-.14,0-.28.005-.421.005A16.125,16.125,0,0,1-44.241-51.85v-7.438a16.051,16.051,0,0,1,1.8-7.4" transform="translate(44.241 75.413)" fill="none" stroke="#000" stroke-linecap="round" stroke-linejoin="round" stroke-miterlimit="10" stroke-width="1"/>
          </g>
          <g id="g6900" transform="translate(23.378 42.258)">
            <path id="path6902" d="M0,0A5.75,5.75,0,0,0,8.132,0" fill="none" stroke="#000" stroke-linecap="round" stroke-linejoin="round" stroke-miterlimit="10" stroke-width="1"/>
          </g>
          <g id="g6904" transform="translate(15.557 30.614)">
            <path id="path6906" d="M-93.4-19.345a5.75,5.75,0,0,0-8.132,0" transform="translate(101.536 21.029)" fill="none" stroke="#000" stroke-linecap="round" stroke-linejoin="round" stroke-miterlimit="10" stroke-width="1"/>
          </g>
          <g id="g6908" transform="translate(31.199 30.614)">
            <path id="path6910" d="M-93.4-19.345a5.75,5.75,0,0,0-8.132,0" transform="translate(101.536 21.029)" fill="none" stroke="#000" stroke-linecap="round" stroke-linejoin="round" stroke-miterlimit="10" stroke-width="1"/>
          </g>
          <g id="g6912" transform="translate(42.603 11.204)">
            <path id="path6914" d="M-48.116,0a27.647,27.647,0,0,1,5.735,16.639,21.822,21.822,0,0,1-.34,3.937,14.163,14.163,0,0,1-9.585,10.905" transform="translate(52.305)" fill="none" stroke="#000" stroke-linecap="round" stroke-linejoin="round" stroke-miterlimit="10" stroke-width="1"/>
          </g>
          <g id="g6916" transform="translate(2.36 1.1)">
            <path id="path6918" d="M-113.97-477.641a14.161,14.161,0,0,1-9.583-10.9,21.831,21.831,0,0,1-.34-3.937c0-13.852,11.23-26.744,25.084-26.744a24.044,24.044,0,0,1,17.276,7.685" transform="translate(123.893 519.225)" fill="none" stroke="#000" stroke-linecap="round" stroke-linejoin="round" stroke-miterlimit="10" stroke-width="1"/>
          </g>
          <g id="g6920" transform="translate(27.444 8.424)">
            <path id="path6922" d="M0-30.179v-2.627" transform="translate(0 32.807)" fill="none" stroke="#000" stroke-linecap="round" stroke-linejoin="round" stroke-miterlimit="10" stroke-width="1"/>
          </g>
          <g id="g6924" transform="translate(21.532 7.728)">
            <path id="path6926" d="M-12.537-45.425l-1.091-3.955" transform="translate(13.628 49.38)" fill="none" stroke="#000" stroke-linecap="round" stroke-linejoin="round" stroke-miterlimit="10" stroke-width="1"/>
          </g>
          <g id="g6928" transform="translate(14.574 11.764)">
            <path id="path6930" d="M-23.345-31.694l-2.032-2.759" transform="translate(25.377 34.453)" fill="none" stroke="#000" stroke-linecap="round" stroke-linejoin="round" stroke-miterlimit="10" stroke-width="1"/>
          </g>
          <g id="g6932" transform="translate(9.415 17.34)">
            <path id="path6934" d="M-26.495-26.493-28.8-28.8" transform="translate(28.801 28.8)" fill="none" stroke="#000" stroke-linecap="round" stroke-linejoin="round" stroke-miterlimit="10" stroke-width="1"/>
          </g>
          <g id="g6936" transform="translate(6.503 23.314)">
            <path id="path6938" d="M-36.1-8.3l-3.143-.722" transform="translate(39.248 9.02)" fill="none" stroke="#000" stroke-linecap="round" stroke-linejoin="round" stroke-miterlimit="10" stroke-width="1"/>
          </g>
          <g id="g6940" transform="translate(6.364 29.74)">
            <path id="path6942" d="M-27.467,0h-2.391" transform="translate(29.859)" fill="none" stroke="#000" stroke-linecap="round" stroke-linejoin="round" stroke-miterlimit="10" stroke-width="1"/>
          </g>
          <g id="g6944" transform="translate(7.52 34.237)">
            <path id="path6946" d="M-20.475,0l-1.783,1.783" transform="translate(22.257)" fill="none" stroke="#000" stroke-linecap="round" stroke-linejoin="round" stroke-miterlimit="10" stroke-width="1"/>
          </g>
          <g id="g6948" transform="translate(32.264 7.728)">
            <path id="path6950" d="M0-45.425,1.091-49.38" transform="translate(0 49.38)" fill="none" stroke="#000" stroke-linecap="round" stroke-linejoin="round" stroke-miterlimit="10" stroke-width="1"/>
          </g>
          <g id="g6952" transform="translate(38.281 11.764)">
            <path id="path6954" d="M0-31.694l2.032-2.759" transform="translate(0 34.453)" fill="none" stroke="#000" stroke-linecap="round" stroke-linejoin="round" stroke-miterlimit="10" stroke-width="1"/>
          </g>
          <g id="g6956" transform="translate(43.165 17.34)">
            <path id="path6958" d="M0-26.493,2.307-28.8" transform="translate(0 28.8)" fill="none" stroke="#000" stroke-linecap="round" stroke-linejoin="round" stroke-miterlimit="10" stroke-width="1"/>
          </g>
          <g id="g6960" transform="translate(45.241 23.314)">
            <path id="path6962" d="M0-8.3,3.143-9.02" transform="translate(0 9.02)" fill="none" stroke="#000" stroke-linecap="round" stroke-linejoin="round" stroke-miterlimit="10" stroke-width="1"/>
          </g>
          <g id="g6964" transform="translate(46.132 29.74)">
            <path id="path6966" d="M0,0H2.391" fill="none" stroke="#000" stroke-linecap="round" stroke-linejoin="round" stroke-miterlimit="10" stroke-width="1"/>
          </g>
          <g id="g6968" transform="translate(45.585 34.237)">
            <path id="path6970" d="M0,0,1.783,1.783" fill="none" stroke="#000" stroke-linecap="round" stroke-linejoin="round" stroke-miterlimit="10" stroke-width="1"/>
          </g>
          <g id="g6972" transform="translate(27.444 13.614)">
            <path id="path6974" d="M0,0C0,3.3,3.974,12.268,15.87,13.249" fill="none" stroke="#000" stroke-linecap="round" stroke-linejoin="round" stroke-miterlimit="10" stroke-width="1"/>
          </g>
        </g>
      </g>
    </g>
  </g>
</svg>
