<svg xmlns="http://www.w3.org/2000/svg" xmlns:xlink="http://www.w3.org/1999/xlink" width="108.914" height="108.914" viewBox="0 0 108.914 108.914">
  <defs>
    <filter id="Trazado_874925" x="0" y="0" width="108.914" height="108.914" filterUnits="userSpaceOnUse">
      <feOffset dy="3" input="SourceAlpha"/>
      <feGaussianBlur stdDeviation="3" result="blur"/>
      <feFlood flood-opacity="0.161"/>
      <feComposite operator="in" in2="blur"/>
      <feComposite in="SourceGraphic"/>
    </filter>
  </defs>
  <g id="Grupo_1125831" data-name="Grupo 1125831" transform="translate(6295.716 11026.795)">
    <g id="Grupo_1098742" data-name="Grupo 1098742" transform="translate(-6286.717 -11020.795)">
      <g transform="matrix(1, 0, 0, 1, -9, -6)" filter="url(#Trazado_874925)">
        <g id="Trazado_874925-2" data-name="Trazado 874925" transform="translate(9 6)" fill="#c6e697" opacity="0.859">
          <path d="M 45.45676803588867 89.41407012939453 C 39.52198028564453 89.41407012939453 33.76551818847656 88.25206756591797 28.34726715087891 85.96034240722656 C 23.11311721801758 83.74648284912109 18.41204261779785 80.57682800292969 14.37464332580566 76.5394287109375 C 10.33724308013916 72.50202941894531 7.167593002319336 67.80095672607422 4.953730583190918 62.56679534912109 C 2.662005424499512 57.14855575561523 1.500005483627319 51.39208221435547 1.500005483627319 45.45729446411133 C 1.500005483627319 39.52198028564453 2.662005424499512 33.76551818847656 4.953730583190918 28.34726905822754 C 7.167593002319336 23.11310577392578 10.33724308013916 18.41203117370605 14.37464332580566 14.37464332580566 C 18.41204261779785 10.33724403381348 23.11311721801758 7.167593955993652 28.34726715087891 4.953731060028076 C 33.76551818847656 2.662006139755249 39.52198028564453 1.500006198883057 45.45676803588867 1.500006198883057 C 51.39155578613281 1.500006198883057 57.14802932739258 2.662006139755249 62.56626892089844 4.953731060028076 C 67.80043029785156 7.167593955993652 72.50150299072266 10.33724403381348 76.53890228271484 14.37464332580566 C 80.57630920410156 18.41203117370605 83.74595642089844 23.11310577392578 85.95981597900391 28.34726905822754 C 88.25154113769531 33.76551818847656 89.41354370117188 39.52198028564453 89.41354370117188 45.45676803588867 C 89.41354370117188 51.39208221435547 88.25154113769531 57.14855575561523 85.95981597900391 62.56679534912109 C 83.74595642089844 67.80095672607422 80.57630920410156 72.50202941894531 76.53890228271484 76.5394287109375 C 72.50150299072266 80.57682800292969 67.80043029785156 83.74648284912109 62.56626892089844 85.96034240722656 C 57.14802932739258 88.25206756591797 51.39155578613281 89.41407012939453 45.45676803588867 89.41407012939453 Z" stroke="none"/>
          <path d="M 45.45676803588867 3 C 39.72381210327148 3 34.1639404296875 4.12213134765625 28.93159484863281 6.335227966308594 C 23.87622833251953 8.473472595214844 19.33542633056641 11.53517150878906 15.43529510498047 15.435302734375 C 11.53517150878906 19.33543395996094 8.473464965820312 23.87622833251953 6.335227966308594 28.93160247802734 C 4.122123718261719 34.16394424438477 3 39.72381591796875 3 45.4572868347168 C 3 51.19024658203125 4.122123718261719 56.75011825561523 6.335227966308594 61.98246002197266 C 8.473464965820312 67.03782653808594 11.53517150878906 71.57862854003906 15.43529510498047 75.478759765625 C 19.33542633056641 79.37889099121094 23.87622833251953 82.44058990478516 28.93159484863281 84.57883453369141 C 34.1639404296875 86.79193115234375 39.72381210327148 87.9140625 45.45676803588867 87.9140625 C 51.18972396850586 87.9140625 56.74959564208984 86.79193115234375 61.98194122314453 84.57883453369141 C 67.03730773925781 82.44058990478516 71.57810974121094 79.37889099121094 75.47824096679688 75.478759765625 C 79.37837219238281 71.57862854003906 82.44007110595703 67.03782653808594 84.57830810546875 61.98246002197266 C 86.79141235351562 56.75011825561523 87.91353607177734 51.19024658203125 87.91353607177734 45.4567756652832 C 87.91353607177734 39.72381591796875 86.79141235351562 34.16394424438477 84.57830810546875 28.93160247802734 C 82.44007110595703 23.87622833251953 79.37837219238281 19.33543395996094 75.47824096679688 15.435302734375 C 71.57810974121094 11.53517150878906 67.03730773925781 8.473472595214844 61.98194122314453 6.335227966308594 C 56.74959564208984 4.12213134765625 51.18972396850586 3 45.45676803588867 3 M 45.45676803588867 0 C 70.56185150146484 0 90.91353607177734 20.35169219970703 90.91353607177734 45.4567756652832 L 90.91353607177734 45.4572868347168 C 90.91353607177734 70.5623779296875 70.56185150146484 90.9140625 45.45676803588867 90.9140625 C 20.3516845703125 90.9140625 0 70.5623779296875 0 45.4572868347168 L 0 45.4567756652832 C 0 20.35169219970703 20.3516845703125 0 45.45676803588867 0 Z" stroke="none" fill="#fff"/>
        </g>
      </g>
      <g id="Trazado_874923" data-name="Trazado 874923" transform="translate(0 0)" fill="none">
        <path d="M45.457,0A45.457,45.457,0,0,1,90.914,45.457h0A45.457,45.457,0,0,1,0,45.457H0A45.457,45.457,0,0,1,45.457,0Z" stroke="none"/>
        <path d="M 45.45676803588867 3 C 39.72381210327148 3 34.1639404296875 4.12213134765625 28.93159484863281 6.335227966308594 C 23.87622833251953 8.473472595214844 19.33542633056641 11.53517150878906 15.43529510498047 15.435302734375 C 11.53517150878906 19.33543395996094 8.473464965820312 23.87622833251953 6.335227966308594 28.93160247802734 C 4.122123718261719 34.16394424438477 3 39.72381591796875 3 45.4572868347168 C 3 51.19024658203125 4.122123718261719 56.75011825561523 6.335227966308594 61.98246002197266 C 8.473464965820312 67.03782653808594 11.53517150878906 71.57862854003906 15.43529510498047 75.478759765625 C 19.33542633056641 79.37889099121094 23.87622833251953 82.44058990478516 28.93159484863281 84.57883453369141 C 34.1639404296875 86.79193115234375 39.72381210327148 87.9140625 45.45676803588867 87.9140625 C 51.18972396850586 87.9140625 56.74959564208984 86.79193115234375 61.98194122314453 84.57883453369141 C 67.03730773925781 82.44058990478516 71.57810974121094 79.37889099121094 75.47824096679688 75.478759765625 C 79.37837219238281 71.57862854003906 82.44007110595703 67.03782653808594 84.57830810546875 61.98246002197266 C 86.79141235351562 56.75011825561523 87.91353607177734 51.19024658203125 87.91353607177734 45.4567756652832 C 87.91353607177734 39.72381591796875 86.79141235351562 34.16394424438477 84.57830810546875 28.93160247802734 C 82.44007110595703 23.87622833251953 79.37837219238281 19.33543395996094 75.47824096679688 15.435302734375 C 71.57810974121094 11.53517150878906 67.03730773925781 8.473472595214844 61.98194122314453 6.335227966308594 C 56.74959564208984 4.12213134765625 51.18972396850586 3 45.45676803588867 3 M 45.45676803588867 0 C 70.56185150146484 0 90.91353607177734 20.35169219970703 90.91353607177734 45.4567756652832 L 90.91353607177734 45.4572868347168 C 90.91353607177734 70.5623779296875 70.56185150146484 90.9140625 45.45676803588867 90.9140625 C 20.3516845703125 90.9140625 0 70.5623779296875 0 45.4572868347168 L 0 45.4567756652832 C 0 20.35169219970703 20.3516845703125 0 45.45676803588867 0 Z" stroke="none" fill="#fff"/>
      </g>
    </g>
    <g id="Layer_x0020_1" transform="translate(-6428.105 -11003.248)">
      <g id="Grupo_1125830" data-name="Grupo 1125830" transform="translate(164.06 0.01)">
        <path id="Trazado_986888" data-name="Trazado 986888" d="M201.565,55.81H171.628a.654.654,0,0,1-.654-.654V44.437h-6.261a.654.654,0,0,1-.654-.654V14.147a4.115,4.115,0,0,1,3.973-4.108l9.945-4.187V.664a.654.654,0,0,1,.654-.654H194.56a.654.654,0,0,1,.654.654V5.851l9.945,4.187a4.116,4.116,0,0,1,3.973,4.108V43.783a.654.654,0,0,1-.654.654h-6.26V55.156a.654.654,0,0,1-.654.654ZM172.282,54.5H200.91l.021-30.767,3.314-12.663-9.939-4.184a.654.654,0,0,1-.4-.6V1.318h-14.62V6.286a.653.653,0,0,1-.4.6l-9.939,4.184L172.282,23.9V54.5Zm29.936-11.373h5.606V14.147a2.807,2.807,0,0,0-2.309-2.759l-3.3,12.6V43.129Zm-36.851,0h5.607V23.986l-3.3-12.6a2.807,2.807,0,0,0-2.31,2.759V43.129Z" transform="translate(-164.06 -0.01)" fill="#212121" fill-rule="evenodd"/>
        <path id="Trazado_986889" data-name="Trazado 986889" d="M1296.692,1206.444l-1.361-3.416h-3.279a.654.654,0,0,1,0-1.308h3.722a.654.654,0,0,1,.608.412l1.525,3.828A.654.654,0,0,1,1296.692,1206.444Z" transform="translate(-1254.547 -1162.429)" fill="#212121" fill-rule="evenodd"/>
        <path id="Trazado_986890" data-name="Trazado 986890" d="M215.712,1206.827a.657.657,0,0,1-.607-.9l1.525-3.828a.654.654,0,0,1,.608-.412h3.722a.654.654,0,0,1,0,1.308h-3.279l-1.361,3.416A.654.654,0,0,1,215.712,1206.827Z" transform="translate(-213.391 -1162.4)" fill="#212121" fill-rule="evenodd"/>
        <path id="Trazado_986891" data-name="Trazado 986891" d="M842.446,19.161a.653.653,0,0,1-.439-.169l-7.791-7.053a.653.653,0,0,1-.215-.485V.918a.654.654,0,0,1,1.308,0V11.164l7.577,6.858a.655.655,0,0,1-.439,1.138Z" transform="translate(-812.096 -0.264)" fill="#212121" fill-rule="evenodd"/>
        <path id="Trazado_986892" data-name="Trazado 986892" d="M842.84,109.828H834.9a.654.654,0,0,1,0-1.308h7.942A.654.654,0,0,1,842.84,109.828Z" transform="translate(-812.34 -104.972)" fill="#212121" fill-rule="evenodd"/>
        <path id="Trazado_986893" data-name="Trazado 986893" d="M790.065,562.313a2.166,2.166,0,0,1,0-4.333A2.166,2.166,0,0,1,790.065,562.313Zm0-3.025a.859.859,0,0,0,0,1.717A.859.859,0,0,0,790.065,559.288Z" transform="translate(-767.528 -539.737)" fill="#212121" fill-rule="evenodd"/>
        <path id="Trazado_986894" data-name="Trazado 986894" d="M790.065,783.5a2.166,2.166,0,0,1,0-4.333A2.166,2.166,0,0,1,790.065,783.5Zm0-3.024a.858.858,0,0,0,0,1.716A.858.858,0,0,0,790.065,780.478Z" transform="translate(-767.528 -753.695)" fill="#212121" fill-rule="evenodd"/>
        <path id="Trazado_986895" data-name="Trazado 986895" d="M790.065,1004.693a2.167,2.167,0,0,1,0-4.333A2.167,2.167,0,0,1,790.065,1004.693Zm0-3.024a.858.858,0,0,0,0,1.716A.858.858,0,0,0,790.065,1001.669Z" transform="translate(-767.529 -967.653)" fill="#212121" fill-rule="evenodd"/>
        <path id="Trazado_986896" data-name="Trazado 986896" d="M790.065,1225.893a2.167,2.167,0,0,1,0-4.333A2.167,2.167,0,0,1,790.065,1225.893Zm0-3.024a.858.858,0,0,0,0,1.717A.858.858,0,0,0,790.065,1222.868Z" transform="translate(-767.529 -1181.62)" fill="#212121" fill-rule="evenodd"/>
        <path id="Trazado_986897" data-name="Trazado 986897" d="M790.065,1447.083a2.167,2.167,0,0,1,0-4.333A2.167,2.167,0,0,1,790.065,1447.083Zm0-3.025a.858.858,0,0,0,0,1.717A.858.858,0,0,0,790.065,1444.058Z" transform="translate(-767.529 -1395.578)" fill="#212121" fill-rule="evenodd"/>
        <path id="Trazado_986898" data-name="Trazado 986898" d="M473.423,397.613h-6.849a.654.654,0,0,1-.654-.654v-6.115a.654.654,0,0,1,.654-.654h6.849a.654.654,0,0,1,.654.654v6.115A.654.654,0,0,1,473.423,397.613Zm-6.2-1.308h5.541V391.5h-5.541Z" transform="translate(-456.05 -377.433)" fill="#212121" fill-rule="evenodd"/>
      </g>
      <path id="Trazado_986899" data-name="Trazado 986899" d="M1072.808,538.808a.654.654,0,0,0-1.308,0v36.9a.654.654,0,0,0,1.308,0Z" transform="translate(-877.77 -520.557)"/>
      <path id="Trazado_986900" data-name="Trazado 986900" d="M331.16,68.52a2.166,2.166,0,0,1,0-4.333A2.166,2.166,0,0,1,331.16,68.52ZM338.293,93.2V57.221l-7.55-6.834a.653.653,0,0,1-.215-.485V40.02h-6.678v4.968a.653.653,0,0,1-.4.6l-9.939,4.184L316.845,62.6V93.2h21.447ZM326,58.892h-6.849a.654.654,0,0,1-.654-.654V52.123a.654.654,0,0,1,.654-.654H326a.654.654,0,0,1,.654.654v6.115A.654.654,0,0,1,326,58.892Zm5.164,16.86a2.167,2.167,0,0,1,0-4.333A2.167,2.167,0,0,1,331.16,75.752Zm0-14.464a2.166,2.166,0,0,1,0-4.333A2.166,2.166,0,0,1,331.16,61.288ZM328.993,88.05a2.166,2.166,0,0,1,4.333,0A2.166,2.166,0,0,1,328.993,88.05Zm2.166-5.066a2.167,2.167,0,0,1,0-4.333A2.167,2.167,0,0,1,331.16,82.984Z" transform="translate(-144.564 -38.702)" fill="#d6e3ff" fill-rule="evenodd"/>
      <path id="Trazado_986901" data-name="Trazado 986901" d="M881.765,162.083v36.063h5.873l.021-30.767,3.314-12.663-9.939-4.184c-.574-.242-.4-1.092-.4-2.023H874v6.045l7.577,6.858A.655.655,0,0,1,881.765,162.083Z" transform="translate(-686.728 -143.645)" fill="#d6e3ff" fill-rule="evenodd"/>
      <path id="Trazado_986902" data-name="Trazado 986902" d="M1331.12,360.578v15.315h3.068a.654.654,0,0,1,.608.412l1.361,3.415h.57V350.739a2.807,2.807,0,0,0-2.309-2.759l-3.3,12.6Z" transform="translate(-1128.902 -336.593)" fill="#d6e3ff" fill-rule="evenodd"/>
      <path id="Trazado_986903" data-name="Trazado 986903" d="M511.452,435V430.19H505.91V435Z" transform="translate(-330.673 -416.115)" fill="#9da6ba" fill-rule="evenodd"/>
      <path id="Trazado_986904" data-name="Trazado 986904" d="M209.667,360.588l-3.3-12.6a2.807,2.807,0,0,0-2.31,2.759v28.982h.57l1.361-3.417a.654.654,0,0,1,.607-.412h3.068Z" transform="translate(-38.692 -336.602)" fill="#d6e3ff" fill-rule="evenodd"/>
      <path id="Trazado_986905" data-name="Trazado 986905" d="M268.169,1241.69h-2.625l-1,2.521h3.629Z" transform="translate(-97.195 -1201.082)" fill="#9da6ba" fill-rule="evenodd"/>
      <path id="Trazado_986906" data-name="Trazado 986906" d="M1331.13,1241.72v2.52h3.629l-1-2.52Z" transform="translate(-1128.912 -1201.111)" fill="#9da6ba" fill-rule="evenodd"/>
      <path id="Trazado_986907" data-name="Trazado 986907" d="M874,42.26h6.634V40.02H874Z" transform="translate(-686.728 -38.702)" fill="#9da6ba" fill-rule="evenodd"/>
      <path id="Trazado_986908" data-name="Trazado 986908" d="M828.787,599.165a.858.858,0,0,0-1.717,0A.858.858,0,0,0,828.787,599.165Z" transform="translate(-641.332 -578.745)" fill="#9da6ba" fill-rule="evenodd"/>
      <path id="Trazado_986909" data-name="Trazado 986909" d="M828.258,819.18a.858.858,0,0,0,0,1.716A.858.858,0,0,0,828.258,819.18Z" transform="translate(-641.661 -792.386)" fill="#9da6ba" fill-rule="evenodd"/>
      <path id="Trazado_986910" data-name="Trazado 986910" d="M828.787,1483.955a.858.858,0,0,0-1.717,0A.858.858,0,0,0,828.787,1483.955Z" transform="translate(-641.332 -1434.606)" fill="#9da6ba" fill-rule="evenodd"/>
      <path id="Trazado_986911" data-name="Trazado 986911" d="M828.254,1263.3a.858.858,0,0,0,0-1.717A.858.858,0,0,0,828.254,1263.3Z" transform="translate(-641.657 -1220.322)" fill="#9da6ba" fill-rule="evenodd"/>
      <path id="Trazado_986912" data-name="Trazado 986912" d="M828.258,1042.1a.858.858,0,0,0,0-1.717A.858.858,0,0,0,828.258,1042.1Z" transform="translate(-641.661 -1006.354)" fill="#9da6ba" fill-rule="evenodd"/>
    </g>
  </g>
</svg>
