<svg xmlns="http://www.w3.org/2000/svg" xmlns:xlink="http://www.w3.org/1999/xlink" width="108.914" height="108.914" viewBox="0 0 108.914 108.914">
  <defs>
    <filter id="Trazado_874925" x="0" y="0" width="108.914" height="108.914" filterUnits="userSpaceOnUse">
      <feOffset dy="3" input="SourceAlpha"/>
      <feGaussianBlur stdDeviation="3" result="blur"/>
      <feFlood flood-opacity="0.161"/>
      <feComposite operator="in" in2="blur"/>
      <feComposite in="SourceGraphic"/>
    </filter>
    <clipPath id="clip-path">
      <path id="path1035" d="M0-682.665H55.975v55.975H0Z" transform="translate(0 682.665)"/>
    </clipPath>
  </defs>
  <g id="Grupo_1125832" data-name="Grupo 1125832" transform="translate(5980 11027)">
    <g id="Grupo_1098742" data-name="Grupo 1098742" transform="translate(-5971 -11021)">
      <g transform="matrix(1, 0, 0, 1, -9, -6)" filter="url(#Trazado_874925)">
        <g id="Trazado_874925-2" data-name="Trazado 874925" transform="translate(9 6)" fill="#c6e697" opacity="0.859">
          <path d="M 45.45676803588867 89.41407012939453 C 39.52198028564453 89.41407012939453 33.76551818847656 88.25206756591797 28.34726715087891 85.96034240722656 C 23.11311721801758 83.74648284912109 18.41204261779785 80.57682800292969 14.37464332580566 76.5394287109375 C 10.33724308013916 72.50202941894531 7.167593002319336 67.80095672607422 4.953730583190918 62.56679534912109 C 2.662005424499512 57.14855575561523 1.500005483627319 51.39208221435547 1.500005483627319 45.45729446411133 C 1.500005483627319 39.52198028564453 2.662005424499512 33.76551818847656 4.953730583190918 28.34726905822754 C 7.167593002319336 23.11310577392578 10.33724308013916 18.41203117370605 14.37464332580566 14.37464332580566 C 18.41204261779785 10.33724403381348 23.11311721801758 7.167593955993652 28.34726715087891 4.953731060028076 C 33.76551818847656 2.662006139755249 39.52198028564453 1.500006198883057 45.45676803588867 1.500006198883057 C 51.39155578613281 1.500006198883057 57.14802932739258 2.662006139755249 62.56626892089844 4.953731060028076 C 67.80043029785156 7.167593955993652 72.50150299072266 10.33724403381348 76.53890228271484 14.37464332580566 C 80.57630920410156 18.41203117370605 83.74595642089844 23.11310577392578 85.95981597900391 28.34726905822754 C 88.25154113769531 33.76551818847656 89.41354370117188 39.52198028564453 89.41354370117188 45.45676803588867 C 89.41354370117188 51.39208221435547 88.25154113769531 57.14855575561523 85.95981597900391 62.56679534912109 C 83.74595642089844 67.80095672607422 80.57630920410156 72.50202941894531 76.53890228271484 76.5394287109375 C 72.50150299072266 80.57682800292969 67.80043029785156 83.74648284912109 62.56626892089844 85.96034240722656 C 57.14802932739258 88.25206756591797 51.39155578613281 89.41407012939453 45.45676803588867 89.41407012939453 Z" stroke="none"/>
          <path d="M 45.45676803588867 3 C 39.72381210327148 3 34.1639404296875 4.12213134765625 28.93159484863281 6.335227966308594 C 23.87622833251953 8.473472595214844 19.33542633056641 11.53517150878906 15.43529510498047 15.435302734375 C 11.53517150878906 19.33543395996094 8.473464965820312 23.87622833251953 6.335227966308594 28.93160247802734 C 4.122123718261719 34.16394424438477 3 39.72381591796875 3 45.4572868347168 C 3 51.19024658203125 4.122123718261719 56.75011825561523 6.335227966308594 61.98246002197266 C 8.473464965820312 67.03782653808594 11.53517150878906 71.57862854003906 15.43529510498047 75.478759765625 C 19.33542633056641 79.37889099121094 23.87622833251953 82.44058990478516 28.93159484863281 84.57883453369141 C 34.1639404296875 86.79193115234375 39.72381210327148 87.9140625 45.45676803588867 87.9140625 C 51.18972396850586 87.9140625 56.74959564208984 86.79193115234375 61.98194122314453 84.57883453369141 C 67.03730773925781 82.44058990478516 71.57810974121094 79.37889099121094 75.47824096679688 75.478759765625 C 79.37837219238281 71.57862854003906 82.44007110595703 67.03782653808594 84.57830810546875 61.98246002197266 C 86.79141235351562 56.75011825561523 87.91353607177734 51.19024658203125 87.91353607177734 45.4567756652832 C 87.91353607177734 39.72381591796875 86.79141235351562 34.16394424438477 84.57830810546875 28.93160247802734 C 82.44007110595703 23.87622833251953 79.37837219238281 19.33543395996094 75.47824096679688 15.435302734375 C 71.57810974121094 11.53517150878906 67.03730773925781 8.473472595214844 61.98194122314453 6.335227966308594 C 56.74959564208984 4.12213134765625 51.18972396850586 3 45.45676803588867 3 M 45.45676803588867 0 C 70.56185150146484 0 90.91353607177734 20.35169219970703 90.91353607177734 45.4567756652832 L 90.91353607177734 45.4572868347168 C 90.91353607177734 70.5623779296875 70.56185150146484 90.9140625 45.45676803588867 90.9140625 C 20.3516845703125 90.9140625 0 70.5623779296875 0 45.4572868347168 L 0 45.4567756652832 C 0 20.35169219970703 20.3516845703125 0 45.45676803588867 0 Z" stroke="none" fill="#fff"/>
        </g>
      </g>
      <g id="Trazado_874923" data-name="Trazado 874923" transform="translate(0 0)" fill="none">
        <path d="M45.457,0A45.457,45.457,0,0,1,90.914,45.457h0A45.457,45.457,0,0,1,0,45.457H0A45.457,45.457,0,0,1,45.457,0Z" stroke="none"/>
        <path d="M 45.45676803588867 3 C 39.72381210327148 3 34.1639404296875 4.12213134765625 28.93159484863281 6.335227966308594 C 23.87622833251953 8.473472595214844 19.33542633056641 11.53517150878906 15.43529510498047 15.435302734375 C 11.53517150878906 19.33543395996094 8.473464965820312 23.87622833251953 6.335227966308594 28.93160247802734 C 4.122123718261719 34.16394424438477 3 39.72381591796875 3 45.4572868347168 C 3 51.19024658203125 4.122123718261719 56.75011825561523 6.335227966308594 61.98246002197266 C 8.473464965820312 67.03782653808594 11.53517150878906 71.57862854003906 15.43529510498047 75.478759765625 C 19.33542633056641 79.37889099121094 23.87622833251953 82.44058990478516 28.93159484863281 84.57883453369141 C 34.1639404296875 86.79193115234375 39.72381210327148 87.9140625 45.45676803588867 87.9140625 C 51.18972396850586 87.9140625 56.74959564208984 86.79193115234375 61.98194122314453 84.57883453369141 C 67.03730773925781 82.44058990478516 71.57810974121094 79.37889099121094 75.47824096679688 75.478759765625 C 79.37837219238281 71.57862854003906 82.44007110595703 67.03782653808594 84.57830810546875 61.98246002197266 C 86.79141235351562 56.75011825561523 87.91353607177734 51.19024658203125 87.91353607177734 45.4567756652832 C 87.91353607177734 39.72381591796875 86.79141235351562 34.16394424438477 84.57830810546875 28.93160247802734 C 82.44007110595703 23.87622833251953 79.37837219238281 19.33543395996094 75.47824096679688 15.435302734375 C 71.57810974121094 11.53517150878906 67.03730773925781 8.473472595214844 61.98194122314453 6.335227966308594 C 56.74959564208984 4.12213134765625 51.18972396850586 3 45.45676803588867 3 M 45.45676803588867 0 C 70.56185150146484 0 90.91353607177734 20.35169219970703 90.91353607177734 45.4567756652832 L 90.91353607177734 45.4572868347168 C 90.91353607177734 70.5623779296875 70.56185150146484 90.9140625 45.45676803588867 90.9140625 C 20.3516845703125 90.9140625 0 70.5623779296875 0 45.4572868347168 L 0 45.4567756652832 C 0 20.35169219970703 20.3516845703125 0 45.45676803588867 0 Z" stroke="none" fill="#fff"/>
      </g>
    </g>
    <g id="g1029" transform="translate(-5954 -10320.335)">
      <g id="g1031" transform="translate(0 -682.665)">
        <g id="g1033" clip-path="url(#clip-path)">
          <g id="g1039" transform="translate(17.08 0.82)">
            <path id="path1041" d="M-77.219,0c-2.843,0-5.452,2.362-6.9,5.935A19.15,19.15,0,0,1-82.8,13.059a13.3,13.3,0,0,1-1.311,6.258,7.448,7.448,0,0,0,2.706,2.832,2.572,2.572,0,0,1,1.246,2.282l-.981,26.09a3.677,3.677,0,0,0,3.675,3.815h.5a4.053,4.053,0,0,0,2.03-.542l-.109-.053A3.677,3.677,0,0,1-76.672,48.7l3.086-5.847-.688-18.421a2.572,2.572,0,0,1,1.246-2.282c2.342-1.44,3.908-4.351,3.908-9.09C-69.12,5.847-72.746,0-77.219,0" transform="translate(84.116)" fill="#ff7f87"/>
          </g>
          <g id="g1043" transform="translate(17.08 0.82)">
            <path id="path1045" d="M-71.41-565.615l.981-26.089a2.572,2.572,0,0,0-1.246-2.282c-2.342-1.44-3.908-4.351-3.908-9.09,0-6.27,2.74-11.507,6.4-12.768a5.2,5.2,0,0,0-1.7-.29c-2.843,0-5.452,2.362-6.9,5.935a19.151,19.151,0,0,1,1.311,7.124,13.3,13.3,0,0,1-1.311,6.258,7.448,7.448,0,0,0,2.706,2.832,2.572,2.572,0,0,1,1.246,2.282l-.981,26.09a3.677,3.677,0,0,0,3.675,3.815h.5a4.238,4.238,0,0,0,1.494-.281,3.678,3.678,0,0,1-2.263-3.534" transform="translate(77.788 616.135)" fill="#ff656f"/>
          </g>
          <g id="g1047" transform="translate(2.303 0.82)">
            <path id="path1049" d="M-90.669,0c-4.473,0-8.1,5.847-8.1,13.059,0,4.738,1.566,7.65,3.908,9.09a2.572,2.572,0,0,1,1.246,2.282l-.981,26.09a3.677,3.677,0,0,0,3.674,3.815h.5a3.677,3.677,0,0,0,3.675-3.815l-.981-26.09a2.572,2.572,0,0,1,1.246-2.282c2.342-1.44,3.908-4.351,3.908-9.09C-82.571,5.847-86.2,0-90.669,0" transform="translate(98.768)" fill="#62ddfc"/>
          </g>
          <g id="g1051" transform="translate(2.303 0.82)">
            <path id="path1053" d="M-85.3-565.615l.981-26.089a2.572,2.572,0,0,0-1.246-2.282c-2.342-1.44-3.908-4.351-3.908-9.09,0-6.259,2.731-11.488,6.376-12.762a5.2,5.2,0,0,0-1.723-.3c-4.473,0-8.1,5.847-8.1,13.059,0,4.738,1.566,7.649,3.908,9.09a2.572,2.572,0,0,1,1.246,2.282l-.981,26.09a3.677,3.677,0,0,0,3.675,3.815h.5a3.666,3.666,0,0,0,1.472-.306,3.678,3.678,0,0,1-2.2-3.509" transform="translate(92.914 616.135)" fill="#00c2fb"/>
          </g>
          <g id="g1055" transform="translate(23.977 5.328)">
            <path id="path1057" d="M-292.865-5.944c4.018,1.965,4.707,8.81,1.538,15.289-2.082,4.257-4.767,6.184-7.5,6.449a2.572,2.572,0,0,0-2.122,1.5l-10.58,23.868a3.677,3.677,0,0,1-4.977,1.813l-.451-.22a3.677,3.677,0,0,1-1.625-5.042l12.343-23.006a2.572,2.572,0,0,0-.117-2.6c-1.471-2.323-1.6-5.626.483-9.882,3.168-6.479,8.994-10.138,13.012-8.173" transform="translate(319.023 6.474)" fill="#fcd79b"/>
          </g>
          <g id="g1059" transform="translate(23.977 5.328)">
            <path id="path1061" d="M-40.657-503.606l12.343-23.006a2.572,2.572,0,0,0-.117-2.6c-1.472-2.323-1.6-5.626.483-9.882,2.508-5.128,6.679-8.488,10.3-8.693a5.123,5.123,0,0,0-.484-.271c-4.018-1.965-9.844,1.694-13.012,8.173-2.082,4.257-1.954,7.56-.483,9.882a2.572,2.572,0,0,1,.117,2.6L-43.851-504.4a3.677,3.677,0,0,0,1.625,5.042l.451.22a3.657,3.657,0,0,0,2.294.31,3.677,3.677,0,0,1-1.176-4.781" transform="translate(44.288 548.587)" fill="#ffc365"/>
          </g>
          <g id="g1063" transform="translate(2.307 0.82)">
            <path id="path1065" d="M-90.671,0c-4.473,0-8.1,5.847-8.1,13.059,0,4.738,1.566,7.65,3.908,9.09a2.572,2.572,0,0,1,1.246,2.282L-94.6,50.52a3.677,3.677,0,0,0,3.675,3.815h.5a3.677,3.677,0,0,0,3.674-3.815l-.981-26.09a2.572,2.572,0,0,1,1.246-2.282c2.342-1.44,3.908-4.351,3.908-9.09C-82.572,5.847-86.2,0-90.671,0Z" transform="translate(98.769)" fill="none" stroke="#000" stroke-linecap="round" stroke-linejoin="round" stroke-miterlimit="10" stroke-width="1"/>
          </g>
          <g id="g1067" transform="translate(7.234 19.555)">
            <path id="path1069" d="M0,0A4.447,4.447,0,0,0,3.172,1.486,4.447,4.447,0,0,0,6.344,0" fill="none" stroke="#000" stroke-linecap="round" stroke-linejoin="round" stroke-miterlimit="10" stroke-width="1"/>
          </g>
          <g id="g1071" transform="translate(20.809 19.555)">
            <path id="path1073" d="M0,0A4.447,4.447,0,0,0,3.172,1.486,4.447,4.447,0,0,0,6.344,0" fill="none" stroke="#000" stroke-linecap="round" stroke-linejoin="round" stroke-miterlimit="10" stroke-width="1"/>
          </g>
          <g id="g1075" transform="translate(39.059 21.295)">
            <path id="path1077" d="M-63.81-31.2a4.447,4.447,0,0,1-3.5-.059,4.447,4.447,0,0,1-2.2-2.728" transform="translate(69.509 33.992)" fill="none" stroke="#000" stroke-linecap="round" stroke-linejoin="round" stroke-miterlimit="10" stroke-width="1"/>
          </g>
          <g id="g1079" transform="translate(23.981 5.63)">
            <path id="path1081" d="M-243.88-.122c-3.175.955-6.507,4.036-8.637,8.392-2.082,4.257-1.954,7.56-.483,9.882a2.572,2.572,0,0,1,.117,2.6l-12.343,23.006A3.677,3.677,0,0,0-263.6,48.8l.451.22a3.677,3.677,0,0,0,4.977-1.813l10.58-23.868a2.572,2.572,0,0,1,2.122-1.5c2.737-.265,5.422-2.192,7.5-6.449C-234.8,8.906-235.487,2.061-239.505.1a5.122,5.122,0,0,0-.549-.229" transform="translate(265.663 0.133)" fill="none" stroke="#000" stroke-linecap="round" stroke-linejoin="round" stroke-miterlimit="10" stroke-width="1"/>
          </g>
          <g id="g1083" transform="translate(26.924 15.445)">
            <path id="path1085" d="M-7.727-314.794l-.688-18.312a2.572,2.572,0,0,1,1.246-2.282c2.072-1.274,3.535-3.7,3.846-7.523" transform="translate(8.418 342.911)" fill="none" stroke="#000" stroke-linecap="round" stroke-linejoin="round" stroke-miterlimit="10" stroke-width="1"/>
          </g>
          <g id="g1087" transform="translate(17.193 20.136)">
            <path id="path1089" d="M0,0A7.209,7.209,0,0,0,2.6,2.832,2.572,2.572,0,0,1,3.843,5.114L2.862,31.2a3.677,3.677,0,0,0,3.674,3.815h.5a3.657,3.657,0,0,0,1.921-.542l-.11-.053" fill="none" stroke="#000" stroke-linecap="round" stroke-linejoin="round" stroke-miterlimit="10" stroke-width="1"/>
          </g>
          <g id="g1091" transform="translate(17.193 0.82)">
            <path id="path1093" d="M-165.309-120.9c-.664-6.135-3.983-10.8-7.977-10.8-2.842,0-5.343,2.362-6.788,5.935" transform="translate(180.074 131.701)" fill="none" stroke="#000" stroke-linecap="round" stroke-linejoin="round" stroke-miterlimit="10" stroke-width="1"/>
          </g>
        </g>
      </g>
    </g>
  </g>
</svg>
