<svg xmlns="http://www.w3.org/2000/svg" xmlns:xlink="http://www.w3.org/1999/xlink" width="108.914" height="108.914" viewBox="0 0 108.914 108.914">
  <defs>
    <filter id="Trazado_874925" x="0" y="0" width="108.914" height="108.914" filterUnits="userSpaceOnUse">
      <feOffset dy="3" input="SourceAlpha"/>
      <feGaussianBlur stdDeviation="3" result="blur"/>
      <feFlood flood-opacity="0.161"/>
      <feComposite operator="in" in2="blur"/>
      <feComposite in="SourceGraphic"/>
    </filter>
  </defs>
  <g id="Grupo_1125834" data-name="Grupo 1125834" transform="translate(5658 11027)">
    <g id="Grupo_1098742" data-name="Grupo 1098742" transform="translate(-5649 -11021)">
      <g transform="matrix(1, 0, 0, 1, -9, -6)" filter="url(#Trazado_874925)">
        <g id="Trazado_874925-2" data-name="Trazado 874925" transform="translate(9 6)" fill="#c6e697" opacity="0.859">
          <path d="M 45.45676803588867 89.41407012939453 C 39.52198028564453 89.41407012939453 33.76551818847656 88.25206756591797 28.34726715087891 85.96034240722656 C 23.11311721801758 83.74648284912109 18.41204261779785 80.57682800292969 14.37464332580566 76.5394287109375 C 10.33724308013916 72.50202941894531 7.167593002319336 67.80095672607422 4.953730583190918 62.56679534912109 C 2.662005424499512 57.14855575561523 1.500005483627319 51.39208221435547 1.500005483627319 45.45729446411133 C 1.500005483627319 39.52198028564453 2.662005424499512 33.76551818847656 4.953730583190918 28.34726905822754 C 7.167593002319336 23.11310577392578 10.33724308013916 18.41203117370605 14.37464332580566 14.37464332580566 C 18.41204261779785 10.33724403381348 23.11311721801758 7.167593955993652 28.34726715087891 4.953731060028076 C 33.76551818847656 2.662006139755249 39.52198028564453 1.500006198883057 45.45676803588867 1.500006198883057 C 51.39155578613281 1.500006198883057 57.14802932739258 2.662006139755249 62.56626892089844 4.953731060028076 C 67.80043029785156 7.167593955993652 72.50150299072266 10.33724403381348 76.53890228271484 14.37464332580566 C 80.57630920410156 18.41203117370605 83.74595642089844 23.11310577392578 85.95981597900391 28.34726905822754 C 88.25154113769531 33.76551818847656 89.41354370117188 39.52198028564453 89.41354370117188 45.45676803588867 C 89.41354370117188 51.39208221435547 88.25154113769531 57.14855575561523 85.95981597900391 62.56679534912109 C 83.74595642089844 67.80095672607422 80.57630920410156 72.50202941894531 76.53890228271484 76.5394287109375 C 72.50150299072266 80.57682800292969 67.80043029785156 83.74648284912109 62.56626892089844 85.96034240722656 C 57.14802932739258 88.25206756591797 51.39155578613281 89.41407012939453 45.45676803588867 89.41407012939453 Z" stroke="none"/>
          <path d="M 45.45676803588867 3 C 39.72381210327148 3 34.1639404296875 4.12213134765625 28.93159484863281 6.335227966308594 C 23.87622833251953 8.473472595214844 19.33542633056641 11.53517150878906 15.43529510498047 15.435302734375 C 11.53517150878906 19.33543395996094 8.473464965820312 23.87622833251953 6.335227966308594 28.93160247802734 C 4.122123718261719 34.16394424438477 3 39.72381591796875 3 45.4572868347168 C 3 51.19024658203125 4.122123718261719 56.75011825561523 6.335227966308594 61.98246002197266 C 8.473464965820312 67.03782653808594 11.53517150878906 71.57862854003906 15.43529510498047 75.478759765625 C 19.33542633056641 79.37889099121094 23.87622833251953 82.44058990478516 28.93159484863281 84.57883453369141 C 34.1639404296875 86.79193115234375 39.72381210327148 87.9140625 45.45676803588867 87.9140625 C 51.18972396850586 87.9140625 56.74959564208984 86.79193115234375 61.98194122314453 84.57883453369141 C 67.03730773925781 82.44058990478516 71.57810974121094 79.37889099121094 75.47824096679688 75.478759765625 C 79.37837219238281 71.57862854003906 82.44007110595703 67.03782653808594 84.57830810546875 61.98246002197266 C 86.79141235351562 56.75011825561523 87.91353607177734 51.19024658203125 87.91353607177734 45.4567756652832 C 87.91353607177734 39.72381591796875 86.79141235351562 34.16394424438477 84.57830810546875 28.93160247802734 C 82.44007110595703 23.87622833251953 79.37837219238281 19.33543395996094 75.47824096679688 15.435302734375 C 71.57810974121094 11.53517150878906 67.03730773925781 8.473472595214844 61.98194122314453 6.335227966308594 C 56.74959564208984 4.12213134765625 51.18972396850586 3 45.45676803588867 3 M 45.45676803588867 0 C 70.56185150146484 0 90.91353607177734 20.35169219970703 90.91353607177734 45.4567756652832 L 90.91353607177734 45.4572868347168 C 90.91353607177734 70.5623779296875 70.56185150146484 90.9140625 45.45676803588867 90.9140625 C 20.3516845703125 90.9140625 0 70.5623779296875 0 45.4572868347168 L 0 45.4567756652832 C 0 20.35169219970703 20.3516845703125 0 45.45676803588867 0 Z" stroke="none" fill="#fff"/>
        </g>
      </g>
      <g id="Trazado_874923" data-name="Trazado 874923" transform="translate(0 0)" fill="none">
        <path d="M45.457,0A45.457,45.457,0,0,1,90.914,45.457h0A45.457,45.457,0,0,1,0,45.457H0A45.457,45.457,0,0,1,45.457,0Z" stroke="none"/>
        <path d="M 45.45676803588867 3 C 39.72381210327148 3 34.1639404296875 4.12213134765625 28.93159484863281 6.335227966308594 C 23.87622833251953 8.473472595214844 19.33542633056641 11.53517150878906 15.43529510498047 15.435302734375 C 11.53517150878906 19.33543395996094 8.473464965820312 23.87622833251953 6.335227966308594 28.93160247802734 C 4.122123718261719 34.16394424438477 3 39.72381591796875 3 45.4572868347168 C 3 51.19024658203125 4.122123718261719 56.75011825561523 6.335227966308594 61.98246002197266 C 8.473464965820312 67.03782653808594 11.53517150878906 71.57862854003906 15.43529510498047 75.478759765625 C 19.33542633056641 79.37889099121094 23.87622833251953 82.44058990478516 28.93159484863281 84.57883453369141 C 34.1639404296875 86.79193115234375 39.72381210327148 87.9140625 45.45676803588867 87.9140625 C 51.18972396850586 87.9140625 56.74959564208984 86.79193115234375 61.98194122314453 84.57883453369141 C 67.03730773925781 82.44058990478516 71.57810974121094 79.37889099121094 75.47824096679688 75.478759765625 C 79.37837219238281 71.57862854003906 82.44007110595703 67.03782653808594 84.57830810546875 61.98246002197266 C 86.79141235351562 56.75011825561523 87.91353607177734 51.19024658203125 87.91353607177734 45.4567756652832 C 87.91353607177734 39.72381591796875 86.79141235351562 34.16394424438477 84.57830810546875 28.93160247802734 C 82.44007110595703 23.87622833251953 79.37837219238281 19.33543395996094 75.47824096679688 15.435302734375 C 71.57810974121094 11.53517150878906 67.03730773925781 8.473472595214844 61.98194122314453 6.335227966308594 C 56.74959564208984 4.12213134765625 51.18972396850586 3 45.45676803588867 3 M 45.45676803588867 0 C 70.56185150146484 0 90.91353607177734 20.35169219970703 90.91353607177734 45.4567756652832 L 90.91353607177734 45.4572868347168 C 90.91353607177734 70.5623779296875 70.56185150146484 90.9140625 45.45676803588867 90.9140625 C 20.3516845703125 90.9140625 0 70.5623779296875 0 45.4572868347168 L 0 45.4567756652832 C 0 20.35169219970703 20.3516845703125 0 45.45676803588867 0 Z" stroke="none" fill="#fff"/>
      </g>
    </g>
    <g id="Grupo_1125833" data-name="Grupo 1125833" transform="translate(-5632.497 -11004)">
      <path id="Trazado_986913" data-name="Trazado 986913" d="M18.5,60H50.956v2.7H18.5Z" transform="translate(-1.478 -5.911)" fill="#636a74"/>
      <path id="Trazado_986914" data-name="Trazado 986914" d="M54.01,14.524c-2.488,0-4.507-3.029-4.507-6.761V1q1.2,3.948,2.4,7.906c.37,1.217,1.2,2.01,2.109,2.01a2.467,2.467,0,0,0,2.118-2.01L58.518,1V7.763C58.518,11.495,56.507,14.524,54.01,14.524Z" transform="translate(-4.532 -0.099)" fill="#e6ecf4"/>
      <path id="Trazado_986915" data-name="Trazado 986915" d="M56.912,35.706v.9H51.5v-.9a2.7,2.7,0,1,1,5.409,0Z" transform="translate(-4.73 -3.251)" fill="#66a9ff"/>
      <path id="Trazado_986916" data-name="Trazado 986916" d="M44.813,1V29.849H40.306v-6.7c-.379-1.361-.739-2.641-1.118-4a5.545,5.545,0,0,1-.162-5.021l.847-1.848a5.886,5.886,0,0,0,.009-4.688,5.559,5.559,0,0,1,.054-4.3L40.919,1Z" transform="translate(-3.449 -0.099)" fill="#e6ecf4"/>
      <path id="Trazado_986917" data-name="Trazado 986917" d="M40.5,33H45.01v3.606H40.5Z" transform="translate(-3.646 -3.251)" fill="#66a9ff"/>
      <path id="Trazado_986918" data-name="Trazado 986918" d="M31.29,14.127a5.545,5.545,0,0,1-.162,5.021c-.379,1.361-.739,2.641-1.118,4v6.7H25.5V1h3.885l.992,2.29a5.688,5.688,0,0,1-.018,4.48,5.553,5.553,0,0,0,.081,4.516Z" transform="translate(-2.168 -0.099)" fill="#e6ecf4"/>
      <path id="Trazado_986919" data-name="Trazado 986919" d="M25.5,33H30.01v3.606H25.5Z" transform="translate(-2.168 -3.251)" fill="#66a9ff"/>
      <path id="Trazado_986920" data-name="Trazado 986920" d="M54.971,37v3.606H13.5V37H54.971Z" transform="translate(-0.986 -3.645)" fill="#636a74"/>
      <path id="Trazado_986921" data-name="Trazado 986921" d="M54.971,41V55.714a2.416,2.416,0,0,1-2.416,2.416H15.928A2.418,2.418,0,0,1,13.5,55.714V41Z" transform="translate(-0.986 -4.039)" fill="#e6ecf4"/>
      <path id="Trazado_986922" data-name="Trazado 986922" d="M16.48,33.4a2.7,2.7,0,0,1,3.065,2.272l.144.974H14.227l-.027-.171A2.712,2.712,0,0,1,16.471,33.4Z" transform="translate(-1.052 -3.287)" fill="#66a9ff"/>
      <path id="Trazado_986923" data-name="Trazado 986923" d="M13.652,17.724l-4.327.649A2.839,2.839,0,0,1,6.1,15.984L4.529,5.563A2.854,2.854,0,0,1,6.918,2.326l8.645-1.3a2.852,2.852,0,0,1,3.227,2.389l1.569,10.43a2.859,2.859,0,0,1-2.389,3.236Z" transform="translate(-0.099 -0.098)" fill="#e6ecf4"/>
      <path id="Trazado_986924" data-name="Trazado 986924" d="M52.456,58.537H15.823A3.322,3.322,0,0,1,12.5,55.218V36.9a.9.9,0,0,1,.9-.9H54.874a.9.9,0,0,1,.9.9V55.218a3.322,3.322,0,0,1-3.319,3.319ZM14.307,37.8V55.218a1.517,1.517,0,0,0,1.516,1.516H52.456a1.517,1.517,0,0,0,1.516-1.516V37.8Z" transform="translate(-0.887 -3.547)"/>
      <path id="Trazado_986925" data-name="Trazado 986925" d="M56.814,37.409a.9.9,0,0,1-.9-.9v-.9a1.8,1.8,0,0,0-3.606,0v.9a.9.9,0,0,1-1.8,0v-.9a3.606,3.606,0,1,1,7.212,0v.9a.9.9,0,0,1-.9.9Z" transform="translate(-4.631 -3.153)"/>
      <path id="Trazado_986926" data-name="Trazado 986926" d="M54.405,32.123a.9.9,0,0,1-.9-.9V15.85a.9.9,0,0,1,1.8,0V31.222a.9.9,0,0,1-.9.9Z" transform="translate(-4.927 -1.473)"/>
      <path id="Trazado_986927" data-name="Trazado 986927" d="M53.913,15.325c-3.033,0-5.409-3.366-5.409-7.663V.9A.9.9,0,0,1,49.273.01a.912.912,0,0,1,.995.63l2.395,7.9c.249.821.752,1.373,1.25,1.373s1-.552,1.25-1.373L57.557.64A.9.9,0,0,1,59.322.9V7.663c0,4.3-2.376,7.663-5.409,7.663Zm-3.606-8.34v.677c0,3.176,1.652,5.86,3.606,5.86s3.606-2.683,3.606-5.86V6.986l-.63,2.08a3.33,3.33,0,0,1-2.976,2.653,3.33,3.33,0,0,1-2.976-2.653Z" transform="translate(-4.434 0)"/>
      <path id="Trazado_986928" data-name="Trazado 986928" d="M14.129,37.445a.9.9,0,0,1-.889-.759l-.027-.171a3.6,3.6,0,0,1,.668-2.684,3.559,3.559,0,0,1,2.362-1.424l.051-.006a3.6,3.6,0,0,1,4.046,3.038l.144.973a.9.9,0,0,1-1.784.264l-.144-.974a1.781,1.781,0,0,0-.71-1.181,1.76,1.76,0,0,0-1.326-.331l-.048.006a1.8,1.8,0,0,0-1.477,2.046l.026.159a.9.9,0,0,1-.747,1.033.892.892,0,0,1-.143.011Z" transform="translate(-0.953 -3.189)"/>
      <path id="Trazado_986929" data-name="Trazado 986929" d="M16.423,32.844a.9.9,0,0,1-.891-.768L13.659,19.589a.9.9,0,1,1,1.784-.268l1.873,12.487a.9.9,0,0,1-.758,1.026,1.01,1.01,0,0,1-.135.01Z" transform="translate(-1 -1.828)"/>
      <path id="Trazado_986930" data-name="Trazado 986930" d="M8.8,19.21a3.755,3.755,0,0,1-3.7-3.189L3.538,5.6A3.751,3.751,0,0,1,6.684,1.338L15.327.04a3.752,3.752,0,0,1,4.257,3.147l1.564,10.426A3.751,3.751,0,0,1,18,17.871l-8.643,1.3a3.862,3.862,0,0,1-.559.041ZM15.882,1.8a1.862,1.862,0,0,0-.287.022l-8.643,1.3a1.947,1.947,0,0,0-1.63,2.206L6.885,15.754a1.925,1.925,0,0,0,.767,1.27,1.906,1.906,0,0,0,1.439.361l8.643-1.3a1.947,1.947,0,0,0,1.63-2.206L17.8,3.455A1.95,1.95,0,0,0,15.882,1.8Z"/>
      <path id="Trazado_986931" data-name="Trazado 986931" d="M9.985,16.913a.9.9,0,0,1-.891-.768L7.622,6.339a.9.9,0,1,1,1.784-.268l1.472,9.806a.9.9,0,0,1-.758,1.026,1.012,1.012,0,0,1-.135.01Z" transform="translate(-0.405 -0.522)"/>
      <path id="Trazado_986932" data-name="Trazado 986932" d="M17.9,15.725a.9.9,0,0,1-.891-.768L15.533,5.151a.9.9,0,0,1,1.784-.268l1.472,9.806a.9.9,0,0,1-.758,1.026,1.011,1.011,0,0,1-.135.01Z" transform="translate(-1.185 -0.406)"/>
      <path id="Trazado_986933" data-name="Trazado 986933" d="M13.94,16.319a.9.9,0,0,1-.891-.768L11.578,5.745a.9.9,0,1,1,1.784-.268l1.471,9.806a.9.9,0,0,1-.758,1.026,1.011,1.011,0,0,1-.135.01Z" transform="translate(-0.795 -0.464)"/>
      <path id="Trazado_986934" data-name="Trazado 986934" d="M40.208,34.256a.9.9,0,0,1-.9-.9V23.174l-1.059-3.79a6.437,6.437,0,0,1-.136-5.738l.845-1.843a5,5,0,0,0-.01-3.98,6.439,6.439,0,0,1,.064-4.99L39.993.546A.9.9,0,0,1,40.821,0h3.895a.9.9,0,0,1,0,1.8h-3.3l-.748,1.744a4.657,4.657,0,0,0-.046,3.609,6.777,6.777,0,0,1-.028,5.405L39.748,14.4a4.655,4.655,0,0,0,.136,4.217.882.882,0,0,1,.076.187l1.118,4a.926.926,0,0,1,.033.241v10.3a.9.9,0,0,1-.9.9Z" transform="translate(-3.35 0)"/>
      <path id="Trazado_986935" data-name="Trazado 986935" d="M29.913,34.256a.9.9,0,0,1-.9-.9v-10.3a.926.926,0,0,1,.033-.241l1.118-4a.961.961,0,0,1,.076-.188,4.648,4.648,0,0,0,.138-4.211l-.849-1.843a6.424,6.424,0,0,1-.093-5.243,4.758,4.758,0,0,0,.022-3.772L28.7,1.8H25.405a.9.9,0,1,1,0-1.8h3.886a.9.9,0,0,1,.828.543l.991,2.29A6.632,6.632,0,0,1,31.1,8.022a4.642,4.642,0,0,0,.068,3.788l.848,1.841a6.428,6.428,0,0,1-.138,5.734l-1.059,3.79v10.18a.9.9,0,0,1-.9.9Z" transform="translate(-2.07 0)"/>
      <path id="Trazado_986936" data-name="Trazado 986936" d="M25.405,34.256a.9.9,0,0,1-.9-.9V.9a.9.9,0,0,1,1.8,0V33.355a.9.9,0,0,1-.9.9Z" transform="translate(-2.07 0)"/>
      <path id="Trazado_986937" data-name="Trazado 986937" d="M45.405,34.256a.9.9,0,0,1-.9-.9V.9a.9.9,0,0,1,1.8,0V33.355a.9.9,0,0,1-.9.9Z" transform="translate(-4.04 0)"/>
      <path id="Trazado_986938" data-name="Trazado 986938" d="M29.912,33.8H25.4a.9.9,0,1,1,0-1.8h4.507a.9.9,0,0,1,0,1.8Z" transform="translate(-2.07 -3.153)"/>
      <path id="Trazado_986939" data-name="Trazado 986939" d="M44.911,33.8H40.4a.9.9,0,1,1,0-1.8h4.507a.9.9,0,0,1,0,1.8Z" transform="translate(-3.547 -3.153)"/>
      <path id="Trazado_986940" data-name="Trazado 986940" d="M50.859,63.507H18.405a.9.9,0,0,1-.9-.9V59.9a.9.9,0,1,1,1.8,0v1.8h30.65V59.9a.9.9,0,1,1,1.8,0v2.7a.9.9,0,0,1-.9.9Z" transform="translate(-1.38 -5.813)"/>
      <path id="Trazado_986941" data-name="Trazado 986941" d="M54.874,41.8H13.405a.9.9,0,1,1,0-1.8H54.874a.9.9,0,0,1,0,1.8Z" transform="translate(-0.887 -3.941)"/>
      <path id="Trazado_986942" data-name="Trazado 986942" d="M19.405,51.212a.9.9,0,0,1-.9-.9V44.9a.9.9,0,1,1,1.8,0V50.31a.9.9,0,0,1-.9.9Z" transform="translate(-1.479 -4.335)"/>
      <path id="Trazado_986943" data-name="Trazado 986943" d="M19.405,55.7a.9.9,0,0,1-.9-.9v-.9a.9.9,0,1,1,1.8,0v.9a.9.9,0,0,1-.9.9Z" transform="translate(-1.479 -5.222)"/>
    </g>
  </g>
</svg>
