<svg xmlns="http://www.w3.org/2000/svg" xmlns:xlink="http://www.w3.org/1999/xlink" width="108.914" height="108.914" viewBox="0 0 108.914 108.914">
  <defs>
    <filter id="Trazado_874925" x="0" y="0" width="108.914" height="108.914" filterUnits="userSpaceOnUse">
      <feOffset dy="3" input="SourceAlpha"/>
      <feGaussianBlur stdDeviation="3" result="blur"/>
      <feFlood flood-opacity="0.161"/>
      <feComposite operator="in" in2="blur"/>
      <feComposite in="SourceGraphic"/>
    </filter>
  </defs>
  <g id="Grupo_1125851" data-name="Grupo 1125851" transform="translate(5344 11026.795)">
    <g id="Grupo_1098742" data-name="Grupo 1098742" transform="translate(-5335 -11020.795)">
      <g transform="matrix(1, 0, 0, 1, -9, -6)" filter="url(#Trazado_874925)">
        <g id="Trazado_874925-2" data-name="Trazado 874925" transform="translate(9 6)" fill="#c6e697" opacity="0.859">
          <path d="M 45.45676803588867 89.41407012939453 C 39.52198028564453 89.41407012939453 33.76551818847656 88.25206756591797 28.34726715087891 85.96034240722656 C 23.11311721801758 83.74648284912109 18.41204261779785 80.57682800292969 14.37464332580566 76.5394287109375 C 10.33724308013916 72.50202941894531 7.167593002319336 67.80095672607422 4.953730583190918 62.56679534912109 C 2.662005424499512 57.14855575561523 1.500005483627319 51.39208221435547 1.500005483627319 45.45729446411133 C 1.500005483627319 39.52198028564453 2.662005424499512 33.76551818847656 4.953730583190918 28.34726905822754 C 7.167593002319336 23.11310577392578 10.33724308013916 18.41203117370605 14.37464332580566 14.37464332580566 C 18.41204261779785 10.33724403381348 23.11311721801758 7.167593955993652 28.34726715087891 4.953731060028076 C 33.76551818847656 2.662006139755249 39.52198028564453 1.500006198883057 45.45676803588867 1.500006198883057 C 51.39155578613281 1.500006198883057 57.14802932739258 2.662006139755249 62.56626892089844 4.953731060028076 C 67.80043029785156 7.167593955993652 72.50150299072266 10.33724403381348 76.53890228271484 14.37464332580566 C 80.57630920410156 18.41203117370605 83.74595642089844 23.11310577392578 85.95981597900391 28.34726905822754 C 88.25154113769531 33.76551818847656 89.41354370117188 39.52198028564453 89.41354370117188 45.45676803588867 C 89.41354370117188 51.39208221435547 88.25154113769531 57.14855575561523 85.95981597900391 62.56679534912109 C 83.74595642089844 67.80095672607422 80.57630920410156 72.50202941894531 76.53890228271484 76.5394287109375 C 72.50150299072266 80.57682800292969 67.80043029785156 83.74648284912109 62.56626892089844 85.96034240722656 C 57.14802932739258 88.25206756591797 51.39155578613281 89.41407012939453 45.45676803588867 89.41407012939453 Z" stroke="none"/>
          <path d="M 45.45676803588867 3 C 39.72381210327148 3 34.1639404296875 4.12213134765625 28.93159484863281 6.335227966308594 C 23.87622833251953 8.473472595214844 19.33542633056641 11.53517150878906 15.43529510498047 15.435302734375 C 11.53517150878906 19.33543395996094 8.473464965820312 23.87622833251953 6.335227966308594 28.93160247802734 C 4.122123718261719 34.16394424438477 3 39.72381591796875 3 45.4572868347168 C 3 51.19024658203125 4.122123718261719 56.75011825561523 6.335227966308594 61.98246002197266 C 8.473464965820312 67.03782653808594 11.53517150878906 71.57862854003906 15.43529510498047 75.478759765625 C 19.33542633056641 79.37889099121094 23.87622833251953 82.44058990478516 28.93159484863281 84.57883453369141 C 34.1639404296875 86.79193115234375 39.72381210327148 87.9140625 45.45676803588867 87.9140625 C 51.18972396850586 87.9140625 56.74959564208984 86.79193115234375 61.98194122314453 84.57883453369141 C 67.03730773925781 82.44058990478516 71.57810974121094 79.37889099121094 75.47824096679688 75.478759765625 C 79.37837219238281 71.57862854003906 82.44007110595703 67.03782653808594 84.57830810546875 61.98246002197266 C 86.79141235351562 56.75011825561523 87.91353607177734 51.19024658203125 87.91353607177734 45.4567756652832 C 87.91353607177734 39.72381591796875 86.79141235351562 34.16394424438477 84.57830810546875 28.93160247802734 C 82.44007110595703 23.87622833251953 79.37837219238281 19.33543395996094 75.47824096679688 15.435302734375 C 71.57810974121094 11.53517150878906 67.03730773925781 8.473472595214844 61.98194122314453 6.335227966308594 C 56.74959564208984 4.12213134765625 51.18972396850586 3 45.45676803588867 3 M 45.45676803588867 0 C 70.56185150146484 0 90.91353607177734 20.35169219970703 90.91353607177734 45.4567756652832 L 90.91353607177734 45.4572868347168 C 90.91353607177734 70.5623779296875 70.56185150146484 90.9140625 45.45676803588867 90.9140625 C 20.3516845703125 90.9140625 0 70.5623779296875 0 45.4572868347168 L 0 45.4567756652832 C 0 20.35169219970703 20.3516845703125 0 45.45676803588867 0 Z" stroke="none" fill="#fff"/>
        </g>
      </g>
      <g id="Trazado_874923" data-name="Trazado 874923" transform="translate(0 0)" fill="none">
        <path d="M45.457,0A45.457,45.457,0,0,1,90.914,45.457h0A45.457,45.457,0,0,1,0,45.457H0A45.457,45.457,0,0,1,45.457,0Z" stroke="none"/>
        <path d="M 45.45676803588867 3 C 39.72381210327148 3 34.1639404296875 4.12213134765625 28.93159484863281 6.335227966308594 C 23.87622833251953 8.473472595214844 19.33542633056641 11.53517150878906 15.43529510498047 15.435302734375 C 11.53517150878906 19.33543395996094 8.473464965820312 23.87622833251953 6.335227966308594 28.93160247802734 C 4.122123718261719 34.16394424438477 3 39.72381591796875 3 45.4572868347168 C 3 51.19024658203125 4.122123718261719 56.75011825561523 6.335227966308594 61.98246002197266 C 8.473464965820312 67.03782653808594 11.53517150878906 71.57862854003906 15.43529510498047 75.478759765625 C 19.33542633056641 79.37889099121094 23.87622833251953 82.44058990478516 28.93159484863281 84.57883453369141 C 34.1639404296875 86.79193115234375 39.72381210327148 87.9140625 45.45676803588867 87.9140625 C 51.18972396850586 87.9140625 56.74959564208984 86.79193115234375 61.98194122314453 84.57883453369141 C 67.03730773925781 82.44058990478516 71.57810974121094 79.37889099121094 75.47824096679688 75.478759765625 C 79.37837219238281 71.57862854003906 82.44007110595703 67.03782653808594 84.57830810546875 61.98246002197266 C 86.79141235351562 56.75011825561523 87.91353607177734 51.19024658203125 87.91353607177734 45.4567756652832 C 87.91353607177734 39.72381591796875 86.79141235351562 34.16394424438477 84.57830810546875 28.93160247802734 C 82.44007110595703 23.87622833251953 79.37837219238281 19.33543395996094 75.47824096679688 15.435302734375 C 71.57810974121094 11.53517150878906 67.03730773925781 8.473472595214844 61.98194122314453 6.335227966308594 C 56.74959564208984 4.12213134765625 51.18972396850586 3 45.45676803588867 3 M 45.45676803588867 0 C 70.56185150146484 0 90.91353607177734 20.35169219970703 90.91353607177734 45.4567756652832 L 90.91353607177734 45.4572868347168 C 90.91353607177734 70.5623779296875 70.56185150146484 90.9140625 45.45676803588867 90.9140625 C 20.3516845703125 90.9140625 0 70.5623779296875 0 45.4572868347168 L 0 45.4567756652832 C 0 20.35169219970703 20.3516845703125 0 45.45676803588867 0 Z" stroke="none" fill="#fff"/>
      </g>
    </g>
    <g id="Layer_35" transform="translate(-5323.284 -11009)">
      <g id="Grupo_1125842" data-name="Grupo 1125842" transform="translate(5.1 4.963)">
        <g id="Grupo_1125835" data-name="Grupo 1125835" transform="translate(10.893 0.982)">
          <path id="Trazado_986944" data-name="Trazado 986944" d="M51.736,11.442c-4.747-5.76-13.8-6.14-20.127-2.848-9.684,5-11.14,15.191-7.405,22.912a14.734,14.734,0,0,1,3.355-.38A15.265,15.265,0,0,1,42.431,43.089H52.5a2.971,2.971,0,0,0,2.975-2.975v-2.6H48.381c-4.3,0-1.962-5.443,2.342-5.443H55.28V29.228h3.8c-.949-1.392-2.215-5.823-2.848-7.912-.949-3.481-2.152-7.089-4.494-9.874Z" transform="translate(-22.31 -6.515)" fill="#ffddce" fill-rule="evenodd"/>
        </g>
        <g id="Grupo_1125836" data-name="Grupo 1125836" transform="translate(0.949 25.531)">
          <path id="Trazado_986945" data-name="Trazado 986945" d="M36.665,57.263A15.265,15.265,0,0,0,21.791,45.3a14.734,14.734,0,0,0-3.355.38A15.266,15.266,0,1,0,37.108,60.617a18.662,18.662,0,0,0-.443-3.355Z" transform="translate(-6.6 -45.3)" fill="#a3f291" fill-rule="evenodd"/>
        </g>
        <g id="Grupo_1125837" data-name="Grupo 1125837" transform="translate(13.861 25.531)">
          <path id="Trazado_986946" data-name="Trazado 986946" d="M44.153,57.263A15.265,15.265,0,0,0,29.279,45.3,13.838,13.838,0,0,0,27,45.49,15.257,15.257,0,0,1,39.6,57.263a14.188,14.188,0,0,1,.38,3.291A15.074,15.074,0,0,1,36.3,70.428a15.446,15.446,0,0,1-9.3,5.19,13.838,13.838,0,0,0,2.279.19A15.236,15.236,0,0,0,44.532,60.617a14.336,14.336,0,0,0-.38-3.355Z" transform="translate(-27 -45.3)" fill="#99e388" fill-rule="evenodd"/>
        </g>
        <g id="Grupo_1125838" data-name="Grupo 1125838" transform="translate(7.848 42.114)">
          <path id="Trazado_986947" data-name="Trazado 986947" d="M23.07,74.285a2.785,2.785,0,1,0-2.785,2.785A2.81,2.81,0,0,0,23.07,74.285Z" transform="translate(-17.5 -71.5)" fill="#fcd285" fill-rule="evenodd"/>
        </g>
        <g id="Grupo_1125839" data-name="Grupo 1125839" transform="translate(11.709 30.152)">
          <path id="Trazado_986948" data-name="Trazado 986948" d="M27.651,52.6A4.051,4.051,0,1,0,31.7,56.651,4.038,4.038,0,0,0,27.651,52.6Z" transform="translate(-23.6 -52.6)" fill="#fcd285" fill-rule="evenodd"/>
        </g>
        <g id="Grupo_1125840" data-name="Grupo 1125840" transform="translate(19.874 42.937)">
          <path id="Trazado_986949" data-name="Trazado 986949" d="M42.07,75.585a2.785,2.785,0,1,0-2.785,2.785A2.81,2.81,0,0,0,42.07,75.585Z" transform="translate(-36.5 -72.8)" fill="#fcd285" fill-rule="evenodd"/>
        </g>
        <g id="Grupo_1125841" data-name="Grupo 1125841">
          <path id="Trazado_986950" data-name="Trazado 986950" d="M91.419,50.873a4.317,4.317,0,0,0-4.367.063.957.957,0,0,0,1.076,1.582,2.378,2.378,0,0,1,2.342.063,1.174,1.174,0,0,0,.443.127.988.988,0,0,0,.823-.506A.929.929,0,0,0,91.419,50.873Z" transform="translate(-35.024 -21.608)"/>
          <path id="Trazado_986951" data-name="Trazado 986951" d="M85.064,46.158a.955.955,0,0,0,.886-.57,2.847,2.847,0,0,1,2.468-1.519.968.968,0,1,0,.38-1.9A4.676,4.676,0,0,0,84.242,44.7a.967.967,0,0,0,.443,1.266A.383.383,0,0,0,85.064,46.158Z" transform="translate(-34.113 -18.602)"/>
          <path id="Trazado_986952" data-name="Trazado 986952" d="M85.966,58.263a.941.941,0,1,0-.633,1.772c1.139.443,1.329.886,1.456,1.329a.954.954,0,0,0,.949.76h.19a.954.954,0,0,0,.76-1.139,4.3,4.3,0,0,0-2.722-2.722Z" transform="translate(-34.318 -24.504)"/>
          <path id="Trazado_986953" data-name="Trazado 986953" d="M53.773,44.8a.973.973,0,0,0-.949.949v8.924h-18.1a16.132,16.132,0,0,0,2.722-8.924,14.037,14.037,0,0,0-.19-2.342h8.924A3.944,3.944,0,0,0,50.1,39.482v-2.6a.973.973,0,0,0-.949-.949H42.064a2.323,2.323,0,0,1-1.139-.253.579.579,0,0,1-.19-.443c0-.949,1.392-2.785,3.671-2.785h4.557a.973.973,0,0,0,.949-.949v-1.9H52.76a.848.848,0,0,0,.823-.506,1,1,0,0,0-.063-.949c-.886-1.266-2.152-5.76-2.722-7.659-.886-3.418-2.089-7.279-4.62-10.254-5.317-6.393-14.937-6.393-21.267-3.1-9.811,5.064-11.52,15.254-8.292,23.1a16.2,16.2,0,0,0,4.62,31.71,16.391,16.391,0,0,0,12.026-5.317H53.773a.973.973,0,0,0,.949-.949V45.748a.973.973,0,0,0-.949-.949ZM25.734,8.847c5.76-2.975,14.431-2.848,18.988,2.6,2.279,2.722,3.418,6.329,4.3,9.494a52.031,52.031,0,0,0,2.215,6.709H48.963a.973.973,0,0,0-.949.949v1.9H44.406c-3.165,0-5.57,2.532-5.57,4.684a2.6,2.6,0,0,0,.886,1.962,3.815,3.815,0,0,0,2.342.7H48.2v1.646a2,2,0,0,1-2.025,2.025h-9.3A16.234,16.234,0,0,0,21.24,29.544a13.413,13.413,0,0,0-2.785.253c-2.975-6.836-2.025-16.14,7.279-20.95Zm-4.494,51.2a14.3,14.3,0,1,1,14.368-14.3,14.276,14.276,0,0,1-14.368,14.3Z" transform="translate(-5.1 -4.963)"/>
          <path id="Trazado_986954" data-name="Trazado 986954" d="M16.849,63.4a.949.949,0,1,0-.949-.949A.973.973,0,0,0,16.849,63.4Z" transform="translate(-9.064 -25.715)"/>
          <path id="Trazado_986955" data-name="Trazado 986955" d="M42.949,64.4A.949.949,0,1,0,42,63.449.932.932,0,0,0,42.949,64.4Z" transform="translate(-18.645 -26.082)"/>
          <path id="Trazado_986956" data-name="Trazado 986956" d="M30.049,83.6a.949.949,0,1,0,.949.949A.932.932,0,0,0,30.049,83.6Z" transform="translate(-13.909 -33.827)"/>
          <path id="Trazado_986957" data-name="Trazado 986957" d="M27.1,61.1a5,5,0,1,0-5-5,4.971,4.971,0,0,0,5,5Zm0-8.1A3.1,3.1,0,1,1,24,56.1,3.106,3.106,0,0,1,27.1,53Z" transform="translate(-11.34 -21.898)"/>
          <path id="Trazado_986958" data-name="Trazado 986958" d="M19.734,69.9a3.734,3.734,0,1,0,3.734,3.734A3.783,3.783,0,0,0,19.734,69.9Zm0,5.633A1.836,1.836,0,1,1,21.57,73.7,1.837,1.837,0,0,1,19.734,75.533Z" transform="translate(-9.101 -28.799)"/>
          <path id="Trazado_986959" data-name="Trazado 986959" d="M38.734,71.2a3.734,3.734,0,1,0,3.734,3.734A3.741,3.741,0,0,0,38.734,71.2Zm0,5.633A1.836,1.836,0,1,1,40.57,75,1.837,1.837,0,0,1,38.734,76.833Z" transform="translate(-16.075 -29.276)"/>
        </g>
      </g>
    </g>
  </g>
</svg>
