<svg xmlns="http://www.w3.org/2000/svg" width="134.904" height="113.827" viewBox="0 0 134.904 113.827">
  <g id="_24-Vegetables" data-name="24-Vegetables" transform="translate(0 -5)">
    <circle id="Elipse_11492" data-name="Elipse 11492" cx="31.294" cy="31.294" r="31.294" transform="translate(36.158 36.308)" fill="#ffa426"/>
    <path id="Trazado_889381" data-name="Trazado 889381" d="M25.56,51.62a31.6,31.6,0,0,1,27.4-31.3,31.618,31.618,0,1,0,0,62.6A31.6,31.6,0,0,1,25.56,51.62Z" transform="translate(18.705 16.617)" fill="#fe8205"/>
    <path id="Trazado_889382" data-name="Trazado 889382" d="M34.216,20A31.6,31.6,0,0,0,30,20.314a31.582,31.582,0,0,1,0,62.6A31.6,31.6,0,1,0,34.216,20Z" transform="translate(33.236 16.618)" fill="#ffc247"/>
    <path id="Trazado_889383" data-name="Trazado 889383" d="M45.232,24.638c3.263-3.248,9.152-14.42,5.9-17.685s-14.437,2.633-17.685,5.9a8.336,8.336,0,1,0,11.79,11.79Z" transform="translate(34.345 1.106)" fill="#a5e887"/>
    <path id="Trazado_889384" data-name="Trazado 889384" d="M45.235,17.623a8.339,8.339,0,0,1-13.608-2.74,8.337,8.337,0,0,0,13.608,9.064c3.151-3.149,8.75-13.7,6.157-17.325a31.484,31.484,0,0,1-6.157,11Z" transform="translate(34.342 1.797)" fill="#86c983"/>
    <path id="Trazado_889385" data-name="Trazado 889385" d="M56.108,11.274,53.128,8.293,37.755,23.67A19.911,19.911,0,0,0,23,18.215v4.216c16.591,0,16.863,16.18,16.863,16.863V41.4h4.216V39.293a26.119,26.119,0,0,0-3.687-12.3Z" transform="translate(25.481 3.648)" fill="#98ba5c"/>
    <path id="Trazado_889386" data-name="Trazado 889386" d="M44.187,58.187A23.214,23.214,0,0,1,21,35h4.216A18.994,18.994,0,0,0,44.187,53.971Z" transform="translate(23.265 33.236)" fill="#f5e3a7"/>
    <path id="Trazado_889387" data-name="Trazado 889387" d="M21,31h4.216v4.216H21Z" transform="translate(23.265 28.805)" fill="#f5e3a7"/>
    <path id="Trazado_889388" data-name="Trazado 889388" d="M38,27h4.216v4.216H38Z" transform="translate(42.099 24.373)" fill="#f5e3a7"/>
    <path id="Trazado_889389" data-name="Trazado 889389" d="M42,31h4.216v4.216H42Z" transform="translate(46.531 28.805)" fill="#f5e3a7"/>
    <path id="Trazado_889390" data-name="Trazado 889390" d="M38,31h4.216v4.216H38Z" transform="translate(42.099 28.805)" fill="#f5e3a7"/>
    <path id="Trazado_889391" data-name="Trazado 889391" d="M21.863,30a40.233,40.233,0,0,1,10.56,2.045c3.541,1.075,6.3,2.171,6.3,2.171l-3.077,1.539-5.354,2.677,4.216,6.324L21.863,40.539,9.216,44.755l4.216-6.324L8.077,35.754,5,34.216s9.865-3.942,16.231-4.195C21.441,30,21.652,30,21.863,30Z" transform="translate(5.539 27.697)" fill="#a5e887"/>
    <path id="Trazado_889392" data-name="Trazado 889392" d="M51.578,50.162A18.912,18.912,0,0,1,50.1,57.5l-9.064,1.1A10.539,10.539,0,0,0,30.5,69.133H19.96A18.971,18.971,0,0,1,12.5,32.73l5.354,2.677-4.216,6.324,12.647-4.216,12.647,4.216-4.216-6.324,5.354-2.677A18.954,18.954,0,0,1,51.578,50.162Z" transform="translate(1.119 30.721)" fill="#ff475a"/>
    <path id="Trazado_889393" data-name="Trazado 889393" d="M22.354,36.946A18.933,18.933,0,0,1,33.715,52.418,18.809,18.809,0,0,0,22.354,32.73L17,35.407l2.108,3.162Z" transform="translate(18.834 30.721)" fill="#f03049"/>
    <path id="Trazado_889394" data-name="Trazado 889394" d="M7,43.431l12.647-4.216,12.647,4.216-3.613-5.419L19.647,35l-9.034,3.012Z" transform="translate(7.755 33.236)" fill="#f03049"/>
    <path id="Trazado_889395" data-name="Trazado 889395" d="M6.565,40.972a18.884,18.884,0,0,1,5.944-4.026l3.246,1.623,2.108-3.162L12.509,32.73A18.874,18.874,0,0,0,1.125,52.27,18.855,18.855,0,0,1,6.565,40.972Z" transform="translate(1.108 30.721)" fill="#f03049"/>
    <path id="Trazado_889396" data-name="Trazado 889396" d="M95.1,58.863A16.9,16.9,0,0,1,80.344,75.6a17.425,17.425,0,0,1-2.108.126,13.982,13.982,0,0,1-2.108-.148,13.01,13.01,0,0,1-1.771-.316L63.481,73.955l-4.216-.506L36.079,70.667,25.539,69.4a10.539,10.539,0,1,1,0-21.079l9.064-1.1,9.907-1.18,4.216-.506L67.7,43.265,78.236,42a16.836,16.836,0,0,1,11.151,4.216,15.636,15.636,0,0,1,1.918,2,15.358,15.358,0,0,1,1.686,2.508A16.581,16.581,0,0,1,95.1,58.863Z" transform="translate(16.618 40.991)" fill="#ffc247"/>
    <path id="Trazado_889397" data-name="Trazado 889397" d="M76.073,53.539v8.431H61.318l8.431,4.216L67.641,72.51,51.2,68.4a16.819,16.819,0,0,0,3.794-10.645,16.58,16.58,0,0,0-2.108-8.136A15.362,15.362,0,0,0,51.2,47.11l1.686-.422L67.641,43l2.108,6.324-8.431,4.216Z" transform="translate(56.723 42.099)" fill="#a5e887"/>
    <g id="Grupo_1099912" data-name="Grupo 1099912" transform="translate(48.481 83.75)">
      <path id="Trazado_889398" data-name="Trazado 889398" d="M23,61.3V50h4.216V61.8Z" transform="translate(-23 -33.896)" fill="#ff9500"/>
      <path id="Trazado_889399" data-name="Trazado 889399" d="M33.216,43.68V54.894H29V44.186Z" transform="translate(-16.353 -40.898)" fill="#ff9500"/>
      <path id="Trazado_889400" data-name="Trazado 889400" d="M40.216,51V63.985L36,63.479V51Z" transform="translate(-8.598 -32.788)" fill="#ff9500"/>
      <path id="Trazado_889401" data-name="Trazado 889401" d="M44.216,42.36V54.248H40V42.866Z" transform="translate(-4.166 -42.36)" fill="#ff9500"/>
      <path id="Trazado_889402" data-name="Trazado 889402" d="M44,62.284V54h4.216v8.305Z" transform="translate(0.265 -29.464)" fill="#ff9500"/>
      <path id="Trazado_889403" data-name="Trazado 889403" d="M29,51h4.216v4.216H29Z" transform="translate(-16.353 -32.788)" fill="#ff9500"/>
      <path id="Trazado_889404" data-name="Trazado 889404" d="M44,50h4.216v4.216H44Z" transform="translate(0.265 -33.896)" fill="#ff9500"/>
    </g>
    <path id="Trazado_889405" data-name="Trazado 889405" d="M13.891,41.538a36.561,36.561,0,0,0-.6-5.915,14.18,14.18,0,0,0-3-7.35l2.981-2.981a17.622,17.622,0,0,1,4.171,9.582,40.021,40.021,0,0,1,.662,6.663Z" transform="translate(11.403 22.482)" fill="#98ba5c"/>
    <path id="Trazado_889406" data-name="Trazado 889406" d="M95.1,51.662A16.9,16.9,0,0,1,80.344,68.4a17.42,17.42,0,0,1-2.108.126,13.979,13.979,0,0,1-2.108-.148,13.009,13.009,0,0,1-1.771-.316L63.481,66.754l-4.216-.506L36.079,63.466,25.54,62.2A10.428,10.428,0,0,1,15.527,48.5,10.554,10.554,0,0,0,25.54,55.878l10.539,1.265,23.187,2.782,4.216.506,10.877,1.307a13,13,0,0,0,1.771.316,13.979,13.979,0,0,0,2.108.148,17.415,17.415,0,0,0,2.108-.126,16.76,16.76,0,0,0,10.961-6.092,17,17,0,0,0,3.478-7.42A16.79,16.79,0,0,1,95.1,51.662Z" transform="translate(16.618 48.193)" fill="#ffa426"/>
    <path id="Trazado_889407" data-name="Trazado 889407" d="M27.216,52.866V59.19L23,58.684V52.36Z" transform="translate(25.481 52.469)" fill="#fe8205"/>
    <path id="Trazado_889408" data-name="Trazado 889408" d="M33.216,43.68V54.894H29V44.186Z" transform="translate(32.128 42.853)" fill="#ff9500"/>
    <path id="Trazado_889409" data-name="Trazado 889409" d="M40.216,54.426V60.75L36,60.244V53.92Z" transform="translate(39.884 54.197)" fill="#fe8205"/>
    <path id="Trazado_889410" data-name="Trazado 889410" d="M44.216,42.36V54.248H40V42.866Z" transform="translate(44.315 41.39)" fill="#ff9500"/>
    <path id="Trazado_889411" data-name="Trazado 889411" d="M48.216,54.951v6.324L44,61.254V54.93a13.977,13.977,0,0,0,2.108.148,17.411,17.411,0,0,0,2.108-.126Z" transform="translate(48.747 55.316)" fill="#fe8205"/>
    <path id="Trazado_889412" data-name="Trazado 889412" d="M29,51h4.216v4.216H29Z" transform="translate(32.128 50.962)" fill="#ff9500"/>
    <path id="Trazado_889413" data-name="Trazado 889413" d="M44,50h4.216v4.216H44Z" transform="translate(48.747 49.854)" fill="#ff9500"/>
    <path id="Trazado_889414" data-name="Trazado 889414" d="M65.206,49.8a45.765,45.765,0,0,0-7.715,1.918,25.7,25.7,0,0,0-4.722,2.129l-5.122.611-9.823,1.18L35,52.812l6.05-6.05c4.532-4.532,6.029-15.092,6.029-15.092a12.839,12.839,0,0,0,4.448,2.888,10.55,10.55,0,0,0,3.12,7.673,10.407,10.407,0,0,0,5.017,2.8v.021a10.27,10.27,0,0,0,2.656.3A12.839,12.839,0,0,0,65.206,49.8Z" transform="translate(38.776 29.547)" fill="#98ba5c"/>
    <path id="Trazado_889415" data-name="Trazado 889415" d="M62.318,38.437a10.27,10.27,0,0,1-2.656-.3v-.021c-.242-.055-.478-.145-.717-.211a45.531,45.531,0,0,0-6.092,1.631,25.694,25.694,0,0,0-4.722,2.129l-5.122.611-4.983.6C35.824,45.073,35,45.9,35,45.9l2.825,2.825,9.823-1.18,5.122-.611A25.7,25.7,0,0,1,57.491,44.8a45.763,45.763,0,0,1,7.715-1.918,12.839,12.839,0,0,1-2.888-4.448Z" transform="translate(38.776 36.46)" fill="#7a9e51"/>
    <path id="Trazado_889416" data-name="Trazado 889416" d="M86.529,36.23a10.725,10.725,0,0,1,0,15.113,10.423,10.423,0,0,1-3.984,2.466,12.812,12.812,0,0,1-24.6,6.682,10.269,10.269,0,0,1-2.656-.3v-.021a10.407,10.407,0,0,1-5.017-2.8,10.55,10.55,0,0,1-3.12-7.673,12.805,12.805,0,0,1-4.448-21.015c.105-.105.211-.211.337-.316A12.761,12.761,0,0,1,53.836,25.1,10.423,10.423,0,0,1,56.3,21.117a10.725,10.725,0,0,1,15.113,0c.211.211.358.464.548.675A10.683,10.683,0,0,1,85.854,35.682c.211.19.464.337.675.548Z" transform="translate(43.147 14.405)" fill="#a5e887"/>
    <path id="Trazado_889417" data-name="Trazado 889417" d="M76.039,36.216c-.211-.211-.464-.358-.675-.548A10.683,10.683,0,0,0,61.473,21.777c-.19-.211-.337-.464-.548-.675a10.693,10.693,0,0,0-12.51-1.849,10.592,10.592,0,0,1,2.6,1.849c.211.211.358.464.548.675A10.683,10.683,0,0,1,65.457,35.668c.211.19.464.337.675.548a10.725,10.725,0,0,1,0,15.113A10.423,10.423,0,0,1,62.148,53.8,12.765,12.765,0,0,1,54.46,67.667,12.8,12.8,0,0,0,72.055,53.8a10.423,10.423,0,0,0,3.984-2.466,10.725,10.725,0,0,0,0-15.113Z" transform="translate(53.638 14.42)" fill="#86c983"/>
    <path id="Trazado_889418" data-name="Trazado 889418" d="M29,51h4.216v4.216H29Z" transform="translate(32.128 50.962)"/>
    <path id="Trazado_889419" data-name="Trazado 889419" d="M44,50h4.216v4.216H44Z" transform="translate(48.747 49.854)"/>
    <path id="Trazado_889420" data-name="Trazado 889420" d="M132.8,93.531H126.97l.445-.211a2.108,2.108,0,0,0,1.054-2.553l-2.108-6.324a2.108,2.108,0,0,0-2.508-1.379l-15.194,3.794a17.015,17.015,0,0,0-1.265-1.229,19,19,0,0,0-6.113-3.6c.83-.192,1.53-.333,2.047-.422a14.943,14.943,0,0,0,20.269-.757,14.755,14.755,0,0,0,4.351-11.3,12.326,12.326,0,0,0,3.221-2.319,12.845,12.845,0,0,0,.268-17.805,12.788,12.788,0,0,0-15.67-15.67,12.843,12.843,0,0,0-17.809.272,12.306,12.306,0,0,0-2.319,3.217,14.831,14.831,0,0,0-9.589,2.89,33.4,33.4,0,0,0-18.216-5.613,21.991,21.991,0,0,0-1.967-3.891l2.064-2.061a10.413,10.413,0,0,0,13.121-1.341,32.316,32.316,0,0,0,5.854-9.53c2.108-5.185,2.137-9.034.044-11.14S81,4.492,75.818,6.611a32.3,32.3,0,0,0-9.525,5.849,10.415,10.415,0,0,0-1.345,13.128l-1.741,1.741a19.983,19.983,0,0,0-14.726-5.466v4.216c7.219,0,12.213,2.924,14.892,8.682A33.528,33.528,0,0,0,35.7,56.919a38.055,38.055,0,0,0-7.241-1.265,16.2,16.2,0,0,0-3.794-7.873l-2.981,2.981a11.562,11.562,0,0,1,2.5,5.1,75.023,75.023,0,0,0-14.443,4.1,2.1,2.1,0,0,0-.578,3.552,21.207,21.207,0,0,0-2.993,2.477A20.853,20.853,0,0,0,0,80.884a21.1,21.1,0,0,0,21.079,21.079H29.7A12.658,12.658,0,0,0,42.025,112.5l48.584,5.832a18.811,18.811,0,0,0,18.024-5.48l15.221,3.807a2.131,2.131,0,0,0,2.506-1.385l2.108-6.324a2.108,2.108,0,0,0-1.054-2.553l-.445-.211H132.8a2.108,2.108,0,0,0,2.108-2.108V95.639a2.108,2.108,0,0,0-2.108-2.108ZM77.359,82.964l-.6-.6L81.313,77.8c3.295-3.295,5.1-9.161,5.963-12.885.325.2.632.422.974.588a12.736,12.736,0,0,0,3.676,7.765,12.518,12.518,0,0,0,6.012,3.36v.021a12.758,12.758,0,0,0,1.764.3c.169.341.39.645.584.97a46.051,46.051,0,0,0-4.7,1.347,28.3,28.3,0,0,0-4.637,2.07ZM87.629,44.31a10.632,10.632,0,0,1,9.017-2.723A2.087,2.087,0,0,0,98.965,40.2a8.337,8.337,0,0,1,1.962-3.183,8.625,8.625,0,0,1,12.251.148c.118.156.238.31.367.453a2.108,2.108,0,0,0,2.342.535A8.575,8.575,0,0,1,127.037,49.3a2.108,2.108,0,0,0,.535,2.342c.143.129.3.249.6.476a8.621,8.621,0,0,1,0,12.137,8.317,8.317,0,0,1-3.185,1.967,2.108,2.108,0,0,0-1.387,2.319,10.7,10.7,0,0,1-20.543,5.594,2.108,2.108,0,0,0-1.965-1.343h-.048a7.437,7.437,0,0,1-2.108-.236l-.027-.027a8.3,8.3,0,0,1-4-2.247,8.389,8.389,0,0,1-2.494-6.142,2.108,2.108,0,0,0-1.343-2,10.7,10.7,0,0,1-3.708-17.573,2.72,2.72,0,0,1,.27-.263ZM67.452,19.85a6.168,6.168,0,0,1,1.836-4.405,28.456,28.456,0,0,1,8.136-4.928,14.656,14.656,0,0,1,5.2-1.3,2.03,2.03,0,0,1,1.349.325c.487.493.632,2.647-.965,6.568a28.456,28.456,0,0,1-4.928,8.136,6.349,6.349,0,0,1-7.017,1.2L81.6,14.911l-2.987-2.97L68.059,22.5a6.147,6.147,0,0,1-.607-2.645ZM64.794,38.865a21.457,21.457,0,0,1,.55,4.077V45.05H69.56V42.942a23.859,23.859,0,0,0-.474-4.153,29.179,29.179,0,0,1,13.937,4.378,14.966,14.966,0,0,0,.586,18.7c-.586,3.282-2.281,9.955-5.27,12.951l-6.05,6.05a2.081,2.081,0,0,0-.171,2.723l-17.9,2.139A20.855,20.855,0,0,0,45.6,63.521a2.091,2.091,0,0,0-.55-3.573c-.11-.042-2.3-.913-5.293-1.87A29.329,29.329,0,0,1,64.79,38.865ZM25,60.016a36.383,36.383,0,0,1,.3,4H29.51a38.868,38.868,0,0,0-.276-4.1,44.477,44.477,0,0,1,7.253,1.566c.843.247,1.661.5,2.414.746l-3.99,2a2.108,2.108,0,0,0-.877,2.989c.015.023.093.156.11.179l.738,1.1-6.813-2.27a2.089,2.089,0,0,0-1.332,0L19.917,68.51l.807-1.212a2.108,2.108,0,0,0-.812-3.056l-4-2A54.818,54.818,0,0,1,25,60.016Zm4.7,37.731H21.079A16.882,16.882,0,0,1,4.216,80.884,16.667,16.667,0,0,1,9.163,68.97a16.882,16.882,0,0,1,4.427-3.162l2.291,1.147L13,71.282a2.108,2.108,0,0,0,2.42,3.162L27.4,70.458,39.384,74.45a2.108,2.108,0,0,0,2.42-3.162l-2.892-4.34,2.266-1.134a16.726,16.726,0,0,1,8.507,20.467l-7.66.925A12.66,12.66,0,0,0,29.7,97.747Zm67.262,16.692v-6.153H92.747v6.128c-.422-.063-.854-.107-1.284-.211a2.313,2.313,0,0,0-.236-.044L80.1,112.824V101.962H75.884v10.356L52.7,109.536V99.854H48.481v9.176l-6.073-.729a1.983,1.983,0,0,0-.251-.015,8.431,8.431,0,1,1,0-16.863,2.04,2.04,0,0,0,.253-.015l9.064-1.094,9.654-1.157v8.59h4.216v-9.1l18.971-2.274v9.262h4.216V85.873l6.448-.774a14.8,14.8,0,0,1,9.635,3.691,14.024,14.024,0,0,1,1.686,1.773,13.623,13.623,0,0,1,1.463,2.186,14.726,14.726,0,0,1-10.8,21.69Zm33.726-12.477H118.041a2.108,2.108,0,0,0-.942,4l6.8,3.4-.913,2.74-11.616-2.9a18.908,18.908,0,0,0,.093-18.486c-.036-.063-.072-.114-.107-.177l11.631-2.909.913,2.74-6.8,3.4a2.108,2.108,0,0,0,.942,3.98h12.647Z" transform="translate(0)"/>
    <path id="Trazado_889421" data-name="Trazado 889421" d="M21,28h4.216v4.216H21Z" transform="translate(23.265 25.481)"/>
    <path id="Trazado_889422" data-name="Trazado 889422" d="M25,28h4.216v4.216H25Z" transform="translate(27.697 25.481)"/>
    <path id="Trazado_889423" data-name="Trazado 889423" d="M25,32h4.216v4.216H25Z" transform="translate(27.697 29.913)"/>
  </g>
</svg>
