<svg xmlns="http://www.w3.org/2000/svg" width="85" height="85" viewBox="0 0 85 85">
  <g id="Grupo_1108055" data-name="Grupo 1108055" transform="translate(-600.051 -1396)">
    <circle id="Elipse_11496" data-name="Elipse 11496" cx="42.5" cy="42.5" r="42.5" transform="translate(600.051 1396)" fill="#fcad53"/>
    <g id="ajo" transform="translate(613.047 1398.189)">
      <g id="Grupo_1108045" data-name="Grupo 1108045" transform="translate(25.788 14.146)">
        <path id="Trazado_897547" data-name="Trazado 897547" d="M237.03,61.245c-6.793-10.112-16.514-23.124-11.059-36.053a2.352,2.352,0,0,1,1.773-.761,2.308,2.308,0,0,1,2.365,2.468v1.369c0,10.513,15.245,9.576,17.876,24.227-1.566,1.77-3.315,6.3-5.016,7.329C241.607,60.654,238.382,60.581,237.03,61.245Z" transform="translate(-224.374 -24.432)" fill="#fed1a3" fill-rule="evenodd"/>
      </g>
      <g id="Grupo_1108046" data-name="Grupo 1108046" transform="translate(0.868 14.146)">
        <path id="Trazado_897548" data-name="Trazado 897548" d="M31.742,36.371c-3.457,3.654-10.108,9.282-10.108,18.46,0,8.957-.563,14.315,4.031,16.082h-5.97c-8.964-1.148-13-9.372-12.03-17.192C9.645,37.785,25.73,39.064,25.73,28.268V26.9a2.3,2.3,0,0,1,2.361-2.468,2.352,2.352,0,0,1,1.773.761c-.173.346.56.767.56,1.258,0,4.4,3.675,7.429,1.317,9.922Z" transform="translate(-7.523 -24.431)" fill="#fed1a3" fill-rule="evenodd"/>
      </g>
      <g id="Grupo_1108047" data-name="Grupo 1108047" transform="translate(20.365 34.075)">
        <path id="Trazado_897549" data-name="Trazado 897549" d="M212.9,198.129c.086,20.147-7.954,32.333-30.528,30.394a12.128,12.128,0,0,1-4.024-4.121c-.014-.021-.024-.045-.038-.066a8.9,8.9,0,0,1-1.134-4.356c0-1.3-.021-1.414,1.407-1.673.211-.038.436-.076.667-.121,1.652-.3,3.848-.709,6.385-1.359a59.858,59.858,0,0,0,11.487-4.183c1.348-.664,2.71-1.4,4.072-2.23a23.465,23.465,0,0,0,5.016-4.432,32.658,32.658,0,0,0,4.954-7.211C211.665,197.659,212.3,197.7,212.9,198.129Z" transform="translate(-177.179 -197.848)" fill="#ffe5c1" fill-rule="evenodd"/>
      </g>
      <g id="Grupo_1108048" data-name="Grupo 1108048" transform="translate(9.904 13.672)">
        <path id="Trazado_897550" data-name="Trazado 897550" d="M116.559,55.51a59.866,59.866,0,0,1-11.487,4.183c-2.537.65-4.733,1.061-6.385,1.359l-.667.121c-1.428.259-1.407.373-1.407,1.673A8.9,8.9,0,0,0,97.747,67.2c.014.021.024.045.038.066H95.258c-4.594-1.767-9.106-7.125-9.106-16.082,0-9.178,6.655-14.806,10.108-18.46a11.7,11.7,0,0,0,2.925-8.269V22.8a2.75,2.75,0,0,1,.273-1.258,2.383,2.383,0,0,1,4.176,0,2.749,2.749,0,0,1,.277,1.258v1.652a11.7,11.7,0,0,0,2.921,8.269c3.457,3.654,10.108,9.282,10.108,18.46a23.874,23.874,0,0,1-.38,4.325Z" transform="translate(-86.152 -20.311)" fill="#fed1a3" fill-rule="evenodd"/>
      </g>
      <g id="Grupo_1108049" data-name="Grupo 1108049" transform="translate(24.952 13.672)">
        <path id="Trazado_897551" data-name="Trazado 897551" d="M222.193,37.063c3.516,3.972,7.865,8.093,7.664,18.492-.007.391-.007.778-.024,1.155.864-.366,1.742-.767,2.624-1.2a23.884,23.884,0,0,0,.38-4.325c0-9.178-6.651-14.806-10.108-18.46a11.7,11.7,0,0,1-2.921-8.269V22.8a2.748,2.748,0,0,0-.277-1.258,2.288,2.288,0,0,0-2.088-1.234,2.316,2.316,0,0,0-.346.024,2.761,2.761,0,0,1,.242,1.182V23.17C217.34,29.894,217.5,31.753,222.193,37.063Z" transform="translate(-217.098 -20.311)" fill="#ffbc85" fill-rule="evenodd"/>
      </g>
      <g id="Grupo_1108050" data-name="Grupo 1108050" transform="translate(7.138 14.146)">
        <path id="Trazado_897552" data-name="Trazado 897552" d="M73.957,70.914c-4.594-1.767-9.105-7.125-9.105-16.082,0-9.178,6.655-14.806,10.108-18.46A11.7,11.7,0,0,0,77.884,28.1V26.451a2.75,2.75,0,0,1,.273-1.258,2.352,2.352,0,0,0-1.773-.761c-.47.7-.242,1.417-.242,2.489V28.57c0,2.372-1.466,5.009-3.944,7.63-3.457,3.654-10.111,10.177-10.111,19.356,0,7.961,3.564,13.078,7.584,15.359h4.287Z" transform="translate(-62.086 -24.432)" fill="#ffbc85" fill-rule="evenodd"/>
      </g>
      <g id="Grupo_1108051" data-name="Grupo 1108051" transform="translate(25.56 34.356)">
        <path id="Trazado_897553" data-name="Trazado 897553" d="M222.392,230.688c21.457.764,29.415-11.508,30.528-30.394,1.175.6,1.746,4.349,1.874,8.7.484,16.639-9.209,23.732-18.875,24.673a23.282,23.282,0,0,1-4.525,0,21.646,21.646,0,0,1-6.164-1.5A17.473,17.473,0,0,1,222.392,230.688Z" transform="translate(-222.392 -200.294)" fill="#fed1a3" fill-rule="evenodd"/>
      </g>
      <path id="Trazado_897554" data-name="Trazado 897554" d="M58.823,43.035c-.238-8.093-1.72-9.119-2.287-9.418a1.875,1.875,0,0,0-1.586-.349,2.224,2.224,0,0,0-1.383,1.377,29.056,29.056,0,0,1-3.7,5.687c-1.81-6.833-6.411-10.054-10.507-12.921-3.9-2.726-6.972-4.88-6.972-9.428V16.616a3.308,3.308,0,0,0-.935-2.415,3.232,3.232,0,0,0-2.268-.916h-.037a3.3,3.3,0,0,0-1.6.409,3.3,3.3,0,0,0-4.494,0,3.275,3.275,0,0,0-1.591-.409h-.037a3.234,3.234,0,0,0-2.278.918,3.3,3.3,0,0,0-.93,2.412v1.369c0,3.5-1.859,5.635-4.651,7.756a.862.862,0,1,0,1.043,1.372c2.769-2.1,5.332-4.666,5.332-9.128V16.611a1.6,1.6,0,0,1,.424-1.189,1.508,1.508,0,0,1,1.07-.414h.019a1.576,1.576,0,0,1,.742.181,3.869,3.869,0,0,0-.117.976v1.653a10.614,10.614,0,0,1-2.689,7.677c-.376.4-.794.823-1.237,1.273-3.626,3.688-9.107,9.262-9.107,17.779a20.829,20.829,0,0,0,2.964,11.2,15.09,15.09,0,0,0,3.7,4.021H13.1C4.539,58.641.968,50.761,1.865,43.543,2.788,36.111,6.885,32.622,11,29.685a.862.862,0,1,0-1-1.4C5.767,31.3,1.164,35.206.155,43.331A17.748,17.748,0,0,0,2.571,55a13.943,13.943,0,0,0,10.36,6.488c.036,0,8.133.007,8.133.007a14.734,14.734,0,0,0,7.006,5.535A23.162,23.162,0,0,0,36.833,68.7a24.108,24.108,0,0,0,2.743-.156A21.437,21.437,0,0,0,51.009,63.76a.862.862,0,0,0-1.11-1.319c-6.3,5.3-14.846,5.418-20.72,3.17a34.868,34.868,0,0,0,10.335-1.82,23.082,23.082,0,0,0,9.58-6.293c4.132-4.58,6.618-11.013,7.561-19.593a38.043,38.043,0,0,1,.446,5.18c.194,6.654-1.247,12.116-4.281,16.234a.862.862,0,1,0,1.388,1.023c3.268-4.435,4.822-10.258,4.617-17.307ZM29.155,15.008h.009a1.487,1.487,0,0,1,1.07.414,1.61,1.61,0,0,1,.427,1.193v1.369c0,5.445,3.744,8.066,7.707,10.84,4.076,2.853,8.685,6.08,10.1,13.132-.039.043-.077.087-.115.13a21.712,21.712,0,0,1-4.422,3.82q-1.265.77-2.532,1.439a25.823,25.823,0,0,0,.15-2.8c0-8.523-5.484-14.1-9.113-17.786-.441-.448-.857-.871-1.231-1.267a10.614,10.614,0,0,1-2.685-7.676V16.167a3.894,3.894,0,0,0-.118-.976s0,0,0,0a1.6,1.6,0,0,1,.749-.179ZM20.071,59.464c.028.1.06.2.1.3h-1c-4.092-1.647-8.407-6.485-8.407-15.22,0-7.811,4.978-12.874,8.612-16.57.449-.457.873-.888,1.26-1.3A12.411,12.411,0,0,0,23.8,17.817V16.161a1.634,1.634,0,0,1,.43-1.21,1.505,1.505,0,0,1,1.067-.417h.01a1.5,1.5,0,0,1,1.062.417,1.641,1.641,0,0,1,.433,1.214v1.653a12.411,12.411,0,0,0,3.157,8.861c.386.408.807.836,1.254,1.29,3.637,3.7,8.618,8.761,8.618,16.578a23.407,23.407,0,0,1-.292,3.738,67.187,67.187,0,0,1-17.648,5.352,3.6,3.6,0,0,0-2.018.791c-.427.4-.369.987-.368,1.725v.055a9.62,9.62,0,0,0,.569,3.257Zm27.742-3.12c-4.861,5.39-12.053,7.859-21.975,7.551-2.933-1.984-4.612-4.719-4.612-7.688,0-.224-.007-.451.013-.674.186-.06.956-.2.956-.2,4.412-.8,13.592-2.453,22.635-7.955,4.343-2.643,8.852-8.788,10.309-12.028l.022-.047C54.475,44.738,52.067,51.628,47.813,56.344Z" transform="translate(0 0)"/>
    </g>
  </g>
</svg>
