<svg xmlns="http://www.w3.org/2000/svg" width="76" height="76" viewBox="0 0 76 76">
  <g id="Grupo_1108063" data-name="Grupo 1108063" transform="translate(-224.051 -1892)">
    <circle id="Elipse_11499" data-name="Elipse 11499" cx="38" cy="38" r="38" transform="translate(224.051 1892)" fill="#c6e697"/>
    <g id="bol-de-arroz" transform="translate(231.29 1900.25)">
      <path id="Trazado_897591" data-name="Trazado 897591" d="M84.3,27.565a5.579,5.579,0,0,0-3.222-5.057h0c.006-.075.01-.15.01-.227A2.789,2.789,0,0,0,78.3,19.494a2.823,2.823,0,0,0-.415.031,3.719,3.719,0,0,0-4.247-4.377,3.718,3.718,0,0,0-6.615-1.637,5.569,5.569,0,0,0-5.271-1.858,3.718,3.718,0,0,0-6.868-1.9A5.58,5.58,0,0,0,48.356,13.7a3.724,3.724,0,0,0-4.473,2.492A2.789,2.789,0,0,0,39.5,17.357a3.719,3.719,0,0,0-4.637,5.332,5.582,5.582,0,0,0-2.121,7.666v.551H83.558l-.006-.551A5.553,5.553,0,0,0,84.3,27.565Z" transform="translate(-27.388 -7.075)" fill="#dce1eb"/>
      <path id="Trazado_897592" data-name="Trazado 897592" d="M9.011,200.313v5.578s1.58,18.931,16.386,26v2.987a.725.725,0,0,0,.725.725H49.541a.725.725,0,0,0,.725-.725v-2.987c14.806-7.071,16.386-26,16.386-26v-5.578Z" transform="translate(-7.07 -177.034)" fill="#dcaa46"/>
      <path id="Trazado_897593" data-name="Trazado 897593" d="M9.011,200.316H66.653v5.578H9.011Z" transform="translate(-7.07 -177.037)" fill="#b4821e"/>
      <path id="Trazado_897594" data-name="Trazado 897594" d="M149.9,472v2.987a.725.725,0,0,0,.725.725h23.419a.725.725,0,0,0,.725-.725V472l.015-.007h-24.9Z" transform="translate(-131.572 -417.145)" fill="#b4821e"/>
      <path id="Trazado_897595" data-name="Trazado 897595" d="M170.512,486.509v.393h21.762a.725.725,0,0,0,.725-.725v-1.523s-15.261,0-20.639.006a1.849,1.849,0,0,0-1.848,1.85Z" transform="translate(-149.803 -428.331)" fill="#c89632"/>
      <path id="Trazado_897596" data-name="Trazado 897596" d="M67.106,206.529c1.626,12.665,10.632,22.134,25.21,22.134h14.29c10.126-8.373,11.328-22.768,11.328-22.769v-5.578h-50.9v5.578s.019.225.071.635Z" transform="translate(-58.351 -177.037)" fill="#f0be5a"/>
      <path id="Trazado_897597" data-name="Trazado 897597" d="M67.035,200.316h50.9v5.578h-50.9Z" transform="translate(-58.351 -177.037)" fill="#c89632"/>
      <g id="Grupo_1108062" data-name="Grupo 1108062" transform="translate(1.011 0)">
        <path id="Trazado_897598" data-name="Trazado 897598" d="M59.582,22.349H57.569a6.51,6.51,0,0,0-2.957-7.481,3.726,3.726,0,0,0-3.125-3.335A4.655,4.655,0,0,0,46.946,7.1a4.651,4.651,0,0,0-7.325-1.982A6.488,6.488,0,0,0,35.16,3.556,4.677,4.677,0,0,0,30.644,0a4.62,4.62,0,0,0-3.566,1.667,6.507,6.507,0,0,0-6.729,3.921q-.152-.01-.3-.01a4.627,4.627,0,0,0-3.972,2.227A3.715,3.715,0,0,0,11.66,9.167,4.65,4.65,0,0,0,6.3,15.275a6.51,6.51,0,0,0-2.343,7.074H1.941a.93.93,0,0,0-.93.93v5.578c0,.026,0,.052,0,.078A40.636,40.636,0,0,0,3.724,39.566,34.422,34.422,0,0,0,8.8,48.4a26.244,26.244,0,0,0,8.6,7.035v1.913a2.153,2.153,0,0,0,2.15,2.15H41.976a2.153,2.153,0,0,0,2.15-2.15V55.438a26.245,26.245,0,0,0,8.6-7.035A34.428,34.428,0,0,0,57.8,39.566a40.627,40.627,0,0,0,2.709-10.631c0-.026,0-.052,0-.078V23.279a.93.93,0,0,0-.929-.93Zm-54.2,1.859h5.785a.93.93,0,0,0,0-1.859H5.931a4.647,4.647,0,0,1,2-5.923.93.93,0,0,0,.346-1.289,2.79,2.79,0,0,1,3.478-4,.93.93,0,0,0,1.23-.527,1.87,1.87,0,0,1,1.739-1.2,1.837,1.837,0,0,1,1.18.422.93.93,0,0,0,1.478-.441,2.794,2.794,0,0,1,3.356-1.869.93.93,0,0,0,1.125-.65A4.651,4.651,0,0,1,27.3,3.585a.929.929,0,0,0,.979-.415A2.788,2.788,0,0,1,33.431,4.6a.93.93,0,0,0,1.1.9A4.649,4.649,0,0,1,38.926,7.04.93.93,0,0,0,40.369,7,2.788,2.788,0,0,1,45.33,8.228.929.929,0,0,0,46.4,8.99a2.833,2.833,0,0,1,.448-.036,2.788,2.788,0,0,1,2.738,3.32.93.93,0,0,0,1.05,1.095,1.915,1.915,0,0,1,.278-.021,1.862,1.862,0,0,1,1.859,1.859c0,.044,0,.093-.007.154a.93.93,0,0,0,.565.929,4.647,4.647,0,0,1,2.266,6.06h-40.7a.93.93,0,0,0,0,1.859H58.653v3.719H2.87V24.209Zm50.676,14.7a32.525,32.525,0,0,1-4.8,8.345,24.344,24.344,0,0,1-8.267,6.67H40.1a.93.93,0,0,0,0,1.859h2.162v1.569a.291.291,0,0,1-.291.291H19.547a.291.291,0,0,1-.291-.291V55.782h17.13a.93.93,0,1,0,0-1.859H18.529a24.34,24.34,0,0,1-8.267-6.67,32.546,32.546,0,0,1-4.8-8.345,41.086,41.086,0,0,1-2.471-9.121H58.531a41.081,41.081,0,0,1-2.471,9.121Z" transform="translate(-1.011 0)"/>
        <path id="Trazado_897599" data-name="Trazado 897599" d="M407.87,319.346a.93.93,0,0,0-1.212.511,28.074,28.074,0,0,1-4.739,7.918.93.93,0,1,0,1.4,1.223,29.941,29.941,0,0,0,5.061-8.44A.93.93,0,0,0,407.87,319.346Z" transform="translate(-355.126 -282.173)"/>
        <path id="Trazado_897600" data-name="Trazado 897600" d="M455.75,284.636a.93.93,0,0,0-1.146.645q-.068.244-.142.5a.93.93,0,1,0,1.783.527q.078-.264.15-.521A.93.93,0,0,0,455.75,284.636Z" transform="translate(-401.731 -251.527)"/>
        <path id="Trazado_897601" data-name="Trazado 897601" d="M119.1,117.755a.929.929,0,0,0,1.21-.516,2.792,2.792,0,0,1,3.629-1.546.93.93,0,1,0,.694-1.725,4.654,4.654,0,0,0-6.048,2.577A.93.93,0,0,0,119.1,117.755Z" transform="translate(-104.864 -100.427)"/>
        <path id="Trazado_897602" data-name="Trazado 897602" d="M240.4,77.005a2.79,2.79,0,0,1,4.054,2,.93.93,0,0,0,.916.774.945.945,0,0,0,.157-.013.93.93,0,0,0,.761-1.072,4.649,4.649,0,0,0-6.756-3.336.93.93,0,1,0,.869,1.644Z" transform="translate(-211.373 -66.128)"/>
        <path id="Trazado_897603" data-name="Trazado 897603" d="M214.418,144.008a.93.93,0,0,0,1.309-.126,2.8,2.8,0,0,1,2.118-1.014.93.93,0,1,0-.01-1.859h-.01a4.657,4.657,0,0,0-3.533,1.69A.93.93,0,0,0,214.418,144.008Z" transform="translate(-189.318 -124.622)"/>
        <path id="Trazado_897604" data-name="Trazado 897604" d="M345.088,129.157a2.793,2.793,0,0,1,3.656,1.485.93.93,0,1,0,1.713-.724,4.653,4.653,0,0,0-6.092-2.473.93.93,0,1,0,.724,1.713Z" transform="translate(-303.96 -112.31)"/>
      </g>
    </g>
  </g>
</svg>
