<svg xmlns="http://www.w3.org/2000/svg" width="70" height="70" viewBox="0 0 70 70">
  <g id="Grupo_1108040" data-name="Grupo 1108040" transform="translate(-186.051 -375)">
    <circle id="Elipse_11493" data-name="Elipse 11493" cx="35" cy="35" r="35" transform="translate(186.051 375)" fill="#c6e697"/>
    <g id="pizza" transform="translate(197.051 358.886)">
      <g id="Grupo_1107999" data-name="Grupo 1107999" transform="translate(0.684 30.798)">
        <path id="Trazado_897487" data-name="Trazado 897487" d="M26.543,54.94,18,37.664a.457.457,0,0,0-.627-.2A20.223,20.223,0,0,0,7.42,49.984c-.019.07-.062.242-.1.414a.456.456,0,0,0,.334.552L26.1,55.5A.394.394,0,0,0,26.543,54.94Z" transform="translate(-7.303 -37.409)" fill="#ffe07d"/>
      </g>
      <g id="Grupo_1108000" data-name="Grupo 1108000" transform="translate(8.457 30.798)">
        <path id="Trazado_897488" data-name="Trazado 897488" d="M101.684,54.94,93.146,37.664a.457.457,0,0,0-.627-.2,20.411,20.411,0,0,0-2.3,1.446l7.806,15.795,3.213.792A.394.394,0,0,0,101.684,54.94Z" transform="translate(-90.217 -37.409)" fill="#ffd064"/>
      </g>
      <g id="Grupo_1108001" data-name="Grupo 1108001" transform="translate(6.78 31.23)">
        <path id="Trazado_897489" data-name="Trazado 897489" d="M92.586,42.014A20.192,20.192,0,0,0,79.7,46.638a.457.457,0,0,0-.059.648L92.069,62.025a.394.394,0,0,1-.3.648H72.786a.458.458,0,0,0-.457.477A20.276,20.276,0,1,0,92.586,42.014Z" transform="translate(-72.329 -42.014)" fill="#ffe07d"/>
      </g>
      <g id="Grupo_1108002" data-name="Grupo 1108002" transform="translate(11.789 36.257)">
        <path id="Trazado_897490" data-name="Trazado 897490" d="M154.368,95.642a20.276,20.276,0,0,1-28.612,28.612,20.276,20.276,0,1,0,28.612-28.612Z" transform="translate(-125.756 -95.642)" fill="#ffd064"/>
      </g>
      <g id="Grupo_1108004" data-name="Grupo 1108004" transform="translate(10.095 34.533)">
        <g id="Grupo_1108003" data-name="Grupo 1108003" transform="translate(0 0)">
          <path id="Trazado_897491" data-name="Trazado 897491" d="M141.6,94.227c0-1.467-1.342-2.739-1.7-4.092-.374-1.4.141-3.17-.568-4.4-.72-1.244-2.517-1.678-3.526-2.687s-1.443-2.807-2.687-3.526c-1.226-.709-3-.194-4.4-.568-1.353-.362-2.625-1.7-4.092-1.7s-2.739,1.342-4.092,1.7c-1.4.374-3.17-.141-4.4.568a7.09,7.09,0,0,0-2,2.619l9.967,11.817a.394.394,0,0,1-.3.648H107.688c.2,1.309,1.344,2.475,1.674,3.709.374,1.4-.141,3.17.568,4.4.72,1.244,2.517,1.678,3.526,2.687s1.443,2.807,2.687,3.526c1.226.709,3,.194,4.4.568,1.353.362,2.625,1.7,4.092,1.7s2.739-1.342,4.092-1.7c1.4-.374,3.17.141,4.4-.568,1.244-.72,1.678-2.517,2.687-3.526s2.807-1.443,3.526-2.687c.709-1.226.194-3,.568-4.4.362-1.353,1.7-2.625,1.7-4.092Z" transform="translate(-107.688 -77.254)" fill="#fe7e42"/>
        </g>
      </g>
      <g id="Grupo_1108006" data-name="Grupo 1108006" transform="translate(10.095 34.533)">
        <g id="Grupo_1108005" data-name="Grupo 1108005" transform="translate(0 0)">
          <path id="Trazado_897492" data-name="Trazado 897492" d="M141.6,94.227c0-1.467-1.342-2.739-1.7-4.092-.374-1.4.141-3.17-.568-4.4-.72-1.244-2.517-1.678-3.526-2.687s-1.443-2.807-2.687-3.526c-1.226-.709-3-.194-4.4-.568-1.353-.362-2.625-1.7-4.092-1.7s-2.739,1.342-4.092,1.7c-1.4.374-3.17-.141-4.4.568a7.09,7.09,0,0,0-2,2.619l9.967,11.817a.394.394,0,0,1-.3.648H107.688c.2,1.309,1.344,2.475,1.674,3.709.374,1.4-.141,3.17.568,4.4.72,1.244,2.517,1.678,3.526,2.687s1.443,2.807,2.687,3.526c1.226.709,3,.194,4.4.568,1.353.362,2.625,1.7,4.092,1.7s2.739-1.342,4.092-1.7c1.4-.374,3.17.141,4.4-.568,1.244-.72,1.678-2.517,2.687-3.526s2.807-1.443,3.526-2.687c.709-1.226.194-3,.568-4.4.362-1.353,1.7-2.625,1.7-4.092Z" transform="translate(-107.688 -77.254)" fill="#e7a561"/>
        </g>
      </g>
      <g id="Grupo_1108007" data-name="Grupo 1108007" transform="translate(3.821 34.47)">
        <path id="Trazado_897493" data-name="Trazado 897493" d="M56.869,90.435,50.02,76.576a5.04,5.04,0,0,1-.888.716c-1.221.738-3.071.73-4.067,1.765s-.9,2.863-1.6,4.133c-.675,1.227-2.282,2.141-2.634,3.565a2.539,2.539,0,0,0-.062.379l15.656,3.859a.394.394,0,0,0,.447-.557Z" transform="translate(-40.766 -76.576)" fill="#e7a561"/>
      </g>
      <g id="Grupo_1108008" data-name="Grupo 1108008" transform="translate(10.24 34.47)">
        <path id="Trazado_897494" data-name="Trazado 897494" d="M118.922,90.435l-6.849-13.859a5.039,5.039,0,0,1-.888.716,8.207,8.207,0,0,1-1.947.721L115.261,90.2l3.213.792A.394.394,0,0,0,118.922,90.435Z" transform="translate(-109.238 -76.576)" fill="#e4936b"/>
      </g>
      <g id="Grupo_1108010" data-name="Grupo 1108010" transform="translate(16.449 40.917)">
        <g id="Grupo_1108009" data-name="Grupo 1108009">
          <path id="Trazado_897495" data-name="Trazado 897495" d="M203.026,155.937c0-1.467-1.342-2.739-1.7-4.092-.374-1.4.141-3.17-.568-4.4-.564-.976-1.793-1.453-2.783-2.1a33.748,33.748,0,0,0,.231,3.377c.362,1.353,1.7,2.625,1.7,4.092s-1.342,2.739-1.7,4.092c-.374,1.4.141,3.17-.568,4.4-.719,1.244-2.517,1.678-3.526,2.687s-1.443,2.807-2.687,3.526c-1.226.709-3,.194-4.4.568-1.353.362-2.625,1.7-4.092,1.7s-2.739-1.342-4.092-1.7a33.785,33.785,0,0,0-3.377-.231c.648.99,1.125,2.218,2.1,2.783,1.226.709,3,.194,4.4.568,1.353.362,2.625,1.7,4.092,1.7s2.739-1.342,4.092-1.7c1.4-.374,3.17.142,4.4-.568,1.244-.72,1.678-2.517,2.687-3.526s2.807-1.443,3.526-2.687c.709-1.226.194-3,.568-4.4C201.684,158.676,203.026,157.4,203.026,155.937Z" transform="translate(-175.464 -145.348)" fill="#e4936b"/>
        </g>
      </g>
      <g id="Grupo_1108011" data-name="Grupo 1108011" transform="translate(33.731 56.69)">
        <ellipse id="Elipse_11502" data-name="Elipse 11502" cx="1.453" cy="2.032" rx="1.453" ry="2.032" transform="translate(0 0)" fill="#4a80aa"/>
      </g>
      <g id="Grupo_1108012" data-name="Grupo 1108012" transform="translate(34.53 56.69)">
        <path id="Trazado_897496" data-name="Trazado 897496" d="M368.986,313.594a1.126,1.126,0,0,0-.654.217,2.46,2.46,0,0,1,0,3.63,1.126,1.126,0,0,0,.654.217c.8,0,1.453-.91,1.453-2.032S369.788,313.594,368.986,313.594Z" transform="translate(-368.332 -313.594)" fill="#407093"/>
      </g>
      <g id="Grupo_1108013" data-name="Grupo 1108013" transform="translate(25.188 53.722)">
        <ellipse id="Elipse_11503" data-name="Elipse 11503" cx="1.453" cy="2.032" rx="1.453" ry="2.032" transform="translate(0 2.054) rotate(-45)" fill="#4a80aa"/>
      </g>
      <g id="Grupo_1108014" data-name="Grupo 1108014" transform="translate(26.39 54.421)">
        <path id="Trazado_897497" data-name="Trazado 897497" d="M283.8,290.13a1.935,1.935,0,0,0-2.3-.544,2.694,2.694,0,0,1,.774.544,1.817,1.817,0,0,1,.41,2.464,1.047,1.047,0,0,1-.169.134,1.485,1.485,0,0,0,1.69-.134A1.817,1.817,0,0,0,283.8,290.13Z" transform="translate(-281.506 -289.392)" fill="#407093"/>
      </g>
      <g id="Grupo_1108015" data-name="Grupo 1108015" transform="translate(12.062 53.783)">
        <ellipse id="Elipse_11504" data-name="Elipse 11504" cx="2.032" cy="1.453" rx="2.032" ry="1.453" transform="translate(0 0)" fill="#4a80aa"/>
      </g>
      <g id="Grupo_1108016" data-name="Grupo 1108016" transform="translate(12.062 54.509)">
        <path id="Trazado_897498" data-name="Trazado 897498" d="M130.7,291.056a2.271,2.271,0,0,1-1.76-.726,1.149,1.149,0,0,0-.273.726c0,.8.91,1.453,2.032,1.453s2.032-.65,2.032-1.453a1.149,1.149,0,0,0-.273-.726A2.271,2.271,0,0,1,130.7,291.056Z" transform="translate(-128.669 -290.33)" fill="#407093"/>
      </g>
      <g id="Grupo_1108017" data-name="Grupo 1108017" transform="translate(32.061 38.293)">
        <ellipse id="Elipse_11505" data-name="Elipse 11505" cx="2.032" cy="1.453" rx="2.032" ry="1.453" transform="translate(0 2.874) rotate(-45)" fill="#4a80aa"/>
      </g>
      <g id="Grupo_1108018" data-name="Grupo 1108018" transform="translate(32.782 39.006)">
        <path id="Trazado_897499" data-name="Trazado 897499" d="M352.868,125.277a1.132,1.132,0,0,0-.638-.311,2.467,2.467,0,0,1-2.547,2.547,1.131,1.131,0,0,0,.311.638,2.148,2.148,0,0,0,2.874-2.874Z" transform="translate(-349.683 -124.966)" fill="#407093"/>
      </g>
      <g id="Grupo_1108019" data-name="Grupo 1108019" transform="translate(25.687 60.464)">
        <path id="Trazado_897500" data-name="Trazado 897500" d="M278.933,358.192c-1.029,1.029-3.442,1.564-4.5,1.756a.366.366,0,0,1-.425-.425c.192-1.055.727-3.468,1.756-4.5,1.053-1.053,3.134-1.17,3.97-1.172a.366.366,0,0,1,.367.367C280.1,355.058,279.986,357.139,278.933,358.192Z" transform="translate(-274.005 -353.854)" fill="#b3e59f"/>
      </g>
      <g id="Grupo_1108020" data-name="Grupo 1108020" transform="translate(25.687 60.464)">
        <path id="Trazado_897501" data-name="Trazado 897501" d="M279.737,353.854a10.17,10.17,0,0,0-1.138.068,5.069,5.069,0,0,1-1.121,2.991,7.58,7.58,0,0,1-3.225,1.479c-.109.442-.188.839-.241,1.131a.366.366,0,0,0,.425.425c1.055-.192,3.468-.727,4.5-1.756,1.053-1.053,1.17-3.134,1.172-3.97A.366.366,0,0,0,279.737,353.854Z" transform="translate(-274.005 -353.854)" fill="#95d6a4"/>
      </g>
      <g id="Grupo_1108021" data-name="Grupo 1108021" transform="translate(36.146 44.27)">
        <path id="Trazado_897502" data-name="Trazado 897502" d="M389.316,181.116c1.456,0,3.54,1.328,4.422,1.938a.365.365,0,0,1,0,.6c-.881.61-2.966,1.938-4.422,1.938-1.489,0-3.043-1.389-3.636-1.979a.366.366,0,0,1,0-.52C386.273,182.505,387.827,181.116,389.316,181.116Z" transform="translate(-385.572 -181.116)" fill="#b3e59f"/>
      </g>
      <g id="Grupo_1108022" data-name="Grupo 1108022" transform="translate(38.666 44.27)">
        <path id="Trazado_897503" data-name="Trazado 897503" d="M418.093,183.054c-.881-.61-2.966-1.938-4.422-1.938a3.231,3.231,0,0,0-1.225.271,14.36,14.36,0,0,1,3.081,1.667.366.366,0,0,1,0,.6,14.359,14.359,0,0,1-3.081,1.667,3.23,3.23,0,0,0,1.225.271c1.456,0,3.54-1.328,4.422-1.938A.366.366,0,0,0,418.093,183.054Z" transform="translate(-412.447 -181.116)" fill="#95d6a4"/>
      </g>
      <g id="Grupo_1108023" data-name="Grupo 1108023" transform="translate(27.313 41.824)">
        <path id="Trazado_897504" data-name="Trazado 897504" d="M295.825,158.766c0,1.456-1.328,3.54-1.938,4.422a.366.366,0,0,1-.6,0c-.61-.881-1.938-2.966-1.938-4.422,0-1.489,1.389-3.043,1.979-3.636a.366.366,0,0,1,.52,0c.59.593,1.979,2.147,1.979,3.636Z" transform="translate(-291.348 -155.022)" fill="#b3e59f"/>
      </g>
      <g id="Grupo_1108024" data-name="Grupo 1108024" transform="translate(28.605 41.824)">
        <path id="Trazado_897505" data-name="Trazado 897505" d="M306.335,155.13a.366.366,0,0,0-.52,0,10.215,10.215,0,0,0-.687.765,5.018,5.018,0,0,1,1.292,2.871,7.769,7.769,0,0,1-1.292,3.422c.242.4.473.749.646,1a.366.366,0,0,0,.6,0c.61-.881,1.938-2.966,1.938-4.422C308.313,157.277,306.924,155.723,306.335,155.13Z" transform="translate(-305.128 -155.022)" fill="#95d6a4"/>
      </g>
      <g id="Grupo_1108027" data-name="Grupo 1108027" transform="translate(22.57 37.734)">
        <g id="Grupo_1108025" data-name="Grupo 1108025" transform="translate(0 0)">
          <circle id="Elipse_11506" data-name="Elipse 11506" cx="4.09" cy="4.09" r="4.09" fill="#dd636e"/>
        </g>
        <g id="Grupo_1108026" data-name="Grupo 1108026" transform="translate(0.535 0.535)">
          <path id="Trazado_897506" data-name="Trazado 897506" d="M252.041,117.109a4.089,4.089,0,0,1-5.576,5.576,4.089,4.089,0,1,0,5.576-5.576Z" transform="translate(-246.465 -117.109)" fill="#da4a54"/>
        </g>
      </g>
      <g id="Grupo_1108030" data-name="Grupo 1108030" transform="translate(16.809 55.279)">
        <g id="Grupo_1108028" data-name="Grupo 1108028">
          <circle id="Elipse_11507" data-name="Elipse 11507" cx="4.09" cy="4.09" r="4.09" fill="#dd636e"/>
        </g>
        <g id="Grupo_1108029" data-name="Grupo 1108029" transform="translate(0.535 0.535)">
          <path id="Trazado_897507" data-name="Trazado 897507" d="M190.591,304.249a4.089,4.089,0,0,1-5.576,5.576,4.089,4.089,0,1,0,5.576-5.576Z" transform="translate(-185.015 -304.249)" fill="#da4a54"/>
        </g>
      </g>
      <g id="Grupo_1108033" data-name="Grupo 1108033" transform="translate(7.604 39.56)">
        <g id="Grupo_1108031" data-name="Grupo 1108031">
          <circle id="Elipse_11508" data-name="Elipse 11508" cx="4.09" cy="4.09" r="4.09" fill="#dd636e"/>
        </g>
        <g id="Grupo_1108032" data-name="Grupo 1108032" transform="translate(0.535 0.535)">
          <path id="Trazado_897508" data-name="Trazado 897508" d="M92.409,136.586a4.089,4.089,0,0,1-5.576,5.576,4.089,4.089,0,1,0,5.576-5.576Z" transform="translate(-86.833 -136.586)" fill="#da4a54"/>
        </g>
      </g>
      <g id="Grupo_1108036" data-name="Grupo 1108036" transform="translate(32.547 46.25)">
        <g id="Grupo_1108034" data-name="Grupo 1108034">
          <circle id="Elipse_11509" data-name="Elipse 11509" cx="4.09" cy="4.09" r="4.09" fill="#dd636e"/>
        </g>
        <g id="Grupo_1108035" data-name="Grupo 1108035" transform="translate(0.535 0.535)">
          <path id="Trazado_897509" data-name="Trazado 897509" d="M358.463,207.941a4.089,4.089,0,0,1-5.576,5.576,4.089,4.089,0,1,0,5.576-5.576Z" transform="translate(-352.887 -207.941)" fill="#da4a54"/>
        </g>
      </g>
      <g id="Grupo_1108037" data-name="Grupo 1108037" transform="translate(8.863 37.214)">
        <ellipse id="Elipse_11510" data-name="Elipse 11510" cx="2.032" cy="1.453" rx="2.032" ry="1.453" transform="translate(0 2.874) rotate(-45)" fill="#4a80aa"/>
      </g>
      <g id="Grupo_1108038" data-name="Grupo 1108038" transform="translate(9.574 37.923)">
        <path id="Trazado_897510" data-name="Trazado 897510" d="M105.323,113.728a1.144,1.144,0,0,0-.686-.318,2.485,2.485,0,0,1-2.506,2.506,1.143,1.143,0,0,0,.318.686,2.148,2.148,0,0,0,2.874-2.874Z" transform="translate(-102.131 -113.41)" fill="#407093"/>
      </g>
      <g id="Grupo_1108039" data-name="Grupo 1108039" transform="translate(-0.001 30.114)">
        <path id="Trazado_897511" data-name="Trazado 897511" d="M41.86,36.684A20.961,20.961,0,0,0,14.106,35.01L12,30.749a1.142,1.142,0,0,0-1.565-.5,21.155,21.155,0,0,0-2.406,1.512.685.685,0,0,0,.805,1.107,19.816,19.816,0,0,1,2.043-1.3l1.355,2.742a3.287,3.287,0,0,1-.4.29,6.761,6.761,0,0,1-1.589.594,5.543,5.543,0,0,0-2.617,1.283,5.513,5.513,0,0,0-1.168,2.64,6.911,6.911,0,0,1-.542,1.637,6.6,6.6,0,0,1-1.054,1.275A6.265,6.265,0,0,0,3.307,44.2l-1.89-.466c.019-.077.036-.141.045-.177A19.569,19.569,0,0,1,6.5,34.863a.685.685,0,0,0-.968-.969,20.941,20.941,0,0,0-5.391,9.3c-.02.073-.064.252-.108.43A1.142,1.142,0,0,0,.867,45l7.2,1.775.028.005A4.762,4.762,0,0,0,13.423,48.1l5.89,1.452a1.079,1.079,0,0,0,1.225-1.525l-3.361-6.8,8.417,9.98H13.643a.685.685,0,0,0,0,1.369H26.219a1.079,1.079,0,0,0,.825-1.774L17.391,39.355l.131-.227a4.521,4.521,0,0,1,1.37-1.731,4.489,4.489,0,0,1,2.157-.318,7.982,7.982,0,0,0,2.073-.181,7.673,7.673,0,0,0,1.825-.858,4.538,4.538,0,0,1,2.09-.823,4.538,4.538,0,0,1,2.09.823,7.674,7.674,0,0,0,1.825.858,7.989,7.989,0,0,0,2.073.181,4.506,4.506,0,0,1,2.157.319,3.536,3.536,0,0,1,1.125,1.308,2.516,2.516,0,0,0-3.289.538c-1.077,1.077-1.257,2.585-.41,3.432a1.883,1.883,0,0,0,1.352.53,2.389,2.389,0,0,0,.391-.033,3.171,3.171,0,0,0,1.689-.906A2.868,2.868,0,0,0,36.95,39.8a5.656,5.656,0,0,0,.778,1.015,7.845,7.845,0,0,0,1.687,1.176,4.519,4.519,0,0,1,1.73,1.37,1.96,1.96,0,0,1,.194.5,4.692,4.692,0,0,0-1.45-.271,6.433,6.433,0,0,0-3.97,2.033,4.775,4.775,0,1,0,5.349,3.566,8.748,8.748,0,0,0,.9-.352c.108.2.22.392.331.583a4.538,4.538,0,0,1,.823,2.09A4.537,4.537,0,0,1,42.5,53.6a7.674,7.674,0,0,0-.858,1.825,8,8,0,0,0-.18,2.073,4.5,4.5,0,0,1-.319,2.157,4.519,4.519,0,0,1-1.73,1.37A7.844,7.844,0,0,0,37.729,62.2a7.846,7.846,0,0,0-1.176,1.687,4.519,4.519,0,0,1-1.37,1.73,4.491,4.491,0,0,1-2.157.318,8.011,8.011,0,0,0-2.073.181,7.674,7.674,0,0,0-1.825.858,4.539,4.539,0,0,1-2.09.823,4.539,4.539,0,0,1-2.09-.823,7.672,7.672,0,0,0-1.825-.858,8,8,0,0,0-2.073-.181,4.5,4.5,0,0,1-2.157-.319,4.518,4.518,0,0,1-1.37-1.73A7.846,7.846,0,0,0,16.347,62.2a7.845,7.845,0,0,0-1.687-1.176,4.519,4.519,0,0,1-1.73-1.37,4.5,4.5,0,0,1-.319-2.157c0-.152,0-.306,0-.46a3.3,3.3,0,0,0,1.486.339c1.523,0,2.717-.939,2.717-2.137S15.617,53.1,14.094,53.1a2.946,2.946,0,0,0-2.266.943c-.084-.15-.17-.3-.255-.445a5.566,5.566,0,0,1-.8-1.81.69.69,0,0,0-.677-.582H7.237a1.142,1.142,0,0,0-1.14,1.19A20.961,20.961,0,0,0,27.038,72.467h.115A20.851,20.851,0,0,0,36.1,70.426a.685.685,0,1,0-.59-1.235A19.624,19.624,0,0,1,7.476,52.573h2.08a8.688,8.688,0,0,0,.833,1.711,6.611,6.611,0,0,1,.718,1.49,6.914,6.914,0,0,1,.134,1.719,5.513,5.513,0,0,0,.5,2.843,5.543,5.543,0,0,0,2.234,1.872,6.766,6.766,0,0,1,1.4.957,6.766,6.766,0,0,1,.957,1.4A5.542,5.542,0,0,0,18.207,66.8a5.512,5.512,0,0,0,2.843.5,6.909,6.909,0,0,1,1.719.134,6.608,6.608,0,0,1,1.49.719,5.66,5.66,0,0,0,2.778,1.008,5.659,5.659,0,0,0,2.778-1.008,6.606,6.606,0,0,1,1.49-.719,6.9,6.9,0,0,1,1.719-.134,5.517,5.517,0,0,0,2.843-.5,5.543,5.543,0,0,0,1.872-2.234,6.766,6.766,0,0,1,.957-1.4,6.763,6.763,0,0,1,1.4-.957,5.542,5.542,0,0,0,2.234-1.872,5.513,5.513,0,0,0,.5-2.843,6.915,6.915,0,0,1,.134-1.719,6.608,6.608,0,0,1,.719-1.49A5.66,5.66,0,0,0,44.7,51.506a5.66,5.66,0,0,0-1.008-2.778c-.1-.179-.2-.352-.3-.522.518-.3.976-.6,1.313-.833a1.05,1.05,0,0,0,0-1.726A18.024,18.024,0,0,0,42.813,44.5a4.082,4.082,0,0,0-.481-1.82A5.543,5.543,0,0,0,40.1,40.8a6.769,6.769,0,0,1-1.4-.957,6.766,6.766,0,0,1-.957-1.4,5.541,5.541,0,0,0-1.872-2.234,5.513,5.513,0,0,0-2.843-.5,6.9,6.9,0,0,1-1.719-.134,6.606,6.606,0,0,1-1.49-.719,5.66,5.66,0,0,0-2.778-1.008,5.659,5.659,0,0,0-2.778,1.008,6.6,6.6,0,0,1-1.49.719,6.9,6.9,0,0,1-1.719.134,5.5,5.5,0,0,0-2.843.5,5.131,5.131,0,0,0-1.754,2.03l-1.691-2.005A19.6,19.6,0,1,1,38.283,67.572a.685.685,0,1,0,.785,1.122A20.912,20.912,0,0,0,48,51.506,20.824,20.824,0,0,0,41.86,36.684ZM35.073,41.3c-.545.545-1.24.666-1.5.41s-.136-.951.41-1.5a1.691,1.691,0,0,1,1.116-.539.528.528,0,0,1,.38.129C35.74,40.058,35.619,40.753,35.073,41.3ZM14.094,54.467c.771,0,1.348.406,1.348.768S14.866,56,14.094,56s-1.348-.406-1.348-.768S13.323,54.467,14.094,54.467Zm22.542-.723a3.405,3.405,0,1,1,3.405-3.405A3.409,3.409,0,0,1,36.636,53.745Zm4.11-5.83a4.793,4.793,0,0,0-2.827-2.173,3.732,3.732,0,0,1,1.971-.787,8.069,8.069,0,0,1,3.643,1.554,11.876,11.876,0,0,1-2.787,1.406Zm-36.1-3.389a5.662,5.662,0,0,1,1.2-1.545,7.674,7.674,0,0,0,1.27-1.567,8,8,0,0,0,.671-1.969,4.5,4.5,0,0,1,.826-2.018,4.518,4.518,0,0,1,2.008-.916,7.845,7.845,0,0,0,1.92-.738c.1-.062.206-.132.31-.208L15.3,40.51a4.766,4.766,0,0,0-1.526-1.16,1.921,1.921,0,0,0-.52-1.593c-.847-.847-2.355-.668-3.432.41a3.2,3.2,0,0,0-.888,1.592,4.768,4.768,0,0,0-1.769,5.386Zm7.227-4.3c-.545.545-1.24.666-1.5.41a.649.649,0,0,1-.114-.551,1.823,1.823,0,0,1,.524-.945A1.69,1.69,0,0,1,11.9,38.6a.528.528,0,0,1,.38.129c.256.257.136.951-.41,1.5ZM8.289,43.65A3.407,3.407,0,0,1,9.2,41.339a1.722,1.722,0,0,0,.213.259,1.872,1.872,0,0,0,1.35.534,3.019,3.019,0,0,0,2.082-.943,3.523,3.523,0,0,0,.448-.547,3.4,3.4,0,1,1-5,3.008Zm6.721,3.43a4.759,4.759,0,0,0,1.458-3.43,4.84,4.84,0,0,0-.1-.967l2.663,5.389Z" transform="translate(0.001 -30.114)"/>
        <path id="Trazado_897512" data-name="Trazado 897512" d="M354.642,311.726c1.2,0,2.137-1.193,2.137-2.717s-.939-2.717-2.137-2.717-2.137,1.193-2.137,2.717S353.444,311.726,354.642,311.726Zm0-4.064c.363,0,.768.576.768,1.348s-.406,1.348-.768,1.348-.768-.576-.768-1.348S354.28,307.662,354.642,307.662Z" transform="translate(-319.458 -280.401)"/>
        <path id="Trazado_897513" data-name="Trazado 897513" d="M269.379,282.568c-.847.847-.667,2.355.41,3.432a3.171,3.171,0,0,0,1.689.906,1.864,1.864,0,0,0,2.24-2.24,3.171,3.171,0,0,0-.906-1.689C271.734,281.9,270.226,281.721,269.379,282.568Zm2.988,2.323a.524.524,0,0,1-.665.665,1.823,1.823,0,0,1-.945-.524c-.545-.545-.666-1.24-.41-1.5a.527.527,0,0,1,.38-.129,1.69,1.69,0,0,1,1.116.539A1.822,1.822,0,0,1,272.367,284.891Z" transform="translate(-243.641 -258.417)"/>
        <path id="Trazado_897514" data-name="Trazado 897514" d="M266.721,352.782A1.05,1.05,0,0,0,267.941,354c1.33-.241,3.729-.815,4.859-1.945,1.187-1.187,1.369-3.3,1.372-4.453a1.05,1.05,0,0,0-1.051-1.054h0c-1.153,0-3.266.185-4.453,1.372C267.536,349.053,266.962,351.453,266.721,352.782Zm6.076-4.855a5.21,5.21,0,0,1-.964,3.162,8.067,8.067,0,0,1-3.675,1.477,8.069,8.069,0,0,1,1.477-3.675A5.21,5.21,0,0,1,272.8,347.927Z" transform="translate(-241.701 -316.885)"/>
        <path id="Trazado_897515" data-name="Trazado 897515" d="M238.227,104.1a4.774,4.774,0,0,0,0,9.548l.114,0a13.359,13.359,0,0,0,1.915,3.784,1.05,1.05,0,0,0,1.726,0c.769-1.111,2.06-3.213,2.06-4.811a5.047,5.047,0,0,0-1.121-2.879,4.769,4.769,0,0,0-4.694-5.639Zm-3.405,4.774a3.405,3.405,0,1,1,3.405,3.405A3.409,3.409,0,0,1,234.822,108.871Zm7.851,3.744a8.069,8.069,0,0,1-1.554,3.643,11.62,11.62,0,0,1-1.423-2.845,4.8,4.8,0,0,0,2.614-2.071A2.879,2.879,0,0,1,242.673,112.615Z" transform="translate(-211.567 -97.161)"/>
        <path id="Trazado_897516" data-name="Trazado 897516" d="M176.776,291.237a4.774,4.774,0,1,0,4.774,4.774A4.78,4.78,0,0,0,176.776,291.237Zm0,8.179a3.405,3.405,0,1,1,3.405-3.405A3.409,3.409,0,0,1,176.776,299.416Z" transform="translate(-155.877 -266.757)"/>
        <circle id="Elipse_11511" data-name="Elipse 11511" cx="0.754" cy="0.754" r="0.754" transform="translate(24.787 9.446)"/>
        <circle id="Elipse_11512" data-name="Elipse 11512" cx="0.754" cy="0.754" r="0.754" transform="matrix(0.987, -0.16, 0.16, 0.987, 27.133, 10.479)"/>
        <circle id="Elipse_11513" data-name="Elipse 11513" cx="0.754" cy="0.754" r="0.754" transform="translate(25.965 12.21) rotate(-13.3)"/>
        <circle id="Elipse_11514" data-name="Elipse 11514" cx="0.761" cy="0.761" r="0.761" transform="translate(34.119 19.437) rotate(-13.3)"/>
        <circle id="Elipse_11515" data-name="Elipse 11515" cx="0.786" cy="0.786" r="0.786" transform="translate(18.443 28.396) rotate(-45)"/>
        <circle id="Elipse_11516" data-name="Elipse 11516" cx="0.786" cy="0.786" r="0.786" transform="translate(19.94 29.941) rotate(-13.3)"/>
        <circle id="Elipse_11517" data-name="Elipse 11517" cx="0.786" cy="0.786" r="0.786" transform="translate(21.512 27.607) rotate(-13.3)"/>
        <circle id="Elipse_11518" data-name="Elipse 11518" cx="0.78" cy="0.78" r="0.78" transform="translate(10.23 12.629)"/>
        <circle id="Elipse_11519" data-name="Elipse 11519" cx="0.761" cy="0.761" r="0.761" transform="matrix(0.987, -0.16, 0.16, 0.987, 36.926, 20.701)"/>
      </g>
    </g>
  </g>
</svg>
