<svg xmlns="http://www.w3.org/2000/svg" width="70" height="70" viewBox="0 0 70 70">
  <g id="Grupo_1108044" data-name="Grupo 1108044" transform="translate(-635.051 -689)">
    <circle id="Elipse_11493" data-name="Elipse 11493" cx="35" cy="35" r="35" transform="translate(635.051 689)" fill="#62724a"/>
    <g id="tacos" transform="translate(639.051 597.236)">
      <g id="Grupo_1108042" data-name="Grupo 1108042" transform="translate(0.907 109.67)">
        <path id="Trazado_897517" data-name="Trazado 897517" d="M11.958,239.625s-4.491-.455-2.692-5.8c0,0-3.04-2.8-1.124-6.05,1.442-2.449,4.458-1.6,4.458-1.6s-.442-2.724.741-3.826a4.177,4.177,0,0,1,5.862.324Z" transform="translate(-7.509 -208.612)" fill="#97da7b"/>
        <path id="Trazado_897518" data-name="Trazado 897518" d="M160.991,124.56l-3.9-6.813a.987.987,0,0,1,.892-1.477,12.18,12.18,0,0,1,8.878,4.714l-2.064,4.184Z" transform="translate(-138.915 -116.268)" fill="#fea95c"/>
        <g id="Grupo_1108041" data-name="Grupo 1108041" transform="translate(18.07)">
          <path id="Trazado_897519" data-name="Trazado 897519" d="M165.89,123.326l1.156-2.344a12.181,12.181,0,0,0-8.878-4.714.98.98,0,0,0-1,.776A25.672,25.672,0,0,1,165.89,123.326Z" transform="translate(-157.169 -116.268)" fill="#fe9738"/>
          <path id="Trazado_897520" data-name="Trazado 897520" d="M213.342,188.077l1.031.164.117-.237Z" transform="translate(-206.56 -179.342)" fill="#fea95c"/>
        </g>
        <circle id="Elipse_11520" data-name="Elipse 11520" cx="7.582" cy="7.582" r="7.582" transform="translate(10.718 4.715)" fill="#fe5694"/>
        <path id="Trazado_897521" data-name="Trazado 897521" d="M145.878,155.315a7.6,7.6,0,0,0-1.813.22,7.583,7.583,0,0,1,0,14.725,7.583,7.583,0,1,0,1.813-14.945Z" transform="translate(-127.577 -150.6)" fill="#fd3581"/>
        <path id="Trazado_897522" data-name="Trazado 897522" d="M209.758,131.2a3.6,3.6,0,0,1,3.527-3.1s.681-4.474,5.337-2.592c0,0,5.088-3.875,9.174,2.629l-.482,4.69h-13.2Z" transform="translate(-185.338 -123.382)" fill="#97da7b"/>
        <path id="Trazado_897523" data-name="Trazado 897523" d="M304.6,128.135l-.482,4.69h-3.625l.235-2.294a5.605,5.605,0,0,0-3.26-5.718c-.121-.053-.24-.1-.36-.144,1.838-.607,4.871-.705,7.491,3.466Z" transform="translate(-262.142 -123.383)" fill="#80d261"/>
        <path id="Trazado_897524" data-name="Trazado 897524" d="M415.525,252.968s3.789.024,3.794-3.527a3.9,3.9,0,0,0-1.891-3.422s1.98-4.246.431-6.973-5.3-2.576-5.3-2.576l-4.935,6.144Z" transform="translate(-359.31 -221.955)" fill="#97da7b"/>
        <path id="Trazado_897525" data-name="Trazado 897525" d="M449.638,246.019s1.98-4.246.431-6.973-5.3-2.576-5.3-2.576l-.512.638a4.686,4.686,0,0,1,2.19,1.939c1.063,1.871.464,4.457-.016,5.9a1.7,1.7,0,0,0,.383,1.711,3.921,3.921,0,0,1,1.093,2.787,3.24,3.24,0,0,1-.971,2.477l.8,1.051s3.789.024,3.794-3.527A3.9,3.9,0,0,0,449.638,246.019Z" transform="translate(-391.52 -221.955)" fill="#80d261"/>
        <circle id="Elipse_11521" data-name="Elipse 11521" cx="6.256" cy="6.256" r="6.256" transform="translate(38.419 4.346)" fill="#fea95c"/>
        <path id="Trazado_897526" data-name="Trazado 897526" d="M364.319,152.262a6.253,6.253,0,0,0-1.813.268,6.257,6.257,0,0,1,0,11.977,6.256,6.256,0,1,0,1.813-12.245Z" transform="translate(-319.643 -147.916)" fill="#fe9738"/>
        <path id="Trazado_897527" data-name="Trazado 897527" d="M391.484,223.378l-.042-.054a1.934,1.934,0,0,1,.332-2.715l5.149-4.026a1.934,1.934,0,0,1,2.715.332l.042.054a1.934,1.934,0,0,1-.332,2.715L394.2,223.71A1.934,1.934,0,0,1,391.484,223.378Z" transform="translate(-344.724 -204.11)" fill="#b98080"/>
        <path id="Trazado_897528" data-name="Trazado 897528" d="M404.884,216.969l-.042-.054a1.934,1.934,0,0,0-2.715-.332l-.074.058a1.94,1.94,0,0,1,.262.275l.042.054a1.934,1.934,0,0,1-.332,2.715l-5.075,3.968a1.934,1.934,0,0,0,2.453.058l5.149-4.026A1.935,1.935,0,0,0,404.884,216.969Z" transform="translate(-349.928 -204.11)" fill="#ae6c6c"/>
        <path id="Trazado_897529" data-name="Trazado 897529" d="M93.429,205.094H47.054a2.7,2.7,0,0,1-2.7-2.7v-.453A23.044,23.044,0,0,1,67.4,178.9H73.08a23.044,23.044,0,0,1,23.044,23.044v.453a2.7,2.7,0,0,1-2.7,2.7Z" transform="translate(-39.91 -171.339)" fill="#ffe177"/>
        <path id="Trazado_897530" data-name="Trazado 897530" d="M240.067,178.9h-5.79a23.044,23.044,0,0,1,22.931,23.043v.453a2.7,2.7,0,0,1-2.7,2.7h5.9a2.7,2.7,0,0,0,2.7-2.7v-.453A23.045,23.045,0,0,0,240.067,178.9Z" transform="translate(-206.897 -171.339)" fill="#ffd15b"/>
      </g>
      <g id="Grupo_1108043" data-name="Grupo 1108043" transform="translate(0 108.764)">
        <path id="Trazado_897531" data-name="Trazado 897531" d="M61.821,137.156a4.806,4.806,0,0,0-1.69-3.739,14.261,14.261,0,0,0,.575-1.957,7.21,7.21,0,0,0-.463-5.147,5.729,5.729,0,0,0-3.069-2.507,2.888,2.888,0,0,0-4.511-2.462,7.289,7.289,0,0,0,.08-1.072,7.169,7.169,0,0,0-7.161-7.161c-.216,0-.43.011-.641.029l.961-2.118a.906.906,0,1,0-1.649-.749l-1.065,2.348a7.155,7.155,0,0,0-4.834-2.847.906.906,0,1,0-.184,1.8,5.624,5.624,0,0,1,3.841,2.481,7.129,7.129,0,0,0-2.746,2.838,23.943,23.943,0,0,0-5.187-.567H28.4c-.57,0-1.135.021-1.695.061a2.516,2.516,0,0,1,2.166-1.1.913.913,0,0,0,.877-.765,3.15,3.15,0,0,1,1.284-2.029,3.262,3.262,0,0,1,2.821.137.906.906,0,0,0,.679-1.679,4.923,4.923,0,0,0-4.4-.026A4.218,4.218,0,0,0,28.5,112.67a12.828,12.828,0,0,0-8.492-3.9A1.892,1.892,0,0,0,18.3,111.6l1.077,1.883a8.5,8.5,0,0,0-8.648,8.148,4.827,4.827,0,0,0-4.605,1.117,4.679,4.679,0,0,0-1.113,3.439A4.586,4.586,0,0,0,.76,128.376a5.244,5.244,0,0,0-.2,5.09,7.467,7.467,0,0,0,1.08,1.654,5.38,5.38,0,0,0,.36,4.5,4.477,4.477,0,0,0,2.513,1.8,3.606,3.606,0,0,0,3.533,2.908h1.96a.906.906,0,1,0,0-1.811H8.051a1.884,1.884,0,0,1-1.79-2.243A22.164,22.164,0,0,1,28.4,118.137h5.677a22.164,22.164,0,0,1,22.139,22.139,1.884,1.884,0,0,1-1.79,2.243H14.249a.906.906,0,1,0,0,1.811H54.426a3.606,3.606,0,0,0,3.515-2.82A4.339,4.339,0,0,0,61.821,137.156ZM19.87,110.7a.076.076,0,0,1,0-.086.066.066,0,0,1,.066-.037,10.99,10.99,0,0,1,7.156,3.25,4.257,4.257,0,0,0-2.111,1.917,8.375,8.375,0,0,0-3.317-1.907Zm-.663,4.591a6.646,6.646,0,0,1,4.277,1.545,23.9,23.9,0,0,0-10.942,5.511A6.688,6.688,0,0,1,19.207,115.289ZM4.466,139.462a2.4,2.4,0,0,1-.947-.833,4.052,4.052,0,0,1,0-3.454.911.911,0,0,0-.243-.953,5.548,5.548,0,0,1-1.1-1.574,3.452,3.452,0,0,1,.14-3.352c1.063-1.805,3.341-1.215,3.433-1.19a.906.906,0,0,0,1.139-1.015c-.117-.735-.157-2.441.464-3.019a3.106,3.106,0,0,1,3.52-.475q.03.152.065.3A23.862,23.862,0,0,0,4.466,139.462Zm50.639-16.431a1.039,1.039,0,0,1-.133,1.5L53.22,125.9q-.64-.85-1.352-1.64l1.8-1.4A1.029,1.029,0,0,1,55.105,123.031Zm-11.489-7.739a5.359,5.359,0,0,1,7.317,4.98,5.3,5.3,0,0,1-.589,2.444q-.576-.534-1.186-1.03a3.844,3.844,0,0,0-3.575-5.257,3.871,3.871,0,0,0-3.009,1.457q-.735-.28-1.491-.512a5.317,5.317,0,0,1,2.534-2.081Zm.746,3.359a2.029,2.029,0,0,1,3.254,1.621,2.074,2.074,0,0,1-.016.249,23.972,23.972,0,0,0-3.237-1.87Zm14.319,20.758a3.6,3.6,0,0,1-.662.238,23.8,23.8,0,0,0-3.763-12.257l1.832-1.432a2.844,2.844,0,0,0,.459-.454,3.9,3.9,0,0,1,2.121,1.7,5.737,5.737,0,0,1,.275,3.837,12.114,12.114,0,0,1-.739,2.306.9.9,0,0,0,.394,1.181,3,3,0,0,1,1.412,2.622,2.275,2.275,0,0,1-1.329,2.254Z" transform="translate(0 -108.764)"/>
        <path id="Trazado_897532" data-name="Trazado 897532" d="M181.3,234.519a.906.906,0,1,0,0-1.811h-1.7a.906.906,0,1,0,0,1.811Z" transform="translate(-157.117 -217.743)"/>
        <path id="Trazado_897533" data-name="Trazado 897533" d="M246.779,234.519a.906.906,0,0,0,0-1.811h-1.7a.906.906,0,1,0,0,1.811Z" transform="translate(-214.688 -217.743)"/>
        <path id="Trazado_897534" data-name="Trazado 897534" d="M312.255,234.519a.906.906,0,1,0,0-1.811h-1.7a.906.906,0,0,0,0,1.811Z" transform="translate(-272.259 -217.743)"/>
        <path id="Trazado_897535" data-name="Trazado 897535" d="M214.544,265.887a.906.906,0,1,0,0-1.811h-1.7a.906.906,0,1,0,0,1.811Z" transform="translate(-186.346 -245.323)"/>
        <path id="Trazado_897536" data-name="Trazado 897536" d="M280.02,265.887a.906.906,0,0,0,0-1.811h-1.7a.906.906,0,0,0,0,1.811Z" transform="translate(-243.916 -245.323)"/>
      </g>
    </g>
  </g>
</svg>
