<svg id="Grupo_1108060" data-name="Grupo 1108060" xmlns="http://www.w3.org/2000/svg" width="76" height="76" viewBox="0 0 76 76">
  <circle id="Elipse_11494" data-name="Elipse 11494" cx="38" cy="38" r="38" fill="#c6e697"/>
  <g id="camarones-de-barro" transform="translate(10.324 18)">
    <path id="Trazado_897574" data-name="Trazado 897574" d="M244.386,376a6.544,6.544,0,0,1,6.524,6.524h-9.787l-1.631-3.262L241.124,376Z" transform="translate(-221.278 -342.562)" fill="#fef1d4"/>
    <path id="Trazado_897575" data-name="Trazado 897575" d="M337.1,376v6.524h-4.35L329.492,376Z" transform="translate(-317.258 -342.562)" fill="#fedabf"/>
    <path id="Trazado_897576" data-name="Trazado 897576" d="M329.385,166l1.631,4.078-1.631,4.078a1.631,1.631,0,1,1-3.262,0l-1.631-4.078L326.123,166Z" transform="translate(-310.627 -155.398)" fill="#fec3ab"/>
    <path id="Trazado_897577" data-name="Trazado 897577" d="M379.873,365.848a14.635,14.635,0,0,1-10.381-4.3v-4.259Z" transform="translate(-364.377 -325.886)" fill="#fedabf"/>
    <path id="Trazado_897578" data-name="Trazado 897578" d="M369.492,307.121,379.873,301s0,14.68,0,14.68C375.266,315.68,371.3,312.172,369.492,307.121Z" transform="translate(-364.377 -275.718)" fill="#fef1d4"/>
    <path id="Trazado_897579" data-name="Trazado 897579" d="M379.878,166l-10.386,8.573V170.3A14.635,14.635,0,0,1,379.878,166Z" transform="translate(-364.381 -155.398)" fill="#fec3ab"/>
    <path id="Trazado_897580" data-name="Trazado 897580" d="M379.878,166v14.68l-10.386-6.107C371.295,169.514,375.267,166,379.878,166Z" transform="translate(-364.381 -155.398)" fill="#fedabf"/>
    <path id="Trazado_897581" data-name="Trazado 897581" d="M441.288,271l-2.045,12.275-1.368,1.368a14.634,14.634,0,0,1-4.3-10.38Z" transform="translate(-432.76 -248.98)" fill="#fec3ab"/>
    <path id="Trazado_897582" data-name="Trazado 897582" d="M380.914,274.262l-9.013,9.013a17.445,17.445,0,0,1-2.405-9.013A18.738,18.738,0,0,1,369.78,271Z" transform="translate(-365.418 -248.98)" fill="#fedabf"/>
    <path id="Trazado_897583" data-name="Trazado 897583" d="M456.706,205.588l1.369,1.368-2.4,9.007h-3.262A14.634,14.634,0,0,1,456.706,205.588Z" transform="translate(-451.595 -190.681)" fill="#fedabf"/>
    <path id="Trazado_897584" data-name="Trazado 897584" d="M380.911,227.174H369.492a17.447,17.447,0,0,1,2.4-9.007Z" transform="translate(-365.414 -201.892)" fill="#fef1d4"/>
    <path id="Trazado_897585" data-name="Trazado 897585" d="M125.039,272.631v1.631a1.631,1.631,0,1,0,3.262,0v-1.631a1.631,1.631,0,1,0-3.262,0Z" transform="translate(-86.222 -248.98)" fill="#fec3ab"/>
    <path id="Trazado_897586" data-name="Trazado 897586" d="M8.456,271.956a3.262,3.262,0,0,1,4.613,0l5.495,5.495a5.9,5.9,0,0,1,1.713,3.748,1.63,1.63,0,1,1-3.251.243,2.627,2.627,0,0,0-.769-1.684l-2.034-2.034a3.262,3.262,0,0,1-4.613,0l-1.153-1.153a3.262,3.262,0,0,1,0-4.613Z" transform="translate(34.578 -248.98)" fill="#fedabf"/>
    <path id="Trazado_897587" data-name="Trazado 897587" d="M216.432,271l4.893,4.893h-4.893A4.893,4.893,0,0,1,211.539,271Z" transform="translate(-188.653 -248.982)" fill="#fedabf"/>
    <path id="Trazado_897588" data-name="Trazado 897588" d="M155.039,271h8.591a2.447,2.447,0,1,1,0,4.893h-3.7A4.893,4.893,0,0,1,155.039,271Z" transform="translate(-127.26 -248.982)" fill="#fef1d4"/>
    <path id="Trazado_897589" data-name="Trazado 897589" d="M138.966,166a6.524,6.524,0,0,1-6.524,6.525l-2.982,2.982a6.524,6.524,0,0,1-4.613,1.911h-7.085a3.261,3.261,0,0,1-3.261-3.261V166Z" transform="translate(-95.741 -155.398)" fill="#ff9482"/>
    <circle id="Elipse_11538" data-name="Elipse 11538" cx="1.631" cy="1.631" r="1.631" transform="translate(35.069 8.971)" fill="#3e4466"/>
    <path id="Trazado_897590" data-name="Trazado 897590" d="M15.5,78.287h6.525a.816.816,0,1,1,0,1.631H19.574v7.34A2.446,2.446,0,0,0,22.02,89.7H29.1a5.673,5.673,0,0,0,4.037-1.672L36,85.178a.922.922,0,0,1,.7-.367,5.717,5.717,0,0,0,5.65-4.894H39.007a2.446,2.446,0,0,1-4.613,0H25.283a.816.816,0,1,1,0-1.631h9.111a2.446,2.446,0,0,1,4.613,0H50.23a5.7,5.7,0,0,0,0-4.893H27.779a.816.816,0,1,1,0-1.631H49.063a5.689,5.689,0,0,0-3.99-1.631H27.779a.816.816,0,1,1,0-1.631H45.073a7.339,7.339,0,0,1,6.1,3.262H51.6a4.078,4.078,0,1,1,0,8.156h-.425a7.338,7.338,0,0,1-6.1,3.262H42.8a7.34,7.34,0,0,1-5.753,3.254l-2.751,2.751a7.467,7.467,0,0,1-.577.519H36.37a3.249,3.249,0,0,1,2.211.867,2.439,2.439,0,0,1,3.931.275,4.082,4.082,0,0,1,5.712.052l5.495,5.495a6.721,6.721,0,0,1,1.95,4.266,2.446,2.446,0,1,1-4.878.356,1.818,1.818,0,0,0-.532-1.162l-1.516-1.516a4.061,4.061,0,0,1-1.67.632l1.881,1.881A.816.816,0,1,1,47.8,102l-5.343-5.338a4.05,4.05,0,0,1-.651-.853,2.436,2.436,0,0,1-3.226-.451,3.26,3.26,0,0,1-1.462.78,4.056,4.056,0,0,1,.886,2.534.816.816,0,1,1-1.631,0,2.449,2.449,0,0,0-2.438-2.447H32.293a4.054,4.054,0,0,1,.819,2.447.816.816,0,1,1-1.631,0,2.449,2.449,0,0,0-2.438-2.447H27.779a5.718,5.718,0,0,1-5.651-4.894H22.02a4.05,4.05,0,0,1-2.883-1.194,4.1,4.1,0,0,1-.652-.849,2.441,2.441,0,0,1-2.173.272v1.818a7.35,7.35,0,0,1,6.525,7.294.816.816,0,1,1-1.631,0,5.715,5.715,0,0,0-4.893-5.648v1.654a4.083,4.083,0,0,1,3.262,3.994.816.816,0,1,1-1.631,0,2.448,2.448,0,0,0-1.631-2.3v4.751h6.8a7.348,7.348,0,0,1,7.34,7.34.816.816,0,0,1-.816.816H15.5a15.512,15.512,0,0,1-13.571-8.011.816.816,0,1,1,1.428-.789,13.882,13.882,0,0,0,1.781,2.513L13.528,94.6H1.657a13.857,13.857,0,0,0,.516,3.035.816.816,0,1,1-1.567.452A15.506,15.506,0,0,1,15.5,78.287Zm21.2,0a.816.816,0,1,0,.816.816A.816.816,0,0,0,36.7,78.287ZM52,78.252a2.446,2.446,0,0,0,0-4.825,7.315,7.315,0,0,1,0,4.825Zm-6.931,3.3a5.689,5.689,0,0,0,3.99-1.631h-5.07a7.292,7.292,0,0,1-.373,1.631ZM43.611,95.513l1.244,1.24a2.45,2.45,0,0,0,3.369-.086.816.816,0,0,1,1.153,0L51.412,98.7a3.449,3.449,0,0,1,1.006,2.205.807.807,0,0,0,.554.712.8.8,0,0,0,.754-.129.814.814,0,0,0,.316-.712,5.088,5.088,0,0,0-1.476-3.23l-5.495-5.495a2.447,2.447,0,1,0-3.46,3.46Zm-3.979-1.73a.816.816,0,0,0,1.631,0V92.151a.816.816,0,0,0-1.631,0Zm-6.959.816h3.7a1.631,1.631,0,0,0,0-3.262H28.677A4.085,4.085,0,0,0,32.673,94.6Zm-4.893,0h.9a5.7,5.7,0,0,1-1.66-3.262h-3.24A4.085,4.085,0,0,0,27.779,94.6Zm-7.117,13.049h8.1a5.718,5.718,0,0,0-5.651-4.893H20.662Zm-4.35,0h2.719v-4.893H16.312Zm0-20.389a.816.816,0,0,0,1.631,0v-7.34H16.312ZM6.287,104.145a13.873,13.873,0,0,0,8.394,3.477V95.751Zm8.394-12.33V79.943a13.81,13.81,0,0,0-8.4,3.486Zm-1.155,1.152L5.133,84.583a13.807,13.807,0,0,0-3.477,8.384Z" transform="translate(0 -68.5)"/>
  </g>
</svg>
