<svg xmlns="http://www.w3.org/2000/svg" width="85" height="85" viewBox="0 0 85 85">
  <g id="Grupo_1108054" data-name="Grupo 1108054" transform="translate(-915.051 -1439)">
    <circle id="Elipse_11497" data-name="Elipse 11497" cx="42.5" cy="42.5" r="42.5" transform="translate(915.051 1439)" fill="#fcad53"/>
    <g id="pure-de-patatas" transform="translate(926.051 1450)">
      <path id="Trazado_897555" data-name="Trazado 897555" d="M58,27V37A26,26,0,0,1,6,37V27a26,26,0,0,0,52,0Z" fill="#ffcc3e"/>
      <path id="Trazado_897556" data-name="Trazado 897556" d="M6,27a26,26,0,1,1,52,0,6,6,0,0,0-6-6,6.009,6.009,0,0,0-6-6,4.985,4.985,0,0,0-5-5H38a7.5,7.5,0,0,0-12,0H23a4.985,4.985,0,0,0-5,5,6.009,6.009,0,0,0-6,6,6.009,6.009,0,0,0-6,6Z" fill="#f7a539"/>
      <path id="Trazado_897557" data-name="Trazado 897557" d="M28.16,21.84,30,25.39l-5.33,2.77-1.84-3.55Z" fill="#27935d"/>
      <path id="Trazado_897558" data-name="Trazado 897558" d="M29,32h6v4H29Z" fill="#27935d"/>
      <path id="Trazado_897559" data-name="Trazado 897559" d="M36.534,23.467h4v6h-4Z" transform="translate(-7.427 35) rotate(-45)" fill="#27935d"/>
      <path id="Trazado_897560" data-name="Trazado 897560" d="M52,21a6,6,0,0,1,6,6A26,26,0,0,1,6,27a6.009,6.009,0,0,1,6-6,6.009,6.009,0,0,1,6-6,4.985,4.985,0,0,1,5-5h3a7.5,7.5,0,0,1,12,0h3a4.985,4.985,0,0,1,5,5,6.009,6.009,0,0,1,6,6ZM39.24,30l2.83-2.83-4.24-4.24L35,25.76ZM35,36V32H29v4ZM30,25.39l-1.84-3.55-5.33,2.77,1.84,3.55Z" fill="#e8d3af"/>
      <circle id="Elipse_11522" data-name="Elipse 11522" cx="1.5" cy="1.5" r="1.5" transform="translate(47 23)" fill="#d6b58e"/>
      <circle id="Elipse_11523" data-name="Elipse 11523" cx="1.5" cy="1.5" r="1.5" transform="translate(36 14)" fill="#d6b58e"/>
      <circle id="Elipse_11524" data-name="Elipse 11524" cx="1.5" cy="1.5" r="1.5" transform="translate(23 16)" fill="#d6b58e"/>
      <circle id="Elipse_11525" data-name="Elipse 11525" cx="1.5" cy="1.5" r="1.5" transform="translate(17 28)" fill="#d6b58e"/>
      <circle id="Elipse_11526" data-name="Elipse 11526" cx="1.5" cy="1.5" r="1.5" transform="translate(10 28)" fill="#d6b58e"/>
      <circle id="Elipse_11527" data-name="Elipse 11527" cx="1.5" cy="1.5" r="1.5" transform="translate(21 39)" fill="#d6b58e"/>
      <circle id="Elipse_11528" data-name="Elipse 11528" cx="1.5" cy="1.5" r="1.5" transform="translate(23 45)" fill="#d6b58e"/>
      <circle id="Elipse_11529" data-name="Elipse 11529" cx="1.5" cy="1.5" r="1.5" transform="translate(45 32)" fill="#d6b58e"/>
      <circle id="Elipse_11530" data-name="Elipse 11530" cx="1.5" cy="1.5" r="1.5" transform="translate(38 42)" fill="#d6b58e"/>
      <g id="Grupo_1108052" data-name="Grupo 1108052">
        <path id="Trazado_897561" data-name="Trazado 897561" d="M32,0A27.03,27.03,0,0,0,5,27V37a27,27,0,0,0,54,0V27A27.03,27.03,0,0,0,32,0Zm0,52A25.028,25.028,0,0,1,7,27a5.009,5.009,0,0,1,5-5,1,1,0,0,0,1-1,5.009,5.009,0,0,1,5-5,1,1,0,0,0,1-1,3.984,3.984,0,0,1,4-4h3a1.009,1.009,0,0,0,.829-.441,6.5,6.5,0,0,1,10.339,0A1,1,0,0,0,38,11h3a3.984,3.984,0,0,1,4,4,1,1,0,0,0,1,1,5.009,5.009,0,0,1,5,5,1,1,0,0,0,1,1,5.006,5.006,0,0,1,5,5A25.028,25.028,0,0,1,32,52ZM32,2A25.039,25.039,0,0,1,56.4,21.56a6.978,6.978,0,0,0-3.459-1.5,7.022,7.022,0,0,0-6.011-6A5.983,5.983,0,0,0,41,9H38.488A8.516,8.516,0,0,0,25.512,9H23a5.983,5.983,0,0,0-5.927,5.06,7.019,7.019,0,0,0-6.011,6A6.865,6.865,0,0,0,7.6,21.586,25.039,25.039,0,0,1,32,2Zm0,60A25.026,25.026,0,0,1,7.005,37.2,26.991,26.991,0,0,0,57,37.2,25.026,25.026,0,0,1,32,62Z" fill="#252525"/>
        <path id="Trazado_897562" data-name="Trazado 897562" d="M35,31H29a1,1,0,0,0-1,1v4a1,1,0,0,0,1,1h6a1,1,0,0,0,1-1V32A1,1,0,0,0,35,31Zm-1,4H30V33h4Z" fill="#252525"/>
        <path id="Trazado_897563" data-name="Trazado 897563" d="M30.888,24.93l-1.84-3.55a.962.962,0,0,0-1.349-.427l-5.33,2.77a1,1,0,0,0-.427,1.347l1.84,3.55a1,1,0,0,0,1.349.427l5.33-2.77A1,1,0,0,0,30.888,24.93ZM25.1,26.811l-.919-1.774,3.555-1.848.919,1.774Z" fill="#252525"/>
        <path id="Trazado_897564" data-name="Trazado 897564" d="M38.537,22.223a1,1,0,0,0-1.414,0l-2.83,2.83a1.055,1.055,0,0,0,0,1.414l4.24,4.24a.919.919,0,0,0,1.414,0l2.83-2.83a.982.982,0,0,0,0-1.414Zm.7,6.363L36.414,25.76l1.416-1.416,2.826,2.826Z" fill="#252525"/>
        <circle id="Elipse_11531" data-name="Elipse 11531" cx="1.5" cy="1.5" r="1.5" transform="translate(16 21)" fill="#252525"/>
        <circle id="Elipse_11532" data-name="Elipse 11532" cx="1.5" cy="1.5" r="1.5" transform="translate(50 29)" fill="#252525"/>
        <circle id="Elipse_11533" data-name="Elipse 11533" cx="1.5" cy="1.5" r="1.5" transform="translate(41 19)" fill="#252525"/>
        <circle id="Elipse_11534" data-name="Elipse 11534" cx="1.5" cy="1.5" r="1.5" transform="translate(28 12)" fill="#252525"/>
        <circle id="Elipse_11535" data-name="Elipse 11535" cx="1.5" cy="1.5" r="1.5" transform="translate(14 36)" fill="#252525"/>
        <circle id="Elipse_11536" data-name="Elipse 11536" cx="1.5" cy="1.5" r="1.5" transform="translate(45 40)" fill="#252525"/>
        <circle id="Elipse_11537" data-name="Elipse 11537" cx="1.5" cy="1.5" r="1.5" transform="translate(31 46)" fill="#252525"/>
        <path id="Trazado_897565" data-name="Trazado 897565" d="M41.447,34.1a1,1,0,0,0-1.342.448l-1,2a1,1,0,0,0,.448,1.342,1.022,1.022,0,0,0,1.342-.448l1-2A1,1,0,0,0,41.447,34.1Z" fill="#252525"/>
        <path id="Trazado_897566" data-name="Trazado 897566" d="M32.316,20.949l3-1a1,1,0,0,0-.632-1.9l-3,1a1,1,0,0,0-.632,1.265A1.066,1.066,0,0,0,32.316,20.949Z" fill="#252525"/>
        <path id="Trazado_897567" data-name="Trazado 897567" d="M22.707,32.293a1,1,0,1,0-1.414,1.414l2,2a1,1,0,1,0,1.414-1.414Z" fill="#252525"/>
        <path id="Trazado_897568" data-name="Trazado 897568" d="M32.948,40.684a1,1,0,0,0-1.264-.633l-3,1a1,1,0,0,0-.632,1.265.97.97,0,0,0,1.264.633l3-1a1,1,0,0,0,.632-1.265Z" fill="#252525"/>
      </g>
    </g>
  </g>
</svg>
