<svg xmlns="http://www.w3.org/2000/svg" width="144" height="91.083" viewBox="0 0 144 91.083">
  <g id="Grupo_1108086" data-name="Grupo 1108086" transform="translate(-299.487 -2530)">
    <rect id="Rectángulo_401609" data-name="Rectángulo 401609" width="144" height="62" rx="31" transform="translate(299.487 2540.215)" fill="#af7839"/>
    <g id="aji-amarillo" transform="translate(326.214 2530)">
      <g id="Grupo_1108084" data-name="Grupo 1108084" transform="translate(1.357 1.338)">
        <g id="Grupo_1108083" data-name="Grupo 1108083">
          <g id="Grupo_1108068" data-name="Grupo 1108068" transform="translate(66.875 0)">
            <path id="Trazado_897628" data-name="Trazado 897628" d="M382.372,7.665v6.69l2.656,5.589,2.686-5.589V7.665Z" transform="translate(-382.372 -7.665)" fill="#6ad34d"/>
          </g>
          <g id="Grupo_1108069" data-name="Grupo 1108069" transform="translate(66.875)">
            <path id="Trazado_897629" data-name="Trazado 897629" d="M385.028,13.135l-2.6-5.47h-.056v6.69l2.656,5.589,2.686-5.589V7.665h-.057Z" transform="translate(-382.372 -7.665)" fill="#31a469"/>
          </g>
          <g id="Grupo_1108070" data-name="Grupo 1108070" transform="translate(0 14.174)">
            <path id="Trazado_897630" data-name="Trazado 897630" d="M88.323,87.357,66.353,87.1a19.155,19.155,0,0,0-7.865,15.356C60.462,143,36.1,150.577,8.693,158.213a1.578,1.578,0,0,0,.467,3.078c28.724.131,41.254-2.164,41.254-2.164,18.268-3.125,24.341-6.663,29.619-11.941C89.6,137.62,95.961,124,95.961,109.927c.3-9.047.184-16.827-7.638-22.571Z" transform="translate(-7.604 -87.098)" fill="#e8ab4c"/>
          </g>
          <g id="Grupo_1108071" data-name="Grupo 1108071" transform="translate(0 14.174)">
            <path id="Trazado_897631" data-name="Trazado 897631" d="M96.019,104.122a54.308,54.308,0,0,1-15.987,39.325c-10.088,10.034-26.957,12.839-55.149,13.918,24.289-8.433,38.605-22.625,37.432-53.663a18.389,18.389,0,0,1,3.6-11.017c.8-.855,4.359-4.323,5.3-5.043L66.354,87.1a19.341,19.341,0,0,0-7.789,13.594h0C60.518,140.425,39.985,149.584,11,157.566q-1.149.323-2.307.646a1.578,1.578,0,0,0,.467,3.078c38.574-.251,58.714-2.424,70.873-14.1,11.537-11.578,16.816-26.467,15.987-43.064Z" transform="translate(-7.604 -87.096)" fill="#e1763a"/>
          </g>
          <g id="Grupo_1108075" data-name="Grupo 1108075" transform="translate(54.787 32.348)">
            <g id="Grupo_1108074" data-name="Grupo 1108074">
              <g id="Grupo_1108072" data-name="Grupo 1108072" transform="translate(0.045)">
                <path id="Trazado_897632" data-name="Trazado 897632" d="M314.885,188.941h2.677v2.677h-2.677Z" transform="translate(-314.885 -188.941)" fill="#fff"/>
              </g>
              <g id="Grupo_1108073" data-name="Grupo 1108073" transform="translate(0 5.348)">
                <path id="Trazado_897633" data-name="Trazado 897633" d="M317.3,221.654l-2.674-.119c.034-.777.049-1.607.046-2.612l2.677-.009C317.357,219.963,317.341,220.834,317.3,221.654Z" transform="translate(-314.631 -218.914)" fill="#fff"/>
              </g>
            </g>
          </g>
          <g id="Grupo_1108076" data-name="Grupo 1108076" transform="translate(64.207 10.794)">
            <path id="Trazado_897634" data-name="Trazado 897634" d="M372.746,68.154a5.323,5.323,0,0,0-5.324,5.324c0,2.662,5.324,10.647,5.324,10.647s5.323-7.707,5.323-10.647A5.323,5.323,0,0,0,372.746,68.154Z" transform="translate(-367.422 -68.154)" fill="#6ad34d"/>
          </g>
          <g id="Grupo_1108077" data-name="Grupo 1108077" transform="translate(64.207 10.794)">
            <path id="Trazado_897635" data-name="Trazado 897635" d="M371.412,73.262a5.323,5.323,0,0,1,3.06-4.819,5.323,5.323,0,0,0-7.049,5.036c0,2.662,5.324,10.647,5.324,10.647s.972-1.407,2.085-3.248C373.3,78.326,371.412,74.848,371.412,73.262Z" transform="translate(-367.423 -68.155)" fill="#31a469"/>
          </g>
          <g id="Grupo_1108078" data-name="Grupo 1108078" transform="translate(52.356 5.47)">
            <path id="Trazado_897636" data-name="Trazado 897636" d="M316.841,43.815l.136-.171a5.323,5.323,0,0,0-5.323-5.324c-2.94,0-10.647,5.324-10.647,5.324s7.707,5.324,10.647,5.324a5.343,5.343,0,0,0,1.175-.13l.034-.042A5.325,5.325,0,0,1,316.841,43.815Z" transform="translate(-301.006 -38.321)" fill="#6ad34d"/>
          </g>
          <g id="Grupo_1108079" data-name="Grupo 1108079" transform="translate(52.356 5.47)">
            <path id="Trazado_897637" data-name="Trazado 897637" d="M316.521,41.491a5.323,5.323,0,0,0-4.868-3.17c-1.614,0-4.663,1.6-7.086,3.05-1.208.723-2.445,1.512-3.561,2.273,1.595.945,8.587,6.135,11.822,5.193l.034-.042a5.3,5.3,0,0,1,.961-2.88c-1.386-.117-3.616-1.194-5.657-2.347,2.241-1.286,4.78-2.533,6.2-2.533A5.3,5.3,0,0,1,316.521,41.491Z" transform="translate(-301.006 -38.321)" fill="#31a469"/>
          </g>
          <g id="Grupo_1108080" data-name="Grupo 1108080" transform="translate(70.735 5.47)">
            <path id="Trazado_897638" data-name="Trazado 897638" d="M404.141,43.815l-.136-.171a5.323,5.323,0,0,1,5.324-5.324c2.94,0,10.647,5.324,10.647,5.324s-7.707,5.324-10.647,5.324a5.343,5.343,0,0,1-1.175-.13l-.034-.042A5.325,5.325,0,0,0,404.141,43.815Z" transform="translate(-404.005 -38.321)" fill="#6ad34d"/>
          </g>
          <g id="Grupo_1108081" data-name="Grupo 1108081" transform="translate(70.736 5.612)">
            <path id="Trazado_897639" data-name="Trazado 897639" d="M419.965,44.287l-.141-.1c-.433-.294-1.736-1.167-3.321-2.117a50.08,50.08,0,0,1-5.581,3.13,5.33,5.33,0,0,0-3.532-3.02,3.7,3.7,0,0,1,.724-3.071,5.334,5.334,0,0,0-3.593,2.9h0a5.341,5.341,0,0,0-.513,2.282c1.977.837,4.056,2.355,4.115,5.151l.034.042c3.155,1.094,11.54-5.11,11.822-5.193l-.013-.009Z" transform="translate(-404.007 -39.114)" fill="#31a469"/>
          </g>
          <g id="Grupo_1108082" data-name="Grupo 1108082" transform="translate(68.192 14.72)">
            <path id="Trazado_897640" data-name="Trazado 897640" d="M389.755,90.154h2.677v2.677h-2.677Z" transform="translate(-389.755 -90.154)" fill="#fff"/>
          </g>
        </g>
      </g>
      <g id="Grupo_1108085" data-name="Grupo 1108085" transform="translate(0 0)">
        <path id="Trazado_897641" data-name="Trazado 897641" d="M84.457,16.162c3.112-1.83,3.937-2.482,5.961-3.864-2.944-1.752-10.679-8.326-15.506-6.172V.165H66.893V6.137c-4.83-2.19-12.58,4.4-15.536,6.16,2.046,1.4,2.9,2.072,6.071,3.928C44.621,28.2,56.793,42.51,44.787,61.3,35.547,76.458,24.523,78.315,9.13,83.34c-2.509.744-4.88,1.448-7.094,2.179a2.912,2.912,0,0,0,.86,5.689c12.908.2,27.5-.337,37.375-1.615l-.328-2.656a281.991,281.991,0,0,1-37.03,1.6.237.237,0,0,1-.047-.468c17.512-5.916,33.62-7.483,44.175-25.32,12.7-20.012.158-34.591,12.919-45.175a11.343,11.343,0,0,0,4.458,1.388,16.89,16.89,0,0,0,1.272,3.213l2.4-1.187A8.879,8.879,0,0,1,66.9,17.621c.094-5.237,7.877-5.237,7.97,0,0,1.45-2.07,5.231-3.982,8.222-.443-.692-.973-1.547-1.5-2.457l-2.315,1.344c2.249,3.77,2.4,3.808,3.813,5.894,1.732-2.612,4.974-6.848,6.465-11.665a11.564,11.564,0,0,0,4.576-1.442c6.792,5.243,6.706,13.217,6.447,20.991-1.5,22.839-12,42.621-40.484,47.215l.49,2.631c16.022-2.983,22.5-7.788,26.351-11.64,9.944-9.878,16.411-24.284,16.321-38.206.319-8.2.138-16.556-6.6-22.345ZM72.235,2.842V8.115a6.639,6.639,0,0,0-1.347,2.844h0A6.637,6.637,0,0,0,69.57,8.153V2.842ZM64.361,16.283c-1.452,0-5.236-2.072-8.228-3.985,4.892-2.937,10.088-6.756,12.131-.8A6.685,6.685,0,0,0,64.361,16.283Zm9.15-4.785c2.046-5.957,7.236-2.138,12.131.8-2.992,1.914-6.776,3.986-8.228,3.985A6.686,6.686,0,0,0,73.511,11.5Z" transform="translate(0 -0.165)"/>
        <path id="Trazado_897642" data-name="Trazado 897642" d="M238.7,482.611l.376,2.65c.915-.13,1.825-.268,2.7-.411l-.43-2.642C240.492,482.348,239.6,482.484,238.7,482.611Z" transform="translate(-196.108 -396.19)"/>
      </g>
    </g>
  </g>
</svg>
