<svg xmlns="http://www.w3.org/2000/svg" width="85" height="85" viewBox="0 0 85 85">
  <g id="Grupo_1108053" data-name="Grupo 1108053" transform="translate(-1230.051 -1433)">
    <circle id="Elipse_11498" data-name="Elipse 11498" cx="42.5" cy="42.5" r="42.5" transform="translate(1230.051 1433)" fill="#fcad53"/>
    <g id="molde-de-torta" transform="translate(1241.36 1361.434)">
      <path id="_x30_4" d="M12.974,193.688V208.7c0,5.735,13.043,10.38,29.129,10.38s29.133-4.645,29.133-10.38V193.688Z" transform="translate(-10.815 -87.275)" fill="#909bbc"/>
      <path id="_x30_3" d="M71.235,117.227c0,5.733-13.046,10.381-29.133,10.381s-29.129-4.648-29.129-10.381,13.043-10.38,29.129-10.38S71.235,111.495,71.235,117.227Z" transform="translate(-10.814 -10.814)" fill="#606680"/>
      <path id="_x30_2" d="M88.755,235.373a64.549,64.549,0,0,0,20.071,2.872,64.6,64.6,0,0,0,20.078-2.872,64.693,64.693,0,0,0-20.078-2.87A64.639,64.639,0,0,0,88.755,235.373Z" transform="translate(-77.538 -121.451)" fill="#5b5d64"/>
      <path id="_x30_1" d="M31.288,94.565c-14.832,0-30.6,4.152-30.6,11.848v15.014c0,7.7,15.764,11.848,30.6,11.848s30.6-4.152,30.6-11.848V106.413c0-7.7-15.764-11.848-30.6-11.848Zm0,2.936c16.3,0,27.665,4.7,27.665,8.911,0,2.087-2.793,4.292-7.587,5.987a66.851,66.851,0,0,0-20.078-2.816A66.811,66.811,0,0,0,11.214,112.4c-4.794-1.695-7.587-3.9-7.587-5.987C3.627,102.2,14.987,97.5,31.288,97.5ZM45.58,113.966a71.653,71.653,0,0,1-14.292,1.358,71.431,71.431,0,0,1-14.348-1.37,69.573,69.573,0,0,1,14.348-1.434A69.412,69.412,0,0,1,45.58,113.966ZM31.288,130.338c-16.3,0-27.661-4.7-27.661-8.911v-9.736c5.238,4.294,16.7,6.57,27.661,6.57s22.429-2.277,27.665-6.57v9.736c0,4.215-11.36,8.911-27.665,8.911Z"/>
    </g>
  </g>
</svg>
