<svg xmlns="http://www.w3.org/2000/svg" xmlns:xlink="http://www.w3.org/1999/xlink" width="54.229" height="73" viewBox="0 0 54.229 73">
  <defs>
    <filter id="Rectángulo_401320" x="0" y="0" width="36" height="73" filterUnits="userSpaceOnUse">
      <feOffset dy="3" input="SourceAlpha"/>
      <feGaussianBlur stdDeviation="3" result="blur"/>
      <feFlood flood-opacity="0.161"/>
      <feComposite operator="in" in2="blur"/>
      <feComposite in="SourceGraphic"/>
    </filter>
    <filter id="Rectángulo_401321" x="9" y="5" width="36" height="68" filterUnits="userSpaceOnUse">
      <feOffset dy="3" input="SourceAlpha"/>
      <feGaussianBlur stdDeviation="3" result="blur-2"/>
      <feFlood flood-opacity="0.161"/>
      <feComposite operator="in" in2="blur-2"/>
      <feComposite in="SourceGraphic"/>
    </filter>
  </defs>
  <g id="Grupo_1107629" data-name="Grupo 1107629" transform="translate(-181.73 -2027)">
    <g transform="matrix(1, 0, 0, 1, 181.73, 2027)" filter="url(#Rectángulo_401320)">
      <rect id="Rectángulo_401320-2" data-name="Rectángulo 401320" width="18" height="55" rx="2" transform="translate(9 6)" fill="#fddeb9"/>
    </g>
    <g transform="matrix(1, 0, 0, 1, 181.73, 2027)" filter="url(#Rectángulo_401321)">
      <rect id="Rectángulo_401321-2" data-name="Rectángulo 401321" width="18" height="50" rx="2" transform="translate(18 11)" fill="#feeedc"/>
    </g>
    <g id="cocinero_1_" data-name="cocinero (1)" transform="translate(180.256 2033.898)">
      <path id="Trazado_888672" data-name="Trazado 888672" d="M55.132,85.708A5.418,5.418,0,0,0,51,81.012L40.93,78.606l-.4-4.7h0a15.208,15.208,0,0,1-2.068,1.277,5.5,5.5,0,0,1-5,0A15.157,15.157,0,0,1,31.4,73.908h0l-.4,4.7L20.92,81.012a5.418,5.418,0,0,0-4.128,4.7l-.863,8.114H56Z" transform="translate(-1.022 -40.451)" fill="#feb983"/>
      <path id="Trazado_888673" data-name="Trazado 888673" d="M76.142,100.4H50.471V92.19l10.606-7.01,10.073,2.4a5.418,5.418,0,0,1,4.129,4.7Z" transform="translate(-21.169 -47.025)" fill="#edebed"/>
      <path id="Trazado_888674" data-name="Trazado 888674" d="M35.963,88.464,31,85.18l-10.073,2.4a5.418,5.418,0,0,0-4.13,4.7L15.93,100.4H30.324V92.19Z" transform="translate(-1.023 -47.025)" fill="#dbd9dc"/>
      <path id="Trazado_888675" data-name="Trazado 888675" d="M34.656,44.369s-2.33-1.118-3.114.944a3.1,3.1,0,0,0,3.8,4H54.611a3.1,3.1,0,0,0,3.8-4c-.784-2.061-3.114-.944-3.114-.944Z" transform="translate(-10.035 -23.045)" fill="#feb983"/>
      <path id="Trazado_888676" data-name="Trazado 888676" d="M39.241,36.381s3.567-2.247,10.318-2.247,10.318,2.247,10.318,2.247v2.195c0,8.115-4.765,11.85-7.819,13.411a5.5,5.5,0,0,1-5,0c-3.054-1.56-7.819-5.3-7.819-13.411Z" transform="translate(-14.619 -17.252)" fill="#fcd0a3"/>
      <path id="Trazado_888677" data-name="Trazado 888677" d="M36.714,20.15V13.073A3.629,3.629,0,1,1,41.37,7.667a3.626,3.626,0,0,1,5.662,0,3.626,3.626,0,0,1,5.662,0,3.629,3.629,0,1,1,4.656,5.406V20.15S53.783,17.9,47.032,17.9,36.714,20.15,36.714,20.15Z" transform="translate(-12.092 -1.021)" fill="#edebed"/>
      <path id="Trazado_888678" data-name="Trazado 888678" d="M39.241,31.715s3.567-2.247,10.318-2.247,10.318,2.247,10.318,2.247V28.381s-3.567-2.247-10.318-2.247-10.318,2.247-10.318,2.247Z" transform="translate(-14.619 -12.586)" fill="#dbd9dc"/>
      <g id="Grupo_1099823" data-name="Grupo 1099823" transform="translate(14.176 4.555)">
        <path id="Trazado_888679" data-name="Trazado 888679" d="M15.551,107.145a.731.731,0,0,0-.8.648l-.568,5.334a.73.73,0,0,0,.648.8c.026,0,.052,0,.078,0a.73.73,0,0,0,.724-.652l.568-5.334A.73.73,0,0,0,15.551,107.145Z" transform="translate(-14.176 -64.389)"/>
        <path id="Trazado_888680" data-name="Trazado 888680" d="M18.675,94.345a.729.729,0,0,0-1.019.162,6.118,6.118,0,0,0-.926,1.883.729.729,0,1,0,1.4.411,4.68,4.68,0,0,1,.708-1.437.729.729,0,0,0-.163-1.019Z" transform="translate(-15.649 -56.845)"/>
        <path id="Trazado_888681" data-name="Trazado 888681" d="M62.932,53.294l-.863-8.114a6.158,6.158,0,0,0-4.685-5.328l-9.561-2.284L47.5,33.793a14.327,14.327,0,0,0,4.815-6.73c.121.009.243.018.36.018a3.657,3.657,0,0,0,2.9-1.284,3.971,3.971,0,0,0,.711-3.789,2.546,2.546,0,0,0-1.426-1.529,3.038,3.038,0,0,0-1.641-.133v-7.9a4.357,4.357,0,0,0-1.892-7.84.73.73,0,0,0-.22,1.442,2.9,2.9,0,0,1,1.016,5.373.73.73,0,0,0-.362.63v2.558a23.762,23.762,0,0,0-9.589-1.791,23.762,23.762,0,0,0-9.589,1.791V12.052a.73.73,0,0,0-.362-.63,2.9,2.9,0,1,1,3.72-4.32.754.754,0,0,0,1.137,0,2.9,2.9,0,0,1,4.525,0,.753.753,0,0,0,1.137,0,2.9,2.9,0,0,1,4.525,0A.729.729,0,1,0,48.4,6.189,4.356,4.356,0,0,0,42.173,5.6a4.357,4.357,0,0,0-5.662,0,4.358,4.358,0,1,0-5.386,6.845v7.9a3.036,3.036,0,0,0-1.641.133,2.547,2.547,0,0,0-1.426,1.529A3.972,3.972,0,0,0,28.77,25.8a3.654,3.654,0,0,0,2.9,1.284c.118,0,.239-.009.36-.018a14.331,14.331,0,0,0,4.815,6.73l-.321,3.775L27.137,39.81a.729.729,0,0,0,.167,1.439.742.742,0,0,0,.17-.02l9.591-2.292,3.784,2.5L36.13,44.555a.729.729,0,0,0-.327.608V53.37a.729.729,0,1,0,1.459,0V45.556l10.017-6.618,9.766,2.334a4.7,4.7,0,0,1,3.573,4.064l.864,8.114a.729.729,0,0,0,.724.652.545.545,0,0,0,.078,0,.73.73,0,0,0,.648-.8ZM54.324,21.835a1.106,1.106,0,0,1,.6.692,2.52,2.52,0,0,1-.465,2.334,2.2,2.2,0,0,1-1.722.759,18.147,18.147,0,0,0,.474-3.779A1.853,1.853,0,0,1,54.324,21.835ZM42.173,14.277a21.454,21.454,0,0,1,9.589,1.95v1.716a23.762,23.762,0,0,0-9.589-1.791,23.762,23.762,0,0,0-9.589,1.791V16.227A21.469,21.469,0,0,1,42.173,14.277ZM29.888,24.859a2.518,2.518,0,0,1-.465-2.334,1.1,1.1,0,0,1,.6-.692,1.852,1.852,0,0,1,1.114.006,18.149,18.149,0,0,0,.474,3.779,2.2,2.2,0,0,1-1.722-.76Zm2.7-3.536V19.56a21.508,21.508,0,0,1,9.589-1.949,21.512,21.512,0,0,1,9.589,1.949v1.763c0,7.8-4.65,11.345-7.422,12.761a4.775,4.775,0,0,1-4.334,0C37.234,32.668,32.584,29.127,32.584,21.323Zm5.384,16.461.258-3.032c.391.242.768.452,1.116.63a6.238,6.238,0,0,0,5.661,0c.349-.178.725-.388,1.116-.63l.258,3.032-4.2,2.78Z" transform="translate(-21.409 -4.555)"/>
        <path id="Trazado_888682" data-name="Trazado 888682" d="M62.263,62.589a.729.729,0,1,0-.714-1.272,5.952,5.952,0,0,1-4.667,0,.73.73,0,0,0-.718,1.27,7.337,7.337,0,0,0,6.1,0Z" transform="translate(-38.449 -37.607)"/>
        <path id="Trazado_888683" data-name="Trazado 888683" d="M52.079,41.008a.729.729,0,1,0,.971-1.089,3.624,3.624,0,0,0-4.295,0,.723.723,0,0,0-.054,1.014.736.736,0,0,0,1.024.076,2.234,2.234,0,0,1,2.355,0Z" transform="translate(-34.207 -24.769)"/>
        <path id="Trazado_888684" data-name="Trazado 888684" d="M53.836,46.8A1.006,1.006,0,1,0,52.83,47.8,1.006,1.006,0,0,0,53.836,46.8Z" transform="translate(-36.134 -28.606)"/>
        <path id="Trazado_888685" data-name="Trazado 888685" d="M69.248,41.013a2.235,2.235,0,0,1,2.355,0,.729.729,0,0,0,.971-1.089,3.626,3.626,0,0,0-4.295,0,.723.723,0,0,0-.055,1.014A.736.736,0,0,0,69.248,41.013Z" transform="translate(-45.594 -24.774)"/>
        <circle id="Elipse_11491" data-name="Elipse 11491" cx="1.006" cy="1.006" r="1.006" transform="translate(23.818 19.191) rotate(-89.586)"/>
        <path id="Trazado_888686" data-name="Trazado 888686" d="M58.591,106.99A1.006,1.006,0,1,0,59.6,108,1.006,1.006,0,0,0,58.591,106.99Z" transform="translate(-39.495 -64.301)"/>
        <path id="Trazado_888687" data-name="Trazado 888687" d="M58.591,116.864A1.006,1.006,0,1,0,59.6,117.87,1.006,1.006,0,0,0,58.591,116.864Z" transform="translate(-39.495 -70.06)"/>
      </g>
    </g>
  </g>
</svg>
