<svg xmlns="http://www.w3.org/2000/svg" width="11.217" height="11.217" viewBox="0 0 11.217 11.217">
  <path id="microchip-solid" d="M9.114,1.052v9.114a1.052,1.052,0,0,1-1.052,1.052H3.155A1.052,1.052,0,0,1,2.1,10.165V1.052A1.052,1.052,0,0,1,3.155,0H8.062A1.052,1.052,0,0,1,9.114,1.052Zm2.1,1.271v.263a.131.131,0,0,1-.131.131h-.394v.131a.131.131,0,0,1-.131.131h-.92V1.928h.92a.131.131,0,0,1,.131.131v.131h.394a.131.131,0,0,1,.131.131Zm0,2.1v.263a.131.131,0,0,1-.131.131h-.394v.131a.131.131,0,0,1-.131.131h-.92V4.031h.92a.131.131,0,0,1,.131.131v.131h.394A.131.131,0,0,1,11.217,4.425Zm0,2.1v.263a.131.131,0,0,1-.131.131h-.394v.131a.131.131,0,0,1-.131.131h-.92V6.134h.92a.131.131,0,0,1,.131.131V6.4h.394A.131.131,0,0,1,11.217,6.529Zm0,2.1v.263a.131.131,0,0,1-.131.131h-.394v.131a.131.131,0,0,1-.131.131h-.92V8.237h.92a.131.131,0,0,1,.131.131V8.5h.394a.131.131,0,0,1,.131.131ZM.657,8.237h.92V9.289H.657a.131.131,0,0,1-.131-.131V9.026H.131A.131.131,0,0,1,0,8.895V8.632A.131.131,0,0,1,.131,8.5H.526V8.369a.131.131,0,0,1,.131-.131Zm0-2.1h.92V7.186H.657a.131.131,0,0,1-.131-.131V6.923H.131A.131.131,0,0,1,0,6.791V6.529A.131.131,0,0,1,.131,6.4H.526V6.266a.131.131,0,0,1,.131-.131Zm0-2.1h.92V5.083H.657a.131.131,0,0,1-.131-.131V4.82H.131A.131.131,0,0,1,0,4.688V4.425a.131.131,0,0,1,.131-.131H.526V4.162a.131.131,0,0,1,.131-.131Zm0-2.1h.92V2.979H.657a.131.131,0,0,1-.131-.131V2.717H.131A.131.131,0,0,1,0,2.585V2.322a.131.131,0,0,1,.131-.131H.526V2.059a.131.131,0,0,1,.131-.131Z" fill="#6e4874"/>
</svg>
